<svg xmlns="http://www.w3.org/2000/svg" viewBox="0 0 1019.84 359.4"><defs><style>.cls-1{font-size:10px;fill:#0e0f26;font-family:DomaineSansText-BlackItalic, Domaine Sans Text;font-style:italic;}.cls-2{letter-spacing:-0.01em;}.cls-3{letter-spacing:0.02em;}.cls-4{letter-spacing:-0.05em;}.cls-5{letter-spacing:0.01em;}.cls-6{letter-spacing:-0.03em;}.cls-7{letter-spacing:-0.01em;}.cls-8{letter-spacing:0em;}.cls-10,.cls-11,.cls-9{fill:none;stroke-miterlimit:10;}.cls-9{stroke:#0e0f26;}.cls-10{stroke:#f2af25;}.cls-11{stroke:#ef4747;}.cls-12{letter-spacing:-0.02em;}.cls-13{letter-spacing:-0.07em;}.cls-14{letter-spacing:-0.07em;}.cls-15{letter-spacing:-0.02em;}</style></defs><title>Europanew_1</title><g id="Livello_2" data-name="Livello 2"><g id="Livello_1-2" data-name="Livello 1"><text class="cls-1" transform="translate(1.84 8.5)"><tspan class="cls-2">E</tspan><tspan x="6.92" y="0">stonia</tspan></text><text class="cls-1" transform="translate(63.59 8.5)">S<tspan class="cls-3" x="6.71" y="0">v</tspan><tspan x="12.93" y="0">ezia</tspan></text><text class="cls-1" transform="translate(113.94 8.5)">Bulgaria</text><text class="cls-1" transform="translate(170.52 8.5)"><tspan class="cls-2">R</tspan><tspan x="7.73" y="0">omania</tspan></text><text class="cls-1" transform="translate(226.8 8.5)">Ungheria</text><text class="cls-1" transform="translate(292.3 8.5)"><tspan class="cls-2">R</tspan><tspan x="7.73" y="0">egno </tspan><tspan x="1.75" y="12">Unito</tspan></text><text class="cls-1" transform="translate(342.92 8.5)"><tspan class="cls-4">F</tspan><tspan x="6.17" y="0">rancia</tspan></text><text class="cls-1" transform="translate(390.89 8.5)"><tspan class="cls-5">D</tspan><tspan x="8.19" y="0">animarca</tspan></text><text class="cls-1" transform="translate(456.44 8.5)">Nor<tspan class="cls-3" x="20.1" y="0">v</tspan><tspan x="26.32" y="0">egia</tspan></text><text class="cls-1" transform="translate(513.7 8.5)"><tspan class="cls-6">L</tspan><tspan x="6.19" y="0">e</tspan><tspan class="cls-7" x="11.81" y="0">t</tspan><tspan x="16.79" y="0">tonia</tspan></text><text class="cls-1" transform="translate(573.28 8.5)">Spagna</text><text class="cls-1" transform="translate(628.03 8.5)">Slo<tspan class="cls-3" x="16.83" y="0">v</tspan><tspan x="23.05" y="0">enia</tspan></text><text class="cls-1" transform="translate(695.99 8.5)"><tspan class="cls-2">R</tspan><tspan x="7.73" y="0">e</tspan><tspan class="cls-5" x="13.35" y="0">p</tspan><tspan x="20.21" y="0">.</tspan><tspan x="-0.72" y="12">Ceca</tspan></text><text class="cls-1" transform="translate(735.47 8.5)">Finlandia</text><text class="cls-1" transform="translate(792.5 8.5)">Slo<tspan class="cls-8" x="16.83" y="0">v</tspan><tspan x="22.95" y="0">acchia</tspan></text><text class="cls-1" transform="translate(863.46 8.5)">Porto-<tspan x="3.86" y="12">gallo</tspan></text><text class="cls-1" transform="translate(920.52 8.5)">Italia</text><text class="cls-1" transform="translate(965.63 8.5)">Germania</text><rect class="cls-9" x="-140.73" y="171.54" width="329.1" height="45.28" transform="translate(-170.36 218.01) rotate(-90)"/><line class="cls-9" x1="1.19" y1="83.72" x2="46.46" y2="83.72"/><line class="cls-9" x1="1.19" y1="88.21" x2="46.46" y2="88.21"/><line class="cls-9" x1="1.19" y1="92.7" x2="46.46" y2="92.7"/><line class="cls-9" x1="1.19" y1="97.2" x2="46.46" y2="97.2"/><line class="cls-9" x1="1.19" y1="101.69" x2="46.46" y2="101.69"/><line class="cls-9" x1="1.19" y1="106.18" x2="46.46" y2="106.18"/><line class="cls-9" x1="1.19" y1="110.68" x2="46.46" y2="110.68"/><line class="cls-9" x1="1.19" y1="115.17" x2="46.46" y2="115.17"/><line class="cls-9" x1="1.19" y1="119.66" x2="46.46" y2="119.66"/><line class="cls-9" x1="1.19" y1="124.16" x2="46.46" y2="124.16"/><line class="cls-9" x1="1.19" y1="128.65" x2="46.46" y2="128.65"/><line class="cls-9" x1="1.19" y1="133.14" x2="46.46" y2="133.14"/><line class="cls-9" x1="1.19" y1="137.64" x2="46.46" y2="137.64"/><line class="cls-9" x1="1.19" y1="142.13" x2="46.46" y2="142.13"/><line class="cls-9" x1="1.19" y1="146.62" x2="46.46" y2="146.62"/><line class="cls-9" x1="1.19" y1="151.12" x2="46.46" y2="151.12"/><line class="cls-9" x1="1.19" y1="155.61" x2="46.46" y2="155.61"/><line class="cls-9" x1="1.19" y1="160.1" x2="46.46" y2="160.1"/><line class="cls-9" x1="1.19" y1="164.6" x2="46.46" y2="164.6"/><line class="cls-9" x1="1.19" y1="169.09" x2="46.46" y2="169.09"/><line class="cls-9" x1="1.19" y1="173.58" x2="46.46" y2="173.58"/><line class="cls-9" x1="1.19" y1="178.08" x2="46.46" y2="178.08"/><line class="cls-9" x1="1.19" y1="182.57" x2="46.46" y2="182.57"/><line class="cls-9" x1="1.19" y1="187.06" x2="46.46" y2="187.06"/><line class="cls-9" x1="1.19" y1="191.56" x2="46.46" y2="191.56"/><line class="cls-9" x1="1.19" y1="196.05" x2="46.46" y2="196.05"/><line class="cls-9" x1="1.19" y1="200.54" x2="46.46" y2="200.54"/><line class="cls-9" x1="1.19" y1="205.04" x2="46.46" y2="205.04"/><line class="cls-9" x1="1.19" y1="209.53" x2="46.46" y2="209.53"/><line class="cls-9" x1="1.19" y1="214.02" x2="46.46" y2="214.02"/><line class="cls-9" x1="1.19" y1="218.52" x2="46.46" y2="218.52"/><line class="cls-9" x1="1.19" y1="223.01" x2="46.46" y2="223.01"/><line class="cls-9" x1="1.19" y1="227.5" x2="46.46" y2="227.5"/><line class="cls-9" x1="1.19" y1="232" x2="46.46" y2="232"/><line class="cls-9" x1="1.19" y1="236.49" x2="46.46" y2="236.49"/><line class="cls-9" x1="1.19" y1="240.98" x2="46.46" y2="240.98"/><line class="cls-9" x1="1.19" y1="245.48" x2="46.46" y2="245.48"/><line class="cls-9" x1="1.19" y1="249.97" x2="46.46" y2="249.97"/><line class="cls-9" x1="1.19" y1="254.46" x2="46.46" y2="254.46"/><line class="cls-9" x1="1.19" y1="258.96" x2="46.46" y2="258.96"/><line class="cls-9" x1="1.19" y1="263.45" x2="46.46" y2="263.45"/><line class="cls-9" x1="1.19" y1="267.94" x2="46.46" y2="267.94"/><line class="cls-9" x1="1.19" y1="272.44" x2="46.46" y2="272.44"/><line class="cls-9" x1="1.19" y1="276.93" x2="46.46" y2="276.93"/><line class="cls-9" x1="1.19" y1="281.42" x2="46.46" y2="281.42"/><line class="cls-9" x1="1.19" y1="285.92" x2="46.46" y2="285.92"/><line class="cls-9" x1="1.19" y1="290.41" x2="46.46" y2="290.41"/><line class="cls-9" x1="1.19" y1="294.9" x2="46.46" y2="294.9"/><line class="cls-9" x1="1.19" y1="299.4" x2="46.46" y2="299.4"/><line class="cls-9" x1="1.19" y1="303.89" x2="46.46" y2="303.89"/><line class="cls-9" x1="1.19" y1="308.38" x2="46.46" y2="308.38"/><line class="cls-9" x1="1.19" y1="312.88" x2="46.46" y2="312.88"/><line class="cls-9" x1="1.19" y1="317.37" x2="46.46" y2="317.37"/><line class="cls-9" x1="1.19" y1="321.86" x2="46.46" y2="321.86"/><line class="cls-9" x1="1.19" y1="326.35" x2="46.46" y2="326.35"/><line class="cls-9" x1="1.19" y1="330.85" x2="46.46" y2="330.85"/><line class="cls-9" x1="1.19" y1="335.34" x2="46.46" y2="335.34"/><line class="cls-9" x1="1.19" y1="339.83" x2="46.46" y2="339.83"/><line class="cls-9" x1="1.19" y1="344.33" x2="46.46" y2="344.33"/><line class="cls-9" x1="1.19" y1="348.82" x2="46.46" y2="348.82"/><line class="cls-9" x1="1.19" y1="353.31" x2="46.46" y2="353.31"/><line class="cls-9" x1="1.19" y1="357.81" x2="46.46" y2="357.81"/><rect class="cls-10" x="-83.74" y="171.54" width="329.1" height="45.28" transform="translate(-113.37 274.99) rotate(-90)"/><line class="cls-10" x1="58.16" y1="130.7" x2="103.44" y2="130.7"/><line class="cls-10" x1="58.16" y1="135.13" x2="103.44" y2="135.13"/><line class="cls-10" x1="58.16" y1="139.56" x2="103.44" y2="139.56"/><line class="cls-10" x1="58.16" y1="143.99" x2="103.44" y2="143.99"/><line class="cls-10" x1="58.16" y1="148.42" x2="103.44" y2="148.42"/><line class="cls-10" x1="58.16" y1="152.85" x2="103.44" y2="152.85"/><line class="cls-10" x1="58.16" y1="157.28" x2="103.44" y2="157.28"/><line class="cls-10" x1="58.16" y1="161.71" x2="103.44" y2="161.71"/><line class="cls-10" x1="58.16" y1="166.15" x2="103.44" y2="166.15"/><line class="cls-10" x1="58.16" y1="170.58" x2="103.44" y2="170.58"/><line class="cls-10" x1="58.16" y1="175.01" x2="103.44" y2="175.01"/><line class="cls-10" x1="58.16" y1="179.44" x2="103.44" y2="179.44"/><line class="cls-10" x1="58.16" y1="183.87" x2="103.44" y2="183.87"/><line class="cls-10" x1="58.16" y1="188.3" x2="103.44" y2="188.3"/><line class="cls-10" x1="58.16" y1="192.73" x2="103.44" y2="192.73"/><line class="cls-10" x1="58.16" y1="197.16" x2="103.44" y2="197.16"/><line class="cls-10" x1="58.16" y1="201.59" x2="103.44" y2="201.59"/><line class="cls-10" x1="58.16" y1="206.03" x2="103.44" y2="206.03"/><line class="cls-10" x1="58.16" y1="210.46" x2="103.44" y2="210.46"/><line class="cls-10" x1="58.16" y1="214.89" x2="103.44" y2="214.89"/><line class="cls-10" x1="58.16" y1="219.32" x2="103.44" y2="219.32"/><line class="cls-10" x1="58.16" y1="223.75" x2="103.44" y2="223.75"/><line class="cls-10" x1="58.16" y1="228.18" x2="103.44" y2="228.18"/><line class="cls-10" x1="58.16" y1="232.61" x2="103.44" y2="232.61"/><line class="cls-10" x1="58.16" y1="237.04" x2="103.44" y2="237.04"/><line class="cls-10" x1="58.16" y1="241.47" x2="103.44" y2="241.47"/><line class="cls-10" x1="58.16" y1="245.9" x2="103.44" y2="245.9"/><line class="cls-10" x1="58.16" y1="250.34" x2="103.44" y2="250.34"/><line class="cls-10" x1="58.16" y1="254.77" x2="103.44" y2="254.77"/><line class="cls-10" x1="58.16" y1="259.2" x2="103.44" y2="259.2"/><line class="cls-10" x1="58.16" y1="263.63" x2="103.44" y2="263.63"/><line class="cls-10" x1="58.16" y1="268.06" x2="103.44" y2="268.06"/><line class="cls-10" x1="58.16" y1="272.49" x2="103.44" y2="272.49"/><line class="cls-10" x1="58.16" y1="276.92" x2="103.44" y2="276.92"/><line class="cls-10" x1="58.16" y1="281.35" x2="103.44" y2="281.35"/><line class="cls-10" x1="58.16" y1="285.78" x2="103.44" y2="285.78"/><line class="cls-10" x1="58.16" y1="290.21" x2="103.44" y2="290.21"/><line class="cls-10" x1="58.16" y1="294.65" x2="103.44" y2="294.65"/><line class="cls-10" x1="58.16" y1="299.08" x2="103.44" y2="299.08"/><line class="cls-10" x1="58.16" y1="303.51" x2="103.44" y2="303.51"/><line class="cls-10" x1="58.16" y1="307.94" x2="103.44" y2="307.94"/><line class="cls-10" x1="58.16" y1="312.37" x2="103.44" y2="312.37"/><line class="cls-10" x1="58.16" y1="316.8" x2="103.44" y2="316.8"/><line class="cls-10" x1="58.16" y1="321.23" x2="103.44" y2="321.23"/><line class="cls-10" x1="58.16" y1="325.66" x2="103.44" y2="325.66"/><line class="cls-10" x1="58.16" y1="330.09" x2="103.44" y2="330.09"/><line class="cls-10" x1="58.16" y1="334.53" x2="103.44" y2="334.53"/><line class="cls-10" x1="58.16" y1="338.96" x2="103.44" y2="338.96"/><line class="cls-10" x1="58.16" y1="343.39" x2="103.44" y2="343.39"/><line class="cls-10" x1="58.16" y1="347.82" x2="103.44" y2="347.82"/><line class="cls-10" x1="58.16" y1="352.25" x2="103.44" y2="352.25"/><line class="cls-10" x1="58.16" y1="356.68" x2="103.44" y2="356.68"/><rect class="cls-11" x="-26.89" y="171.54" width="329.1" height="45.28" transform="translate(-56.52 331.84) rotate(-90)"/><line class="cls-11" x1="115.27" y1="138.56" x2="160.55" y2="138.56"/><line class="cls-11" x1="115.27" y1="142.99" x2="160.55" y2="142.99"/><line class="cls-11" x1="115.27" y1="147.42" x2="160.55" y2="147.42"/><line class="cls-11" x1="115.27" y1="151.85" x2="160.55" y2="151.85"/><line class="cls-11" x1="115.27" y1="156.28" x2="160.55" y2="156.28"/><line class="cls-11" x1="115.27" y1="160.71" x2="160.55" y2="160.71"/><line class="cls-11" x1="115.27" y1="165.15" x2="160.55" y2="165.15"/><line class="cls-11" x1="115.27" y1="169.58" x2="160.55" y2="169.58"/><line class="cls-11" x1="115.27" y1="174.01" x2="160.55" y2="174.01"/><line class="cls-11" x1="115.27" y1="178.44" x2="160.55" y2="178.44"/><line class="cls-11" x1="115.27" y1="182.87" x2="160.55" y2="182.87"/><line class="cls-11" x1="115.27" y1="187.3" x2="160.55" y2="187.3"/><line class="cls-11" x1="115.27" y1="191.73" x2="160.55" y2="191.73"/><line class="cls-11" x1="115.27" y1="196.16" x2="160.55" y2="196.16"/><line class="cls-11" x1="115.27" y1="200.59" x2="160.55" y2="200.59"/><line class="cls-11" x1="115.27" y1="205.03" x2="160.55" y2="205.03"/><line class="cls-11" x1="115.27" y1="209.46" x2="160.55" y2="209.46"/><line class="cls-11" x1="115.27" y1="213.89" x2="160.55" y2="213.89"/><line class="cls-11" x1="115.27" y1="218.32" x2="160.55" y2="218.32"/><line class="cls-11" x1="115.27" y1="222.75" x2="160.55" y2="222.75"/><line class="cls-11" x1="115.27" y1="227.18" x2="160.55" y2="227.18"/><line class="cls-11" x1="115.27" y1="231.61" x2="160.55" y2="231.61"/><line class="cls-11" x1="115.27" y1="236.04" x2="160.55" y2="236.04"/><line class="cls-11" x1="115.27" y1="240.47" x2="160.55" y2="240.47"/><line class="cls-11" x1="115.27" y1="244.9" x2="160.55" y2="244.9"/><line class="cls-11" x1="115.27" y1="249.34" x2="160.55" y2="249.34"/><line class="cls-11" x1="115.27" y1="253.77" x2="160.55" y2="253.77"/><line class="cls-11" x1="115.27" y1="258.2" x2="160.55" y2="258.2"/><line class="cls-11" x1="115.27" y1="262.63" x2="160.55" y2="262.63"/><line class="cls-11" x1="115.27" y1="267.06" x2="160.55" y2="267.06"/><line class="cls-11" x1="115.27" y1="271.49" x2="160.55" y2="271.49"/><line class="cls-11" x1="115.27" y1="275.92" x2="160.55" y2="275.92"/><line class="cls-11" x1="115.27" y1="280.35" x2="160.55" y2="280.35"/><line class="cls-11" x1="115.27" y1="284.78" x2="160.55" y2="284.78"/><line class="cls-11" x1="115.27" y1="289.21" x2="160.55" y2="289.21"/><line class="cls-11" x1="115.27" y1="293.65" x2="160.55" y2="293.65"/><line class="cls-11" x1="115.27" y1="298.08" x2="160.55" y2="298.08"/><line class="cls-11" x1="115.27" y1="302.51" x2="160.55" y2="302.51"/><line class="cls-11" x1="115.27" y1="306.94" x2="160.55" y2="306.94"/><line class="cls-11" x1="115.27" y1="311.37" x2="160.55" y2="311.37"/><line class="cls-11" x1="115.27" y1="315.8" x2="160.55" y2="315.8"/><line class="cls-11" x1="115.27" y1="320.23" x2="160.55" y2="320.23"/><line class="cls-11" x1="115.27" y1="324.66" x2="160.55" y2="324.66"/><line class="cls-11" x1="115.27" y1="329.09" x2="160.55" y2="329.09"/><line class="cls-11" x1="115.27" y1="333.53" x2="160.55" y2="333.53"/><line class="cls-11" x1="115.27" y1="337.96" x2="160.55" y2="337.96"/><line class="cls-11" x1="115.27" y1="342.39" x2="160.55" y2="342.39"/><line class="cls-11" x1="115.27" y1="346.82" x2="160.55" y2="346.82"/><line class="cls-11" x1="115.27" y1="351.25" x2="160.55" y2="351.25"/><line class="cls-11" x1="115.27" y1="355.68" x2="160.55" y2="355.68"/><rect class="cls-9" x="30.22" y="171.54" width="329.1" height="45.28" transform="translate(0.59 388.95) rotate(-90)"/><line class="cls-9" x1="172.12" y1="177.44" x2="217.4" y2="177.44"/><line class="cls-9" x1="172.12" y1="181.87" x2="217.4" y2="181.87"/><line class="cls-9" x1="172.12" y1="186.3" x2="217.4" y2="186.3"/><line class="cls-9" x1="172.12" y1="190.73" x2="217.4" y2="190.73"/><line class="cls-9" x1="172.12" y1="195.16" x2="217.4" y2="195.16"/><line class="cls-9" x1="172.12" y1="199.59" x2="217.4" y2="199.59"/><line class="cls-9" x1="172.12" y1="204.03" x2="217.4" y2="204.03"/><line class="cls-9" x1="172.12" y1="208.46" x2="217.4" y2="208.46"/><line class="cls-9" x1="172.12" y1="212.89" x2="217.4" y2="212.89"/><line class="cls-9" x1="172.12" y1="217.32" x2="217.4" y2="217.32"/><line class="cls-9" x1="172.12" y1="221.75" x2="217.4" y2="221.75"/><line class="cls-9" x1="172.12" y1="226.18" x2="217.4" y2="226.18"/><line class="cls-9" x1="172.12" y1="230.61" x2="217.4" y2="230.61"/><line class="cls-9" x1="172.12" y1="235.04" x2="217.4" y2="235.04"/><line class="cls-9" x1="172.12" y1="239.47" x2="217.4" y2="239.47"/><line class="cls-9" x1="172.12" y1="243.9" x2="217.4" y2="243.9"/><line class="cls-9" x1="172.12" y1="248.34" x2="217.4" y2="248.34"/><line class="cls-9" x1="172.12" y1="252.77" x2="217.4" y2="252.77"/><line class="cls-9" x1="172.12" y1="257.2" x2="217.4" y2="257.2"/><line class="cls-9" x1="172.12" y1="261.63" x2="217.4" y2="261.63"/><line class="cls-9" x1="172.12" y1="266.06" x2="217.4" y2="266.06"/><line class="cls-9" x1="172.12" y1="270.49" x2="217.4" y2="270.49"/><line class="cls-9" x1="172.12" y1="274.92" x2="217.4" y2="274.92"/><line class="cls-9" x1="172.12" y1="279.35" x2="217.4" y2="279.35"/><line class="cls-9" x1="172.12" y1="283.78" x2="217.4" y2="283.78"/><line class="cls-9" x1="172.12" y1="288.21" x2="217.4" y2="288.21"/><line class="cls-9" x1="172.12" y1="292.65" x2="217.4" y2="292.65"/><line class="cls-9" x1="172.12" y1="297.08" x2="217.4" y2="297.08"/><line class="cls-9" x1="172.12" y1="301.51" x2="217.4" y2="301.51"/><line class="cls-9" x1="172.12" y1="305.94" x2="217.4" y2="305.94"/><line class="cls-9" x1="172.12" y1="310.37" x2="217.4" y2="310.37"/><line class="cls-9" x1="172.12" y1="314.8" x2="217.4" y2="314.8"/><line class="cls-9" x1="172.12" y1="319.23" x2="217.4" y2="319.23"/><line class="cls-9" x1="172.12" y1="323.66" x2="217.4" y2="323.66"/><line class="cls-9" x1="172.12" y1="328.09" x2="217.4" y2="328.09"/><line class="cls-9" x1="172.12" y1="332.53" x2="217.4" y2="332.53"/><line class="cls-9" x1="172.12" y1="336.96" x2="217.4" y2="336.96"/><line class="cls-9" x1="172.12" y1="341.39" x2="217.4" y2="341.39"/><line class="cls-9" x1="172.12" y1="345.82" x2="217.4" y2="345.82"/><line class="cls-9" x1="172.12" y1="350.25" x2="217.4" y2="350.25"/><line class="cls-9" x1="172.12" y1="354.68" x2="217.4" y2="354.68"/><rect class="cls-10" x="87.19" y="171.54" width="329.1" height="45.28" transform="translate(57.56 445.93) rotate(-90)"/><line class="cls-10" x1="229.1" y1="186.3" x2="274.38" y2="186.3"/><line class="cls-10" x1="229.1" y1="190.73" x2="274.38" y2="190.73"/><line class="cls-10" x1="229.1" y1="195.16" x2="274.38" y2="195.16"/><line class="cls-10" x1="229.1" y1="199.59" x2="274.38" y2="199.59"/><line class="cls-10" x1="229.1" y1="204.03" x2="274.38" y2="204.03"/><line class="cls-10" x1="229.1" y1="208.46" x2="274.38" y2="208.46"/><line class="cls-10" x1="229.1" y1="212.89" x2="274.38" y2="212.89"/><line class="cls-10" x1="229.1" y1="217.32" x2="274.38" y2="217.32"/><line class="cls-10" x1="229.1" y1="221.75" x2="274.38" y2="221.75"/><line class="cls-10" x1="229.1" y1="226.18" x2="274.38" y2="226.18"/><line class="cls-10" x1="229.1" y1="230.61" x2="274.38" y2="230.61"/><line class="cls-10" x1="229.1" y1="235.04" x2="274.38" y2="235.04"/><line class="cls-10" x1="229.1" y1="239.47" x2="274.38" y2="239.47"/><line class="cls-10" x1="229.1" y1="243.9" x2="274.38" y2="243.9"/><line class="cls-10" x1="229.1" y1="248.34" x2="274.38" y2="248.34"/><line class="cls-10" x1="229.1" y1="252.77" x2="274.38" y2="252.77"/><line class="cls-10" x1="229.1" y1="257.2" x2="274.38" y2="257.2"/><line class="cls-10" x1="229.1" y1="261.63" x2="274.38" y2="261.63"/><line class="cls-10" x1="229.1" y1="266.06" x2="274.38" y2="266.06"/><line class="cls-10" x1="229.1" y1="270.49" x2="274.38" y2="270.49"/><line class="cls-10" x1="229.1" y1="274.92" x2="274.38" y2="274.92"/><line class="cls-10" x1="229.1" y1="279.35" x2="274.38" y2="279.35"/><line class="cls-10" x1="229.1" y1="283.78" x2="274.38" y2="283.78"/><line class="cls-10" x1="229.1" y1="288.21" x2="274.38" y2="288.21"/><line class="cls-10" x1="229.1" y1="292.65" x2="274.38" y2="292.65"/><line class="cls-10" x1="229.1" y1="297.08" x2="274.38" y2="297.08"/><line class="cls-10" x1="229.1" y1="301.51" x2="274.38" y2="301.51"/><line class="cls-10" x1="229.1" y1="305.94" x2="274.38" y2="305.94"/><line class="cls-10" x1="229.1" y1="310.37" x2="274.38" y2="310.37"/><line class="cls-10" x1="229.1" y1="314.8" x2="274.38" y2="314.8"/><line class="cls-10" x1="229.1" y1="319.23" x2="274.38" y2="319.23"/><line class="cls-10" x1="229.1" y1="323.66" x2="274.38" y2="323.66"/><line class="cls-10" x1="229.1" y1="328.09" x2="274.38" y2="328.09"/><line class="cls-10" x1="229.1" y1="332.53" x2="274.38" y2="332.53"/><line class="cls-10" x1="229.1" y1="336.96" x2="274.38" y2="336.96"/><line class="cls-10" x1="229.1" y1="341.39" x2="274.38" y2="341.39"/><line class="cls-10" x1="229.1" y1="345.82" x2="274.38" y2="345.82"/><line class="cls-10" x1="229.1" y1="350.25" x2="274.38" y2="350.25"/><line class="cls-10" x1="229.1" y1="354.68" x2="274.38" y2="354.68"/><rect class="cls-11" x="144.18" y="171.54" width="329.1" height="45.28" transform="translate(114.55 502.91) rotate(-90)"/><line class="cls-11" x1="286.08" y1="187.3" x2="331.36" y2="187.3"/><line class="cls-11" x1="286.08" y1="191.73" x2="331.36" y2="191.73"/><line class="cls-11" x1="286.08" y1="196.16" x2="331.36" y2="196.16"/><line class="cls-11" x1="286.08" y1="200.59" x2="331.36" y2="200.59"/><line class="cls-11" x1="286.08" y1="205.03" x2="331.36" y2="205.03"/><line class="cls-11" x1="286.08" y1="209.46" x2="331.36" y2="209.46"/><line class="cls-11" x1="286.08" y1="213.89" x2="331.36" y2="213.89"/><line class="cls-11" x1="286.08" y1="218.32" x2="331.36" y2="218.32"/><line class="cls-11" x1="286.08" y1="222.75" x2="331.36" y2="222.75"/><line class="cls-11" x1="286.08" y1="227.18" x2="331.36" y2="227.18"/><line class="cls-11" x1="286.08" y1="231.61" x2="331.36" y2="231.61"/><line class="cls-11" x1="286.08" y1="236.04" x2="331.36" y2="236.04"/><line class="cls-11" x1="286.08" y1="240.47" x2="331.36" y2="240.47"/><line class="cls-11" x1="286.08" y1="244.9" x2="331.36" y2="244.9"/><line class="cls-11" x1="286.08" y1="249.34" x2="331.36" y2="249.34"/><line class="cls-11" x1="286.08" y1="253.77" x2="331.36" y2="253.77"/><line class="cls-11" x1="286.08" y1="258.2" x2="331.36" y2="258.2"/><line class="cls-11" x1="286.08" y1="262.63" x2="331.36" y2="262.63"/><line class="cls-11" x1="286.08" y1="267.06" x2="331.36" y2="267.06"/><line class="cls-11" x1="286.08" y1="271.49" x2="331.36" y2="271.49"/><line class="cls-11" x1="286.08" y1="275.92" x2="331.36" y2="275.92"/><line class="cls-11" x1="286.08" y1="280.35" x2="331.36" y2="280.35"/><line class="cls-11" x1="286.08" y1="284.78" x2="331.36" y2="284.78"/><line class="cls-11" x1="286.08" y1="289.21" x2="331.36" y2="289.21"/><line class="cls-11" x1="286.08" y1="293.65" x2="331.36" y2="293.65"/><line class="cls-11" x1="286.08" y1="298.08" x2="331.36" y2="298.08"/><line class="cls-11" x1="286.08" y1="302.51" x2="331.36" y2="302.51"/><line class="cls-11" x1="286.08" y1="306.94" x2="331.36" y2="306.94"/><line class="cls-11" x1="286.08" y1="311.37" x2="331.36" y2="311.37"/><line class="cls-11" x1="286.08" y1="315.8" x2="331.36" y2="315.8"/><line class="cls-11" x1="286.08" y1="320.23" x2="331.36" y2="320.23"/><line class="cls-11" x1="286.08" y1="324.66" x2="331.36" y2="324.66"/><line class="cls-11" x1="286.08" y1="329.09" x2="331.36" y2="329.09"/><line class="cls-11" x1="286.08" y1="333.53" x2="331.36" y2="333.53"/><line class="cls-11" x1="286.08" y1="337.96" x2="331.36" y2="337.96"/><line class="cls-11" x1="286.08" y1="342.39" x2="331.36" y2="342.39"/><line class="cls-11" x1="286.08" y1="346.82" x2="331.36" y2="346.82"/><line class="cls-11" x1="286.08" y1="351.25" x2="331.36" y2="351.25"/><line class="cls-11" x1="286.08" y1="355.68" x2="331.36" y2="355.68"/><rect class="cls-9" x="201.15" y="171.54" width="329.1" height="45.28" transform="translate(171.52 559.89) rotate(-90)"/><line class="cls-9" x1="343.06" y1="195.16" x2="388.34" y2="195.16"/><line class="cls-9" x1="343.06" y1="199.59" x2="388.34" y2="199.59"/><line class="cls-9" x1="343.06" y1="204.03" x2="388.34" y2="204.03"/><line class="cls-9" x1="343.06" y1="208.46" x2="388.34" y2="208.46"/><line class="cls-9" x1="343.06" y1="212.89" x2="388.34" y2="212.89"/><line class="cls-9" x1="343.06" y1="217.32" x2="388.34" y2="217.32"/><line class="cls-9" x1="343.06" y1="221.75" x2="388.34" y2="221.75"/><line class="cls-9" x1="343.06" y1="226.18" x2="388.34" y2="226.18"/><line class="cls-9" x1="343.06" y1="230.61" x2="388.34" y2="230.61"/><line class="cls-9" x1="343.06" y1="235.04" x2="388.34" y2="235.04"/><line class="cls-9" x1="343.06" y1="239.47" x2="388.34" y2="239.47"/><line class="cls-9" x1="343.06" y1="243.9" x2="388.34" y2="243.9"/><line class="cls-9" x1="343.06" y1="248.34" x2="388.34" y2="248.34"/><line class="cls-9" x1="343.06" y1="252.77" x2="388.34" y2="252.77"/><line class="cls-9" x1="343.06" y1="257.2" x2="388.34" y2="257.2"/><line class="cls-9" x1="343.06" y1="261.63" x2="388.34" y2="261.63"/><line class="cls-9" x1="343.06" y1="266.06" x2="388.34" y2="266.06"/><line class="cls-9" x1="343.06" y1="270.49" x2="388.34" y2="270.49"/><line class="cls-9" x1="343.06" y1="274.92" x2="388.34" y2="274.92"/><line class="cls-9" x1="343.06" y1="279.35" x2="388.34" y2="279.35"/><line class="cls-9" x1="343.06" y1="283.78" x2="388.34" y2="283.78"/><line class="cls-9" x1="343.06" y1="288.21" x2="388.34" y2="288.21"/><line class="cls-9" x1="343.06" y1="292.65" x2="388.34" y2="292.65"/><line class="cls-9" x1="343.06" y1="297.08" x2="388.34" y2="297.08"/><line class="cls-9" x1="343.06" y1="301.51" x2="388.34" y2="301.51"/><line class="cls-9" x1="343.06" y1="305.94" x2="388.34" y2="305.94"/><line class="cls-9" x1="343.06" y1="310.37" x2="388.34" y2="310.37"/><line class="cls-9" x1="343.06" y1="314.8" x2="388.34" y2="314.8"/><line class="cls-9" x1="343.06" y1="319.23" x2="388.34" y2="319.23"/><line class="cls-9" x1="343.06" y1="323.66" x2="388.34" y2="323.66"/><line class="cls-9" x1="343.06" y1="328.09" x2="388.34" y2="328.09"/><line class="cls-9" x1="343.06" y1="332.53" x2="388.34" y2="332.53"/><line class="cls-9" x1="343.06" y1="336.96" x2="388.34" y2="336.96"/><line class="cls-9" x1="343.06" y1="341.39" x2="388.34" y2="341.39"/><line class="cls-9" x1="343.06" y1="345.82" x2="388.34" y2="345.82"/><line class="cls-9" x1="343.06" y1="350.25" x2="388.34" y2="350.25"/><line class="cls-9" x1="343.06" y1="354.68" x2="388.34" y2="354.68"/><rect class="cls-10" x="258.14" y="171.54" width="329.1" height="45.28" transform="translate(228.51 616.87) rotate(-90)"/><line class="cls-10" x1="400.04" y1="199.59" x2="445.32" y2="199.59"/><line class="cls-10" x1="400.04" y1="204.03" x2="445.32" y2="204.03"/><line class="cls-10" x1="400.04" y1="208.46" x2="445.32" y2="208.46"/><line class="cls-10" x1="400.04" y1="212.89" x2="445.32" y2="212.89"/><line class="cls-10" x1="400.04" y1="217.32" x2="445.32" y2="217.32"/><line class="cls-10" x1="400.04" y1="221.75" x2="445.32" y2="221.75"/><line class="cls-10" x1="400.04" y1="226.18" x2="445.32" y2="226.18"/><line class="cls-10" x1="400.04" y1="230.61" x2="445.32" y2="230.61"/><line class="cls-10" x1="400.04" y1="235.04" x2="445.32" y2="235.04"/><line class="cls-10" x1="400.04" y1="239.47" x2="445.32" y2="239.47"/><line class="cls-10" x1="400.04" y1="243.9" x2="445.32" y2="243.9"/><line class="cls-10" x1="400.04" y1="248.34" x2="445.32" y2="248.34"/><line class="cls-10" x1="400.04" y1="252.77" x2="445.32" y2="252.77"/><line class="cls-10" x1="400.04" y1="257.2" x2="445.32" y2="257.2"/><line class="cls-10" x1="400.04" y1="261.63" x2="445.32" y2="261.63"/><line class="cls-10" x1="400.04" y1="266.06" x2="445.32" y2="266.06"/><line class="cls-10" x1="400.04" y1="270.49" x2="445.32" y2="270.49"/><line class="cls-10" x1="400.04" y1="274.92" x2="445.32" y2="274.92"/><line class="cls-10" x1="400.04" y1="279.35" x2="445.32" y2="279.35"/><line class="cls-10" x1="400.04" y1="283.78" x2="445.32" y2="283.78"/><line class="cls-10" x1="400.04" y1="288.21" x2="445.32" y2="288.21"/><line class="cls-10" x1="400.04" y1="292.65" x2="445.32" y2="292.65"/><line class="cls-10" x1="400.04" y1="297.08" x2="445.32" y2="297.08"/><line class="cls-10" x1="400.04" y1="301.51" x2="445.32" y2="301.51"/><line class="cls-10" x1="400.04" y1="305.94" x2="445.32" y2="305.94"/><line class="cls-10" x1="400.04" y1="310.37" x2="445.32" y2="310.37"/><line class="cls-10" x1="400.04" y1="314.8" x2="445.32" y2="314.8"/><line class="cls-10" x1="400.04" y1="319.23" x2="445.32" y2="319.23"/><line class="cls-10" x1="400.04" y1="323.66" x2="445.32" y2="323.66"/><line class="cls-10" x1="400.04" y1="328.09" x2="445.32" y2="328.09"/><line class="cls-10" x1="400.04" y1="332.53" x2="445.32" y2="332.53"/><line class="cls-10" x1="400.04" y1="336.96" x2="445.32" y2="336.96"/><line class="cls-10" x1="400.04" y1="341.39" x2="445.32" y2="341.39"/><line class="cls-10" x1="400.04" y1="345.82" x2="445.32" y2="345.82"/><line class="cls-10" x1="400.04" y1="350.25" x2="445.32" y2="350.25"/><line class="cls-10" x1="400.04" y1="354.68" x2="445.32" y2="354.68"/><rect class="cls-11" x="315.12" y="171.54" width="329.1" height="45.28" transform="translate(285.49 673.85) rotate(-90)"/><line class="cls-11" x1="457.02" y1="216.32" x2="502.3" y2="216.32"/><line class="cls-11" x1="457.02" y1="220.75" x2="502.3" y2="220.75"/><line class="cls-11" x1="457.02" y1="225.18" x2="502.3" y2="225.18"/><line class="cls-11" x1="457.02" y1="229.61" x2="502.3" y2="229.61"/><line class="cls-11" x1="457.02" y1="234.04" x2="502.3" y2="234.04"/><line class="cls-11" x1="457.02" y1="238.47" x2="502.3" y2="238.47"/><line class="cls-11" x1="457.02" y1="242.9" x2="502.3" y2="242.9"/><line class="cls-11" x1="457.02" y1="247.34" x2="502.3" y2="247.34"/><line class="cls-11" x1="457.02" y1="251.77" x2="502.3" y2="251.77"/><line class="cls-11" x1="457.02" y1="256.2" x2="502.3" y2="256.2"/><line class="cls-11" x1="457.02" y1="260.63" x2="502.3" y2="260.63"/><line class="cls-11" x1="457.02" y1="265.06" x2="502.3" y2="265.06"/><line class="cls-11" x1="457.02" y1="269.49" x2="502.3" y2="269.49"/><line class="cls-11" x1="457.02" y1="273.92" x2="502.3" y2="273.92"/><line class="cls-11" x1="457.02" y1="278.35" x2="502.3" y2="278.35"/><line class="cls-11" x1="457.02" y1="282.78" x2="502.3" y2="282.78"/><line class="cls-11" x1="457.02" y1="287.21" x2="502.3" y2="287.21"/><line class="cls-11" x1="457.02" y1="291.65" x2="502.3" y2="291.65"/><line class="cls-11" x1="457.02" y1="296.08" x2="502.3" y2="296.08"/><line class="cls-11" x1="457.02" y1="300.51" x2="502.3" y2="300.51"/><line class="cls-11" x1="457.02" y1="304.94" x2="502.3" y2="304.94"/><line class="cls-11" x1="457.02" y1="309.37" x2="502.3" y2="309.37"/><line class="cls-11" x1="457.02" y1="313.8" x2="502.3" y2="313.8"/><line class="cls-11" x1="457.02" y1="318.23" x2="502.3" y2="318.23"/><line class="cls-11" x1="457.02" y1="322.66" x2="502.3" y2="322.66"/><line class="cls-11" x1="457.02" y1="327.09" x2="502.3" y2="327.09"/><line class="cls-11" x1="457.02" y1="331.53" x2="502.3" y2="331.53"/><line class="cls-11" x1="457.02" y1="335.96" x2="502.3" y2="335.96"/><line class="cls-11" x1="457.02" y1="340.39" x2="502.3" y2="340.39"/><line class="cls-11" x1="457.02" y1="344.82" x2="502.3" y2="344.82"/><line class="cls-11" x1="457.02" y1="349.25" x2="502.3" y2="349.25"/><line class="cls-11" x1="457.02" y1="353.68" x2="502.3" y2="353.68"/><rect class="cls-11" x="485.92" y="171.54" width="329.1" height="45.28" transform="translate(456.29 844.65) rotate(-90)"/><line class="cls-11" x1="628.09" y1="248.69" x2="673.37" y2="248.69"/><line class="cls-11" x1="628.09" y1="253.12" x2="673.37" y2="253.12"/><line class="cls-11" x1="628.09" y1="257.55" x2="673.37" y2="257.55"/><line class="cls-11" x1="628.09" y1="261.98" x2="673.37" y2="261.98"/><line class="cls-11" x1="628.09" y1="266.41" x2="673.37" y2="266.41"/><line class="cls-11" x1="628.09" y1="270.84" x2="673.37" y2="270.84"/><line class="cls-11" x1="628.09" y1="275.28" x2="673.37" y2="275.28"/><line class="cls-11" x1="628.09" y1="279.71" x2="673.37" y2="279.71"/><line class="cls-11" x1="628.09" y1="284.14" x2="673.37" y2="284.14"/><line class="cls-11" x1="628.09" y1="288.57" x2="673.37" y2="288.57"/><line class="cls-11" x1="628.09" y1="293" x2="673.37" y2="293"/><line class="cls-11" x1="628.09" y1="297.43" x2="673.37" y2="297.43"/><line class="cls-11" x1="628.09" y1="301.86" x2="673.37" y2="301.86"/><line class="cls-11" x1="628.09" y1="306.29" x2="673.37" y2="306.29"/><line class="cls-11" x1="628.09" y1="310.72" x2="673.37" y2="310.72"/><line class="cls-11" x1="628.09" y1="315.15" x2="673.37" y2="315.15"/><line class="cls-11" x1="628.09" y1="319.59" x2="673.37" y2="319.59"/><line class="cls-11" x1="628.09" y1="324.02" x2="673.37" y2="324.02"/><line class="cls-11" x1="628.09" y1="328.45" x2="673.37" y2="328.45"/><line class="cls-11" x1="628.09" y1="332.88" x2="673.37" y2="332.88"/><line class="cls-11" x1="628.09" y1="337.31" x2="673.37" y2="337.31"/><line class="cls-11" x1="628.09" y1="341.74" x2="673.37" y2="341.74"/><line class="cls-11" x1="628.09" y1="346.17" x2="673.37" y2="346.17"/><line class="cls-11" x1="628.09" y1="350.6" x2="673.37" y2="350.6"/><line class="cls-11" x1="628.09" y1="355.03" x2="673.37" y2="355.03"/><rect class="cls-9" x="543.03" y="171.54" width="329.1" height="45.28" transform="translate(513.4 901.77) rotate(-90)"/><line class="cls-9" x1="684.94" y1="251.12" x2="730.22" y2="251.12"/><line class="cls-9" x1="684.94" y1="255.55" x2="730.22" y2="255.55"/><line class="cls-9" x1="684.94" y1="259.98" x2="730.22" y2="259.98"/><line class="cls-9" x1="684.94" y1="264.41" x2="730.22" y2="264.41"/><line class="cls-9" x1="684.94" y1="268.84" x2="730.22" y2="268.84"/><line class="cls-9" x1="684.94" y1="273.28" x2="730.22" y2="273.28"/><line class="cls-9" x1="684.94" y1="277.71" x2="730.22" y2="277.71"/><line class="cls-9" x1="684.94" y1="282.14" x2="730.22" y2="282.14"/><line class="cls-9" x1="684.94" y1="286.57" x2="730.22" y2="286.57"/><line class="cls-9" x1="684.94" y1="291" x2="730.22" y2="291"/><line class="cls-9" x1="684.94" y1="295.43" x2="730.22" y2="295.43"/><line class="cls-9" x1="684.94" y1="299.86" x2="730.22" y2="299.86"/><line class="cls-9" x1="684.94" y1="304.29" x2="730.22" y2="304.29"/><line class="cls-9" x1="684.94" y1="308.72" x2="730.22" y2="308.72"/><line class="cls-9" x1="684.94" y1="313.15" x2="730.22" y2="313.15"/><line class="cls-9" x1="684.94" y1="317.59" x2="730.22" y2="317.59"/><line class="cls-9" x1="684.94" y1="322.02" x2="730.22" y2="322.02"/><line class="cls-9" x1="684.94" y1="326.45" x2="730.22" y2="326.45"/><line class="cls-9" x1="684.94" y1="330.88" x2="730.22" y2="330.88"/><line class="cls-9" x1="684.94" y1="335.31" x2="730.22" y2="335.31"/><line class="cls-9" x1="684.94" y1="339.74" x2="730.22" y2="339.74"/><line class="cls-9" x1="684.94" y1="344.17" x2="730.22" y2="344.17"/><line class="cls-9" x1="684.94" y1="348.6" x2="730.22" y2="348.6"/><line class="cls-9" x1="684.94" y1="353.03" x2="730.22" y2="353.03"/><line class="cls-9" x1="684.94" y1="356.25" x2="730.22" y2="356.25"/><rect class="cls-11" x="657" y="171.54" width="329.1" height="45.28" transform="translate(627.37 1015.73) rotate(-90)"/><line class="cls-11" x1="798.9" y1="269.84" x2="844.18" y2="269.84"/><line class="cls-11" x1="798.9" y1="274.28" x2="844.18" y2="274.28"/><line class="cls-11" x1="798.9" y1="278.71" x2="844.18" y2="278.71"/><line class="cls-11" x1="798.9" y1="283.14" x2="844.18" y2="283.14"/><line class="cls-11" x1="798.9" y1="287.57" x2="844.18" y2="287.57"/><line class="cls-11" x1="798.9" y1="292" x2="844.18" y2="292"/><line class="cls-11" x1="798.9" y1="296.43" x2="844.18" y2="296.43"/><line class="cls-11" x1="798.9" y1="300.86" x2="844.18" y2="300.86"/><line class="cls-11" x1="798.9" y1="305.29" x2="844.18" y2="305.29"/><line class="cls-11" x1="798.9" y1="309.72" x2="844.18" y2="309.72"/><line class="cls-11" x1="798.9" y1="314.15" x2="844.18" y2="314.15"/><line class="cls-11" x1="798.9" y1="318.59" x2="844.18" y2="318.59"/><line class="cls-11" x1="798.9" y1="323.02" x2="844.18" y2="323.02"/><line class="cls-11" x1="798.9" y1="327.45" x2="844.18" y2="327.45"/><line class="cls-11" x1="798.9" y1="331.88" x2="844.18" y2="331.88"/><line class="cls-11" x1="798.9" y1="336.31" x2="844.18" y2="336.31"/><line class="cls-11" x1="798.9" y1="340.74" x2="844.18" y2="340.74"/><line class="cls-11" x1="798.9" y1="345.17" x2="844.18" y2="345.17"/><line class="cls-11" x1="798.9" y1="349.6" x2="844.18" y2="349.6"/><line class="cls-11" x1="798.9" y1="354.03" x2="844.18" y2="354.03"/><rect class="cls-9" x="713.98" y="171.54" width="329.1" height="45.28" transform="translate(684.35 1072.71) rotate(-90)"/><line class="cls-9" x1="855.88" y1="269.84" x2="901.16" y2="269.84"/><line class="cls-9" x1="855.88" y1="274.28" x2="901.16" y2="274.28"/><line class="cls-9" x1="855.88" y1="278.71" x2="901.16" y2="278.71"/><line class="cls-9" x1="855.88" y1="283.14" x2="901.16" y2="283.14"/><line class="cls-9" x1="855.88" y1="287.57" x2="901.16" y2="287.57"/><line class="cls-9" x1="855.88" y1="292" x2="901.16" y2="292"/><line class="cls-9" x1="855.88" y1="296.43" x2="901.16" y2="296.43"/><line class="cls-9" x1="855.88" y1="300.86" x2="901.16" y2="300.86"/><line class="cls-9" x1="855.88" y1="305.29" x2="901.16" y2="305.29"/><line class="cls-9" x1="855.88" y1="309.72" x2="901.16" y2="309.72"/><line class="cls-9" x1="855.88" y1="314.15" x2="901.16" y2="314.15"/><line class="cls-9" x1="855.88" y1="318.59" x2="901.16" y2="318.59"/><line class="cls-9" x1="855.88" y1="323.02" x2="901.16" y2="323.02"/><line class="cls-9" x1="855.88" y1="327.45" x2="901.16" y2="327.45"/><line class="cls-9" x1="855.88" y1="331.88" x2="901.16" y2="331.88"/><line class="cls-9" x1="855.88" y1="336.31" x2="901.16" y2="336.31"/><line class="cls-9" x1="855.88" y1="340.74" x2="901.16" y2="340.74"/><line class="cls-9" x1="855.88" y1="345.17" x2="901.16" y2="345.17"/><line class="cls-9" x1="855.88" y1="349.6" x2="901.16" y2="349.6"/><line class="cls-9" x1="855.88" y1="354.03" x2="901.16" y2="354.03"/><rect class="cls-10" x="770.95" y="171.54" width="329.1" height="45.28" transform="translate(741.32 1129.69) rotate(-90)"/><line class="cls-10" x1="912.86" y1="271.28" x2="958.14" y2="271.28"/><line class="cls-10" x1="912.86" y1="275.71" x2="958.14" y2="275.71"/><line class="cls-10" x1="912.86" y1="280.14" x2="958.14" y2="280.14"/><line class="cls-10" x1="912.86" y1="284.57" x2="958.14" y2="284.57"/><line class="cls-10" x1="912.86" y1="289" x2="958.14" y2="289"/><line class="cls-10" x1="912.86" y1="293.43" x2="958.14" y2="293.43"/><line class="cls-10" x1="912.86" y1="297.86" x2="958.14" y2="297.86"/><line class="cls-10" x1="912.86" y1="302.29" x2="958.14" y2="302.29"/><line class="cls-10" x1="912.86" y1="306.72" x2="958.14" y2="306.72"/><line class="cls-10" x1="912.86" y1="311.15" x2="958.14" y2="311.15"/><line class="cls-10" x1="912.86" y1="315.59" x2="958.14" y2="315.59"/><line class="cls-10" x1="912.86" y1="320.02" x2="958.14" y2="320.02"/><line class="cls-10" x1="912.86" y1="324.45" x2="958.14" y2="324.45"/><line class="cls-10" x1="912.86" y1="328.88" x2="958.14" y2="328.88"/><line class="cls-10" x1="912.86" y1="333.31" x2="958.14" y2="333.31"/><line class="cls-10" x1="912.86" y1="337.74" x2="958.14" y2="337.74"/><line class="cls-10" x1="912.86" y1="342.17" x2="958.14" y2="342.17"/><line class="cls-10" x1="912.86" y1="346.6" x2="958.14" y2="346.6"/><line class="cls-10" x1="912.86" y1="351.03" x2="958.14" y2="351.03"/><line class="cls-10" x1="912.86" y1="355.03" x2="958.14" y2="355.03"/><rect class="cls-11" x="827.94" y="171.54" width="329.1" height="45.28" transform="translate(798.31 1186.67) rotate(-90)"/><line class="cls-11" x1="969.84" y1="283.57" x2="1015.12" y2="283.57"/><line class="cls-11" x1="969.84" y1="288" x2="1015.12" y2="288"/><line class="cls-11" x1="969.84" y1="292.43" x2="1015.12" y2="292.43"/><line class="cls-11" x1="969.84" y1="296.86" x2="1015.12" y2="296.86"/><line class="cls-11" x1="969.84" y1="301.29" x2="1015.12" y2="301.29"/><line class="cls-11" x1="969.84" y1="305.72" x2="1015.12" y2="305.72"/><line class="cls-11" x1="969.84" y1="310.15" x2="1015.12" y2="310.15"/><line class="cls-11" x1="969.84" y1="314.59" x2="1015.12" y2="314.59"/><line class="cls-11" x1="969.84" y1="319.02" x2="1015.12" y2="319.02"/><line class="cls-11" x1="969.84" y1="323.45" x2="1015.12" y2="323.45"/><line class="cls-11" x1="969.84" y1="327.88" x2="1015.12" y2="327.88"/><line class="cls-11" x1="969.84" y1="332.31" x2="1015.12" y2="332.31"/><line class="cls-11" x1="969.84" y1="336.74" x2="1015.12" y2="336.74"/><line class="cls-11" x1="969.84" y1="341.17" x2="1015.12" y2="341.17"/><line class="cls-11" x1="969.84" y1="345.6" x2="1015.12" y2="345.6"/><line class="cls-11" x1="969.84" y1="350.03" x2="1015.12" y2="350.03"/><line class="cls-11" x1="969.84" y1="355.03" x2="1015.12" y2="355.03"/><rect class="cls-10" x="600.01" y="171.54" width="329.1" height="45.28" transform="translate(570.38 958.75) rotate(-90)"/><line class="cls-10" x1="741.92" y1="254.55" x2="787.2" y2="254.55"/><line class="cls-10" x1="741.92" y1="258.98" x2="787.2" y2="258.98"/><line class="cls-10" x1="741.92" y1="263.41" x2="787.2" y2="263.41"/><line class="cls-10" x1="741.92" y1="267.84" x2="787.2" y2="267.84"/><line class="cls-10" x1="741.92" y1="272.28" x2="787.2" y2="272.28"/><line class="cls-10" x1="741.92" y1="276.71" x2="787.2" y2="276.71"/><line class="cls-10" x1="741.92" y1="281.14" x2="787.2" y2="281.14"/><line class="cls-10" x1="741.92" y1="285.57" x2="787.2" y2="285.57"/><line class="cls-10" x1="741.92" y1="290" x2="787.2" y2="290"/><line class="cls-10" x1="741.92" y1="294.43" x2="787.2" y2="294.43"/><line class="cls-10" x1="741.92" y1="298.86" x2="787.2" y2="298.86"/><line class="cls-10" x1="741.92" y1="303.29" x2="787.2" y2="303.29"/><line class="cls-10" x1="741.92" y1="307.72" x2="787.2" y2="307.72"/><line class="cls-10" x1="741.92" y1="312.15" x2="787.2" y2="312.15"/><line class="cls-10" x1="741.92" y1="316.59" x2="787.2" y2="316.59"/><line class="cls-10" x1="741.92" y1="321.02" x2="787.2" y2="321.02"/><line class="cls-10" x1="741.92" y1="325.45" x2="787.2" y2="325.45"/><line class="cls-10" x1="741.92" y1="329.88" x2="787.2" y2="329.88"/><line class="cls-10" x1="741.92" y1="334.31" x2="787.2" y2="334.31"/><line class="cls-10" x1="741.92" y1="338.74" x2="787.2" y2="338.74"/><line class="cls-10" x1="741.92" y1="343.17" x2="787.2" y2="343.17"/><line class="cls-10" x1="741.92" y1="347.6" x2="787.2" y2="347.6"/><line class="cls-10" x1="741.92" y1="352.03" x2="787.2" y2="352.03"/><line class="cls-10" x1="741.92" y1="356.25" x2="787.2" y2="356.25"/><rect class="cls-10" x="429.07" y="171.54" width="329.1" height="45.28" transform="translate(399.44 787.81) rotate(-90)"/><line class="cls-10" x1="570.98" y1="247.69" x2="616.26" y2="247.69"/><line class="cls-10" x1="570.98" y1="243.69" x2="616.26" y2="243.69"/><line class="cls-10" x1="570.98" y1="252.12" x2="616.26" y2="252.12"/><line class="cls-10" x1="570.98" y1="256.55" x2="616.26" y2="256.55"/><line class="cls-10" x1="570.98" y1="260.98" x2="616.26" y2="260.98"/><line class="cls-10" x1="570.98" y1="265.41" x2="616.26" y2="265.41"/><line class="cls-10" x1="570.98" y1="269.84" x2="616.26" y2="269.84"/><line class="cls-10" x1="570.98" y1="274.28" x2="616.26" y2="274.28"/><line class="cls-10" x1="570.98" y1="278.71" x2="616.26" y2="278.71"/><line class="cls-10" x1="570.98" y1="283.14" x2="616.26" y2="283.14"/><line class="cls-10" x1="570.98" y1="287.57" x2="616.26" y2="287.57"/><line class="cls-10" x1="570.98" y1="292" x2="616.26" y2="292"/><line class="cls-10" x1="570.98" y1="296.43" x2="616.26" y2="296.43"/><line class="cls-10" x1="570.98" y1="300.86" x2="616.26" y2="300.86"/><line class="cls-10" x1="570.98" y1="305.29" x2="616.26" y2="305.29"/><line class="cls-10" x1="570.98" y1="309.72" x2="616.26" y2="309.72"/><line class="cls-10" x1="570.98" y1="314.15" x2="616.26" y2="314.15"/><line class="cls-10" x1="570.98" y1="318.59" x2="616.26" y2="318.59"/><line class="cls-10" x1="570.98" y1="323.02" x2="616.26" y2="323.02"/><line class="cls-10" x1="570.98" y1="327.45" x2="616.26" y2="327.45"/><line class="cls-10" x1="570.98" y1="331.88" x2="616.26" y2="331.88"/><line class="cls-10" x1="570.98" y1="336.31" x2="616.26" y2="336.31"/><line class="cls-10" x1="570.98" y1="340.74" x2="616.26" y2="340.74"/><line class="cls-10" x1="570.98" y1="345.17" x2="616.26" y2="345.17"/><line class="cls-10" x1="570.98" y1="349.6" x2="616.26" y2="349.6"/><line class="cls-10" x1="570.98" y1="354.03" x2="616.26" y2="354.03"/><line class="cls-10" x1="570.98" y1="358.47" x2="616.26" y2="358.47"/><rect class="cls-9" x="372.09" y="171.54" width="329.1" height="45.28" transform="translate(342.46 730.83) rotate(-90)"/><line class="cls-9" x1="514" y1="225.96" x2="559.28" y2="225.96"/><line class="cls-9" x1="514" y1="230.4" x2="559.28" y2="230.4"/><line class="cls-9" x1="514" y1="234.83" x2="559.28" y2="234.83"/><line class="cls-9" x1="514" y1="239.26" x2="559.28" y2="239.26"/><line class="cls-9" x1="514" y1="243.69" x2="559.28" y2="243.69"/><line class="cls-9" x1="514" y1="248.12" x2="559.28" y2="248.12"/><line class="cls-9" x1="514" y1="252.55" x2="559.28" y2="252.55"/><line class="cls-9" x1="514" y1="256.98" x2="559.28" y2="256.98"/><line class="cls-9" x1="514" y1="261.41" x2="559.28" y2="261.41"/><line class="cls-9" x1="514" y1="265.84" x2="559.28" y2="265.84"/><line class="cls-9" x1="514" y1="270.28" x2="559.28" y2="270.28"/><line class="cls-9" x1="514" y1="274.71" x2="559.28" y2="274.71"/><line class="cls-9" x1="514" y1="279.14" x2="559.28" y2="279.14"/><line class="cls-9" x1="514" y1="283.57" x2="559.28" y2="283.57"/><line class="cls-9" x1="514" y1="288" x2="559.28" y2="288"/><line class="cls-9" x1="514" y1="292.43" x2="559.28" y2="292.43"/><line class="cls-9" x1="514" y1="296.86" x2="559.28" y2="296.86"/><line class="cls-9" x1="514" y1="301.29" x2="559.28" y2="301.29"/><line class="cls-9" x1="514" y1="305.72" x2="559.28" y2="305.72"/><line class="cls-9" x1="514" y1="310.15" x2="559.28" y2="310.15"/><line class="cls-9" x1="514" y1="314.59" x2="559.28" y2="314.59"/><line class="cls-9" x1="514" y1="319.02" x2="559.28" y2="319.02"/><line class="cls-9" x1="514" y1="323.45" x2="559.28" y2="323.45"/><line class="cls-9" x1="514" y1="327.88" x2="559.28" y2="327.88"/><line class="cls-9" x1="514" y1="332.31" x2="559.28" y2="332.31"/><line class="cls-9" x1="514" y1="336.74" x2="559.28" y2="336.74"/><line class="cls-9" x1="514" y1="341.17" x2="559.28" y2="341.17"/><line class="cls-9" x1="514" y1="345.6" x2="559.28" y2="345.6"/><line class="cls-9" x1="514" y1="350.03" x2="559.28" y2="350.03"/><line class="cls-9" x1="514" y1="354.47" x2="559.28" y2="354.47"/><line class="cls-9" x1="514" y1="358.9" x2="559.28" y2="358.9"/><text class="cls-1" transform="translate(13.68 69.92)"><tspan class="cls-12">2</tspan><tspan x="6.1" y="0">5</tspan><tspan class="cls-13" x="12.42" y="0">,</tspan><tspan x="15.18" y="0">1</tspan></text><text class="cls-1" transform="translate(69.96 116.82)">20<tspan class="cls-2" x="13.41" y="0">,</tspan><tspan x="16.77" y="0">8</tspan></text><text class="cls-1" transform="translate(127.14 125.81)">20<tspan class="cls-14" x="13.41" y="0">,</tspan><tspan x="16.17" y="0">1</tspan></text><text class="cls-1" transform="translate(183.77 163.79)">16<tspan class="cls-15" x="11.71" y="0">,</tspan><tspan x="14.97" y="0">5</tspan></text><text class="cls-1" transform="translate(241.7 173.12)">15<tspan class="cls-4" x="11.42" y="0">,</tspan><tspan x="14.38" y="0">7 </tspan></text><text class="cls-1" transform="translate(298.46 174.12)">15<tspan class="cls-4" x="11.42" y="0">,</tspan><tspan x="14.38" y="0">6</tspan></text><text class="cls-1" transform="translate(355.04 181.99)">14<tspan class="cls-15" x="11.93" y="0">,</tspan><tspan x="15.19" y="0">9</tspan></text><text class="cls-1" transform="translate(412.27 185.93)">14<tspan class="cls-15" x="11.93" y="0">,</tspan><tspan x="15.19" y="0">5</tspan></text><text class="cls-1" transform="translate(473.52 203.14)"><tspan class="cls-2">1</tspan><tspan x="5" y="0">3</tspan></text><text class="cls-1" transform="translate(530.69 212.79)">12</text><text class="cls-1" transform="translate(582.81 230.51)">10<tspan class="cls-15" x="12.26" y="0">,</tspan><tspan x="15.52" y="0">5</tspan></text><text class="cls-1" transform="translate(644.06 235.51)">10</text><text class="cls-1" transform="translate(699.05 237.89)">9<tspan class="cls-2" x="6.62" y="0">,</tspan><tspan x="9.98" y="0">8</tspan></text><text class="cls-1" transform="translate(756.79 240.85)">9<tspan class="cls-15" x="6.62" y="0">,</tspan><tspan x="9.88" y="0">5</tspan></text><text class="cls-1" transform="translate(814.03 256.14)">8<tspan class="cls-14" x="6.72" y="0">,</tspan><tspan x="9.48" y="0">1</tspan></text><text class="cls-1" transform="translate(871 256.14)">8<tspan class="cls-14" x="6.72" y="0">,</tspan><tspan x="9.48" y="0">1</tspan></text><text class="cls-1" transform="translate(928.22 257.14)"><tspan class="cls-4">7</tspan><tspan class="cls-15" x="5.21" y="0">,</tspan><tspan x="8.47" y="0">9</tspan></text><text class="cls-1" transform="translate(984.27 269.43)">6<tspan class="cls-15" x="6.61" y="0">,</tspan><tspan x="9.87" y="0">9</tspan></text></g></g></svg>