<?xml version="1.0" encoding="utf-8"?>
<!-- Generator: Adobe Illustrator 22.1.0, SVG Export Plug-In . SVG Version: 6.00 Build 0)  -->
<svg version="1.1" xmlns="http://www.w3.org/2000/svg" xmlns:xlink="http://www.w3.org/1999/xlink" x="0px" y="0px"
	 viewBox="0 0 1057.6 401.7" style="enable-background:new 0 0 1057.6 401.7;" xml:space="preserve">
<style type="text/css">
	.st0{fill:none;stroke:#EF4747;stroke-width:6;stroke-linecap:round;stroke-linejoin:round;}
	.st1{fill:none;}
	.st2{fill:#EF4747;}
	.st3{font-family:'DomaineSansText-Italic';}
	.st4{font-size:20px;}
</style>
<g id="tracciato">
	<polyline class="st0" points="22.5,3 51,11.6 108,65.9 167.3,111.5 224.3,154.9 281.2,176.5 340.3,191.5 397.3,213.1 454.1,210.7 
		513.2,206.1 570,219 626.9,214.4 685.9,214.2 742.8,229.2 799.8,246.4 858.9,259.3 887.3,261.4 915.8,270 944.3,285.1 972.7,298.1 
		1001.2,300.2 1029.6,308.8 	"/>
</g>
<g id="testo">
	<rect y="381.3" class="st1" width="45" height="16"/>
	<text transform="matrix(1 0 0 1 0.3701 396.2607)" class="st2 st3 st4">1982</text>
	<rect x="380" y="381.3" class="st1" width="45" height="16"/>
	<text transform="matrix(1 0 0 1 380.2567 396.2607)" class="st2 st3 st4">1995</text>
	<rect x="660.5" y="381.3" class="st1" width="55.8" height="16"/>
	<text transform="matrix(1 0 0 1 663.8771 396.2607)" class="st2 st3 st4">2005</text>
	<rect x="1001.7" y="381.3" class="st1" width="55.8" height="16"/>
	<text transform="matrix(1 0 0 1 1007.9605 396.2607)" class="st2 st3 st4">2017</text>
</g>
</svg>
