<svg xmlns="http://www.w3.org/2000/svg" viewBox="0 0 872.37 799.68"><defs><style>.cls-1{fill:#f2af25;}</style></defs><title>Risorsa 14</title><g id="Livello_2" data-name="Livello 2"><g id="Livello_1-2" data-name="Livello 1"><path class="cls-1" d="M867.47,195c-7.17-3.68-20.37-2.42-27.71,1-24.14,11.28-47,35-67.15,55.95l-7.1,7.34c-12.87,13.23-25.36,27.59-37.43,41.46-6.22,7.15-12.44,14.3-18.73,21.33-7.15,8-87,71.23-87,71.23-2.52-6.56-.27-15.77,5.61-27.33l0-.08a1.25,1.25,0,0,0,.12-.08c7.59-14.72,21-33.24,38-54.8,1.81-2.31,3.36-4.27,4.53-5.78,24.12-31.4,46.11-65.21,67.37-97.91,25.4-39,51.65-79.4,81.87-116.25C826.17,83.4,832.08,71,831,60.59a17.14,17.14,0,0,0-6.41-12.19C808.83,35.55,795,43.84,773.3,64.75c-22.39,21.6-42.73,48-63.3,75.43-2.76,3.66-8.29,10.88-15.28,20-20.33,26.44-62.22,81-67.36,90.51a9,9,0,0,1-2.62,4.59l-.56-.51c-10.09,15-21.71,31.92-25.76,35.81-14.86,14.4-30.29,30.1-50,50.87l-10.1-9.59c19.87-20.93,35.42-36.75,50.46-51.31,3-2.93,16.29-21.91,33-47.28,10.22-15.5,18.35-39.09,23.74-54.7,3.33-9.68,32.84-95.26,38.51-115.07a155.57,155.57,0,0,1,6.51-16.92c5.65-13.31,12.71-29.88,8.1-38.5-2-3.72-6.6-6.29-13.69-7.64-25.39-4.77-43.93,33-55,55.53l-2.24,4.56C619.92,76,613,92.42,606.2,108.31c-10.6,24.94-21.58,50.76-36,74.58-10.11,16.72-59.6,65-101.61,102-91.92,81-106,75.26-111.28,73.11-2.75-1.13-8.93-5.05-6.17-16.81,6.7-28.63,28.14-74.24,41-96.13,17.31-29.48,39.35-72.38,30.51-104.46-3.33-12.1-10.7-21.87-22.49-29.67-16.52,26.67-68.94,101.86-95.34,139.71-6.17,8.82-10.64,15.26-12.5,17.95-23.85,34.75-41.36,66-59.92,99.09-8.61,15.36-17.52,31.25-27.45,48.23-3.46,5.9-7,11.87-10.66,17.89-20.83,34.78-42.37,70.73-49.43,108.38-1.93,10.27-3.56,21.05-5.15,31.46-2.23,14.84-4.54,29.88-7.78,44.67h.41c-3.39,17.07-9.05,39.19-17.32,52.07a4.7,4.7,0,0,0-.68,2.58C96,702.94,64.54,746.86,8.75,755.77h0c-3,.48-5.69.28-8.74,1,48.77,20.92,178.77,69.66,321.94,24l.09.55s21.47-5.47,32.15-9.66l-.24.57c39.93-18,81.13-37.35,120.31-61.3,4.4-2.95,8.86-5.82,13.66-9.19-.33.48-.75,1.06-1.12,1.56,13.8-8.88,27.28-18.29,40.29-28.43,28.06-21.9,54.31-47,79.7-71.27,14.59-13.94,29.66-28.33,45-42.06,25.68-23,48.66-51.95,70.9-80,5.35-6.74,10.64-13.42,15.92-19.93,26-32.11,56.7-60.88,86.43-88.71l1.09-1c1.53-1.41,3.25-2.9,5.06-4.49,5.39-4.65,14.4-12.47,13.87-16.81-.26-1.95-3.14-4.5-7.77-6.84-7.75-3.92-20-.91-36.45,8.95-27.81,16.7-55.64,41-78,60.51-8.43,7.35-25.06,21.92-45.7,42.27L674,452.82c-1.68-5.19,14.28-25.28,14.28-25.28.86-1,3-3.5,3.12-3.81-.49.27,57.82-74.11,69.45-89.72,20.32-27.29,41.33-55.48,67.43-82.43,10.27-10.61,19-19.42,29.44-28,8-6.49,15.6-16.63,14.52-22.34A8.26,8.26,0,0,0,867.47,195Z"/></g></g></svg>