<svg xmlns="http://www.w3.org/2000/svg" viewBox="0 0 879.42 793.47"><defs><style>.cls-1{fill:#ef4747;}</style></defs><title>Risorsa 15</title><g id="Livello_2" data-name="Livello 2"><g id="Livello_1-2" data-name="Livello 1"><path class="cls-1" d="M4.81,197.42c7.12-3.78,20.33-2.69,27.72.66,24.28,11,47.44,34.41,67.86,55.08,2.46,2.49,4.87,4.9,7.2,7.25,13,13.07,25.71,27.26,37.95,41,6.31,7.06,12.62,14.13,19,21.09,7.25,7.9,87.94,70.1,87.94,70.1,2.44-6.59.07-15.77-6-27.25l.06-.09a.76.76,0,0,1-.13-.07c-7.78-14.63-21.45-33-38.75-54.31-1.84-2.29-3.42-4.22-4.6-5.72-24.53-31.09-46.95-64.61-68.62-97-25.91-38.72-52.67-78.74-83.36-115.19-6.45-7.65-12.52-20-11.6-30.4a17.15,17.15,0,0,1,6.25-12.27c15.62-13.06,29.61-5,51.53,15.69,22.67,21.31,43.34,47.45,64.26,74.61,2.8,3.62,8.43,10.77,15.54,19.77,20.66,26.18,63.25,80.2,68.51,89.64a9,9,0,0,0,2.68,4.56l.55-.52c10.28,14.91,22.12,31.64,26.22,35.47,15.05,14.21,30.67,29.71,50.69,50.23l10-9.72c-20.14-20.67-35.9-36.29-51.12-50.66-3.07-2.89-16.57-21.7-33.61-46.85-10.42-15.37-18.85-38.86-24.44-54.39-3.46-9.64-34.06-94.84-40-114.57a155.12,155.12,0,0,0-6.72-16.84C174,33.44,166.76,17,171.25,8.28c1.94-3.74,6.52-6.38,13.6-7.81,25.32-5.09,44.34,32.4,55.73,54.82l2.3,4.52c7.93,15.4,15.11,31.73,22.06,47.54,10.92,24.81,22.23,50.48,37,74.11,10.32,16.59,60.42,64.2,102.9,100.65,93,79.82,107,73.9,112.22,71.68,2.73-1.17,8.86-5.16,6-16.89-7.06-28.54-29.09-73.87-42.25-95.59-17.69-29.26-40.28-71.87-31.85-104.06,3.17-12.15,10.42-22,22.11-30,16.86,26.46,70.24,101,97.13,138.48,6.28,8.74,10.83,15.12,12.72,17.78,24.29,34.44,42.2,65.48,61.19,98.32,8.81,15.24,17.92,31,28.07,47.87,3.54,5.86,7.19,11.78,10.88,17.76,21.28,34.5,43.28,70.18,50.82,107.73,2.07,10.24,3.83,21,5.56,31.4,2.42,14.81,4.91,29.81,8.35,44.56h-.41c3.61,17,9.55,39.06,18,51.84a4.77,4.77,0,0,1,.71,2.57c18.75,29.78,50.74,73.29,106.63,81.48h0c3.05.44,5.69.2,8.76.91-48.5,21.54-177.86,71.94-321.61,28.09l-.08.55s-21.55-5.19-32.27-9.25l.24.57c-40.15-17.46-81.6-36.3-121.08-59.75-4.44-2.89-8.94-5.7-13.78-9,.34.48.76,1.06,1.14,1.55-13.91-8.7-27.52-17.94-40.65-27.91-28.34-21.55-54.91-46.29-80.61-70.24-14.77-13.76-30-28-45.5-41.48-26-22.68-49.33-51.33-71.92-79.09-5.44-6.67-10.82-13.28-16.18-19.72-26.41-31.77-57.48-60.15-87.57-87.59l-1.1-1c-1.55-1.39-3.28-2.86-5.11-4.42C37.89,364.7,28.78,357,29.25,352.65c.24-2,3.09-4.55,7.68-6.95,7.7-4,20-1.16,36.56,8.49,28,16.34,56.16,40.27,78.78,59.5,8.52,7.24,25.34,21.6,46.23,41.68l3-2.66c1.61-5.22-14.6-25.11-14.6-25.11-.87-1-3-3.45-3.18-3.77.5.27-58.76-73.36-70.59-88.81-20.66-27-42-54.95-68.48-81.56-10.41-10.48-19.2-19.18-29.8-27.59C6.83,219.48-.91,209.44.09,203.72A8.24,8.24,0,0,1,4.81,197.42Z"/></g></g></svg>