<svg xmlns="http://www.w3.org/2000/svg" viewBox="0 0 948.95 719.21"><defs><style>.cls-1{fill:#233449;}</style></defs><title>Risorsa 12</title><g id="Livello_2" data-name="Livello 2"><g id="Livello_1-2" data-name="Livello 1"><path class="cls-1" d="M945.2,496.85c-6.5,4.77-19.74,5.61-27.53,3.36-25.61-7.33-51.92-27.16-75.13-44.65l-8.17-6.13c-14.79-11-29.4-23.25-43.5-35-7.26-6.08-14.53-12.16-21.85-18.12-8.32-6.76-97.18-56.61-97.18-56.61-1.46,6.88,2.22,15.62,9.85,26.1l0,.09.13.06c9.82,13.34,26,29.51,46.21,48.11,2.17,2,4,3.69,5.39,5,28.77,27.2,55.82,57.12,82,86.06,31.24,34.55,63.52,70.26,99.17,101.88,7.5,6.64,15.29,18,15.89,28.4a17.16,17.16,0,0,1-4.41,13c-13.56,15.18-28.58,9.18-53.26-8-25.51-17.81-49.76-40.68-74.4-64.52-3.29-3.17-9.9-9.43-18.23-17.3-24.25-22.91-74.21-70.19-80.79-78.76a9,9,0,0,0-3.31-4.12l-.47.59C683.2,463,669.06,448.16,664.45,445c-17-11.87-34.66-24.94-57.43-42.34l-8.47,11.06c22.92,17.53,40.78,30.7,57.92,42.71,3.46,2.42,19.55,19.07,40,41.48,12.54,13.7,24.29,35.72,32.07,50.28,4.82,9,47.45,88.89,56.18,107.56a155.53,155.53,0,0,0,9.09,15.68c7.68,12.25,17.26,27.5,14.07,36.74-1.38,4-5.52,7.26-12.32,9.7-24.31,8.71-48.57-25.62-63.09-46.15l-2.93-4.15c-10.08-14.09-19.55-29.2-28.72-43.83-14.4-23-29.31-46.73-47.34-68-12.62-14.92-69.1-54.76-116.41-84.67-103.55-65.5-116.55-57.61-121.42-54.65-2.54,1.55-8,6.39-3.45,17.57,11.13,27.22,39.5,68.88,55.67,88.46,21.75,26.38,50.27,65.27,46.6,98.34-1.38,12.48-7.12,23.29-17.53,32.85-20.52-23.73-84.14-89.72-116.18-122.93-7.49-7.74-12.92-13.39-15.17-15.75-29-30.56-51.25-58.67-74.79-88.41-10.93-13.81-22.24-28.1-34.72-43.29-4.35-5.28-8.82-10.62-13.34-16-26.06-31.05-53-63.16-65.91-99.22-3.52-9.84-6.83-20.22-10-30.26-4.54-14.3-9.18-28.78-14.72-42.89l.4-.05c-6-16.32-15.11-37.27-25.31-48.68a4.8,4.8,0,0,1-1.08-2.45C103.25,117,65.3,78.53,8.81,78.53h0c-3.08,0-5.66.62-8.79.37,44.86-28.34,165.55-97,314.13-74.43V3.92s22.08,2,33.27,4.47l-.32-.53c42.26,11.45,86,24.08,128.47,41.56,4.81,2.22,9.67,4.35,14.94,6.92-.41-.42-.91-.93-1.35-1.36,15,6.59,29.82,13.76,44.26,21.72,31.17,17.2,61,37.83,90,57.81,16.6,11.47,33.76,23.3,51,34.44,29,18.67,56.25,43.63,82.63,67.82,6.35,5.81,12.63,11.58,18.87,17.17,30.73,27.61,65.59,51.18,99.33,74l1.25.85c1.73,1.15,3.66,2.35,5.7,3.64,6.05,3.74,16.18,10,16.34,14.41.06,2-2.39,4.94-6.59,8-7,5.09-19.61,4-37.4-3.09-30.1-12.11-61.41-31.7-86.57-47.45-9.49-5.93-28.21-17.7-51.79-34.54l-2.62,3.08c-.84,5.39,18.08,22.72,18.08,22.72,1,.82,3.48,3,3.69,3.26-.52-.18,68.78,64.07,82.72,77.65,24.37,23.74,49.56,48.27,79.59,70.76,11.82,8.86,21.77,16.2,33.49,23,8.9,5.16,18,14,17.85,19.77A8.23,8.23,0,0,1,945.2,496.85Z"/></g></g></svg>