<svg xmlns="http://www.w3.org/2000/svg" viewBox="0 0 948.95 719.21"><defs><style>.cls-1{fill:#fce46d;}</style></defs><title>Risorsa 13</title><g id="Livello_2" data-name="Livello 2"><g id="Livello_1-2" data-name="Livello 1"><path class="cls-1" d="M3.76,496.85c6.49,4.77,19.73,5.61,27.53,3.36,25.61-7.33,51.92-27.16,75.13-44.65q4.18-3.17,8.17-6.13c14.79-11,29.39-23.25,43.49-35,7.27-6.08,14.54-12.16,21.86-18.12,8.32-6.76,97.17-56.61,97.17-56.61,1.46,6.88-2.21,15.62-9.85,26.1l0,.09-.13.06c-9.82,13.34-26,29.51-46.21,48.11-2.16,2-4,3.69-5.39,5-28.77,27.2-55.81,57.12-82,86.06C102.36,539.63,70.08,575.34,34.43,607c-7.49,6.64-15.29,18-15.88,28.4a17.16,17.16,0,0,0,4.4,13c13.56,15.18,28.58,9.18,53.26-8,25.52-17.81,49.76-40.68,74.4-64.52,3.3-3.17,9.9-9.43,18.24-17.3,24.24-22.91,74.21-70.19,80.79-78.76a8.92,8.92,0,0,1,3.31-4.12l.47.59C265.75,463,279.89,448.16,284.5,445c16.95-11.87,34.66-24.94,57.43-42.34l8.47,11.06c-22.92,17.53-40.78,30.7-57.92,42.71-3.45,2.42-19.54,19.07-40.05,41.48-12.53,13.7-24.28,35.72-32.06,50.28-4.83,9-47.46,88.89-56.18,107.56a155.53,155.53,0,0,1-9.09,15.68c-7.69,12.25-17.27,27.5-14.08,36.74,1.38,4,5.53,7.26,12.32,9.7,24.31,8.71,48.57-25.62,63.1-46.15l2.93-4.15c10.07-14.09,19.54-29.2,28.71-43.83,14.4-23,29.32-46.73,47.35-68C308,540.8,364.52,501,411.84,471.05c103.55-65.5,116.54-57.61,121.42-54.65,2.54,1.55,8,6.39,3.44,17.57-11.13,27.22-39.49,68.88-55.66,88.46-21.75,26.38-50.28,65.27-46.6,98.34,1.37,12.48,7.11,23.29,17.53,32.85,20.52-23.73,84.14-89.72,116.18-122.93,7.48-7.74,12.91-13.39,15.17-15.75,29-30.56,51.24-58.67,74.79-88.41,10.93-13.81,22.23-28.1,34.71-43.29,4.35-5.28,8.82-10.62,13.35-16,26.05-31.05,53-63.16,65.9-99.22,3.53-9.84,6.84-20.22,10-30.26,4.54-14.3,9.19-28.78,14.73-42.89l-.41-.05c6-16.32,15.11-37.27,25.31-48.68a4.72,4.72,0,0,0,1.08-2.45C845.7,117,883.66,78.53,940.15,78.53h0c3.08,0,5.66.62,8.79.37C904.1,50.56,783.4-18.07,634.82,4.47V3.92s-22.07,2-33.27,4.47l.33-.53c-42.27,11.45-86,24.08-128.48,41.56-4.8,2.22-9.67,4.35-14.94,6.92.41-.42.91-.93,1.36-1.36-15,6.59-29.83,13.76-44.27,21.72-31.16,17.2-61,37.83-89.95,57.81-16.6,11.47-33.75,23.3-51,34.44-29,18.67-56.24,43.63-82.62,67.82-6.35,5.81-12.63,11.58-18.87,17.17-30.73,27.61-65.6,51.18-99.34,74l-1.24.85c-1.73,1.15-3.66,2.35-5.7,3.64-6,3.74-16.18,10-16.35,14.41-.05,2,2.39,4.94,6.59,8,7,5.09,19.62,4,37.41-3.09,30.09-12.11,61.4-31.7,86.57-47.45,9.48-5.93,28.2-17.7,51.79-34.54l2.62,3.08c.83,5.39-18.09,22.72-18.09,22.72-1,.82-3.47,3-3.69,3.26.53-.18-68.78,64.07-82.72,77.65-24.37,23.74-49.56,48.27-79.59,70.76-11.81,8.86-21.77,16.2-33.48,23-8.9,5.16-18,14-17.86,19.77A8.26,8.26,0,0,0,3.76,496.85Z"/></g></g></svg>