<svg xmlns="http://www.w3.org/2000/svg" viewBox="0 0 841.89 110"><defs><style>.cls-1{fill:#ffeddf;}</style></defs><title>perche1_1</title><g id="Livello_2" data-name="Livello 2"><g id="Livello_1-2" data-name="Livello 1"><path class="cls-1" d="M634.22,42.28c0,.09.13.24.4.44C634.65,42.67,634.54,42.53,634.22,42.28Z"/><path class="cls-1" d="M654.53,46.62c3.05,1.93,2.55.87,1.46-.36C655.39,46.52,654.74,46.75,654.53,46.62Z"/><path class="cls-1" d="M624.09,41.81c1.4.88,1.63.67,1.36.1A1.14,1.14,0,0,1,624.09,41.81Z"/><path class="cls-1" d="M629.44,42.55c1.13.71,3,.06-.2-2C627.8,40.5,627,41,629.44,42.55Z"/><path class="cls-1" d="M634.59,42.75l.47.28a3.64,3.64,0,0,1-.44-.31Z"/><path class="cls-1" d="M633.55,42.41a2.5,2.5,0,0,0,1,.34C633.59,42.19,632.73,41.89,633.55,42.41Z"/><path class="cls-1" d="M836.81,31.11c.28.17.31.18.25.12A1.29,1.29,0,0,1,836.81,31.11Z"/><path class="cls-1" d="M837.06,31.23c.11,0,.11,0,.05-.17C835.94,30.36,836.88,31.06,837.06,31.23Z"/><path class="cls-1" d="M667.7,48.61l-.18-.1Z"/><path class="cls-1" d="M671.44,48.61c2.3,1.45,2,1.06,0-.33C671.31,48.41,671.31,48.53,671.44,48.61Z"/><path class="cls-1" d="M687,48.47c.52.33.47.26.17,0A.2.2,0,0,1,687,48.47Z"/><path class="cls-1" d="M661.73,48c.66.42-.35-.41-1.19-1.15C660.4,47,660.71,47.4,661.73,48Z"/><path class="cls-1" d="M594.65,40.31c.17.1.14,0,0-.09C594.64,40.26,594.63,40.29,594.65,40.31Z"/><path class="cls-1" d="M62.8,106.78l.06.1a1.51,1.51,0,0,0,.35.27c1,.65,1.42.65-.22-.47C62.86,106.69,62.79,106.72,62.8,106.78Z"/><path class="cls-1" d="M23.8,104.32c1,.65,1.33.79,1.24.65A6.28,6.28,0,0,1,23.8,104.32Z"/><path class="cls-1" d="M841.89,32.43V0H50c-.11.08-.28.1-.57,0H0V99.77a6.59,6.59,0,0,1,2,.92c.43.28-.65.13,1.35,1.41-.15-.11,2.39,1.41,1.67,1,.36.22,2.82,0,2.09-.47,1.71,1.08,3.86.56,2.11-.55-4-2.51,3.86,1.08,2-.11,2.05,1.3.47-.92,1.92,0,3.16,2,.24,1.08,1.31,1.76,1.46.92.7-.37,1.81.33-.78-.5,2.86-1.1,2.41-1.39,4.14,2.62,2.88.93,1.83.27.1.06,2.51.73,2.61.4A24.74,24.74,0,0,1,25,105c1.45.48-.91-2.44.9-1.29.51.33-1-.87,1.65.79-3.78-2.39,6.45,2.62,2-.2-2-1.25,2.66,1,1.78.4,3.1,2,3.29.52,2-.28-.46-.3,1.33-1,2.11-.52,2.46,1.56-.14.14,1.51,1.18-.63-.39.94-1.54,2-1.56.42.41,1.36,1.19,2,1.79.9-.28,3.31-.7,2.19-1.41a2.14,2.14,0,0,1,1.11,1.54c0-.42,2.85-.31,2.41-.59s3.55,2.16,1.6.93c-.59-.37,2.21-1.44,2.39-1.33-3.64-2.31,1.89.5,1.77.43,1.73,1.09-.59-2.23,2.1-.52-.61-.39,2.17.3,1.88.12a1.56,1.56,0,0,1,.71,1.32A11.05,11.05,0,0,1,59.43,107c2.6,1.64,4.12,1,3.43-.07,0,0-.06-.07-.06-.1a3.91,3.91,0,0,0-1.06-.93c.51.33.92.6,1.25.83,1-.09,5.34,1.06,2.55-.71a2.87,2.87,0,0,0,1.81.19,4.73,4.73,0,0,0,1.46,1.49c.42.26,3.77-1.44,2.67-2.13,3.69,2.34,4.35,1.78,1.85.21-.09-.06.13,0,.45.13.35.28,1.18.86,2.74,1.85,2.07,1.31,1.5-1.8,2.34-1.27,0,0-.18-.76,1.77.48,1.73,1.09,3,2.22,2,1.65,2.61,1.51,2.32,0,1.51-.47.24.15,1.53.07,1.85.28-3.63-2.3,2.25-.8,2.16-.86,1.3.83,3.42,1.07,1.89.09-2.12-1.34,1.69.1,1.87.21a6.53,6.53,0,0,1,2-.22c3.07,1.94,1.33.78,1.7,1-1.67-1.05,2.36.46,1.9.17,2.16,1.37,2.85-.89,2.13-1.35,1.94,1.23-1.8-1.87,1.84.44-2.92-1.85-1-2.66,2-.8-.8-.51,1.46,1.79,1.69,2.11.11-.23,3.54-.79,2-1.74.57.36,1.62.34,1.88.5a7.34,7.34,0,0,0,1.9.93c-.69-.44-.16-2.53,1.88-1.24-.06,0,3.59,1.85,2,.81,2.42,1.53-3.06-3.33,1.9-.18-.71-.46,2.17-.5,1.82-.72.71.44,4.5,2.37,2,.82,4.21,2.66,5.65,1.79,1.83-.63,2.79,1.77,0-.16,2.27,1.26-1.46-.92.41-2.16,1.6-1.41.38.24.63-.59,2.07.32-1.92-1.22,2.13.23,2,.19-2-1.28-1.28-2.19,2-.14-.05,0,2.91-.28,1.52-1.16-.74-.46,5.58,2.8,2.32.73,2.36,1.5,2.82-1,1-2.12-.42-.26.74-.6,2.11.27-.53-.33,2.88,1.55,2.81,1.51,1,.63,4.86.5.92-2,1.12.71.78-.29,2.48.79-1.26-.8,4.37,1.37,1.95-.16-1.42-.89,3.88.2,1-1.62a3.85,3.85,0,0,0,2.51.72c-2.26-1.44,3-.26,1-1.53s4.75,2.1,2.54.69c-.18-.11,1.75-.87,1.13-1.27.29.19,3.9,1.45,2.45.53-1.18-.75,3-.12,1-1.36,2,1.25,1.91.3,2.68.79,1.16.74.22-1.86,1-1.38a16.5,16.5,0,0,0,3.13,1.28c-2.22-1.4,2.58.41,2.29.23,0,0,1.46-.74,1.52-.71-2.25-1.42,4.89,1.31,1.28-1-1.05-.67,2.94.29,1.68-.51-4.15-2.62,1.58-.46,1.87-.28-1.4-.88.58-1.51,1.06-1.21-1.37-.87,3.61,1.36,2.92.93-2.87-1.82,4.35.89,1.1-1.17-1.52-1,4.06,1.09,1.83-.32-.34-.21.66-.65,2.67.62,3.36,2.13,4.67,1.13,1.14-1.1,1,.62,3.23.43,1.58-.61-.28-.18,4.17,1.43,2.37.29-.55-.35-2.73-3.84.59-1.74,1.73,1.1.82-.91,1.95-.2-1.91-1.2,2.46.08,1.84-.31,1.11.71,2.36.79,3.31,1.4,3.06,1.93,3.88.71,1.32-.92,1.7,1.08.21-2,.73-1.62-1.53-1,2.75.42,2.1,0-1.59-1,4.53,1.43,1.86-.26-.56-.36-3.39-3.22,2.48.5-.32-.21,2.95.36,1.74-.41.12.08,2.88.64,2.25.25-1.29-.82,1.24-.79,1.63-.54,2.21,1.4-3.08-3.39,1.84-.28-.88-.56,2.82-.36.8-1.64,1,.64,1.11-.8,1.76-.4-.87-.54,3.71,1,2,0a9,9,0,0,0,2.44.53c1.83,1.16,3.58.86,1.88-.22,1.35.86-2-3.28,1.06-1.35,1.29.82,4.7,1.56,1.9-.21-.22-.14,2.82.76,2.36.47,2.78,1.76,3.27.45,1.61-.6-.91-.58,0-1.89,1.33-1-1.77-1.12,1.67-.63,1.56-.7,2.29,1.45,4.34,2.3,3,1.46.33.21-1.93-3.81.55-2.23-1.37-.87,5.06,2.47,2.65,1,3,1.88,1.47-.73,1.6-.64,2.72,1.71.8-1.48,1.27-1.18-2-1.25,3,1.57,3,1.6,1.48,1,.13-1.29,1.89-.17.06,0,2.85-.07,1.4-1,2.17,1.37,2.74.18,1.72-.47.91.58,3.46,1,2.12.18.54.34-.28-1.71,1.75-.42,4.35,2.75,4.13.87,1.56-.76,1.46.93,2.83.57,2,.07-1.9-1.2,2.92-.46,1.06-1.64-.55-.34,2.5,1.48,3.05,1.83,2.63,1.67,5.77,2,1.67-.57,1.89,1.19,1-1.4,1.32-1.21,4.32,2.74-.38-2,1.59-.73,2.32,1.47-.58-1,2.52.94,5,3.17-3.21-3.19,2.07.15,3,1.9.57-.79,2.08.16-.51-.32.13-2.45.95-1.93s3.69,1.53,2.35.68c-3.3-2.09,5.12,1.65,1.73-.49-1.58-1,.27-.65,2.33.65,1.21.77,2.3-.67,1.31-1.3.5.31-2-3.24,1.47-1-.43-.27,6.55,3.76,2.64,1.29-2.86-1.81.51-1.84,1.31-1.33-.36-.22,3.07,1.44,2.54,1.11,3,1.91-.58-1.78,1.86-.23,1.68,1.06,1.57-.26,2,0,1,.61,2.5-.23,1.58-.82,1,.61-.53-1.81,1.82-.33,1.25.8-1.42-3.39,1.12-1.79-.92-.58,3.06,1.09,2.25.58.94.59,2,.81,2.52,1.13,2.09,1.32,2.3-.18,1.71-.55,2.13,1.35.66-1.77,1.35-1.34.37.24,1.32.06,2.28.67.1.06,2.74.41,1.93-.1s-.71-1.71,2,0c-3.44-2.18,3.55.45,1.62-.77-.69-.44,1.34-1.45,1.3-1.48,1.7,1.08,2.28.36,2.08.23,2.18,1.38.54-.93,2,0,.7.44.35-1.12,1.92-.13-1.75-1.11,3.26,1.53,2.42,1,1.49,1,.73-2.22,1.08-2,.89.56,2.38,0,1.78-.43,0,0,4.48,1.48,1.91-.15A19,19,0,0,0,329,77c.67.42,2.62.58,2.07.23.32.21,3.09.53,1.86-.25,3.31,2.1.37-1.29,1.8-.38.07,0-.28-1.54,1.9-.16-2.41-1.53,2.9.35,1.83-.33-.47-.3,2-.19,1.84-.29-1.57-1,3.29.91,2,.11,1.22.77,3.6,1.42,2.21.53-.28-.17,1.72-1.48,1.18-1.82.66.43.73-1.18,1.72-.55-1.49-1,3.13.45,1.81-.39,3.46,2.19,4.22,2.27,2.47,1.16,2.22,1.41.54-.79,2,.16.4.26,0-2.25,1.35-1.42,2,1.25.42-.19,2.44,1.09-2.43-1.54,3.42.5,1.72-.58,2.81,1.78,1.33-1.52,1.29-1.55-.42-.27,3.12,1.31,2.32.8.91.58,4.65,1.92,2.11.31-1.64-1,4.77.87,1.42-1.25,1.82,1.16,3.71,1.27,2.07.23-2.5-1.58.8-.39,2.18.48,1.82,1.16,4.62,1.66,2,0,1.05.67-.45-2.87,1.15-1.86,1,.63,2.55,1.36,2.58,1.38,3.88,2.45-.06-1.1,2.09.26-.44-.28,1.51-1.86,1-2.18l2.5,1.59c-1.09-.91,1.27-1.08,1.84-.72-3-1.91,2.83-.2,1.5-1-.5-.32-.48-.65,2.55,1.27,1.58,1,1.33-1.61,1.21-1.68-1.25-.79,2.32.55,2.19.47,1.32.83.06-2.06,1.42-1.2,1.61,1,.3-1.44,1.72-.55-1.28-.81,3,.51,1.89-.18.87.56,1.48.29,2.37.86a7.75,7.75,0,0,0,2.38.84c-.65-.41,1.08-.94,1.73-.53-1.12-.7-.16-1.9,1.61-.78-.14-.09-.28-2.64,1.13-1.75-2.91-1.84,1-.23,2.25.56-.83-.52,1.08,0,2.4.85-3.84-2.43,1.2-1.8,1-1.9.69.44,3.08.84,2.08.21,1.87,1.19,3.27.49,1.74-.48,3.78,2.39.85-.59,2.08.19-.23-.15.66-.65,2.13.28-.37-.23,3.79.18,1.25-1.43.54.35.5-.7,2.16.35-1.29-.82,2.87,1.54,2.77,1.48,1.61,1,1.35-2.07.66-2.51-1.2-.76.62-.12,2.6,1.14,1,.66,1.93-.75,1.41-1.08-.75-.47,2.84.76,2.17.33,3.14,2,1.21-.34,2.13.25.71.45,1.71-.14,2.05.08,1.49,1,2.93.37,1.8-.35-1.38-.87,0-1.83,1.52-.85.88.55,2.73.53,2.07.11-.46-.29.85-.68,2,.07-2.32-1.46,2.8,0,1.56-.76,1.18.74.83-1.16,1.61-.66-3.31-2.1,3,.45,1.82-.32.14.09-.56-2.48,1.17-1.38,2.48,1.57,1.73.7,2.89,1.44-2-1.27.63-2.08.79-2-2.27-1.43-1.6-1.31,3,1.62-.61-.39,0-1.45,1.86-.25-.56-.36.65-1.7,1.14-1.39,1,.65,5.31,1.6,1.48-.83-1.17-.74-.5-1.61,2,0,1.15.73,4.28,1.56,2.17.23,1.11.7-1.18-2.49,1.5-.79a3.68,3.68,0,0,1,2.4.55c-.44-.28.48-1.3,1.65-.55s1.68-.37,1.87-.25c-.18-.11,2.26-.64,1-1.41.44.28,3.34,1.16,2.46.6.34.21,2.86,1.09,2.81,1.06-2.37-1.5.37-1.58,1.36-1-2.11-1.34.37-1.75,1.09-1.3-1.48-.93,3,1.12,2.82,1,1.52,1,2.37-.06,1.69-.5,1.32.84.83-1.74.63-1.86-1.5-1,1.78.24,2.7.83-1.64-1,1-1.41.95-1.41-4.07-2.58,3,.83,2.48.51-1.68-1.06.81-.77,2.1,0-.29-.19,1.55-.56,1.71-.46,1.51,1,1.75-.42,1.72-.44s2.81.49,2.13.06c.8.51,2.26-.43,1.12-1.15-2.29-1.45,1.79.07,2.58.57-1.52-1,1-1.64.25-2.12-2.21-1.4,3.77,1.44,2.83.84.6.38,4,1,1.66-.5,1.83,1.16,2.95.58,2.18.09-2.21-1.4,3.61,1,2.2.11.9.57,1.27-1.11.92-1.33,1.36.86,1.7-.66,1.27-.93-.81-.51,2.77.5,2.29.2-1.45-.92.82-1.44.81-1.44a34.79,34.79,0,0,0,3.32,1.35c1.05.66-.54-2.56.27-2.05.43.27,2,.33,2.88.87,1,.65,1.33-1.28.49-1.82,0,0,2.89.47,2.06-.05.53.33,4.19,1.9,3.26,1.31-2-1.27,1-1.64.19-2.17.58.37,2.25,0,1.95-.18-1.15-.72,2.54.62,2.74.75-1.5-.95-.62-1.86,1.82-.31.61.38,3.59.83,1.86-.26s3.65,1.09,2.24.19c.44.28.71-1.47,1-1.27-.08-.06,2.78-.25.92-1.43,1.18.75,5.54,2.5,2.57.62-.16-.1-1.65-2.33,2.1.05,1.53,1-1-2.81.78-1.67-.42-.27,1.18-.63,2-.12a5.2,5.2,0,0,1,2-.08c-1.2-.77.88-1,1.76-.42-4.13-2.61.46-1.25,1.74-.44s4.09,1.48,2.26.32c.21.14,2.88.33,1.78-.37,1.69,1.06,1.16-.43,2.14.2s1.27-1,1.49-.87c-1.73-1.1,2.35.53,2.29.49.48.31-3.14-4.44,1-1.83,1.13.71.14-.61,2.48.87-1.55-1,1.6-.25,2,0-.72-.46,3.32,0,1.42-1.17,1.4.88-1.86-2.82,1.77-.51-1.24-.79.18.1,2.69,1.69,1.67,1,2.75-.56,1.41-1.41.58.37-.37-1.87,1.79-.5-.16-.1.41-.79,2.05.25-2.59-1.64,2.93.71,2,.11-.14-.09,4,1.79,2.08.58,1.23.78,3.11,1.07,2,.36.84.53-1.72-4.33,1.52-2.28,2.44,1.54,1.34-.26,2,.15.14.09,1.71,1.48,2.14,1.93.21-.39,2.29-1.78,1.77-2.12.86.55.82.68,2,1.41.25.16,3.78,1.17,1.9,0,1.47.93-.55-1.74,1.92-.18,1.07.68,3.29,1,1.9.08-2.21-1.4,2.65-1.11,2.15-1.42a2.81,2.81,0,0,0,1.9.37c.13.11,1,.75,1.66,1.18a3.47,3.47,0,0,0,1.78.47c.32.21-.3-2.14,2.13-.6-5.31-3.36,5.59,1.75,2.14-.44,0,0-1.48-2.38,2.06-.14,4.33,2.74-.38,1.32.92,2.14-.32-.2,4.18-.47,2.7-1.4-1.24-.79.36-.91,2,.1a7.71,7.71,0,0,1,2,2.26c.7-.47,1-1.72,1.49-1.39a2.22,2.22,0,0,1,2.12-.15l.18.13a8.22,8.22,0,0,1,3.31.64,19.2,19.2,0,0,1,1.67,1.14c0-.33,1.4,0,2.76.88,2.29,1.46,2.65-.63,2.6-.66-2.29-1.45,3.44,2,1.4.75-1.43-.91.16-1.87,2.42-.45,2,1.25,4.69,2.06,1.82.25,2,1.26,4.45,1.84,1.86.2-.11-.07,2,1.21,1.35.8.66.41,1.64-.48,2.14-.17-.49-.31,3,1.46,1.56.56.35.22,1.8,0,2,0A12.08,12.08,0,0,1,656,46.26c.62-.28,1.2-.6,1.19-.6-.7-.45,3.83,1.65,1.75.33,1.31.83,1.39.78,1.23.56l.38.34c.23-.23,1.66.2,3.19,1.17-1.1-.7,1.06-1.69,2.2-1.64.28.5,2.26,2.41,1.77,2.19,2.19,1.25,2.36-1.2,2.22-1.29l1.48,1a5.69,5.69,0,0,1,1.88-1.19,10.69,10.69,0,0,0,2,1.83c2.59,1.65,1.35-.4,2,0-.23-.15,2.46-.23,2-.51,2,1.27,4.13.39,2-.94,2.16,1.37,4.41,1.81,1.88.21-.93-.58,2-.48,2-.74.37.3,1.52,1.16,2,1.56.37-.13.86-1.12,1.73-.57-.13-.09,1.21-.88,1.67-1,.48.5,2.19,1.94,2.28,2,.67.43,1.59-.13,2,.11s-1.35-3.61,1.64-1.72c.19.12,1.49.81,2.19,1.26-.48-.31,2-1.65,1.46-2s2.53,1.2,2.18,1c1.33.84,3.87,1.72,2.14.62.41.27-2.67-4.77,1.17-2.33-.54-.35,1.36.37,2.27.95,1.38.87.52-.76,2,.19.47.29,3.13,0,1.55-1a8.26,8.26,0,0,0,2.28.72c2.36,1.5-.22-2.57,1.18-1.69,1.93,1.23,2.66,1.24,2.51,1.15.26.16,4.13.19,1.09-1.73.9.57,1.61.8,2.79,1.54.3.19,0-1.79,1.52-.85.44.28,2.21-.52,1.39-1,.5.31,1.93.61,2.61,1.05.34.21,2.15,0,2-.08.38.24.71-.94,1.91-.18s1.73-1.16.93-1.66c2.17,1.37-1-1.77,2.22.31,2.17,1.37,3,.23,1.52-.73s.89-.35,2.49.66c2,1.26,2.66.05,1.59-.63,1.17.75,4.22,1.47,2.17.17-.31-.19-2.1-3.43.9-1.53-1.7-1.08,1.91-.59,1.31-1,1.77,1.12,3.5,1,2.18.18-.49-.31-.64-1.9,1.74-.39A14.73,14.73,0,0,0,751,41.73c.09.06,1.39-1.24.75-1.65-2.24-1.41.55-.93,2.11.06a3.55,3.55,0,0,0,2.33.33s1.4-1.36.47-1.95c-1.65-1,3.48.78,1.85-.25-3.69-2.34,2.67.45,2.19.14-1.55-1,3.5,1.1,2.42.42-.18-.12,3.38.85,2.14.06-.58-.36-2.94-3.93.68-1.64-2.37-1.5,4.18,1.68,2.71.75-.77-.49,3.39-.13.28-2.1-.86-.55,4.5,1.66,2.33.29-.24-.15,2.83.79,2.67.69.43.27,1.57-.67,1.43-.76-.92-.58-.34-1.7,1.74-.39.69.44,1.73-.65,1.26-.95-1.36-.86,4.15,1.31,2.07,0-1.93-1.22.77-1.19,1.41-.78-3.64-2.31,1.75.11,2.66.69-.68-.43,3.73.48,1-1.24,1.52,1,1.19-1,1.25-1,.36.24,2-.14,1.84-.26s2.77.67,2.41.44c.24.16-1.71-3.07,1-1.36-.63-.4,3.77,1.65,2.82,1,.32.21,2.37-.48,1.1-1.29,2.62,1.66,1.35.23,2.77,1.13-.61-.39.74-2.05.63-2.12,1,.64,4.81,2.88,3.07,1.78,1.11.71,2-1.2.88-1.93-.2-.12,2.58,1.38,2.7,1.46-2.47-1.57,3.63.89,1.76-.3.19.12,1.78-.74,1.54-.89s4.14,1.74,2,.41c2.15,1.36-1.65-2.75,1.71-.62-3.38-2.14.72-.3,2,.5s3.08-.86,1.62-1.78c.08.05-.16-1.14,2,.21.31.19,2.88.84,1.93.24-.64-.4,2.7.09,2-.38,3.14,2,.09.69,1.61,1.65,1.7,1.08,4.4.05,2.22-1.33,1.88,1.19,3,1.26,1.77.49-3.12-2,4.35,1.83,1.82.23-.59-.37,2.44,1.24,1.56.68,1.23.77,2.7.08,2.13-.28s2.44.39,3.11.18a4.53,4.53,0,0,1,.46.69c.26.16.61.37,1.1.69-.35-.23,4,1.37,2,.08A3.32,3.32,0,0,0,841.89,32.43ZM660.39,46.35l.2.13Z"/><path class="cls-1" d="M40.7,105.49c1.59,1,1.15.54.3-.21C40.75,105.36,40.61,105.43,40.7,105.49Z"/><polygon class="cls-1" points="0.01 100.84 0 100.84 0 100.84 0.01 100.84"/><path class="cls-1" d="M3.4,102.14l-.07,0Z"/><path class="cls-1" d="M44.5,105.64a.49.49,0,0,1-.2-.23C44.3,105.47,44.35,105.55,44.5,105.64Z"/><path class="cls-1" d="M381.87,72.25c.08.07.17.13.28.21C383.94,73.59,383.12,73.06,381.87,72.25Z"/><path class="cls-1" d="M105.11,109.19a0,0,0,0,0,0,0S105.14,109.22,105.11,109.19Z"/><path class="cls-1" d="M57.59,106.7c-.34-.21-.38-.56-.43-.93C56.2,105.43,56.2,105.82,57.59,106.7Z"/><path class="cls-1" d="M82.62,108.57l-.48-.29Z"/></g></g></svg>