<svg xmlns="http://www.w3.org/2000/svg" viewBox="0 0 841.9 336.8"><defs><style>.cls-1{fill:#ffeddf;}</style></defs><title>Risorsa 1</title><g id="Livello_2" data-name="Livello 2"><g id="Livello_1-2" data-name="Livello 1"><g id="Livello_2-2" data-name="Livello 2"><g id="Livello_1-2-2" data-name="Livello 1-2"><path class="cls-1" d="M841.9,336.46V228.05h-.34c-.6,0-.6-1.28-1.2-1.28s-.43,3.07-1,3.07-.77-3.75-1.36-3.67-.43,2.47-1,2.47-.51.6-1.11.68-.69-3.32-1.29-3.32a6.21,6.21,0,0,0-1.19.17c-.6,0-.43,3.49-1,3.49s-.6-1.27-1.2-1.27-.51.93-1.11,1-.51,1.53-1.11,1.62-.6.51-1.11.6-.6-.69-1.2-.69-.77-4.26-1.37-4.26-.42,2.81-1,2.81-.69-2-1.29-2-.6-.59-1.19-.59-.6-.34-1.2-.34-.43,2.81-1,2.81-.68-2-1.28-2-.6.52-1.11.52-.52,1.78-1.11,1.78-.52,1-1.12,1-.59,1.28-1.11,1.28-.68-2.05-1.28-2-.43,3-1,3.06-.6-1-1.19-.93-.69-1.11-1.2-1.11-.6.34-1.11.34-.77-4.09-1.37-4.09-.43,3.24-1,3.24-.68-2.82-1.28-2.82-.43,4.35-1,4.35-.51.26-1.11.26-.68-2.47-1.28-2.47-.51.76-1.11.76-.69-2.72-1.29-2.72-.34,5.19-.94,5.19-.6-.68-1.19-.68-.77-4.69-1.37-4.69-.43,3.84-1,3.84-.77-3.92-1.37-3.84-.51.86-1.11.86-.51,1.36-1.11,1.36-.69-1.87-1.2-1.87-.43,2.89-1,2.89-.69-2.21-1.29-2.21-.34,4.86-1,4.86-.6-.17-1.2-.17-.6-.26-1.2-.26-.51-1.71-1-1.62-.43,2.39-1,2.39-.77-4.78-1.37-4.69-.34,4.69-1,4.69-.77-4.61-1.36-4.61-.35,4.52-1,4.61-.77-4.09-1.37-4.09-.43,3.66-1,3.66-.68-3.07-1.28-3-.68-2-1.28-2-.43,4.43-1,4.43-.51,1.19-1.11,1.19-.77-4.52-1.37-4.52-.6-.25-1.19-.25-.6-.17-1.2-.09-.43,4.44-1,4.44-.51,1.36-1.11,1.44-.68-2.72-1.28-2.72-.69-3.33-1.29-3.24-.42,2.73-1,2.73-.43,3.06-1,3.15-.6-1.19-1.11-1.19-.6-.86-1.2-.86-.51,1.2-1.11,1.2-.6-.43-1.2-.43-.6-.17-1.19-.17S752.61,235,752,235s-.68-2.56-1.28-2.56-.68-2-1.28-1.87-.6-.09-1.2-.09-.43,3.92-1,4-.68-3.07-1.28-3-.6-1.1-1.2-1-.59-.77-1.19-.77-.35,4.78-1,4.78-.77-3.67-1.28-3.67c-.26.17-.26,1.54-.77,1.54s-.6-1.28-1.2-1.28-.43,3-1,3.07-.77-3.07-1.36-3.07-.52,1.36-1.12,1.36-.42,3.41-1,3.41-.77-4.09-1.37-4-.43,4.09-1,4.09-.6-3.58-1.19-3.58-.52,1.7-1.12,1.7-.59.51-1.11.51-.68-2.81-1.28-2.72-.6-.26-1.2-.17-.6-.52-1.19-.52-.52.86-1.12.86-.6-.26-1.19-.26-.52,1.88-1.12,2-.51,1.45-1.11,1.45-.68-2.73-1.28-2.64-.43,2.47-1,2.47-.68-2-1.28-2-.6.17-1.2.17-.68-1.79-1.19-1.79-.43,4.26-1,4.26-.6-.34-1.2-.34-.77-4.18-1.37-4.09-.51,2.3-1,2.3-.43,1.36-1,1.36-.51,1.45-1.11,1.45-.77-4.43-1.37-4.34-.6-.26-1.2-.26-.42,2.81-1,2.81-.52.94-1.11.94-.69-3.32-1.29-3.32-.51.85-1.11.85-.43,4.09-1,4.09-.68-2.22-1.28-2.13-.6-.6-1.2-.6-.68-2.13-1.28-2.13-.6-.17-1.2-.17-.59-.17-1.19-.17-.43,2.73-1,2.73-.68-2-1.28-2-.43,4.43-1,4.52-.6-.35-1.2-.35-.51,1.2-1.11,1.2-.85-5.54-1.37-5.54-.34,5.88-.94,6-.77-4.94-1.37-4.85-.51,2.38-1.11,2.38-.6.34-1.11.43-.68-1.88-1.28-1.88-.6-.85-1.2-.85-.6-.94-1.2-.94-.6.17-1.19.17-.52,2.13-1.12,2.13-.51.86-1.11.94-.68-1.7-1.2-1.62-.51.77-1.11.85-.42,3.16-1,3.24-.69-2.21-1.29-2.21-.68-2.3-1.28-2.3-.34,4.94-1,4.94-.68-2.05-1.28-2-.68-2.22-1.28-2.13-.43,3.49-1,3.49-.6-1-1.19-1-.6.51-1.12.51-.6.09-1.19.09-.77-4.61-1.37-4.61-.43,3.33-1,3.33-.43,2.39-1,2.39-.77-4.27-1.37-4.27-.52,1.45-1.11,1.45-.6-.42-1.2-.42-.6-.34-1.2-.26-.43,4-1,4-.77-4.69-1.36-4.69-.43,3.58-1,3.58-.68-2.22-1.28-2.13-.43,3.66-1,3.66-.6.17-1.11.17h-1.2c-.6,0-.6-1.36-1.2-1.36s-.77-4.77-1.36-4.69-.35,5.54-1,5.54-.77-4.94-1.36-4.94-.52,1.28-1.12,1.36-.51,2.39-1,2.39-.6-.77-1.2-.77S636,239,635.36,239s-.77-2.14-1.28-2.14-.52,2-1.12,2-.68-2-1.19-2-.52,2.48-1,2.48-.6-.09-1.2-.09-.68-1.87-1.28-1.79-.68-1.87-1.2-1.79-.42,3.33-1,3.41-.6-.68-1.2-.6-.68-1.53-1.28-1.53-.6-.17-1.2-.17-.51,1.28-1.11,1.36-.6-1-1.2-1-.51,2-1.11,2.13-.77-4.18-1.37-4.18-.51,1.88-1.11,1.88-.52.68-1.11.68-.6-.94-1.2-.94a6,6,0,0,0-1.2,0c-.6.09-.34,4.95-1,4.95s-.77-3.58-1.29-3.5-.6-.42-1.19-.42-.6-.94-1.2-.94-.43,3-1,3-.6.51-1.11.51-.6.51-1.11.51-.77-4.6-1.37-4.6-.34,5.37-.94,5.46-.69-1.54-1.2-1.54-.51.86-1.11.94-.77-4-1.37-3.92-.51,1.79-1.11,1.79-.6-.17-1.2-.17-.68-2-1.28-2c.17.09.17,1.62-.34,1.62s-.52,2.47-1,2.47-.6.18-1.11.26-.69-2.3-1.28-2.3-.43,3.66-1,3.75-.77-3.92-1.37-3.84l-1.2.17c-.59.09-.59-1.44-1.19-1.44s-.52,1.1-1.11,1.1-.43,2.82-1,2.82-.77-4.44-1.37-4.44-.6.6-1.11.6-.51,2.3-1,2.3-.68-2.64-1.28-2.64-.34,5.11-.94,5.2-.6-.94-1.2-.85-.6-.09-1.2,0-.68-2.9-1.28-2.9-.43,2.56-1,2.56-.85-4.18-1.45-4.18-.51,2.39-1.11,2.39-.6-.6-1.2-.52-.6-.25-1.2-.25-.59-.85-1.19-.85-.52,1.7-1.11,1.7-.69-1.87-1.29-1.87-.51,2.13-1.11,2.13-.51,2-1.11,2-.69-1.54-1.2-1.54-.51,2.47-1,2.47-.6-3.4-1.2-3.4-.43,4.6-1,4.6-.6-1.11-1.2-1-.68-1.71-1.19-1.71-.43,2.47-1,2.47-.85-5.45-1.37-5.45-.43,3.75-1,3.83-.52.77-1.12.86-.51,1.44-1.11,1.44-.77-4.34-1.37-4.34-.59-.43-1.19-.43-.52,1.62-1.12,1.71-.68-2.9-1.28-2.9-.51,1.36-1.11,1.36-.43,4.35-1,4.43-.51.52-1.11.6-.68-2.9-1.28-2.9-.51,1.54-1.11,1.54-.6-1.2-1.2-1.2-.6.43-1.11.43-.69-3.15-1.28-3.15-.52,1.53-1.12,1.62-.6-.26-1.19-.18-.52,1.11-1.12,1.11-.68-2.13-1.28-2.13-.43,3.75-1,3.75-.6-1.28-1.2-1.19-.6.6-1.11.6-.52.93-1.12.93-.51.69-1.11.69-.77-4.18-1.37-4.18-.59-.51-1.19-.51-.6.34-1.12.42-.42,4.35-1,4.35-.6-.17-1.2-.08-.6-1.37-1.2-1.37-.77-3.41-1.28-3.32-.51,2-1.11,2.13-.6.59-1.11.59-.69-1.87-1.29-1.87-.51,1.28-1.11,1.28-.6.17-1.19.25-.52,1.45-1.12,1.45-.51.68-1.11.68-.51,1.37-1.11,1.37-.68-2.56-1.28-2.56-.69-2.47-1.29-2.47-.42,2.39-1,2.39-.69-1.71-1.2-1.71-.6-.34-1.2-.25-.6-.86-1.19-.77-.35,5.37-.94,5.37-.69-2.22-1.29-2.13-.51,2-1.11,2-.6-.51-1.2-.51-.77-3.67-1.37-3.67-.51,1.88-1.11,1.88-.42,3.41-1,3.49-.6-1.36-1.2-1.28-.68-2.55-1.28-2.55-.52,1.79-1.12,1.87-.51,1-1.11,1-.77-3.75-1.37-3.75-.42,4.52-1,4.52-.69-2.3-1.28-2.3-.52,1.45-1.12,1.53a5.51,5.51,0,0,1-1.19.17c-.6,0-.77-4.77-1.37-4.77s-.43,4-1,4-.68-2.56-1.28-2.56-.51,1.79-1.11,1.88-.69-3-1.29-3-.42,3.07-1,3.07-.6-.68-1.2-.6-.6-1-1.2-.93-.6-1.45-1.19-1.37-.35,5.29-.95,5.29-.76-2.82-1.28-2.82-.51,2.13-1.11,2.22-.77-3.66-1.28-3.66-.43,4.09-1,4.09-.77-4.18-1.37-4.09-.43,2.89-1,3-.69-1.54-1.2-1.54-.43,3.84-1,3.84-.68-1.71-1.19-1.62-.77-4-1.37-4-.52,1.71-1.11,1.71-.6-1.11-1.2-1.11-.43,2.64-1,2.64-.6-.08-1.2-.08-.51,1.53-1.11,1.53-.68-1.79-1.28-1.79-.51,2.81-1,2.81-.6.43-1.11.43-.6-.77-1.2-.77-.59-.76-1.19-.68-.77-3.83-1.37-3.75-.51,1.2-1.11,1.2-.52,1.36-1.12,1.36h-1.19c-.6,0-.6-1.11-1.2-1.11s-.51,1.71-1.11,1.71-.51,2.3-1,2.3-.77-3.33-1.28-3.33-.51,2-1.11,2-.69-3.15-1.29-3.07-.42,3.07-1,3.07-.6-1.36-1.2-1.28-.68-1.53-1.2-1.53-.68-.6-1.19-.6-.43,4-1,4-.77-4-1.37-4-.51,1.11-1.11,1.11-.68-1.79-1.2-1.7-.51.76-1.11.76-.6-.34-1.2-.34-.6.43-1.11.43-.51,2.3-1,2.39-.69-2.48-1.29-2.48-.51.94-1.11.94-.17,1.71-.77,1.71-.6.08-1.2.08-.42,2.39-1,2.47-.77-4.51-1.37-4.51-.51,2-1.11,2.13-.52,1.87-1.12,1.87l-1.19.09c-.6,0-.77-4-1.37-4s-.43,4.09-1,4.09-.68-2.73-1.28-2.73-.51.77-1.11.86-.69-2-1.28-2-.52,1.36-1.12,1.36-.6-.17-1.19-.17-.52,2.13-1.12,2.13-.68-3.15-1.28-3.07h-1.2c-.59,0-.34,4.95-.94,5s-.68-1.7-1.19-1.62-.77-3.83-1.37-3.83-.52,1.7-1.11,1.7-.52,1.62-1.12,1.62-.68-2.13-1.28-2.13-.6-.17-1.2-.17-.42,3.15-1,3.24-.69-1.79-1.29-1.79-.42,3.58-1,3.58-.77-5.2-1.37-5.12-.51,1-1.11,1-.69-1.45-1.2-1.45-.34,5.28-.94,5.28-.6-.42-1.2-.34-.68-2.73-1.28-2.64-.51,2.39-1,2.39-.68-1.54-1.19-1.54-.69-1.7-1.2-1.7-.43,3.49-1,3.49-.6-.34-1.19-.34a6,6,0,0,0-1.2,0c-.6.09-.69-2.81-1.28-2.81s-.43,4.34-1,4.34-.86-5.45-1.37-5.37-.34,5.46-.94,5.46-.68-2.56-1.28-2.47-.52,2.13-1.11,2.13-.77-4.69-1.37-4.69-.6-.34-1.2-.34-.34,4.86-.94,4.86-.51.77-1.11.77-.6.59-1.12.59-.68-3.15-1.28-3.15-.6-1.19-1.2-1.19-.42,3.06-1,3.06-.51,1.11-1.11,1.11-.69-2.13-1.29-2.13-.51,2.13-1.11,2.13-.68-1.36-1.28-1.36-.77-4.18-1.37-4.09-.6.68-1.11.68-.34,4.77-1,4.77-.77-4.6-1.37-4.6-.51,2.47-1,2.47-.69-2.81-1.28-2.73-.35,5.54-1,5.54-.85-5.62-1.36-5.54-.43,3-1,3-.68-3.24-1.28-3.24.08,3.75-.52,3.75-.51,1.28-1.11,1.36-.6-1.28-1.2-1.28-.51.86-1.11.86-.68-1.45-1.19-1.45-.69-2-1.29-2-.6-1.37-1.19-1.37-.43,3.67-1,3.75-.69-2.72-1.28-2.72-.52.85-1.12.85-.59-1-1.19-.94-.6.6-1.12.6-.51,1.45-1.11,1.45-.51,1-1.11,1-.6-1.54-1.2-1.54-.51.6-1.11.69-.6.25-1.2.34-.51,1.36-1.11,1.36-.77-4.18-1.37-4.18-.51.69-1.11.77-.51,1.28-1.11,1.37-.6-.6-1.2-.52-.42,2.65-1,2.73-.52,1-1.11,1-.6-1.27-1.2-1.27-.6.59-1.11.59-.6-1.11-1.2-1.11-.6-.42-1.2-.34-.51,2.39-1,2.39-.52.77-1.12.85-.68-3.07-1.28-3.07-.51.6-1.11.69-.43,2.72-1,2.72-.6-1.28-1.19-1.28-.77-3.58-1.29-3.58-.6.6-1.11.6-.51,1.36-1.11,1.45-.51,1.36-1.11,1.45-.52,1.28-1.11,1.28-.6-.6-1.2-.6-.77-4.69-1.37-4.6-.6-.26-1.2-.26-.51,2-1.11,2-.6.26-1.11.34-.6-.93-1.2-.93-.6-.09-1.2-.09h-1.19c-.6,0-.52,1.19-1.12,1.19s-.59.09-1.19.09-.43,4.09-1,4.09-.77-4.26-1.37-4.26-.6-1-1.19-.94-.52,1.45-1.12,1.45-.59.51-1.11.51-.68-2.81-1.28-2.73-.43,3.24-1,3.33-.68-3.07-1.28-3-.43,3.92-1,4-.68-2.3-1.28-2.3-.51,2.39-1,2.39-.59-1.11-1.19-1.11-.52.77-1.11.77-.69-2-1.29-2-.43,2.72-1,2.72-.77-3.32-1.29-3.24-.51,1.2-1.11,1.28-.51,2.47-1,2.47-.6-.51-1.2-.51-.6-.25-1.2-.25-.51,1.11-1.11,1.11-.6-.18-1.2-.18-.6-1.27-1.2-1.19-.51,1.79-1.11,1.79-.77-3.24-1.37-3.15-.59.51-1.11.59-.43,2.73-1,2.73-.77-3.49-1.29-3.49-.6-.86-1.19-.86-.6-.85-1.2-.85-.34,5.2-.94,5.29-.77-3.41-1.37-3.41-.51,2-1.11,2-.69-2.81-1.29-2.81-.51.76-1.11.76-.6-.51-1.19-.51-.6-.68-1.2-.68-.52,2.22-1.11,2.22-.52,1.87-1.12,2-.59-.6-1.19-.6-.52,1.36-1.11,1.45-.77-5-1.37-5-.43,4.52-1,4.52-.77-3.41-1.28-3.41-.6.34-1.11.34a6,6,0,0,0-1.2,0c-.6.09-.34,4.69-1,4.69s-.85-6.22-1.45-6.22-.43,4-1,4-.6-.18-1.2-.18-.59.18-1.11.18-.6-.35-1.19-.26-.6-1-1.2-1-.43,3.83-1,3.92-.6-2.47-1.2-2.47a6,6,0,0,0-1.19.08c-.6.09-.6-.85-1.2-.77s-.68-3-1.28-3-.52,1.53-1.11,1.62-.43,4.35-1,4.43-.77-3.66-1.28-3.58-.52,2-1.12,2-.68-3.66-1.28-3.66-.51.76-1.11.85-.51.94-1.11.94-.52,2.13-1.11,2.13-.77-3.16-1.29-3.16-.42,4.35-1,4.35-.77-4.43-1.37-4.35-.51,1-1.11,1.11-.6.26-1.12.34-.59-1.1-1.19-1.1-.43,4.43-1,4.51-.6-1-1.2-1-.59.77-1.11.77-.77-3.75-1.37-3.75-.51,1.62-1.11,1.62-.51,1.79-1.11,1.87-.68-2.47-1.28-2.47-.52,1-1.11,1-.69-2-1.29-2-.43,3-1,3-.52,1.27-1.12,1.27-.59.17-1.11.26-.6-.85-1.19-.85-.77-3.67-1.29-3.67-.6.26-1.2.26-.34,5-1,5-.69-3.24-1.28-3.24-.6-.94-1.2-.85-.6-.69-1.2-.69-.6.52-1.11.52-.43,4.43-1,4.43-.85-5.54-1.37-5.54-.34,5.45-.94,5.45-.77-3.49-1.28-3.49-.43,2.9-1,2.9-.59-1.11-1.19-1.11l-1.2.08c-.6,0-.68-1.53-1.2-1.53s-.68-1.88-1.28-1.88-.51,2-1.11,2-.69-2.13-1.28-2.13-.6.09-1.2.09-.52,1.11-1.11,1.11-.43,4.17-1,4.17-.77-5.2-1.37-5.2-.43,4.09-1,4.09-.77-3.83-1.37-3.83-.52,2.13-1.12,2.13-.51.6-1.11.6-.6-1-1.19-1-.43,2.56-1,2.56-.6-.17-1.2-.17-.68-2.47-1.28-2.47-.6-.68-1.2-.68-.51,1.87-1.11,1.87-.68-2-1.28-2-.52,1.11-1.11,1.11-.69-1.36-1.2-1.36-.52,1.36-1.11,1.36-.52.94-1.12,1-.51.85-1.11.85-.6.52-1.11.52H140c-.6,0-.6.42-1.11.42s-.51,1.54-1.11,1.54-.6-.69-1.2-.6-.6-.68-1.19-.68-.6.59-1.12.59-.6-.17-1.19-.17-.77-4.51-1.37-4.51-.34,4.94-1,4.94-.6-.34-1.2-.34-.77-3.67-1.36-3.67-.6.6-1.12.69-.51,1.19-1.11,1.19-.68-2.22-1.28-2.22-.34,5.63-.94,5.71-.6-.08-1.2-.08-.68-2.81-1.28-2.81-.69-1.54-1.2-1.45-.43,3.41-1,3.49-.59-1-1.19-1-.6.68-1.11.68-.77-3.32-1.29-3.32-.6-1.28-1.19-1.2-.52.77-1.12.77-.42,3.41-1,3.41-.77-3.41-1.29-3.41-.42,3-1,3.07-.6.6-1.11.6-.52,1.53-1.12,1.53-.77-4.18-1.36-4.18-.6.6-1.12.68-.59-.17-1.19-.17-.52.77-1.12.77-.68-2.3-1.28-2.3-.51,1-1.11,1-.34,4.61-1,4.61-.68-3-1.28-3-.6.34-1.11.43-.51.77-1.11.85-.52,2.05-1.11,2.05S94,261,93.39,261s-.51.77-1.11.77h-1.2c-.6,0-.68-2.65-1.28-2.65s-.43,3.93-1,4-.59-1.53-1.19-1.45-.69-3.24-1.29-3.24-.51,1.37-1.11,1.37S84.67,261,84.07,261s-.51.6-1.11.68-.69-2.13-1.28-2-.6-.09-1.2-.09-.43,3.41-1,3.5-.6-.94-1.2-.86-.68-2-1.28-1.87-.51,1-1.11,1-.51,2.3-1.11,2.3-.69-1.62-1.2-1.53-.68-1.37-1.2-1.37-.42,4-1,4-.86-5.54-1.37-5.54-.51,2-1.11,2.05c-.43,0-.35,1.87-.94,1.87s-.6-.51-1.2-.43-.51,1.2-1.11,1.2-.77-4.43-1.37-4.35-.43,3.5-1,3.58-.6.51-1.11.51-.6-1.36-1.2-1.36-.68-3-1.28-3-.43,3.66-1,3.66-.68-1.87-1.28-1.87-.68-1.79-1.28-1.71-.34,4.69-1,4.69-.77-4.18-1.37-4.18-.25,5.54-.77,5.63-.68-1.79-1.28-1.71-.68-1.53-1.2-1.53-.68-1.62-1.19-1.62-.6-.6-1.2-.6-.6.43-1.11.51-.43,4.52-1,4.61-.68-2.31-1.28-2.31-.6-1.19-1.2-1.1-.6-1.2-1.2-1.2-.34,5.54-.94,5.54-.68-2.72-1.28-2.64-.51,2.22-1.11,2.22-.6-.43-1.2-.34-.77-4-1.37-3.92-.51,2-1.11,2-.51,1.19-1.11,1.19-.6-.76-1.2-.76-.68-1.71-1.28-1.62-.43,4-1,4a6,6,0,0,0-1.2,0c-.59.09-.68-1.87-1.28-1.87s-.77-3.75-1.37-3.75-.42,4.6-1,4.6h-1.2c-.6,0-.77-3.41-1.28-3.41s-.52,1.28-1.11,1.37-.6-1.28-1.2-1.2-.52,1.45-1.11,1.54-.6-.51-1.2-.43-.43,3.67-1,3.67-.6-.35-1.19-.26-.52.94-1.12,1-.77-5.37-1.37-5.37-.51,1.71-1.11,1.79-.68-2-1.28-1.87-.43,3.66-1,3.66-.77-3.75-1.36-3.66-.35,5.45-1,5.45-.59-.51-1.19-.42-.6-1.2-1.2-1.2-.77-3.66-1.37-3.66-.6.51-1.11.51-.51.77-1.11.77-.6-.86-1.2-.86S.6,268,0,268H0V336.8Z"/></g></g><g id="Livello_2-3" data-name="Livello 2"><g id="Livello_1-2-3" data-name="Livello 1-2"><path class="cls-1" d="M0,.34V108.75H.34c.6,0,.6,1.28,1.2,1.28S2,107,2.57,107s.77,3.75,1.36,3.67.43-2.47,1-2.47.51-.6,1.11-.68.69,3.32,1.29,3.32a6.21,6.21,0,0,0,1.19-.17c.6,0,.43-3.49,1-3.49s.6,1.27,1.2,1.27.51-.93,1.11-1,.51-1.53,1.11-1.62.6-.51,1.11-.6.6.69,1.2.69.77,4.26,1.37,4.26.42-2.81,1-2.81.69,2,1.29,2,.6.59,1.19.59.6.34,1.2.34.43-2.81,1-2.81.68,2,1.28,2,.6-.52,1.11-.52.52-1.78,1.11-1.78.52-1,1.12-1,.59-1.28,1.11-1.28.68,2,1.28,2,.43-3,1-3.06.6,1,1.19.93.69,1.11,1.2,1.11.6-.34,1.11-.34.77,4.09,1.37,4.09.43-3.24,1-3.24.68,2.82,1.28,2.82.43-4.35,1-4.35.51-.26,1.11-.26.68,2.47,1.28,2.47.51-.76,1.11-.76.69,2.72,1.29,2.72.34-5.19.94-5.19.6.68,1.19.68.77,4.69,1.37,4.69.43-3.84,1-3.84.77,3.92,1.37,3.84.51-.86,1.11-.86.51-1.36,1.11-1.36.69,1.87,1.2,1.87.43-2.89,1-2.89.69,2.21,1.29,2.21.34-4.86,1-4.86.6.17,1.2.17.6.26,1.2.26.51,1.71,1,1.62.43-2.39,1-2.39.77,4.78,1.37,4.69.34-4.69,1-4.69.77,4.61,1.36,4.61.35-4.52,1-4.61.77,4.09,1.37,4.09.43-3.66,1-3.66.68,3.07,1.28,3,.68,2,1.28,2,.43-4.43,1-4.43.51-1.19,1.11-1.19.77,4.52,1.37,4.52.6.25,1.19.25.6.17,1.2.09.43-4.44,1-4.44.51-1.36,1.11-1.44.68,2.72,1.28,2.72.69,3.33,1.29,3.24.42-2.73,1-2.73.43-3.06,1-3.15.6,1.19,1.11,1.19.6.86,1.2.86.51-1.2,1.11-1.2.6.43,1.2.43.6.17,1.19.17.52-1.28,1.12-1.28.68,2.56,1.28,2.56.68,2,1.28,1.87.6.09,1.2.09.43-3.92,1-4,.68,3.07,1.28,3,.6,1.1,1.2,1,.59.77,1.19.77.35-4.78,1-4.78.77,3.67,1.28,3.67c.26-.17.26-1.54.77-1.54s.6,1.28,1.2,1.28.43-3,1-3.07.77,3.07,1.36,3.07.52-1.36,1.12-1.36.42-3.41,1-3.41.77,4.09,1.37,4,.43-4.09,1-4.09.6,3.58,1.19,3.58.52-1.7,1.12-1.7.59-.51,1.11-.51.68,2.81,1.28,2.72.6.26,1.2.17.6.52,1.2.52.51-.86,1.11-.86.6.26,1.19.26.52-1.88,1.12-2,.51-1.45,1.11-1.45.68,2.73,1.28,2.64.43-2.47,1-2.47.68,2,1.28,2,.6-.17,1.2-.17.68,1.79,1.19,1.79.43-4.26,1-4.26.6.34,1.2.34.77,4.18,1.37,4.09.51-2.3,1-2.3.43-1.36,1-1.36.51-1.45,1.11-1.45.77,4.43,1.37,4.34.6.26,1.2.26.42-2.81,1-2.81.52-.94,1.11-.94.69,3.32,1.29,3.32.51-.85,1.11-.85.43-4.09,1-4.09.68,2.22,1.28,2.13.6.6,1.2.6.68,2.13,1.28,2.13.6.17,1.2.17.59.17,1.19.17.43-2.73,1-2.73.68,2,1.28,2,.43-4.43,1-4.52.6.35,1.2.35.51-1.2,1.11-1.2.85,5.54,1.37,5.54.34-5.88.94-6,.77,4.94,1.37,4.85.51-2.38,1.11-2.38.6-.34,1.11-.43.68,1.88,1.28,1.88.6.85,1.2.85.6.94,1.2.94.6-.17,1.19-.17.52-2.13,1.12-2.13.51-.86,1.11-.94.68,1.7,1.2,1.62.51-.77,1.11-.85.42-3.16,1-3.24.69,2.21,1.29,2.21.68,2.3,1.28,2.3.34-4.94,1-4.94.68,2,1.28,2,.68,2.22,1.28,2.13.43-3.49,1-3.49.6,1,1.19,1,.6-.51,1.12-.51.6-.09,1.19-.09.77,4.61,1.37,4.61.43-3.33,1-3.33.43-2.39,1-2.39.77,4.27,1.37,4.27.52-1.45,1.11-1.45.6.42,1.2.42.6.34,1.2.26.43-4,1-4S191,102,191.57,102s.43-3.58,1-3.58.68,2.22,1.28,2.13.43-3.66,1-3.66.6-.17,1.11-.17h1.2c.6,0,.6,1.36,1.2,1.36s.77,4.77,1.36,4.69.35-5.54.95-5.54.77,4.94,1.36,4.94.52-1.28,1.12-1.36.51-2.39,1-2.39.6.77,1.2.77.51-1.37,1.11-1.37.77,2.14,1.28,2.14.52-2,1.12-2,.68,2,1.19,2,.52-2.48,1-2.48.6.09,1.2.09.68,1.87,1.28,1.79.68,1.87,1.2,1.79.42-3.33,1-3.41.6.68,1.2.6.68,1.53,1.28,1.53.6.17,1.2.17.51-1.28,1.11-1.36.6,1,1.2,1,.51-2,1.11-2.13.77,4.18,1.37,4.18.51-1.88,1.11-1.88.52-.68,1.11-.68.6.94,1.2.94a6,6,0,0,0,1.2,0c.6-.09.34-5,1-5s.77,3.58,1.29,3.5.6.42,1.19.42.6.94,1.2.94.43-3,1-3,.6-.51,1.11-.51.6-.51,1.11-.51.77,4.6,1.37,4.6.34-5.37.94-5.46.69,1.54,1.2,1.54.51-.86,1.11-.94.77,4,1.37,3.92.51-1.79,1.11-1.79.6.17,1.2.17.68,2.05,1.28,2.05c-.17-.09-.17-1.62.34-1.62s.52-2.47,1-2.47.6-.18,1.11-.26.69,2.3,1.28,2.3.43-3.66,1-3.75.77,3.92,1.37,3.84l1.2-.17c.59-.09.59,1.44,1.19,1.44s.52-1.1,1.11-1.1.43-2.82,1-2.82.77,4.44,1.37,4.44.6-.6,1.11-.6.51-2.3,1-2.3.68,2.64,1.28,2.64.34-5.11.94-5.2.6.94,1.2.85.6.09,1.2,0,.68,2.9,1.28,2.9.43-2.56,1-2.56.85,4.18,1.45,4.18.51-2.39,1.11-2.39.6.6,1.2.52.6.25,1.2.25.59.85,1.19.85.52-1.7,1.11-1.7.69,1.87,1.29,1.87.51-2.13,1.11-2.13.51-2,1.11-2,.69,1.54,1.2,1.54.51-2.47,1-2.47.6,3.4,1.2,3.4.43-4.6,1-4.6.6,1.11,1.2,1,.68,1.71,1.19,1.71.43-2.47,1-2.47.85,5.45,1.37,5.45.43-3.75,1-3.83.52-.77,1.12-.86.51-1.44,1.11-1.44.77,4.34,1.37,4.34.59.43,1.19.43.52-1.62,1.12-1.71.68,2.9,1.28,2.9.51-1.36,1.11-1.36.43-4.35,1-4.43.51-.52,1.11-.6.68,2.9,1.28,2.9.51-1.54,1.11-1.54.6,1.2,1.2,1.2.6-.43,1.11-.43.69,3.15,1.28,3.15.52-1.53,1.12-1.62.6.26,1.19.18.52-1.11,1.12-1.11.68,2.13,1.28,2.13.43-3.75,1-3.75.6,1.28,1.2,1.19.6-.6,1.11-.6.52-.93,1.12-.93.51-.69,1.11-.69.77,4.18,1.37,4.18.59.51,1.19.51.6-.34,1.12-.42.42-4.35,1-4.35.6.17,1.2.08.6,1.37,1.2,1.37.77,3.41,1.28,3.32.51-2,1.11-2.13.6-.59,1.11-.59.69,1.87,1.29,1.87.51-1.28,1.11-1.28.6-.17,1.19-.25.52-1.45,1.12-1.45.51-.68,1.11-.68.51-1.37,1.11-1.37.68,2.56,1.28,2.56.69,2.47,1.29,2.47.42-2.39,1-2.39.69,1.71,1.2,1.71.6.34,1.2.25.6.86,1.19.77.35-5.37.94-5.37.69,2.22,1.29,2.13.51-2,1.11-2,.6.51,1.2.51.77,3.67,1.37,3.67.51-1.88,1.11-1.88.42-3.41,1-3.49.6,1.36,1.2,1.28.68,2.55,1.28,2.55.52-1.79,1.12-1.87.51-1,1.11-1,.77,3.75,1.37,3.75.42-4.52,1-4.52.69,2.3,1.28,2.3.52-1.45,1.12-1.53a5.51,5.51,0,0,1,1.19-.17c.6,0,.77,4.77,1.37,4.77s.43-4,1-4,.68,2.56,1.28,2.56.51-1.79,1.11-1.88.69,3,1.29,3,.42-3.07,1-3.07.6.68,1.2.6.6,1,1.2.93.6,1.45,1.19,1.37.35-5.29,1-5.29.76,2.82,1.28,2.82.51-2.13,1.11-2.22.77,3.66,1.28,3.66.43-4.09,1-4.09.77,4.18,1.37,4.09.43-2.89,1-3,.69,1.54,1.2,1.54.43-3.84,1-3.84.68,1.71,1.19,1.62.77,4,1.37,4,.52-1.71,1.11-1.71.6,1.11,1.2,1.11.43-2.64,1-2.64.6.08,1.2.08.51-1.53,1.11-1.53.68,1.79,1.28,1.79.51-2.81,1-2.81.6-.43,1.11-.43.6.77,1.2.77.59.76,1.19.68.77,3.83,1.37,3.75.51-1.2,1.11-1.2.52-1.36,1.12-1.36h1.19c.6,0,.6,1.11,1.2,1.11s.51-1.71,1.11-1.71.51-2.3,1-2.3.77,3.33,1.28,3.33.51-2,1.11-2,.69,3.15,1.29,3.07.42-3.07,1-3.07.6,1.36,1.2,1.28.68,1.53,1.2,1.53.68.6,1.19.6.43-4,1-4,.77,4,1.37,4,.51-1.11,1.11-1.11.68,1.79,1.2,1.7.51-.76,1.11-.76.6.34,1.2.34.6-.43,1.11-.43.51-2.3,1-2.39.68,2.48,1.28,2.48.51-.94,1.11-.94.17-1.71.77-1.71.6-.08,1.2-.08.42-2.39,1-2.47.77,4.51,1.37,4.51.51-2,1.11-2.13.52-1.87,1.12-1.87l1.19-.09c.6,0,.77,4,1.37,4s.43-4.09,1-4.09.68,2.73,1.28,2.73.51-.77,1.11-.86.69,2,1.28,2,.52-1.36,1.12-1.36.6.17,1.19.17.52-2.13,1.12-2.13.68,3.15,1.28,3.07h1.2c.59,0,.34-5,.94-5s.68,1.7,1.19,1.62.77,3.83,1.37,3.83.52-1.7,1.11-1.7.52-1.62,1.12-1.62.68,2.13,1.28,2.13.6.17,1.2.17.42-3.15,1-3.24.69,1.79,1.29,1.79.42-3.58,1-3.58.77,5.2,1.37,5.12.51-1,1.11-1,.69,1.45,1.2,1.45S457,86,457.64,86s.6.42,1.2.34.68,2.73,1.28,2.64.51-2.39,1-2.39.68,1.54,1.19,1.54.69,1.7,1.2,1.7.43-3.49,1-3.49.6.34,1.19.34a6,6,0,0,0,1.2,0c.6-.09.69,2.81,1.28,2.81s.43-4.34,1-4.34.86,5.45,1.37,5.37.34-5.46.94-5.46.68,2.56,1.28,2.47.52-2.13,1.11-2.13.77,4.69,1.37,4.69.6.34,1.2.34.34-4.86.94-4.86.51-.77,1.11-.77.6-.59,1.12-.59.68,3.15,1.28,3.15.6,1.19,1.2,1.19.42-3.06,1-3.06.51-1.11,1.11-1.11.69,2.13,1.29,2.13.51-2.13,1.11-2.13.68,1.36,1.28,1.36.77,4.18,1.37,4.09.6-.68,1.11-.68.34-4.77,1-4.77.77,4.6,1.37,4.6.51-2.47,1-2.47.69,2.81,1.28,2.73.35-5.54.95-5.54.85,5.62,1.36,5.54.43-3,1-3,.68,3.24,1.28,3.24-.08-3.75.52-3.75.51-1.28,1.11-1.36.6,1.28,1.2,1.28.51-.86,1.11-.86.68,1.45,1.19,1.45.69,2,1.29,2,.6,1.37,1.19,1.37.43-3.67,1-3.75.69,2.72,1.28,2.72.52-.85,1.12-.85.59,1,1.19.94.6-.6,1.12-.6.51-1.45,1.11-1.45.51-1,1.11-1,.6,1.54,1.2,1.54.51-.6,1.11-.69.6-.25,1.2-.34.51-1.36,1.11-1.36.77,4.18,1.37,4.18.51-.69,1.11-.77.51-1.28,1.11-1.37.6.6,1.2.52.42-2.65,1-2.73.52-1,1.11-1,.6,1.27,1.2,1.27.6-.59,1.11-.59.6,1.11,1.2,1.11.6.42,1.2.34.51-2.39,1-2.39.52-.77,1.12-.85.68,3.07,1.28,3.07.51-.6,1.11-.69.43-2.72,1-2.72.6,1.28,1.19,1.28.77,3.58,1.29,3.58.6-.6,1.11-.6.51-1.36,1.11-1.45.51-1.36,1.11-1.45.52-1.28,1.11-1.28.6.6,1.2.6.77,4.69,1.37,4.6.6.26,1.2.26.51-2,1.11-2,.6-.26,1.11-.34.6.93,1.2.93.6.09,1.2.09h1.19c.6,0,.52-1.19,1.12-1.19s.59-.09,1.19-.09.43-4.09,1-4.09.77,4.26,1.37,4.26.6,1,1.19.94.52-1.45,1.12-1.45.59-.51,1.11-.51.68,2.81,1.28,2.73.43-3.24,1-3.33.68,3.07,1.28,3,.43-3.92,1-4,.68,2.3,1.28,2.3.51-2.39,1-2.39.59,1.11,1.19,1.11.52-.77,1.11-.77.69,2,1.29,2,.43-2.72,1-2.72.77,3.32,1.29,3.24.51-1.2,1.11-1.28.51-2.47,1-2.47.6.51,1.2.51.6.25,1.2.25.51-1.11,1.11-1.11.6.18,1.2.18.6,1.27,1.2,1.19.51-1.79,1.11-1.79.77,3.24,1.37,3.15.59-.51,1.11-.59.43-2.73,1-2.73.77,3.49,1.29,3.49.6.86,1.19.86.6.85,1.2.85.34-5.2.94-5.29.77,3.41,1.37,3.41.51-2,1.11-2,.69,2.81,1.29,2.81.51-.76,1.11-.76.6.51,1.19.51.6.68,1.2.68S599.7,83,600.29,83s.52-1.87,1.12-2,.59.6,1.19.6.52-1.36,1.11-1.45.77,5,1.37,5,.43-4.52,1-4.52.77,3.41,1.28,3.41.6-.34,1.11-.34a6,6,0,0,0,1.2,0c.6-.09.34-4.69,1-4.69s.85,6.22,1.45,6.22.43-4,1-4,.6.18,1.2.18.59-.18,1.11-.18.6.35,1.19.26.6,1,1.2,1,.43-3.83,1-3.92.6,2.47,1.2,2.47a6,6,0,0,0,1.19-.08c.6-.09.6.85,1.2.77s.68,3,1.28,3,.52-1.53,1.11-1.62.43-4.35,1-4.43.77,3.66,1.28,3.58.52-2,1.12-2S629,84,629.63,84s.51-.76,1.11-.85.51-.94,1.11-.94S632.37,80,633,80s.77,3.16,1.29,3.16.42-4.35,1-4.35.77,4.43,1.37,4.35.51-1,1.11-1.11.6-.26,1.12-.34.59,1.1,1.19,1.1.43-4.43,1-4.51.6,1,1.2,1,.59-.77,1.11-.77.77,3.75,1.37,3.75.51-1.62,1.11-1.62.51-1.79,1.11-1.87.68,2.47,1.28,2.47.52-1,1.11-1,.69,2,1.29,2,.43-3,1-3,.52-1.27,1.12-1.27.59-.17,1.11-.26.6.85,1.19.85.77,3.67,1.29,3.67.6-.26,1.2-.26.34-5,1-5,.69,3.24,1.28,3.24.6.94,1.2.85.6.69,1.2.69.6-.52,1.11-.52.43-4.43,1-4.43.85,5.54,1.37,5.54.34-5.45.94-5.45.77,3.49,1.28,3.49.43-2.9,1-2.9.59,1.11,1.19,1.11l1.2-.08c.6,0,.68,1.53,1.2,1.53s.68,1.88,1.28,1.88.51-2,1.11-2,.69,2.13,1.28,2.13.6-.09,1.2-.09.52-1.11,1.11-1.11.43-4.17,1-4.17.77,5.2,1.37,5.2.43-4.09,1-4.09.76,3.83,1.36,3.83.52-2.13,1.12-2.13.51-.6,1.11-.6.6,1,1.19,1,.43-2.56,1-2.56.6.17,1.2.17.68,2.47,1.28,2.47.6.68,1.2.68.51-1.87,1.11-1.87.68,2,1.28,2,.52-1.11,1.11-1.11.69,1.36,1.2,1.36.52-1.36,1.11-1.36.52-.94,1.12-1,.51-.85,1.11-.85.6-.52,1.11-.52h1.2c.6,0,.6-.42,1.11-.42s.51-1.54,1.11-1.54.6.69,1.2.6.6.68,1.19.68.6-.59,1.12-.59.6.17,1.19.17.77,4.51,1.37,4.51.34-4.94,1-4.94.6.34,1.2.34.77,3.67,1.36,3.67.6-.6,1.12-.69.51-1.19,1.11-1.19.68,2.22,1.28,2.22.34-5.63.94-5.71.6.08,1.2.08.68,2.81,1.28,2.81.69,1.54,1.2,1.45.43-3.41,1-3.49.59,1,1.19,1,.6-.68,1.11-.68.77,3.32,1.29,3.32.6,1.28,1.19,1.2.52-.77,1.12-.77.42-3.41,1-3.41.77,3.41,1.29,3.41.42-3,1-3.07.6-.6,1.11-.6.52-1.53,1.12-1.53.77,4.18,1.36,4.18.6-.6,1.12-.68.59.17,1.19.17.52-.77,1.12-.77.68,2.3,1.28,2.3.51-1,1.11-1,.34-4.61,1-4.61.68,3,1.28,3,.6-.34,1.11-.43.51-.77,1.11-.85.52-2.05,1.11-2.05.69,2.39,1.29,2.39S749,75,749.62,75h1.2c.6,0,.68,2.65,1.28,2.65s.43-3.93,1-4,.59,1.53,1.19,1.45.69,3.24,1.29,3.24.51-1.37,1.11-1.37.51-1.19,1.11-1.19.51-.6,1.11-.68.69,2.13,1.28,2,.6.09,1.2.09.43-3.41,1-3.5.6.94,1.2.86.68,2,1.28,1.87.51-1,1.11-1,.51-2.3,1.11-2.3.69,1.62,1.2,1.53S769,76,769.55,76s.42-4,1-4,.86,5.54,1.37,5.54.51-2,1.11-2c.43,0,.35-1.87.94-1.87s.6.51,1.2.43.51-1.2,1.11-1.2.77,4.43,1.37,4.35.43-3.5,1-3.58.6-.51,1.11-.51.6,1.36,1.2,1.36.68,3,1.28,3,.43-3.66,1-3.66.68,1.87,1.28,1.87.68,1.79,1.28,1.71.34-4.69,1-4.69.77,4.18,1.37,4.18.25-5.54.77-5.63.68,1.79,1.28,1.71.68,1.53,1.2,1.53.68,1.62,1.19,1.62.6.6,1.2.6.6-.43,1.11-.51.43-4.52,1-4.61.68,2.31,1.28,2.31.6,1.19,1.2,1.1.6,1.2,1.2,1.2.34-5.54.94-5.54.68,2.72,1.28,2.64.51-2.22,1.11-2.22.6.43,1.2.34.77,4,1.37,3.92.51-2,1.11-2,.51-1.19,1.11-1.19.6.76,1.2.76.68,1.71,1.28,1.62.43-4,1-4a6,6,0,0,0,1.2,0c.59-.09.68,1.87,1.28,1.87s.77,3.75,1.37,3.75.42-4.6,1-4.6h1.2c.6,0,.77,3.41,1.28,3.41s.52-1.28,1.11-1.37.6,1.28,1.2,1.2.52-1.45,1.11-1.54.6.51,1.2.43.43-3.67,1-3.67.6.35,1.19.26.52-.94,1.12-1,.77,5.37,1.37,5.37.51-1.71,1.11-1.79.68,2,1.28,1.87.43-3.66,1-3.66.77,3.75,1.36,3.66.35-5.45.95-5.45.59.51,1.19.42.6,1.2,1.2,1.2.77,3.66,1.37,3.66.6-.51,1.11-.51.51-.77,1.11-.77.6.86,1.2.86.34-5.29.94-5.29h0V0Z"/></g></g></g></g></svg>