<svg xmlns="http://www.w3.org/2000/svg" viewBox="0 0 841.89 110"><defs><style>.cls-1{fill:#ffeddf;}</style></defs><title>perche2</title><g id="Livello_2" data-name="Livello 2"><g id="Livello_1-2" data-name="Livello 1"><path class="cls-1" d="M840.21,3.91c2,1.41-2.35-.33-2-.08-.49-.35-.84-.58-1.1-.75.06.14.06.21-.05.18.06.07,0,.06-.25-.13a1,1,0,0,0,.25.13c-.18-.18-1.12-.95.05-.18a5.1,5.1,0,0,0-.46-.76c-.67.23-3.75-.64-3.11-.19s-.9,1.15-2.13.3c.88.61-2.15-1.14-1.56-.74,2.53,1.75-4.94-2.41-1.82-.25,1.22.84.11.76-1.77-.54,2.18,1.51-.52,2.63-2.22,1.46-1.52-1,1.53.37-1.61-1.8.74.51-2.6,0-2,.41.95.66-1.62-.06-1.93-.27-2.12-1.47-1.88-.17-2-.22,1.46,1-.25,2.89-1.62,1.94s-5.36-2.88-2-.54c-3.36-2.32.44,2.15-1.71.67,2.1,1.45-2.38-.69-2-.45s-1.35,1.11-1.54,1c1.87,1.29-4.23-1.39-1.76.32-.12-.08-2.9-1.72-2.7-1.59,1.15.79.23,2.88-.88,2.11,1.74,1.2-2.06-1.25-3.07-1.95.11.08-1.24,1.89-.63,2.31-1.42-1-.15.59-2.77-1.22,1.27.88-.78,1.62-1.1,1.4,1,.65-3.45-1.58-2.82-1.15-2.7-1.86-.75,1.66-1,1.49.36.25-2.76-.73-2.41-.49s-1.48.55-1.84.3c-.06,0,.27,2.11-1.25,1.06,2.72,1.88-1.69.89-1,1.35-.91-.62-6.3-3.26-2.66-.75-.64-.44-3.34-.48-1.41.86,2.08,1.43-3.43-.93-2.07,0,.47.32-.57,1.51-1.26,1-2.08-1.44-2.66-.22-1.74.41.14.11-1,1.13-1.43.84.16.11-2.91-.93-2.67-.76,2.17,1.5-3.19-.92-2.33-.32,3.11,2.15-1,1.76-.28,2.29,1.47,1-5.08-2.45-2.71-.81-3.62-2.5-1.26,1.39-.68,1.79,1.24.86-2.32-.2-2.14-.07,1.08.74-4-1.53-2.42-.45.48.33-5.88-2.71-2.19-.16,1.63,1.13-3.5-.86-1.85.28.93.64-.49,2.1-.47,2.12a3.26,3.26,0,0,1-2.33-.36c-1.56-1.08-4.35-1.61-2.11-.06.64.44-.66,1.86-.75,1.79a13.5,13.5,0,0,1-3.22-1.61c-2.38-1.64-2.23.09-1.74.42,1.32.92-.41,1-2.18-.19.6.41-3-.13-1.31,1.05-3-2.07-1.21,1.46-.9,1.67,2,1.42-1,.63-2.17-.18,1.07.73.4,2.05-1.59.68-1.6-1.1-4.09-1.83-2.49-.72s.65,2.29-1.52.79c-3.27-2.26-.05,1.16-2.22-.34.8.55.4,2.74-.93,1.82s-1.53.46-1.91.2c.18.12-1.63.31-2,.08-.68-.48-2.11-.8-2.61-1.14.82.56-1,1.43-1.39,1.13-1.49-1-1.22,1.13-1.52.93-1.18-.81-1.89-1.06-2.79-1.68,3,2.1-.83,2.06-1.09,1.88.15.1-.58.09-2.51-1.25-1.4-1,1.18,3.48-1.18,1.84a7.28,7.28,0,0,1-2.28-.79c1.58,1.1-1.08,1.4-1.55,1.08-1.5-1-.64.74-2-.21-.91-.63-2.81-1.41-2.27-1-3.84-2.66-.76,2.84-1.17,2.55,1.73,1.2-.81.24-2.14-.68.35.24-2.72-1.44-2.18-1.07s-1.94,1.84-1.46,2.17c-.7-.49-2-1.24-2.19-1.37-3-2.07-1.37,2.06-1.64,1.88s-1.3.34-2-.12c-.09-.06-1.8-1.64-2.28-2.18-.46.19-1.8,1.05-1.67,1.15-.87-.61-1.36.47-1.73.62.3.27.35.35-.17,0a.2.2,0,0,0,.17,0c-.49-.44-1.64-1.38-2-1.7,0,.28-2.9.17-2,.81,2.53,1.74.28,1.26-1.88-.24,2.1,1.45,0,2.41-2,1,.44.3-2.25.39-2,.55-.61-.42.63,1.81-2,0a11.47,11.47,0,0,1-2-2,5.63,5.63,0,0,0-1.88,1.29c2.08,1.52,2.34,1.94,0,.36-.13-.09-.13-.21,0-.36-.42-.3-.91-.66-1.48-1.05.14.1,0,2.78-2.22,1.41.49.24-1.49-1.84-1.77-2.39-1.14,0-3.3,1-2.2,1.79-1.53-1.06-3-1.52-3.19-1.28.84.81,1.85,1.72,1.19,1.26-1-.7-1.33-1.11-1.19-1.26l-.38-.37c.16.24.08.3-1.23-.61,2.08,1.44-2.45-.85-1.75-.36a13.49,13.49,0,0,1-1.19.65c1.09,1.35,1.59,2.5-1.46.4.21.14.86-.11,1.46-.4a12.39,12.39,0,0,0-1.91-1.93c-.15-.11-1.6.19-2,0,1.43,1-2-1-1.56-.6-.5-.35-1.48.63-2.14.18.65.45-1.46-.95-1.35-.88,2.59,1.79.15,1.17-1.86-.22,2.87,2,.15,1.1-1.82-.26-2.26-1.56-3.85-.51-2.42.48,2,1.41-3.69-2.39-1.4-.81,0,0-.31,2.3-2.6.72-1.36-.94-2.78-1.33-2.76-1,.32.27.43.42.4.48l.44.34-.47-.31a2.56,2.56,0,0,1-1-.37c-.82-.57,0-.24,1,.37l0,0c-.27-.22-.39-.38-.4-.48a17.87,17.87,0,0,0-1.67-1.25,7.78,7.78,0,0,0-3.31-.7c3.23,2.31,1.33,3,.2,2.24-2.46-1.71-1.64-2.23-.2-2.24-.06,0-.11-.09-.18-.13a2.09,2.09,0,0,0-2.12.15c-.52-.36-.79,1-1.49,1.53.27.61,0,.84-1.36-.12a1.09,1.09,0,0,0,1.36.12,8.32,8.32,0,0,0-2-2.48c-1.59-1.09-3.19-1-2-.1,1.48,1-3,1.31-2.7,1.52-1.3-.89,3.41.66-.92-2.33-3.54-2.45-2.1.13-2.06.15,3.45,2.39-7.45-3.18-2.14.48-2.43-1.68-1.81.89-2.13.66a3.24,3.24,0,0,1-1.78-.52c-.66-.46-1.53-1.16-1.66-1.28a2.61,2.61,0,0,1-1.9-.4c.5.34-4.36,0-2.15,1.54,1.39,1-.83.66-1.9-.08-2.47-1.71-.45,1.21-1.92.2,1.88,1.29-1.65.18-1.9,0-1.14-.79-1.1-.94-2-1.53.52.36-1.56,1.89-1.77,2.31.13.15.16.21,0,.09,0,0,0-.05,0-.09-.43-.5-2-2-2.14-2.1-.65-.45.45,1.51-2-.18-3.24-2.23-.68,3.07-1.52,2.5,1.13.77-.75.46-2-.39,1.91,1.32-2.22-.73-2.08-.64.94.65-4.58-1.91-2-.12-1.64-1.13-2.21-.38-2.05-.27-2.16-1.49-1.21,1-1.79.55,1.34.92.26,2.68-1.41,1.53L575,12.1c-3.63-2.51-.37,1.53-1.77.56,1.9,1.31-2.14.78-1.42,1.28-.37-.25-3.52-1-2,0-2.34-1.61-1.35-.17-2.48-1-4.12-2.84-.5,2.33-1,2,.06,0-4-1.73-2.29-.54-.22-.15-.58,1.58-1.49.95s-.45,1-2.14-.22c1.1.77-1.57.56-1.78.41,1.83,1.27-1,.56-2.26-.35s-5.87-2.37-1.74.49c-.88-.61-3-.39-1.76.44a5,5,0,0,0-2,.09c-.8-.54-2.4-.15-2,.14-1.81-1.25.75,2.87-.78,1.81-3.75-2.58-2.26-.16-2.1-.05,3,2.05-1.39.14-2.57-.67,1.86,1.28-1,1.5-.92,1.55-.31-.21-.58,1.7-1,1.4,1.41,1-4-1.43-2.24-.21s-1.25.7-1.86.28c-2.44-1.69-3.32-.7-1.82.34-.2-.14-3.89-1.61-2.74-.82.3.21-1.37.6-1.95.2.84.58-2.19,1-.19,2.36.93.64-2.73-1.06-3.26-1.43.83.58-2,.08-2.06.06.84.58.54,2.69-.49,2-.84-.58-2.45-.65-2.88-.95-.81-.55.78,3-.27,2.24A28.57,28.57,0,0,1,518.49,23s-2.26.58-.81,1.58c.48.33-3.1-.78-2.29-.22.43.3.09,1.95-1.27,1,.35.24,0,2.07-.92,1.44,1.41,1-4.41-1.64-2.2-.12.77.54-.35,1.17-2.18-.09,2.35,1.62-1.06,1-1.66.55.94.65-5-2.45-2.83-.92.76.52-1.77,1.26-.25,2.31-.79-.55-4.87-2.2-2.58-.62,1.14.78-.32,1.81-1.12,1.25.68.47-2.27-.15-2.13-.06s-.21,1.52-1.72.48c-.16-.11-2,.29-1.71.5-1.29-.9-3.78-1.21-2.1-.05.5.35-6.55-3.38-2.48-.56,0,0-2.59.4-.95,1.53-.92-.63-4.2-1.93-2.7-.9.2.14.69,3-.63,2,.68.47-.17,1.58-1.69.53.15.11-4.3-2.14-2.82-1.11-.72-.5-3.2-.05-1.09,1.41-1-.68-3.73-.6-1.36,1a30.19,30.19,0,0,1-2.81-1.16c.88.61-2-.35-2.46-.65,1.22.84-1.22,1.41-1,1.54-.19-.13-.7,1.07-1.87.26s-2.09.31-1.65.61a3.48,3.48,0,0,0-2.4-.6c-2.68-1.86-.39,1.62-1.5.86,2.11,1.45-1,.54-2.17-.25-2.49-1.72-3.16-.78-2,0,3.83,2.65-.46,1.61-1.48.91-.49-.34-1.7,1.12-1.14,1.51-1.89-1.3-2.47-.14-1.86.27-4.62-3.19-5.29-3.32-3-1.76-.16-.11-2.79.78-.79,2.16-1.16-.81-.41.14-2.89-1.57-1.73-1.2-1,1.6-1.17,1.5,1.21.84-5.13-1.94-1.82.35-.78-.54-.43,1.53-1.61.72,1.24.86-3.88-.76-1.56.83-1.2-.82-2.51-.39-2-.07.66.45-1.19.48-2.07-.12-1.55-1.07-2.9,0-1.52.93,1.13.77-.31,1.41-1.8.38-.34-.24-1.34.39-2.05-.1-.92-.63,1,1.9-2.13-.27.67.47-2.92-.87-2.17-.35.52.36-.37,1.89-1.41,1.17-2-1.37-3.8-2.07-2.6-1.24.69.47.95,3.85-.66,2.73.1.07-4.06-2.5-2.77-1.6-1.66-1.15-1.62,0-2.16-.39,2.54,1.76-1.62,1.31-1.25,1.56-1.47-1-2.36-.47-2.13-.31-1.23-.85,1.7,2.41-2.08-.2,1.53,1,.13,1.82-1.74.53,1,.68-1.39.24-2.08-.24.16.11-4.88-.57-1,2.07-1.32-.91-3.23-1.49-2.4-.92-1.25-.87-5.16-2.62-2.25-.61-1.41-1-1.27,1.81-1.13,1.91-1.77-1.23-2.73.08-1.61.85-.65-.45-2.38.13-1.73.58a7.48,7.48,0,0,1-2.38-.92c-.89-.62-1.5-.33-2.37-.93,1.08.74-3.17-.69-1.89.19-1.42-1-.11,1.71-1.72.6-1.36-.94-.1,2.21-1.42,1.31.13.09-3.44-1.38-2.19-.51.12.08.37,2.92-1.21,1.82-3-2.09-3.05-1.72-2.55-1.38,1.33.92-4.51-.94-1.5,1.13-.57-.39-2.93-.2-1.84.79,1.25.88,2.07,1.46.28.23-.11-.08-.2-.16-.28-.23l-2.5-1.74c.52.36-1.43,2.08-1,2.38-2.15-1.48,1.79,2.4-2.09-.28a28.08,28.08,0,0,1-2.58-1.5c-1.6-1.11-.1,2.76-1.15,2,2.66,1.83-.14,1.29-2,0-1.38-1-4.68-2.25-2.18-.53,1.64,1.14-.25,1-2.07-.24,3.35,2.31-3.06.23-1.42,1.36,2.54,1.76-1.2.29-2.11-.34.8.55-2.74-1.16-2.32-.87,0,0,1.52,3.63-1.29,1.69,1.7,1.17-4.15-1-1.72.63-2-1.4-.47.18-2.44-1.19-1.32-.9-.95,1.83-1.35,1.55-1.5-1,.18,1.36-2-.17,1.75,1.21,1,1.12-2.47-1.27,1.32.92-3.3-.61-1.81.42-1-.69-1.06,1.07-1.72.61.54.37-1.46,1.79-1.18,2,1.39,1-1,.26-2.21-.58,1.28.88-3.58-1.2-2-.12.17.11-2.31,0-1.84.32,1.07.74-4.24-1.31-1.83.36-2.18-1.51-1.83.22-1.9.17-1.43-1,1.51,2.71-1.8.42,1.23.85-1.54.5-1.86.28.55.38-1.4.2-2.07-.26a17.63,17.63,0,0,1-2.39-1c2.57,1.77-1.95.13-1.91.16.6.42-.89,1.08-1.78.46-.35-.24.41,3.21-1.08,2.18.84.58-4.17-2.29-2.42-1.08-1.57-1.09-1.22.62-1.92.13-1.42-1,.22,1.54-2,0,.2.13-.38.92-2.08-.26,0,0-2,1.13-1.3,1.61,1.93,1.33-5.06-1.54-1.62.84-2.68-1.85-2.73-.51-2,0s-1.83.18-1.93.11c-1-.67-1.91-.47-2.28-.72-.69-.48.78,2.93-1.35,1.45.59.41.38,2-1.71.61-.52-.36-1.58-.59-2.52-1.23.81.55-3.17-1.27-2.25-.63-2.54-1.76.13,2.81-1.12,1.95-2.35-1.62-.86,1-1.82.36.92.63-.62,1.56-1.58.89-.41-.29-.3,1.15-2,0-2.44-1.69,1.16,2.33-1.86.25.53.36-2.9-1.46-2.54-1.21-.8-.55-4.17-.52-1.31,1.45,3.91,2.7-3.07-1.7-2.64-1.41-3.51-2.42-1,1.46-1.47,1.12,1,.68-.1,2.25-1.31,1.41-2.06-1.42-3.91-1.8-2.33-.71,3.39,2.34-5-1.74-1.73.54,1.34.93-1.39-.08-2.35-.74s-1.46,1.76-.95,2.1c-1.51-1,.91,1.9-2.08-.17-5.28-3.65,2.94,3.3-2.07-.16-3.1-2.14-.2.57-2.52-1-2-1.36,2.73,3.79-1.59.81-.31-.21.57,2.62-1.32,1.31,4.1,2.83,1,2.44-1.67.63-.55-.38-3.6-2.38-3.05-2,1.86,1.28-3,.48-1.06,1.79.79.55-.58.93-2-.07,2.57,1.77,2.79,3.82-1.56.82-2-1.4-1.21.84-1.75.46,1.34.93-1.21.43-2.12-.2,1,.71.45,2-1.72.51,1.45,1-1.34,1.12-1.4,1.08-1.76-1.22-.41,1.22-1.89.2,0,0-5-3.12-3-1.76-.47-.32,1.45,3.16-1.27,1.29-.13-.09,1.36,2.75-1.6.71,2.41,1.66-4-2-2.65-1-2.48-1.71-.22,2.66-.55,2.44,1.34.92-.71,0-3-1.59.11.07-3.33-.46-1.56.75-1.35-.93-2.24.5-1.33,1.13,1.66,1.15,1.17,2.58-1.61.66.46.31-2.58-.66-2.36-.51,2.8,1.93-.61,1.12-1.9.23-3-2.11.29,2.4-1.06,1.47,1.7,1.17,0,1.5-1.88.23a8,8,0,0,1-2.44-.57c1.68,1.16-2.9-.57-2,0-.65-.44-.75,1.13-1.76.43,2,1.4-1.68,1.19-.8,1.8-4.92-3.4.37,1.82-1.84.3-.39-.28-2.92-.31-1.63.59.63.43-2.13-.19-2.25-.27,1.21.84-2.06.22-1.74.44-5.87-4-3-.93-2.48-.55,2.67,1.85-3.45-.8-1.86.29.65.45-3.63-1.07-2.1,0-.52-.36,1,3-.73,1.78,2.56,1.76,1.74,3.1-1.32,1-1-.66-2.2-.75-3.31-1.52.62.43-3.75-1-1.84.34-1.13-.78-.22,1.41-1.95.22-3.32-2.3-1.14,1.51-.59,1.89,1.8,1.24-2.65-.51-2.37-.32,1.65,1.14-.59,1.35-1.58.67,3.53,2.44,2.22,3.53-1.14,1.2-2-1.39-3-.91-2.67-.68,2.23,1.54-3.35-.69-1.83.36,3.25,2.24-4-.71-1.1,1.27.69.47-4.29-2-2.92-1-.48-.33-2.46.35-1.06,1.32-.29-.2-6-2.56-1.87.3,1.26.87-2.73-.17-1.68.56,3.61,2.49-3.53-.48-1.28,1.07a13.55,13.55,0,0,0-1.52.78c.29.19-4.51-1.79-2.29-.26a16.14,16.14,0,0,1-3.13-1.39c-.76-.53.18,2.3-1,1.5-.77-.53-.72.5-2.68-.86,1.94,1.35-2.22.67-1,1.48,1.45,1-2.16-.37-2.45-.57.62.42-1.31,1.26-1.13,1.38,2.21,1.53-4.66-2.22-2.54-.75s-3.26.1-1,1.66a3.59,3.59,0,0,1-2.51-.78c2.88,2-2.42.79-1,1.77,2.42,1.67-3.21-.7-1.95.17-1.7-1.18-1.36-.09-2.48-.86,3.94,2.72.08,2.85-.92,2.17.07,0-3.34-2-2.81-1.65-1.37-1-2.53-.58-2.11-.29,1.83,1.27,1.37,4-1,2.32,3.26,2.25-3.06-1.31-2.32-.81,1.39,1-1.57,1.24-1.52,1.27-3.24-2.23-4-1.25-2,.15.08,0-4-1.54-2-.21-1.44-1-1.69-.08-2.07-.35-1.19-.82-3.06.54-1.6,1.55-2.25-1.56.52.55-2.27-1.38,3.82,2.64,2.38,3.59-1.83.68,2.45,1.69-1.34-.4-2-.89.35.24-2.53.29-1.82.78-5-3.42.52,1.88-1.9.2,1.64,1.13-2-.93-2-.88-2-1.41-2.57.87-1.88,1.35a6.88,6.88,0,0,1-1.9-1c-.26-.18-1.31-.16-1.88-.55,1.5,1-1.93,1.65-2,1.9,0,0,0,0,0,0a0,0,0,0,1,0,0c-.23-.35-2.49-2.85-1.69-2.3-2.94-2-4.91-1.15-2,.87-3.64-2.52.1.86-1.84-.47.72.49,0,3-2.13,1.46.46.32-3.57-1.33-1.9-.18-.37-.26,1.37,1-1.7-1.11a5.9,5.9,0,0,0-2,.24c-.18-.13-4-1.69-1.87-.23,1.53,1.06-.59.8-1.89-.1.09.07-5.79-1.58-2.16.93-.32-.22-1.61-.13-1.85-.3.81.56,1.1,2.16-1.51.51l-.48-.31.48.31c1,.63-.26-.6-2-1.79-1.95-1.36-1.79-.54-1.77-.52-.84-.59-.27,2.8-2.34,1.37a32.79,32.79,0,0,1-2.74-2c-.32-.13-.54-.2-.45-.14,2.5,1.72,1.84,2.33-1.85-.22,1.1.75-2.25,2.61-2.67,2.32A5,5,0,0,1,67.35,85a2.69,2.69,0,0,1-1.81-.21c2.79,1.93-1.55.68-2.55.77,1.64,1.22,1.25,1.22.22.51a1.46,1.46,0,0,1-.35-.29c.69,1.23-.83,1.87-3.43.07a11.19,11.19,0,0,0-2.27-1.28,1.29,1.29,0,0,0,.43,1c-1.39-1-1.39-1.39-.43-1a1.74,1.74,0,0,0-.71-1.44c.29.2-2.49-.56-1.88-.13-2.69-1.86-.37,1.76-2.1.56.12.09-5.41-3-1.77-.47-.18-.12-3,1.05-2.39,1.46,1.95,1.34-2.09-1.34-1.6-1s-2.38.18-2.41.64a.59.59,0,0,0,.2.25c-.15-.1-.2-.18-.2-.25a2.34,2.34,0,0,0-1.11-1.68c1.12.77-1.29,1.23-2.19,1.53.85.83,1.29,1.33-.3.23-.09-.07,0-.14.3-.23-.68-.65-1.62-1.5-2-1.94-1,0-2.58,1.27-2,1.7-1.65-1.14,1,.41-1.51-1.29-.78-.54-2.57.24-2.11.56,1.27.88,1.08,2.45-2,.31.88.61-3.76-1.8-1.78-.43,4.45,3.08-5.78-2.4-2,.21-2.61-1.8-1.14-.5-1.65-.86-1.81-1.25.55,1.93-.9,1.41.09.15-.21,0-1.24-.72a6,6,0,0,0,1.24.72,25.64,25.64,0,0,0-2-1.83c-.1.36-2.51-.37-2.61-.43,1.05.72,2.31,2.56-1.83-.3.45.32-3.19,1-2.41,1.52-1.11-.77-.35.65-1.81-.36-1.07-.74,1.85.27-1.31-1.92-1.45-1,.13,1.42-1.92,0,1.89,1.3-5.93-2.61-2,.13,1.75,1.21-.4,1.77-2.11.59.73.5-1.73.75-2.09.51.72.5-1.82-1.16-1.67-1.05C1.33,79.18,2.41,79.34,2,79a6.39,6.39,0,0,0-2-1V79.2H0V110H841.89V4.57A3.14,3.14,0,0,1,840.21,3.91Z"/></g></g></svg>