<svg xmlns="http://www.w3.org/2000/svg" viewBox="0 0 2003.9 122.91"><defs><style>.cls-1{fill:#121327;}</style></defs><title>strappowww</title><g id="Livello_2" data-name="Livello 2"><g id="Livello_1-2" data-name="Livello 1"><g id="Livello_2-2" data-name="Livello 2"><g id="Livello_1-2-2" data-name="Livello 1-2"><g id="Livello_2-2-2" data-name="Livello 2-2"><g id="Livello_1-2-2-2" data-name="Livello 1-2-2"><path class="cls-1" d="M0,.34V120.67H.81c1.42,0,1.42,1.45,2.84,1.45s1-3.35,2.44-3.35c1.21,0,1.82,4.14,3.34,4s1-2.79,2.44-2.79,1.21-.67,2.63-.78,1.63,3.69,3.05,3.69a24.7,24.7,0,0,0,2.84-.23c1.42,0,1-3.91,2.43-3.91s1.42,1.45,2.84,1.45,1.22-1,2.64-1.11,1.22-1.68,2.64-1.79,1.42-.56,2.63-.67c1.42,0,1.42.78,2.84.78s1.83,4.69,3.35,4.69,1-3.12,2.44-3.12,1.62,2.23,3,2.12,1.42.67,2.84.67,1.42.33,2.84.33,1-3.12,2.43-3.12c1.22,0,1.63,2.23,3,2.23s1.42-.56,2.63-.56c1.42,0,1.22-2,2.64-2s1.22-1.12,2.64-1.12,1.42-1.45,2.64-1.45c1.42,0,1.62,2.24,3,2.12s1-3.35,2.43-3.35c1.22-.11,1.42,1.12,2.84,1s1.63,1.23,2.84,1.23c1.42,0,1.42-.34,2.64-.34,1.42,0,1.83,4.58,3.35,4.58s1-3.57,2.43-3.57,1.62,3.12,3,3.12,1-4.8,2.44-4.8,1.22-.33,2.64-.33,1.62,2.79,3,2.79,1.22-.9,2.64-.9,1.62,3,3,3,.81-5.81,2.23-5.81,1.42.78,2.84.78,1.83,5.25,3.35,5.25c1.22,0,1-4.24,2.43-4.24s1.83,4.36,3.35,4.24,1.22-.89,2.64-.89,1.21-1.56,2.63-1.56,1.63,2.12,2.84,2.12c1.42,0,1-3.24,2.44-3.24,1.22,0,1.62,2.46,3,2.46s.81-5.37,2.44-5.37c1.42,0,1.42.23,2.84.23s1.42.33,2.84.33,1.21,1.9,2.43,1.79c1.42,0,1-2.68,2.44-2.68s1.82,5.25,3.34,5.25.81-5.25,2.44-5.25,1.82,5.14,3.34,5.14.82-5,2.44-5.14,1.82,4.58,3.35,4.58,1-4,2.43-4,1.62,3.35,3,3.35,1.63,2.12,3,2.12,1-4.91,2.43-4.91,1.22-1.34,2.64-1.34,1.82,5,3.35,5,1.42.34,2.84.34a24.43,24.43,0,0,0,2.84.11c1.42,0,1-4.92,2.43-4.92s1.22-1.56,2.64-1.56,1.62,3,3,3,1.62,3.68,3,3.57,1-3,2.44-3,1-3.36,2.43-3.47c1.22,0,1.42,1.34,2.64,1.34s1.42.9,2.84.9,1.22-1.34,2.64-1.34,1.42.44,2.84.44,1.42.23,2.84.23,1.21-1.46,2.63-1.46,1.63,2.8,3,2.8,1.62,2.12,3,2.12a24.52,24.52,0,0,1,2.84.11c1.42,0,1-4.36,2.43-4.47s1.63,3.35,3.05,3.35,1.42,1.23,2.84,1.12,1.42.9,2.84.9.81-5.26,2.43-5.26c1.42,0,1.83,4,3,4,.61-.23.61-1.68,1.83-1.68s1.42,1.45,2.84,1.45,1-3.35,2.43-3.35,1.83,3.35,3.35,3.35,1.22-1.56,2.64-1.56,1-3.8,2.43-3.8,1.83,4.58,3.35,4.47,1-4.58,2.44-4.58,1.42,4,2.84,4,1.21-1.9,2.63-1.9,1.42-.56,2.64-.56c1.42,0,1.62,3.13,3,3s1.42.33,2.84.22,1.42.56,2.84.56,1.22-.89,2.64-.89,1.42.33,2.84.33,1.22-2.12,2.64-2.12,1.21-1.56,2.64-1.56,1.62,3,3,2.9,1-2.79,2.43-2.79,1.63,2.12,3.05,2.12,1.42-.22,2.84-.22,1.62,2,2.84,2c1.42,0,1-4.7,2.43-4.7s1.42.34,2.84.34,1.83,4.58,3.35,4.58,1.21-2.57,2.43-2.57,1-1.56,2.44-1.56,1.21-1.57,2.63-1.57,1.83,4.92,3.35,4.81,1.42.33,2.84.33,1-3.13,2.43-3.13c1.22,0,1.22-1,2.64-1s1.63,3.69,3,3.69,1.21-.9,2.63-.9,1-4.58,2.44-4.58,1.62,2.46,3,2.35,1.42.67,2.84.67,1.62,2.34,3,2.34,1.42.23,2.84.23,1.42.22,2.84.22,1-3,2.44-3,1.62,2.13,3,2.13,1-4.92,2.43-5,1.42.33,2.84.33,1.22-1.34,2.64-1.34,2,6.15,3.35,6.15.81-6.48,2.23-6.59,1.83,5.47,3.35,5.36,1.22-2.68,2.64-2.68a21.91,21.91,0,0,0,2.63-.45c1.42,0,1.63,2.12,3,2.12s1.42.9,2.84.9,1.42,1,2.84,1,1.42-.22,2.84-.22,1.21-2.35,2.63-2.35,1.22-.89,2.64-1,1.62,1.9,2.84,1.79c1.42,0,1.22-.9,2.64-.9s1-3.46,2.43-3.57,1.62,2.45,3,2.45,1.62,2.57,3,2.57.81-5.47,2.43-5.47c1.42-.11,1.63,2.23,3.05,2.12s1.62,2.46,3,2.35,1-3.91,2.43-3.91,1.42,1.12,2.84,1.12,1.42-.56,2.64-.56c1.42,0,1.42-.11,2.84-.11s1.83,5.13,3.35,5.13,1-3.68,2.43-3.68,1-2.68,2.44-2.68,1.82,4.69,3.34,4.69,1.22-1.57,2.64-1.57,1.42.45,2.84.45,1.42.34,2.84.34,1-4.47,2.44-4.47,1.82,5.25,3.34,5.25,1-4,2.44-4,1.62,2.45,3,2.34,1-4,2.43-4,1.42-.22,2.64-.22h2.84c1.42,0,1.42,1.56,2.84,1.56s1.83,5.25,3.35,5.25.81-6.14,2.23-6.14,1.83,5.47,3.35,5.47,1.21-1.45,2.63-1.56,1.22-2.68,2.44-2.68c1.42,0,1.42.89,2.84.89s1.22-1.56,2.64-1.56,1.82,2.34,3,2.34c1.42,0,1.22-2.12,2.64-2.12s1.62,2.12,2.84,2.12c1.42-.11,1.21-2.79,2.43-2.79,1.42,0,1.42.11,2.84.11s1.62,2.12,3,2,1.63,2.12,2.84,2c1.42,0,1-3.68,2.44-3.8s1.42.79,2.84.67,1.62,1.68,3,1.68,1.42.22,2.84.22,1.22-1.45,2.64-1.56,1.42,1.12,2.84,1.12,1.22-2.24,2.64-2.35,1.82,4.58,3.34,4.58,1.22-2.12,2.64-2.12,1.22-.78,2.64-.78,1.42,1,2.84,1a12.26,12.26,0,0,0,2.84,0c1.42-.11.81-5.47,2.43-5.47s1.83,4,3,3.91c1.42,0,1.42.45,2.84.45s1.42,1,2.84,1,1-3.35,2.43-3.35,1.42-.56,2.64-.56c1.42,0,1.42-.56,2.63-.56,1.42,0,1.83,5.14,3.35,5.14s.81-5.92,2.23-6,1.63,1.67,2.84,1.67,1.22-.89,2.64-1,1.83,4.47,3.35,4.36,1.22-2,2.64-2,1.42.23,2.84.23,1.62,2.23,3,2.23c-.41-.11-.41-1.79.81-1.79,1.42,0,1.22-2.79,2.43-2.79l2.64-.33c1.22-.12,1.62,2.57,3,2.57s1-4,2.44-4.14,1.82,4.36,3.35,4.25l2.84-.23c1.42-.11,1.42,1.57,2.84,1.57s1.21-1.23,2.63-1.23,1-3.13,2.44-3.13c1.22,0,1.82,4.92,3.35,4.92s1.42-.67,2.63-.67,1.22-2.57,2.44-2.57c1.42,0,1.62,2.9,3,2.9s.81-5.7,2.23-5.81,1.42,1,2.84.9,1.42.11,2.84,0,1.62,3.24,3,3.24,1-2.8,2.44-2.8,2,4.58,3.55,4.58,1.22-2.68,2.64-2.68,1.42.67,2.84.56,1.42.34,2.84.34,1.42.89,2.84.89,1.21-1.9,2.63-1.9,1.63,2.12,3.05,2.12,1.21-2.34,2.63-2.34,1.22-2.13,2.64-2.13,1.62,1.68,2.84,1.68,1.22-2.79,2.44-2.79,1.42,3.8,2.84,3.8,1-5.14,2.43-5.14,1.42,1.22,2.84,1.11,1.62,1.9,2.84,1.9c1.42,0,1-2.79,2.43-2.79,1.22,0,2,6,3.35,6s1-4.13,2.44-4.24,1.21-.9,2.63-.9,1.22-1.56,2.64-1.56,1.83,4.8,3.35,4.8,1.42.45,2.84.45,1.22-1.79,2.64-1.9,1.62,3.24,3,3.24,1.22-1.56,2.64-1.56,1-4.81,2.43-4.92,1.22-.56,2.64-.67,1.62,3.24,3,3.24,1.22-1.68,2.64-1.68,1.42,1.35,2.84,1.35,1.42-.45,2.63-.45,1.63,3.46,3.05,3.46,1.21-1.67,2.63-1.79a22.8,22.8,0,0,0,2.84.23c1.42,0,1.22-1.23,2.64-1.23s1.62,2.35,3,2.35,1-4.14,2.44-4.14,1.42,1.45,2.84,1.34,1.42-.67,2.64-.67,1.21-1,2.63-1,1.22-.79,2.64-.79,1.83,4.58,3.35,4.58,1.42.56,2.84.56a22.36,22.36,0,0,0,2.64-.44c1.42,0,1-4.81,2.43-4.81a24.52,24.52,0,0,0,2.84.11c1.42,0,1.42,1.57,2.84,1.57s1.83,3.8,3,3.69c1.42,0,1.22-2.24,2.64-2.35s1.42-.67,2.64-.67c1.42,0,1.62,2.12,3,2.12s1.22-1.45,2.64-1.45c.91-.11,1.93-.22,2.84-.34,1.42-.11,1.22-1.56,2.64-1.56s1.21-.78,2.63-.78,1.22-1.57,2.64-1.57,1.62,2.8,3,2.8,1.63,2.79,3.05,2.79,1-2.68,2.43-2.68,1.62,1.9,2.84,1.9c1.42,0,1.42.33,2.84.33s1.42.9,2.84.9.81-5.93,2.23-5.93,1.62,2.46,3,2.35,1.22-2.12,2.64-2.12,1.42.56,2.84.56,1.83,4,3.35,4,1.22-2.12,2.64-2.12,1-3.8,2.43-3.91,1.42,1.56,2.84,1.45,1.62,2.79,3,2.79,1.22-2,2.64-2.12,1.22-1.12,2.64-1.12,1.82,4.14,3.35,4.14,1-5,2.43-5,1.62,2.57,3,2.57,1.22-1.57,2.64-1.68a24.68,24.68,0,0,1,2.84-.22c1.42,0,1.83,5.25,3.35,5.25s1-4.47,2.43-4.47,1.62,2.79,3,2.79,1.22-2,2.64-2.12,1.63,3.35,3,3.35,1-3.35,2.43-3.35c1.22,0,1.42.78,2.84.67s1.42,1.12,2.84,1,1.42,1.56,2.84,1.56.81-5.81,2.23-5.81,1.83,3.13,3,3.13,1.22-2.35,2.64-2.46,1.83,4,3,4c1.42,0,1-4.58,2.44-4.58s1.82,4.58,3.35,4.58,1-3.24,2.43-3.35c1.22-.11,1.62,1.68,2.84,1.68,1.42,0,1-4.25,2.44-4.25s1.62,1.9,2.84,1.79,1.82,4.47,3.34,4.47,1.22-1.9,2.64-1.9,1.42,1.23,2.84,1.23,1-2.91,2.43-2.91,1.42.11,2.84.11,1.22-1.67,2.64-1.67,1.62,2,3,2,1.22-3.13,2.44-3.13,1.42-.45,2.64-.45c1.42,0,1.42.9,2.84.9s1.42.89,2.84.78,1.82,4.25,3.34,4.13,1.22-1.34,2.64-1.34,1.22-1.56,2.64-1.56h2.84c1.42,0,1.42,1.23,2.84,1.23s1.22-1.9,2.64-1.9,1.21-2.57,2.43-2.57c1.42,0,1.83,3.69,3,3.69,1.42,0,1.22-2.13,2.64-2.13s1.62,3.47,3,3.36,1-3.36,2.44-3.36c1.21,0,1.42,1.57,2.84,1.46s1.62,1.67,2.84,1.67c1.42,0,1.62.67,2.84.67,1.42,0,1-4.47,2.43-4.47s1.83,4.47,3.35,4.47,1.22-1.23,2.64-1.23,1.62,2,2.84,1.9c1.42,0,1.21-.89,2.63-.89s1.42.33,2.84.33,1.42-.44,2.64-.44,1.22-2.57,2.44-2.68c1.42,0,1.62,2.79,3,2.79s1.22-1,2.64-1,.4-1.9,1.82-1.9,1.42-.11,2.84-.11,1-2.68,2.44-2.79,1.82,5,3.34,5,1.22-2.24,2.64-2.35,1.22-2.12,2.64-2.12l2.84-.11c1.42,0,1.82,4.47,3.34,4.47s1-4.59,2.44-4.59,1.62,3,3,3,1.22-.89,2.64-.89,1.62,2.12,3,2.12,1.22-1.56,2.64-1.56,1.42.22,2.84.22,1.22-2.35,2.64-2.35,1.62,3.47,3,3.35H1051c1.42,0,.81-5.47,2.23-5.58s1.62,1.9,2.84,1.79c1.42,0,1.83,4.24,3.35,4.24s1.22-1.9,2.64-1.9,1.21-1.79,2.63-1.79,1.63,2.35,3,2.35,1.42.22,2.84.22,1-3.46,2.43-3.57c1.22,0,1.62,2,3,2s1-4,2.44-4,1.82,5.81,3.35,5.7,1.21-1.12,2.63-1.12,1.63,1.56,2.84,1.56.81-5.81,2.23-5.81,1.42.45,2.84.34,1.63,3,3,2.9,1.21-2.68,2.43-2.68c1.42,0,1.63,1.68,2.84,1.68s1.63,1.9,2.84,1.9c1.42,0,1-3.91,2.44-3.91s1.42.33,2.84.33a12.26,12.26,0,0,0,2.84,0c1.42-.11,1.62,3.13,3,3.13s1-4.8,2.43-4.8,2,6,3.35,5.92.81-6,2.23-6,1.63,2.8,3,2.8,1.21-2.35,2.63-2.35,1.83,5.25,3.35,5.25,1.42.34,2.84.34.81-5.37,2.23-5.37,1.22-.89,2.64-.89,1.42-.67,2.64-.67,1.62,3.46,3,3.46,1.42,1.34,2.84,1.34,1-3.35,2.43-3.35c1.22,0,1.22-1.23,2.64-1.23s1.62,2.35,3,2.35,1.22-2.35,2.64-2.35,1.62,1.57,3,1.57,1.83,4.58,3.35,4.58,1.42-.78,2.64-.78c1.42,0,.81-5.25,2.43-5.25,1.42,0,1.83,5.13,3.35,5.13s1.22-2.79,2.44-2.79c1.42,0,1.62,3.13,3,3s.81-6.15,2.23-6.15,2,6.26,3.35,6.15,1-3.35,2.43-3.35,1.62,3.57,3,3.57-.2-4.13,1.22-4.13,1.22-1.45,2.64-1.57,1.42,1.46,2.84,1.46,1.22-.9,2.64-.9,1.62,1.57,2.84,1.57c1.42,0,1.62,2.12,3,2.12s1.42,1.56,2.84,1.56,1-4,2.43-4.13,1.63,3,3.05,3,1.21-.9,2.63-.9,1.42,1.12,2.84,1,1.42-.67,2.64-.67c1.42,0,1.22-1.57,2.64-1.57s1.22-1.11,2.64-1.11,1.42,1.67,2.84,1.67,1.21-.67,2.63-.78a25,25,0,0,1,2.84-.34c1.42,0,1.22-1.56,2.64-1.56s1.83,4.58,3.35,4.58,1.22-.78,2.64-.89,1.21-1.45,2.63-1.57,1.42.67,2.84.56,1-2.9,2.44-3,1.21-1.12,2.63-1.12,1.42,1.45,2.84,1.45,1.42-.67,2.64-.67c1.42,0,1.42,1.23,2.84,1.23s1.42.45,2.84.33,1.22-2.68,2.44-2.68c1.42,0,1.21-.89,2.63-.89s1.63,3.35,3,3.35,1.21-.67,2.63-.78,1-3,2.44-3,1.42,1.45,2.84,1.45,1.82,4,3,4c1.42,0,1.42-.67,2.64-.67,1.42,0,1.22-1.57,2.64-1.57s1.21-1.56,2.63-1.56,1.22-1.45,2.64-1.45,1.42.67,2.84.67,1.83,5.25,3.35,5.14,1.42.33,2.84.33,1.21-2.12,2.63-2.12,1.43-.34,2.64-.34c1.42,0,1.42,1,2.84,1s1.42.11,2.84.11h2.84c1.42,0,1.22-1.34,2.64-1.34s1.42-.11,2.84-.11,1-4.58,2.43-4.58,1.83,4.69,3.35,4.69,1.42,1.12,2.84,1,1.22-1.56,2.64-1.56,1.42-.56,2.64-.56c1.42,0,1.62,3.13,3,3s1-3.58,2.43-3.69,1.63,3.35,3,3.35,1-4.35,2.43-4.47,1.62,2.57,3,2.57,1.22-2.68,2.44-2.68c1.42,0,1.42,1.23,2.84,1.23s1.22-.89,2.64-.89,1.62,2.12,3,2.12,1-3,2.43-3,1.83,3.69,3.05,3.58,1.21-1.34,2.63-1.45,1.22-2.8,2.44-2.8c1.42,0,1.42.56,2.84.56s1.42.34,2.84.34,1.22-1.23,2.64-1.23,1.42.22,2.84.22,1.42,1.45,2.84,1.34,1.21-2,2.63-2,1.83,3.58,3.35,3.46,1.42-.55,2.64-.67c1.42,0,1-3,2.43-3,1.22,0,1.83,3.91,3,3.91s1.42.89,2.84.89,1.42.9,2.85.9.81-5.81,2.23-5.81,1.82,3.79,3.34,3.79,1.22-2.12,2.64-2.12,1.62,3.13,3,3.13,1.22-.89,2.64-.89,1.42.56,2.84.56,1.42.78,2.84.78,1.22-2.46,2.64-2.46,1.22-2.12,2.64-2.12,1.42.67,2.84.67,1.21-1.57,2.63-1.57,1.83,5.48,3.35,5.48,1-5,2.44-5,1.82,3.8,3,3.8c1.42,0,1.42-.34,2.64-.34a12.26,12.26,0,0,0,2.84,0c1.42-.11.81-5.25,2.43-5.25,1.42,0,2,6.93,3.55,6.93s1-4.47,2.43-4.47,1.42.22,2.84.22,1.42-.22,2.64-.22c1.42,0,1.42.33,2.84.33s1.42,1.12,2.84,1.12,1-4.24,2.44-4.36,1.42,2.8,2.84,2.8a24.6,24.6,0,0,0,2.84-.11c1.42-.12,1.42.89,2.84.89s1.62,3.35,3,3.35,1.22-1.67,2.64-1.79,1-4.8,2.43-4.91,1.83,4,3,4c1.42,0,1.22-2.12,2.64-2.12s1.62,4,3,4S1500,92,1501.4,92s1.22-1,2.64-1,1.22-2.35,2.64-2.35,1.82,3.47,3,3.47c1.42,0,1-4.81,2.43-4.81s1.83,4.92,3.35,4.81,1.22-1.12,2.64-1.23,1.42-.34,2.64-.34,1.42,1.23,2.84,1.23,1-4.91,2.43-5,1.42,1.12,2.84,1.12,1.42-.89,2.64-.89,1.82,4.13,3.34,4.13,1.22-1.79,2.64-1.79,1.22-2,2.64-2.12,1.62,2.79,3,2.79,1.22-1.11,2.64-1.11,1.62,2.12,3,2.12,1-3.35,2.44-3.35,1.21-1.45,2.63-1.45a10.8,10.8,0,0,0,2.64-.34c1.42,0,1.42.89,2.84.89s1.83,4,3,4,1.42-.34,2.84-.34.82-5.58,2.44-5.58c1.42,0,1.62,3.57,3,3.57s1.42,1,2.84.89,1.42.79,2.84.79,1.42-.56,2.64-.56c1.42,0,1-4.92,2.43-4.92s2,6.15,3.35,6.15.81-6,2.23-6,1.83,3.91,3.05,3.91,1-3.24,2.43-3.24,1.42,1.23,2.84,1.23l2.84-.11c1.42,0,1.62,1.68,2.84,1.68s1.62,2.12,3,2.12,1.22-2.12,2.64-2.12,1.62,2.34,3,2.34,1.42-.11,2.84-.11,1.22-1.23,2.64-1.23,1-4.58,2.44-4.58,1.82,5.81,3.34,5.81,1-4.58,2.44-4.58,1.82,4.25,3.34,4.25,1.22-2.35,2.64-2.35,1.22-.67,2.64-.67,1.42,1.12,2.84,1.12,1-2.8,2.43-2.8,1.42.23,2.84.23,1.63,2.79,3,2.79,1.42.78,2.84.78,1.21-2.12,2.63-2.12,1.63,2.12,3,2.12,1.21-1.23,2.63-1.23,1.63,1.57,2.84,1.57c1.42,0,1.22-1.57,2.64-1.57s1.22-1,2.64-1.11,1.22-.9,2.64-.9,1.42-.56,2.63-.56h2.84c1.42,0,1.42-.44,2.64-.44,1.42,0,1.22-1.68,2.64-1.68s1.42.78,2.84.67,1.42.78,2.84.78,1.42-.67,2.64-.67c1.42,0,1.42.23,2.84.23s1.82,5,3.34,5,.81-5.47,2.44-5.47c1.42,0,1.42.33,2.84.33s1.82,4,3.34,4,1.42-.67,2.64-.78c1.42,0,1.22-1.35,2.64-1.35s1.62,2.46,3,2.46.81-6.25,2.23-6.37a24.53,24.53,0,0,1,2.84.12c1.42,0,1.63,3.12,3,3.12s1.62,1.68,2.84,1.57c1.42,0,1-3.8,2.43-3.91s1.42,1.11,2.84,1.11,1.42-.78,2.64-.78c1.42,0,1.82,3.69,3,3.69,1.42,0,1.42,1.45,2.84,1.34s1.22-.89,2.64-.89,1-3.8,2.43-3.8,1.83,3.8,3,3.8c1.42,0,1-3.36,2.43-3.36s1.42-.67,2.64-.67c1.42,0,1.21-1.67,2.63-1.67s1.83,4.58,3.35,4.58,1.42-.67,2.64-.78c1.42,0,1.42.22,2.84.22s1.22-.89,2.64-.89,1.62,2.57,3,2.57,1.22-1.12,2.64-1.12.81-5.14,2.43-5.14c1.42,0,1.62,3.35,3,3.35a20,20,0,0,0,2.64-.45c1.42,0,1.22-.89,2.64-.89s1.22-2.23,2.64-2.23,1.62,2.68,3,2.68,1.22-.9,2.64-.9H1787c1.42,0,1.62,2.91,3,2.91s1-4.36,2.43-4.47,1.42,1.68,2.84,1.56,1.63,3.58,3.05,3.58,1.21-1.56,2.63-1.56,1.22-1.35,2.64-1.35,1.22-.67,2.64-.78,1.62,2.35,3,2.24a24.52,24.52,0,0,1,2.84.11c1.42,0,1-3.8,2.44-3.91s1.42,1,2.84.89,1.62,2.12,3,2.12,1.22-1.11,2.64-1.11,1.21-2.57,2.63-2.57,1.63,1.79,2.84,1.67c1.42,0,1.63,1.57,2.84,1.57,1.42,0,1-4.47,2.44-4.47s2,6.14,3.35,6.14,1.21-2.12,2.63-2.23c1,0,.81-2.12,2.23-2.12s1.42.55,2.84.44,1.22-1.34,2.64-1.34,1.83,4.92,3.35,4.81,1-3.91,2.43-4,1.42-.55,2.64-.55c1.42,0,1.42,1.56,2.84,1.56s1.62,3.35,3,3.35,1-4,2.44-4,1.62,2.12,3,2.12,1.62,2,3,1.9.82-5.25,2.44-5.25c1.42,0,1.82,4.58,3.35,4.58s.6-6.14,1.82-6.26,1.62,2,3,1.9,1.63,1.68,2.84,1.68c1.42,0,1.63,1.79,2.84,1.79,1.42,0,1.42.67,2.84.67s1.43-.45,2.64-.56,1-5,2.44-5.14,1.62,2.57,3,2.57,1.42,1.34,2.84,1.23,1.42,1.34,2.84,1.34.81-6.15,2.23-6.15,1.62,3,3,2.91,1.22-2.46,2.64-2.46,1.42.45,2.84.34,1.83,4.47,3.35,4.35,1.22-2.23,2.64-2.23,1.21-1.34,2.63-1.34,1.42.89,2.84.89,1.63,1.9,3.05,1.79,1-4.47,2.43-4.47a12.26,12.26,0,0,0,2.84,0c1.42-.11,1.62,2.12,3,2.12s1.83,4.14,3.35,4.14,1-5.14,2.44-5.14h2.84c1.42,0,1.82,3.8,3,3.8s1.22-1.46,2.64-1.57,1.42,1.46,2.84,1.34,1.21-1.56,2.63-1.67,1.42.56,2.84.44,1-4,2.44-4,1.42.34,2.84.34,1.22-1,2.64-1.12,1.82,5.92,3.34,5.92,1.22-1.9,2.64-2,1.62,2.12,3,2.12,1-4,2.44-4,1.82,4.14,3.34,4,.82-6,2.24-6,1.42.56,2.84.45,1.42,1.34,2.84,1.34,1.82,4,3.34,4,1.42-.56,2.64-.56,1.22-.89,2.64-.89,1.42.89,2.84.89.81-5.81,2.23-5.81h0V0Z"/></g></g></g></g></g></g></svg>