<?xml version="1.0" encoding="utf-8"?>
<!-- Generator: Adobe Illustrator 22.1.0, SVG Export Plug-In . SVG Version: 6.00 Build 0)  -->
<svg version="1.1" id="Livello_1" xmlns="http://www.w3.org/2000/svg" xmlns:xlink="http://www.w3.org/1999/xlink" x="0px" y="0px"
	 viewBox="0 0 2000 200" style="enable-background:new 0 0 2000 200;" xml:space="preserve">
<style type="text/css">
	.st0{fill:#FFEDDF;}
</style>
<g id="Livello_2_1_">
	<g id="Livello_1-2">
		<path class="st0" d="M2000,215.4V8.5h-0.8c-1.4,0-1.4-1.3-2.8-1.3s-1,3-2.4,3c-1.2,0-1.8-3.7-3.3-3.6c-1.4,0-1,2.5-2.4,2.5
			c-1.4,0-1.2,0.6-2.6,0.7c-1.4,0-1.6-3.3-3-3.3c-1.4,0-1.4,0.1-2.8,0.2c-1.4,0-1,3.5-2.4,3.5c-1.4,0-1.4-1.3-2.8-1.3
			s-1.2,0.9-2.6,1c-1.4,0.1-1.2,1.5-2.6,1.6c-1.4,0.1-1.4,0.5-2.6,0.6c-1.4,0-1.4-0.7-2.8-0.7s-1.8-4.2-3.3-4.2
			c-1.4,0-1,2.8-2.4,2.8s-1.6-2-3-1.9c-1.4,0.1-1.4-0.6-2.8-0.6s-1.4-0.3-2.8-0.3c-1.4,0-1,2.8-2.4,2.8c-1.2,0-1.6-2-3-2
			c-1.4,0-1.4,0.5-2.6,0.5c-1.4,0-1.2,1.8-2.6,1.8s-1.2,1-2.6,1c-1.4,0-1.4,1.3-2.6,1.3c-1.4,0-1.6-2-3-1.9c-1.4,0.1-1,3-2.4,3
			c-1.2,0.1-1.4-1-2.8-0.9c-1.4,0.1-1.6-1.1-2.8-1.1c-1.4,0-1.4,0.3-2.6,0.3c-1.4,0-1.8-4.1-3.3-4.1c-1.4,0-1,3.2-2.4,3.2
			c-1.4,0-1.6-2.8-3-2.8s-1,4.3-2.4,4.3c-1.4,0-1.2,0.3-2.6,0.3s-1.6-2.5-3-2.5c-1.4,0-1.2,0.8-2.6,0.8s-1.6-2.7-3-2.7
			c-1.4,0-0.8,5.2-2.2,5.2c-1.4,0-1.4-0.7-2.8-0.7c-1.4,0-1.8-4.7-3.3-4.7c-1.2,0-1,3.8-2.4,3.8c-1.4,0-1.8-3.9-3.3-3.8
			c-1.4,0-1.2,0.8-2.6,0.8c-1.4,0-1.2,1.4-2.6,1.4s-1.6-1.9-2.8-1.9c-1.4,0-1,2.9-2.4,2.9c-1.2,0-1.6-2.2-3-2.2
			c-1.4,0-0.8,4.8-2.4,4.8c-1.4,0-1.4-0.2-2.8-0.2c-1.4,0-1.4-0.3-2.8-0.3s-1.2-1.7-2.4-1.6c-1.4,0-1,2.4-2.4,2.4s-1.8-4.7-3.3-4.7
			c-1.4,0-0.8,4.7-2.4,4.7s-1.8-4.6-3.3-4.6s-0.8,4.5-2.4,4.6s-1.8-4.1-3.3-4.1s-1,3.6-2.4,3.6s-1.6-3-3-3c-1.4,0.1-1.6-1.9-3-1.9
			s-1,4.4-2.4,4.4c-1.4,0-1.2,1.2-2.6,1.2s-1.8-4.5-3.3-4.5s-1.4-0.3-2.8-0.3s-1.4-0.2-2.8-0.1c-1.4,0-1,4.4-2.4,4.4
			s-1.2,1.4-2.6,1.4c-1.4,0-1.6-2.7-3-2.7s-1.6-3.3-3-3.2c-1.4,0-1,2.7-2.4,2.7s-1,3-2.4,3.1c-1.2,0-1.4-1.2-2.6-1.2
			s-1.4-0.8-2.8-0.8s-1.2,1.2-2.6,1.2c-1.4,0-1.4-0.4-2.8-0.4s-1.4-0.2-2.8-0.2c-1.4,0-1.2,1.3-2.6,1.3s-1.6-2.5-3-2.5
			c-1.4,0-1.6-1.9-3-1.9c-1.4,0.1-1.4-0.1-2.8-0.1s-1,3.9-2.4,4c-1.4,0.1-1.6-3-3-3c-1.4,0.1-1.4-1.1-2.8-1s-1.4-0.8-2.8-0.8
			c-1.4,0-0.8,4.7-2.4,4.7c-1.4,0-1.8-3.6-3-3.6c-0.6,0.2-0.6,1.5-1.8,1.5s-1.4-1.3-2.8-1.3c-1.4,0-1,3-2.4,3c-1.4,0.1-1.8-3-3.3-3
			c-1.4,0-1.2,1.4-2.6,1.4s-1,3.4-2.4,3.4c-1.4,0-1.8-4.1-3.3-4s-1,4.1-2.4,4.1c-1.4,0-1.4-3.6-2.8-3.6s-1.2,1.7-2.6,1.7
			c-1.4,0-1.4,0.5-2.6,0.5c-1.4,0-1.6-2.8-3-2.7c-1.4,0.1-1.4-0.3-2.8-0.2c-1.4,0.1-1.4-0.5-2.8-0.5c-1.4,0-1.2,0.8-2.6,0.8
			s-1.4-0.3-2.8-0.3c-1.4,0-1.2,1.9-2.6,1.9c-1.4,0.1-1.2,1.4-2.6,1.4c-1.4,0-1.6-2.7-3-2.6c-1.4,0-1,2.5-2.4,2.5
			c-1.4,0-1.6-1.9-3-1.9s-1.4,0.2-2.8,0.2c-1.4,0-1.6-1.8-2.8-1.8c-1.4,0-1,4.2-2.4,4.2c-1.4,0-1.4-0.3-2.8-0.3s-1.8-4.1-3.3-4.1
			c-1.4,0-1.2,2.3-2.4,2.3s-1,1.4-2.4,1.4c-1.4,0-1.2,1.4-2.6,1.4s-1.8-4.4-3.3-4.3c-1.4,0.1-1.4-0.3-2.8-0.3s-1,2.8-2.4,2.8
			c-1.2,0-1.2,0.9-2.6,0.9c-1.4,0-1.6-3.3-3-3.3c-1.4,0-1.2,0.8-2.6,0.8c-1.4,0-1,4.1-2.4,4.1s-1.6-2.2-3-2.1
			c-1.4,0-1.4-0.6-2.8-0.6s-1.6-2.1-3-2.1s-1.4-0.2-2.8-0.2s-1.4-0.2-2.8-0.2c-1.4,0-1,2.7-2.4,2.7s-1.6-1.9-3-1.9
			c-1.4,0-1,4.4-2.4,4.5c-1.4,0-1.4-0.3-2.8-0.3c-1.4,0-1.2,1.2-2.6,1.2s-2-5.5-3.3-5.5c-1.2,0-0.8,5.8-2.2,5.9
			c-1.4,0-1.8-4.9-3.3-4.8c-1.4,0.1-1.2,2.4-2.6,2.4c-1.2,0-1.4,0.3-2.6,0.4c-1.4,0-1.6-1.9-3-1.9s-1.4-0.8-2.8-0.8
			c-1.4,0-1.4-0.9-2.8-0.9s-1.4,0.2-2.8,0.2c-1.4,0-1.2,2.1-2.6,2.1s-1.2,0.8-2.6,0.9c-1.4,0-1.6-1.7-2.8-1.6
			c-1.4,0-1.2,0.8-2.6,0.8c-1.4,0.1-1,3.1-2.4,3.2c-1.4,0-1.6-2.2-3-2.2c-1.4,0-1.6-2.3-3-2.3s-0.8,4.9-2.4,4.9
			c-1.4,0.1-1.6-2-3-1.9c-1.4,0.1-1.6-2.2-3-2.1c-1.4,0-1,3.5-2.4,3.5s-1.4-1-2.8-1c-1.4,0-1.4,0.5-2.6,0.5c-1.4,0-1.4,0.1-2.8,0.1
			c-1.4,0-1.8-4.6-3.3-4.6c-1.4,0-1,3.3-2.4,3.3c-1.4,0-1,2.4-2.4,2.4s-1.8-4.2-3.3-4.2c-1.4,0-1.2,1.4-2.6,1.4s-1.4-0.4-2.8-0.4
			c-1.4,0-1.4-0.3-2.8-0.3c-1.4,0-1,4-2.4,4c-1.4,0-1.8-4.7-3.3-4.7s-1,3.6-2.4,3.6c-1.4,0-1.6-2.2-3-2.1c-1.4,0-1,3.6-2.4,3.6
			c-1.4,0-1.4,0.2-2.6,0.2c-1.4,0-1.4,0-2.8,0c-1.4,0-1.4-1.4-2.8-1.4s-1.8-4.7-3.3-4.7c-1.4,0-0.8,5.5-2.2,5.5
			c-1.4,0-1.8-4.9-3.3-4.9c-1.4,0.1-1.2,1.3-2.6,1.4c-1.4,0-1.2,2.4-2.4,2.4c-1.4,0-1.4-0.8-2.8-0.8s-1.2,1.4-2.6,1.4
			c-1.4,0-1.8-2.1-3-2.1c-1.4,0-1.2,1.9-2.6,1.9c-1.4,0-1.6-1.9-2.8-1.9c-1.4,0.1-1.2,2.5-2.4,2.5c-1.4,0-1.4-0.1-2.8-0.1
			c-1.4,0-1.6-1.9-3-1.8c-1.4,0-1.6-1.9-2.8-1.8c-1.4,0-1,3.3-2.4,3.4c-1.4,0.1-1.4-0.7-2.8-0.6c-1.4,0-1.6-1.5-3-1.5
			s-1.4-0.2-2.8-0.2c-1.4,0-1.2,1.3-2.6,1.4c-1.4,0.1-1.4-1-2.8-1c-1.4,0-1.2,2-2.6,2.1c-1.4,0-1.8-4.1-3.3-4.1
			c-1.4,0-1.2,1.9-2.6,1.9s-1.2,0.7-2.6,0.7c-1.4,0-1.4-0.9-2.8-0.9s-1.4-0.1-2.8,0c-1.4,0.1-0.8,4.9-2.4,4.9s-1.8-3.6-3-3.5
			c-1.4,0-1.4-0.4-2.8-0.4s-1.4-0.9-2.8-0.9c-1.4,0-1,3-2.4,3s-1.4,0.5-2.6,0.5c-1.4,0-1.4,0.5-2.6,0.5c-1.4,0-1.8-4.6-3.3-4.6
			c-1.4,0-0.8,5.3-2.2,5.4c-1.4,0-1.6-1.5-2.8-1.5c-1.2,0-1.2,0.8-2.6,0.9c-1.4,0-1.8-4-3.3-3.9c-1.4,0.1-1.2,1.8-2.6,1.8
			s-1.4-0.2-2.8-0.2c-1.4,0-1.6-2-3-2c0.4,0.1,0.4,1.6-0.8,1.6c-1.4,0-1.2,2.5-2.4,2.5s-1.4,0.2-2.6,0.3c-1.2,0.1-1.6-2.3-3-2.3
			s-1,3.6-2.4,3.7c-1.4,0-1.8-3.9-3.3-3.8c-1.4,0.1-1.4,0.1-2.8,0.2c-1.4,0.1-1.4-1.4-2.8-1.4s-1.2,1.1-2.6,1.1s-1,2.8-2.4,2.8
			c-1.2,0-1.8-4.4-3.3-4.4c-1.4,0-1.4,0.6-2.6,0.6c-1.2,0-1.2,2.3-2.4,2.3c-1.4,0-1.6-2.6-3-2.6c-1.4,0-0.8,5.1-2.2,5.2
			c-1.4,0.1-1.4-0.9-2.8-0.8c-1.4,0.1-1.4-0.1-2.8,0s-1.6-2.9-3-2.9c-1.4,0-1,2.5-2.4,2.5s-2-4.1-3.5-4.1c-1.4,0-1.2,2.4-2.6,2.4
			s-1.4-0.6-2.8-0.5c-1.4,0-1.4-0.3-2.8-0.3s-1.4-0.8-2.8-0.8c-1.4,0-1.2,1.7-2.6,1.7s-1.6-1.9-3-1.9c-1.4,0-1.2,2.1-2.6,2.1
			s-1.2,1.9-2.6,1.9c-1.4,0-1.6-1.5-2.8-1.5s-1.2,2.5-2.4,2.5c-1.2,0-1.4-3.4-2.8-3.4s-1,4.6-2.4,4.6c-1.4,0-1.4-1.1-2.8-1
			c-1.4,0-1.6-1.7-2.8-1.7c-1.4,0-1,2.5-2.4,2.5c-1.2,0-2-5.4-3.3-5.4c-1.4,0-1,3.7-2.4,3.8c-1.4,0-1.2,0.8-2.6,0.8
			c-1.4,0-1.2,1.4-2.6,1.4s-1.8-4.3-3.3-4.3s-1.4-0.4-2.8-0.4s-1.2,1.6-2.6,1.7c-1.4,0-1.6-2.9-3-2.9s-1.2,1.4-2.6,1.4
			c-1.4,0-1,4.3-2.4,4.4s-1.2,0.5-2.6,0.6c-1.4,0-1.6-2.9-3-2.9s-1.2,1.5-2.6,1.5c-1.4,0-1.4-1.2-2.8-1.2s-1.4,0.4-2.6,0.4
			c-1.2,0-1.6-3.1-3-3.1s-1.2,1.5-2.6,1.6c-1.4,0-1.4-0.3-2.8-0.2c-1.4,0-1.2,1.1-2.6,1.1c-1.4,0-1.6-2.1-3-2.1s-1,3.7-2.4,3.7
			s-1.4-1.3-2.8-1.2c-1.4,0.1-1.4,0.6-2.6,0.6s-1.2,0.9-2.6,0.9c-1.4,0-1.2,0.7-2.6,0.7s-1.8-4.1-3.3-4.1c-1.4,0-1.4-0.5-2.8-0.5
			s-1.4,0.3-2.6,0.4c-1.4,0-1,4.3-2.4,4.3s-1.4-0.2-2.8-0.1c-1.4,0-1.4-1.4-2.8-1.4s-1.8-3.4-3-3.3c-1.4,0-1.2,2-2.6,2.1
			c-1.4,0-1.4,0.6-2.6,0.6c-1.4,0-1.6-1.9-3-1.9s-1.2,1.3-2.6,1.3c-1.4,0-1.4,0.2-2.8,0.3s-1.2,1.4-2.6,1.4c-1.4,0-1.2,0.7-2.6,0.7
			s-1.2,1.4-2.6,1.4c-1.4,0-1.6-2.5-3-2.5s-1.6-2.5-3-2.5c-1.4,0-1,2.4-2.4,2.4s-1.6-1.7-2.8-1.7c-1.4,0-1.4-0.3-2.8-0.3
			c-1.4,0.1-1.4-0.8-2.8-0.8c-1.4,0-0.8,5.3-2.2,5.3c-1.4,0-1.6-2.2-3-2.1c-1.4,0-1.2,1.9-2.6,1.9c-1.4,0.1-1.4-0.5-2.8-0.5
			c-1.4,0-1.8-3.6-3.3-3.6s-1.2,1.9-2.6,1.9c-1.4,0-1,3.4-2.4,3.5c-1.4,0-1.4-1.4-2.8-1.3c-1.4,0-1.6-2.5-3-2.5
			c-1.4,0-1.2,1.8-2.6,1.9c-1.4,0-1.2,1-2.6,1c-1.4,0-1.8-3.7-3.3-3.7c-1.4,0-1,4.5-2.4,4.5s-1.6-2.3-3-2.3c-1.4,0-1.2,1.4-2.6,1.5
			s-1.4,0.2-2.8,0.2c-1.4,0-1.8-4.7-3.3-4.7s-1,4-2.4,4c-1.4,0-1.6-2.5-3-2.5s-1.2,1.8-2.6,1.9c-1.4,0-1.6-3-3-3s-1,3-2.4,3
			c-1.2,0-1.4-0.7-2.8-0.6c-1.4,0-1.4-1-2.8-0.9c-1.4,0.1-1.4-1.4-2.8-1.4c-1.4,0.1-0.8,5.2-2.2,5.2c-1.4,0-1.8-2.8-3-2.8
			s-1.2,2.1-2.6,2.2c-1.4,0.1-1.8-3.6-3-3.6c-1.4,0-1,4.1-2.4,4.1c-1.4,0-1.8-4.1-3.3-4.1c-1.4,0-1,2.9-2.4,3
			c-1.2,0.1-1.6-1.5-2.8-1.5c-1.4,0-1,3.8-2.4,3.8c-1.4,0-1.6-1.7-2.8-1.6c-1.2,0.1-1.8-4-3.3-4c-1.4,0-1.2,1.7-2.6,1.7
			s-1.4-1.1-2.8-1.1c-1.4,0-1,2.6-2.4,2.6c-1.4,0-1.4-0.1-2.8-0.1c-1.4,0-1.2,1.5-2.6,1.5c-1.4,0-1.6-1.8-3-1.8
			c-1.4,0-1.2,2.8-2.4,2.8c-1.2,0-1.4,0.4-2.6,0.4c-1.4,0-1.4-0.8-2.8-0.8c-1.4,0-1.4-0.8-2.8-0.7c-1.4,0-1.8-3.8-3.3-3.7
			c-1.4,0-1.2,1.2-2.6,1.2c-1.4,0-1.2,1.4-2.6,1.4h-2.8c-1.4,0-1.4-1.1-2.8-1.1c-1.4,0-1.2,1.7-2.6,1.7c-1.4,0-1.2,2.3-2.4,2.3
			c-1.4,0-1.8-3.3-3-3.3c-1.4,0-1.2,1.9-2.6,1.9c-1.4,0-1.6-3.1-3-3c-1.4,0-1,3-2.4,3c-1.2,0-1.4-1.4-2.8-1.3
			c-1.4,0-1.6-1.5-2.8-1.5c-1.4,0-1.6-0.6-2.8-0.6c-1.4,0-1,4-2.4,4s-1.8-4-3.3-4c-1.4,0-1.2,1.1-2.6,1.1s-1.6-1.8-2.8-1.7
			c-1.4,0-1.2,0.8-2.6,0.8s-1.4-0.3-2.8-0.3s-1.4,0.4-2.6,0.4c-1.2,0-1.2,2.3-2.4,2.4c-1.4,0-1.6-2.5-3-2.5c-1.4,0-1.2,0.9-2.6,0.9
			s-0.4,1.7-1.8,1.7c-1.4,0-1.4,0.1-2.8,0.1c-1.4,0-1,2.4-2.4,2.5c-1.4,0.1-1.8-4.5-3.3-4.5c-1.4,0-1.2,2-2.6,2.1
			c-1.4,0-1.2,1.9-2.6,1.9l-2.8,0.1c-1.4,0-1.8-4-3.3-4c-1.4,0-1,4.1-2.4,4.1c-1.4,0-1.6-2.7-3-2.7c-1.4,0-1.2,0.8-2.6,0.8
			c-1.4,0-1.6-1.9-3-1.9c-1.4,0-1.2,1.4-2.6,1.4c-1.4,0-1.4-0.2-2.8-0.2c-1.4,0-1.2,2.1-2.6,2.1c-1.4,0-1.6-3.1-3-3
			c-1.4,0-1.4,0-2.8,0c-1.4,0-0.8,4.9-2.2,5c-1.4,0.1-1.6-1.7-2.8-1.6c-1.4,0-1.8-3.8-3.3-3.8c-1.4,0-1.2,1.7-2.6,1.7
			c-1.4,0-1.2,1.6-2.6,1.6s-1.6-2.1-3-2.1c-1.4,0-1.4-0.2-2.8-0.2c-1.4,0-1,3.1-2.4,3.2c-1.2,0-1.6-1.8-3-1.8c-1.4,0-1,3.6-2.4,3.6
			c-1.4,0-1.8-5.2-3.3-5.1c-1.4,0.1-1.2,1-2.6,1s-1.6-1.4-2.8-1.4c-1.2,0-0.8,5.2-2.2,5.2c-1.4,0-1.4-0.4-2.8-0.3
			c-1.4,0-1.6-2.7-3-2.6c-1.4,0-1.2,2.4-2.4,2.4c-1.4,0-1.6-1.5-2.8-1.5c-1.2,0-1.6-1.7-2.8-1.7c-1.4,0-1,3.5-2.4,3.5
			c-1.4,0-1.4-0.3-2.8-0.3s-1.4-0.1-2.8,0s-1.6-2.8-3-2.8c-1.4,0-1,4.3-2.4,4.3c-1.4,0-2-5.4-3.3-5.3c-1.4,0-0.8,5.4-2.2,5.4
			c-1.4,0-1.6-2.5-3-2.5c-1.4,0-1.2,2.1-2.6,2.1s-1.8-4.7-3.3-4.7c-1.4,0-1.4-0.3-2.8-0.3s-0.8,4.8-2.2,4.8c-1.4,0-1.2,0.8-2.6,0.8
			c-1.4,0-1.4,0.6-2.6,0.6c-1.2,0-1.6-3.1-3-3.1c-1.4,0-1.4-1.2-2.8-1.2c-1.4,0-1,3-2.4,3c-1.2,0-1.2,1.1-2.6,1.1
			c-1.4,0-1.6-2.1-3-2.1c-1.4,0-1.2,2.1-2.6,2.1c-1.4,0-1.6-1.4-3-1.4c-1.4,0-1.8-4.1-3.3-4.1c-1.4,0-1.4,0.7-2.6,0.7
			c-1.4,0-0.8,4.7-2.4,4.7c-1.4,0-1.8-4.6-3.3-4.6c-1.4,0-1.2,2.5-2.4,2.5c-1.4,0-1.6-2.8-3-2.7c-1.4,0-0.8,5.5-2.2,5.5
			c-1.4,0-2-5.6-3.3-5.5c-1.4,0-1,3-2.4,3c-1.4,0-1.6-3.2-3-3.2c-1.4,0,0.2,3.7-1.2,3.7c-1.4,0-1.2,1.3-2.6,1.4
			c-1.4,0-1.4-1.3-2.8-1.3s-1.2,0.8-2.6,0.8s-1.6-1.4-2.8-1.4c-1.4,0-1.6-1.9-3-1.9c-1.4,0-1.4-1.4-2.8-1.4s-1,3.6-2.4,3.7
			c-1.4,0-1.6-2.7-3-2.7c-1.4,0-1.2,0.8-2.6,0.8s-1.4-1-2.8-0.9S782.2,29,781,29c-1.4,0-1.2,1.4-2.6,1.4c-1.4,0-1.2,1-2.6,1
			c-1.4,0-1.4-1.5-2.8-1.5c-1.4,0-1.2,0.6-2.6,0.7c-1.4,0-1.4,0.3-2.8,0.3c-1.4,0-1.2,1.4-2.6,1.4c-1.4,0-1.8-4.1-3.3-4.1
			c-1.4,0-1.2,0.7-2.6,0.8c-1.4,0.1-1.2,1.3-2.6,1.4c-1.4,0.1-1.4-0.6-2.8-0.5c-1.4,0.1-1,2.6-2.4,2.7c-1.4,0.1-1.2,1-2.6,1
			c-1.4,0.1-1.4-1.3-2.8-1.3c-1.4,0-1.4,0.6-2.6,0.6c-1.4,0-1.4-1.1-2.8-1.1c-1.4,0-1.4-0.4-2.8-0.3c-1.4,0.1-1.2,2.4-2.4,2.4
			c-1.4,0-1.2,0.8-2.6,0.8c-1.4,0.1-1.6-3-3-3c-1.4,0-1.2,0.6-2.6,0.7c-1.4,0-1,2.7-2.4,2.7c-1.4,0-1.4-1.3-2.8-1.3s-1.8-3.6-3-3.6
			c-1.4,0-1.4,0.6-2.6,0.6c-1.4,0-1.2,1.4-2.6,1.4c-1.4,0-1.2,1.4-2.6,1.4c-1.4,0-1.2,1.3-2.6,1.3s-1.4-0.6-2.8-0.6
			s-1.8-4.7-3.3-4.6c-1.4,0-1.4-0.3-2.8-0.3s-1.2,1.9-2.6,1.9s-1.4,0.3-2.6,0.3c-1.4,0-1.4-0.9-2.8-0.9s-1.4-0.1-2.8-0.1
			c-1.4,0-1.4,0-2.8,0s-1.2,1.2-2.6,1.2s-1.4,0.1-2.8,0.1c-1.4,0-1,4.1-2.4,4.1c-1.4,0-1.8-4.2-3.3-4.2c-1.4,0-1.4-1-2.8-0.9
			s-1.2,1.4-2.6,1.4s-1.4,0.5-2.6,0.5c-1.4,0-1.6-2.8-3-2.7c-1.4,0.1-1,3.2-2.4,3.3c-1.4,0.1-1.6-3-3-3s-1,3.9-2.4,4s-1.6-2.3-3-2.3
			s-1.2,2.4-2.4,2.4c-1.4,0-1.4-1.1-2.8-1.1s-1.2,0.8-2.6,0.8s-1.6-1.9-3-1.9c-1.4,0.1-1,2.7-2.4,2.7s-1.8-3.3-3-3.2
			c-1.2,0.1-1.2,1.2-2.6,1.3c-1.4,0.1-1.2,2.5-2.4,2.5c-1.4,0-1.4-0.5-2.8-0.5s-1.4-0.3-2.8-0.3s-1.2,1.1-2.6,1.1s-1.4-0.2-2.8-0.2
			s-1.4-1.3-2.8-1.2c-1.4,0-1.2,1.8-2.6,1.8s-1.8-3.2-3.3-3.1c-1.4,0.1-1.4,0.5-2.6,0.6c-1.4,0-1,2.7-2.4,2.7c-1.2,0-1.8-3.5-3-3.5
			c-1.2,0-1.4-0.8-2.8-0.8s-1.4-0.8-2.8-0.8s-0.8,5.2-2.2,5.2c-1.4,0.1-1.8-3.4-3.3-3.4c-1.4,0-1.2,1.9-2.6,1.9s-1.6-2.8-3-2.8
			s-1.2,0.8-2.6,0.8s-1.4-0.5-2.8-0.5s-1.4-0.7-2.8-0.7S575.4,34,574,34s-1.2,1.9-2.6,1.9c-1.4,0-1.4-0.6-2.8-0.6s-1.2,1.4-2.6,1.4
			c-1.4,0.1-1.8-4.9-3.3-4.9c-1.4,0-1,4.5-2.4,4.5s-1.8-3.4-3-3.4c-1.4,0-1.4,0.3-2.6,0.3c-1.2,0-1.4-0.1-2.8,0
			c-1.4,0.1-0.8,4.7-2.4,4.7c-1.4,0-2-6.2-3.5-6.2s-1,4-2.4,4s-1.4-0.2-2.8-0.2s-1.4,0.2-2.6,0.2c-1.4,0-1.4-0.3-2.8-0.3
			c-1.4,0.1-1.4-1-2.8-1c-1.4,0.1-1,3.8-2.4,3.9c-1.4,0-1.4-2.5-2.8-2.5s-1.4,0-2.8,0.1c-1.4,0.1-1.4-0.8-2.8-0.8
			c-1.4,0.1-1.6-3-3-3s-1.2,1.5-2.6,1.6c-1.4,0-1,4.3-2.4,4.4c-1.4,0-1.8-3.6-3-3.6c-1.4,0-1.2,1.9-2.6,1.9s-1.6-3.6-3-3.6
			s-1.2,0.8-2.6,0.8c-1.4,0.1-1.2,0.9-2.6,0.9s-1.2,2.1-2.6,2.1s-1.8-3.1-3-3.1c-1.4,0-1,4.3-2.4,4.3s-1.8-4.4-3.3-4.3
			c-1.4,0-1.2,1-2.6,1.1c-1.4,0-1.4,0.3-2.6,0.3c-1.2,0.1-1.4-1.1-2.8-1.1s-1,4.4-2.4,4.5c-1.4,0-1.4-1-2.8-1s-1.4,0.8-2.6,0.8
			s-1.8-3.7-3.3-3.7s-1.2,1.6-2.6,1.6s-1.2,1.8-2.6,1.9c-1.4,0-1.6-2.5-3-2.5s-1.2,1-2.6,1s-1.6-1.9-3-1.9s-1,3-2.4,3
			s-1.2,1.3-2.6,1.3s-1.4,0.2-2.6,0.3c-1.4,0-1.4-0.8-2.8-0.8s-1.8-3.6-3-3.6s-1.4,0.3-2.8,0.3s-0.8,5-2.4,5c-1.4,0-1.6-3.2-3-3.2
			s-1.4-0.9-2.8-0.8c-1.4,0.1-1.4-0.7-2.8-0.7s-1.4,0.5-2.6,0.5c-1.4,0-1,4.4-2.4,4.4s-2-5.5-3.3-5.5c-1.4,0-0.8,5.4-2.2,5.4
			s-1.8-3.5-3-3.5c-1.2,0-1,2.9-2.4,2.9s-1.4-1.1-2.8-1.1l-2.8,0.1c-1.4,0-1.6-1.5-2.8-1.5c-1.2,0-1.6-1.9-3-1.9s-1.2,1.9-2.6,1.9
			c-1.4,0-1.6-2.1-3-2.1s-1.4,0.1-2.8,0.1s-1.2,1.1-2.6,1.1s-1,4.1-2.4,4.1c-1.4,0-1.8-5.2-3.3-5.2s-1,4.1-2.4,4.1s-1.8-3.8-3.3-3.8
			s-1.2,2.1-2.6,2.1s-1.2,0.6-2.6,0.6c-1.4,0-1.4-1-2.8-1c-1.4,0-1,2.5-2.4,2.5s-1.4-0.2-2.8-0.2c-1.4,0-1.6-2.5-3-2.5
			c-1.4,0-1.4-0.7-2.8-0.7c-1.4,0-1.2,1.9-2.6,1.9s-1.6-1.9-3-1.9s-1.2,1.1-2.6,1.1S347.2,36,346,36c-1.4,0-1.2,1.4-2.6,1.4
			c-1.4,0-1.2,0.9-2.6,1c-1.4,0.1-1.2,0.8-2.6,0.8c-1.4,0-1.4,0.5-2.6,0.5c-1.4,0-1.4,0-2.8,0c-1.4,0-1.4,0.4-2.6,0.4
			c-1.4,0-1.2,1.5-2.6,1.5c-1.4,0-1.4-0.7-2.8-0.6c-1.4,0.1-1.4-0.7-2.8-0.7c-1.4,0-1.4,0.6-2.6,0.6c-1.4,0-1.4-0.2-2.8-0.2
			c-1.4,0-1.8-4.5-3.3-4.5s-0.8,4.9-2.4,4.9c-1.4,0-1.4-0.3-2.8-0.3s-1.8-3.6-3.3-3.6s-1.4,0.6-2.6,0.7c-1.4,0-1.2,1.2-2.6,1.2
			c-1.4,0-1.6-2.2-3-2.2s-0.8,5.6-2.2,5.7c-1.4,0-1.4-0.1-2.8-0.1s-1.6-2.8-3-2.8s-1.6-1.5-2.8-1.4c-1.4,0-1,3.4-2.4,3.5
			c-1.4,0-1.4-1-2.8-1s-1.4,0.7-2.6,0.7c-1.4,0-1.8-3.3-3-3.3c-1.4,0-1.4-1.3-2.8-1.2c-1.4,0-1.2,0.8-2.6,0.8c-1.4,0-1,3.4-2.4,3.4
			s-1.8-3.4-3-3.4c-1.4,0-1,3-2.4,3c-1.4,0.1-1.4,0.6-2.6,0.6c-1.4,0-1.2,1.5-2.6,1.5c-1.4,0-1.8-4.1-3.3-4.1s-1.4,0.6-2.6,0.7
			c-1.4,0-1.4-0.2-2.8-0.2c-1.4,0-1.2,0.8-2.6,0.8s-1.6-2.3-3-2.3c-1.4,0-1.2,1-2.6,1c-1.4,0-0.8,4.6-2.4,4.6c-1.4,0-1.6-3-3-3
			c-1.4,0-1.4,0.3-2.6,0.4c-1.4,0-1.2,0.8-2.6,0.8c-1.4,0-1.2,2-2.6,2c-1.4,0-1.6-2.4-3-2.4c-1.4,0-1.2,0.8-2.6,0.8
			c-1.4,0-1.4,0-2.8,0c-1.4,0-1.6-2.6-3-2.6c-1.4,0-1,3.9-2.4,4c-1.4,0.1-1.4-1.5-2.8-1.4c-1.4,0-1.6-3.2-3-3.2
			c-1.4,0-1.2,1.4-2.6,1.4c-1.4,0-1.2,1.2-2.6,1.2c-1.4,0-1.2,0.6-2.6,0.7c-1.4,0-1.6-2.1-3-2c-1.4,0-1.4-0.1-2.8-0.1
			c-1.4,0-1,3.4-2.4,3.5c-1.4,0-1.4-0.9-2.8-0.8c-1.4,0-1.6-1.9-3-1.9c-1.4,0-1.2,1-2.6,1c-1.4,0.1-1.2,2.3-2.6,2.3
			c-1.4,0-1.6-1.6-2.8-1.5c-1.4,0-1.6-1.4-2.8-1.4c-1.4,0-1,4-2.4,4c-1.4,0-2-5.5-3.3-5.5c-1.4,0-1.2,1.9-2.6,2
			c-1,0-0.8,1.9-2.2,1.9s-1.4-0.5-2.8-0.4c-1.4,0-1.2,1.2-2.6,1.2c-1.4,0-1.8-4.4-3.3-4.3c-1.4,0.1-1,3.5-2.4,3.6
			c-1.4,0-1.4,0.5-2.6,0.5c-1.4,0-1.4-1.4-2.8-1.4c-1.4,0-1.6-3-3-3c-1.4,0-1,3.6-2.4,3.6c-1.4,0-1.6-1.9-3-1.9s-1.6-1.8-3-1.7
			c-1.4,0.1-0.8,4.7-2.4,4.7c-1.4,0-1.8-4.1-3.3-4.1c-1.4,0-0.6,5.5-1.8,5.6s-1.6-1.8-3-1.7c-1.4,0-1.6-1.5-2.8-1.5
			c-1.4,0-1.6-1.6-2.8-1.6c-1.4,0-1.4-0.6-2.8-0.6c-1.4,0-1.4,0.4-2.6,0.5c-1.2,0.1-1,4.5-2.4,4.6c-1.4,0-1.6-2.3-3-2.3
			s-1.4-1.2-2.8-1.1c-1.4,0-1.4-1.2-2.8-1.2c-1.4,0-0.8,5.5-2.2,5.5s-1.6-2.7-3-2.6s-1.2,2.2-2.6,2.2c-1.4,0-1.4-0.4-2.8-0.3
			c-1.4,0-1.8-4-3.3-3.9c-1.4,0.1-1.2,2-2.6,2c-1.4,0-1.2,1.2-2.6,1.2s-1.4-0.8-2.8-0.8s-1.6-1.7-3-1.6c-1.4,0-1,4-2.4,4
			s-1.4-0.1-2.8,0s-1.6-1.9-3-1.9s-1.8-3.7-3.3-3.7c-1.4,0-1,4.6-2.4,4.6s-1.4,0-2.8,0s-1.8-3.4-3-3.4c-1.2,0-1.2,1.3-2.6,1.4
			c-1.4,0-1.4-1.3-2.8-1.2c-1.4,0-1.2,1.4-2.6,1.5c-1.4,0-1.4-0.5-2.8-0.4c-1.4,0-1,3.6-2.4,3.6c-1.4,0-1.4-0.3-2.8-0.3
			c-1.4,0-1.2,0.9-2.6,1s-1.8-5.3-3.3-5.3c-1.4,0-1.2,1.7-2.6,1.8c-1.4,0-1.6-1.9-3-1.9c-1.4,0-1,3.6-2.4,3.6
			c-1.4,0-1.8-3.7-3.3-3.6c-1.4,0-0.8,5.4-2.2,5.4c-1.4,0-1.4-0.5-2.8-0.4c-1.4,0-1.4-1.2-2.8-1.2s-1.8-3.6-3.3-3.6S8.9,43,7.7,43
			s-1.2,0.8-2.6,0.8c-1.4,0-1.4-0.8-2.8-0.8c-1.4,0-0.8,5.2-2.2,5.2l0,0l0,167.6L2000,215.4z"/>
	</g>
</g>
</svg>
