<?xml version="1.0" encoding="utf-8"?>
<!-- Generator: Adobe Illustrator 23.0.1, SVG Export Plug-In . SVG Version: 6.00 Build 0)  -->
<svg version="1.1" id="Livello_1" xmlns="http://www.w3.org/2000/svg" xmlns:xlink="http://www.w3.org/1999/xlink" x="0px" y="0px"
	 width="1975.6px" height="110px" viewBox="0 0 1975.6 110" style="enable-background:new 0 0 1975.6 110;" xml:space="preserve">
<style type="text/css">
	.st0{fill:#0E0F26;}
</style>
<title>strapposoprablu</title>
<g id="Livello_2_1_">
	<g id="Livello_1-2">
		<g id="Livello_2-2">
			<g id="Livello_1-2-2">
				<path class="st0" d="M-1-1v109h1.8c1.4,0,1.4,1.3,2.8,1.3s1-3,2.4-3c1.2,0,1.8,3.7,3.3,3.6s1-2.5,2.4-2.5s1.2-0.6,2.6-0.7
					s1.6,3.3,3,3.3c0.9,0,1.9-0.1,2.8-0.2c1.4,0,1-3.5,2.4-3.5s1.4,1.3,2.8,1.3s1.2-0.9,2.6-1s1.2-1.5,2.6-1.6s1.4-0.5,2.6-0.6
					c1.4,0,1.4,0.7,2.8,0.7s1.8,4.2,3.3,4.2s1-2.8,2.4-2.8s1.6,2,3,1.9s1.4,0.6,2.8,0.6s1.4,0.3,2.8,0.3s1-2.8,2.4-2.8
					c1.2,0,1.6,2,3,2s1.4-0.5,2.6-0.5c1.4,0,1.2-1.8,2.6-1.8s1.2-1,2.6-1c1.4,0,1.4-1.3,2.6-1.3c1.4,0,1.6,2,3,1.9s1-3,2.4-3
					c1.2-0.1,1.4,1,2.8,0.9s1.6,1.1,2.8,1.1c1.4,0,1.4-0.3,2.6-0.3c1.4,0,1.8,4.1,3.3,4.1s1-3.2,2.4-3.2s1.6,2.8,3,2.8
					s1-4.3,2.4-4.3s1.2-0.3,2.6-0.3s1.6,2.5,3,2.5s1.2-0.8,2.6-0.8s1.6,2.7,3,2.7s0.8-5.2,2.2-5.2s1.4,0.7,2.8,0.7s1.8,4.7,3.3,4.7
					c1.2,0,1-3.8,2.4-3.8s1.8,3.9,3.3,3.8s1.2-0.8,2.6-0.8s1.2-1.4,2.6-1.4s1.6,1.9,2.8,1.9c1.4,0,1-2.9,2.4-2.9
					c1.2,0,1.6,2.2,3,2.2s0.8-4.8,2.4-4.8c1.4,0,1.4,0.2,2.8,0.2s1.4,0.3,2.8,0.3s1.2,1.7,2.4,1.6c1.4,0,1-2.4,2.4-2.4
					s1.8,4.7,3.3,4.7s0.8-4.7,2.4-4.7s1.8,4.6,3.3,4.6s0.8-4.5,2.4-4.6s1.8,4.1,3.3,4.1s1-3.6,2.4-3.6s1.6,3,3,3s1.6,1.9,3,1.9
					s1-4.4,2.4-4.4s1.2-1.2,2.6-1.2s1.8,4.5,3.3,4.5s1.4,0.3,2.8,0.3c0.9,0.1,1.9,0.1,2.8,0.1c1.4,0,1-4.4,2.4-4.4s1.2-1.4,2.6-1.4
					s1.6,2.7,3,2.7s1.6,3.3,3,3.2s1-2.7,2.4-2.7s1-3,2.4-3.1c1.2,0,1.4,1.2,2.6,1.2s1.4,0.8,2.8,0.8s1.2-1.2,2.6-1.2
					s1.4,0.4,2.8,0.4s1.4,0.2,2.8,0.2s1.2-1.3,2.6-1.3s1.6,2.5,3,2.5s1.6,1.9,3,1.9c0.9,0,1.9,0,2.8,0.1c1.4,0,1-3.9,2.4-4
					s1.6,3,3,3s1.4,1.1,2.8,1s1.4,0.8,2.8,0.8s0.8-4.7,2.4-4.7c1.4,0,1.8,3.6,3,3.6c0.6-0.2,0.6-1.5,1.8-1.5s1.4,1.3,2.8,1.3
					s1-3,2.4-3s1.8,3,3.3,3s1.2-1.4,2.6-1.4s1-3.4,2.4-3.4s1.8,4.1,3.3,4s1-4.1,2.4-4.1s1.4,3.6,2.8,3.6s1.2-1.7,2.6-1.7
					s1.4-0.5,2.6-0.5c1.4,0,1.6,2.8,3,2.7s1.4,0.3,2.8,0.2s1.4,0.5,2.8,0.5s1.2-0.8,2.6-0.8s1.4,0.3,2.8,0.3s1.2-1.9,2.6-1.9
					s1.2-1.4,2.6-1.4s1.6,2.7,3,2.6s1-2.5,2.4-2.5s1.6,1.9,3,1.9s1.4-0.2,2.8-0.2s1.6,1.8,2.8,1.8c1.4,0,1-4.2,2.4-4.2
					s1.4,0.3,2.8,0.3s1.8,4.1,3.3,4.1s1.2-2.3,2.4-2.3s1-1.4,2.4-1.4s1.2-1.4,2.6-1.4s1.8,4.4,3.3,4.3s1.4,0.3,2.8,0.3
					s1-2.8,2.4-2.8c1.2,0,1.2-0.9,2.6-0.9s1.6,3.3,3,3.3s1.2-0.8,2.6-0.8s1-4.1,2.4-4.1s1.6,2.2,3,2.1s1.4,0.6,2.8,0.6
					s1.6,2.1,3,2.1s1.4,0.2,2.8,0.2s1.4,0.2,2.8,0.2s1-2.7,2.4-2.7s1.6,1.9,3,1.9s1-4.4,2.4-4.5s1.4,0.3,2.8,0.3s1.2-1.2,2.6-1.2
					s2,5.5,3.3,5.5s0.8-5.8,2.2-5.9s1.8,4.9,3.3,4.8s1.2-2.4,2.6-2.4c0.9-0.1,1.7-0.2,2.6-0.4c1.4,0,1.6,1.9,3,1.9s1.4,0.8,2.8,0.8
					s1.4,0.9,2.8,0.9s1.4-0.2,2.8-0.2s1.2-2.1,2.6-2.1s1.2-0.8,2.6-0.9s1.6,1.7,2.8,1.6c1.4,0,1.2-0.8,2.6-0.8s1-3.1,2.4-3.2
					s1.6,2.2,3,2.2s1.6,2.3,3,2.3s0.8-4.9,2.4-4.9c1.4-0.1,1.6,2,3,1.9s1.6,2.2,3,2.1s1-3.5,2.4-3.5s1.4,1,2.8,1s1.4-0.5,2.6-0.5
					c1.4,0,1.4-0.1,2.8-0.1s1.8,4.6,3.3,4.6s1-3.3,2.4-3.3s1-2.4,2.4-2.4s1.8,4.2,3.3,4.2s1.2-1.4,2.6-1.4s1.4,0.4,2.8,0.4
					s1.4,0.3,2.8,0.3s1-4,2.4-4s1.8,4.7,3.3,4.7s1-3.6,2.4-3.6s1.6,2.2,3,2.1s1-3.6,2.4-3.6s1.4-0.2,2.6-0.2h2.8
					c1.4,0,1.4,1.4,2.8,1.4s1.8,4.7,3.3,4.7s0.8-5.5,2.2-5.5s1.8,4.9,3.3,4.9s1.2-1.3,2.6-1.4s1.2-2.4,2.4-2.4
					c1.4,0,1.4,0.8,2.8,0.8s1.2-1.4,2.6-1.4s1.8,2.1,3,2.1c1.4,0,1.2-1.9,2.6-1.9s1.6,1.9,2.8,1.9c1.4-0.1,1.2-2.5,2.4-2.5
					c1.4,0,1.4,0.1,2.8,0.1s1.6,1.9,3,1.8s1.6,1.9,2.8,1.8c1.4,0,1-3.3,2.4-3.4s1.4,0.7,2.8,0.6s1.6,1.5,3,1.5
					c1.4,0,1.4,0.2,2.8,0.2s1.2-1.3,2.6-1.4s1.4,1,2.8,1s1.2-2,2.6-2.1s1.8,4.1,3.3,4.1s1.2-1.9,2.6-1.9s1.2-0.7,2.6-0.7
					s1.4,0.9,2.8,0.9c0.9,0.1,1.9,0.1,2.8,0c1.4-0.1,0.8-4.9,2.4-4.9s1.8,3.6,3,3.5c1.4,0,1.4,0.4,2.8,0.4s1.4,0.9,2.8,0.9
					s1-3,2.4-3s1.4-0.5,2.6-0.5c1.4,0,1.4-0.5,2.6-0.5c1.4,0,1.8,4.6,3.3,4.6s0.8-5.3,2.2-5.4s1.6,1.5,2.8,1.5s1.2-0.8,2.6-0.9
					s1.8,4,3.3,3.9s1.2-1.8,2.6-1.8s1.4,0.2,2.8,0.2s1.6,2,3,2c-0.4-0.1-0.4-1.6,0.8-1.6c1.4,0,1.2-2.5,2.4-2.5
					c0.9-0.1,1.7-0.2,2.6-0.3c1.2-0.1,1.6,2.3,3,2.3s1-3.6,2.4-3.7s1.8,3.9,3.3,3.8l2.8-0.2c1.4-0.1,1.4,1.4,2.8,1.4
					s1.2-1.1,2.6-1.1s1-2.8,2.4-2.8c1.2,0,1.8,4.4,3.3,4.4s1.4-0.6,2.6-0.6s1.2-2.3,2.4-2.3c1.4,0,1.6,2.6,3,2.6s0.8-5.1,2.2-5.2
					s1.4,0.9,2.8,0.8s1.4,0.1,2.8,0s1.6,2.9,3,2.9s1-2.5,2.4-2.5s2,4.1,3.5,4.1s1.2-2.4,2.6-2.4s1.4,0.6,2.8,0.5s1.4,0.3,2.8,0.3
					s1.4,0.8,2.8,0.8s1.2-1.7,2.6-1.7s1.6,1.9,3,1.9s1.2-2.1,2.6-2.1s1.2-1.9,2.6-1.9s1.6,1.5,2.8,1.5s1.2-2.5,2.4-2.5
					s1.4,3.4,2.8,3.4s1-4.6,2.4-4.6s1.4,1.1,2.8,1s1.6,1.7,2.8,1.7c1.4,0,1-2.5,2.4-2.5c1.2,0,2,5.4,3.3,5.4s1-3.7,2.4-3.8
					s1.2-0.8,2.6-0.8s1.2-1.4,2.6-1.4s1.8,4.3,3.3,4.3s1.4,0.4,2.8,0.4s1.2-1.6,2.6-1.7s1.6,2.9,3,2.9s1.2-1.4,2.6-1.4
					s1-4.3,2.4-4.4s1.2-0.5,2.6-0.6s1.6,2.9,3,2.9s1.2-1.5,2.6-1.5s1.4,1.2,2.8,1.2s1.4-0.4,2.6-0.4s1.6,3.1,3,3.1s1.2-1.5,2.6-1.6
					c0.9,0.1,1.9,0.2,2.8,0.2c1.4,0,1.2-1.1,2.6-1.1s1.6,2.1,3,2.1s1-3.7,2.4-3.7s1.4,1.3,2.8,1.2s1.4-0.6,2.6-0.6s1.2-0.9,2.6-0.9
					s1.2-0.7,2.6-0.7s1.8,4.1,3.3,4.1s1.4,0.5,2.8,0.5c0.9-0.1,1.7-0.2,2.6-0.4c1.4,0,1-4.3,2.4-4.3c0.9,0.1,1.9,0.1,2.8,0.1
					c1.4,0,1.4,1.4,2.8,1.4s1.8,3.4,3,3.3c1.4,0,1.2-2,2.6-2.1s1.4-0.6,2.6-0.6c1.4,0,1.6,1.9,3,1.9s1.2-1.3,2.6-1.3
					c0.9-0.1,1.9-0.2,2.8-0.3c1.4-0.1,1.2-1.4,2.6-1.4s1.2-0.7,2.6-0.7s1.2-1.4,2.6-1.4s1.6,2.5,3,2.5s1.6,2.5,3,2.5s1-2.4,2.4-2.4
					s1.6,1.7,2.8,1.7c1.4,0,1.4,0.3,2.8,0.3s1.4,0.8,2.8,0.8s0.8-5.3,2.2-5.3s1.6,2.2,3,2.1s1.2-1.9,2.6-1.9s1.4,0.5,2.8,0.5
					s1.8,3.6,3.3,3.6s1.2-1.9,2.6-1.9s1-3.4,2.4-3.5s1.4,1.4,2.8,1.3s1.6,2.5,3,2.5s1.2-1.8,2.6-1.9s1.2-1,2.6-1s1.8,3.7,3.3,3.7
					s1-4.5,2.4-4.5s1.6,2.3,3,2.3s1.2-1.4,2.6-1.5c0.9-0.1,1.9-0.2,2.8-0.2c1.4,0,1.8,4.7,3.3,4.7s1-4,2.4-4s1.6,2.5,3,2.5
					s1.2-1.8,2.6-1.9s1.6,3,3,3s1-3,2.4-3c1.2,0,1.4,0.7,2.8,0.6s1.4,1,2.8,0.9s1.4,1.4,2.8,1.4s0.8-5.2,2.2-5.2s1.8,2.8,3,2.8
					s1.2-2.1,2.6-2.2s1.8,3.6,3,3.6c1.4,0,1-4.1,2.4-4.1s1.8,4.1,3.3,4.1s1-2.9,2.4-3c1.2-0.1,1.6,1.5,2.8,1.5c1.4,0,1-3.8,2.4-3.8
					s1.6,1.7,2.8,1.6s1.8,4,3.3,4s1.2-1.7,2.6-1.7s1.4,1.1,2.8,1.1s1-2.6,2.4-2.6s1.4,0.1,2.8,0.1s1.2-1.5,2.6-1.5s1.6,1.8,3,1.8
					s1.2-2.8,2.4-2.8s1.4-0.4,2.6-0.4c1.4,0,1.4,0.8,2.8,0.8s1.4,0.8,2.8,0.7s1.8,3.8,3.3,3.7s1.2-1.2,2.6-1.2s1.2-1.4,2.6-1.4h2.8
					c1.4,0,1.4,1.1,2.8,1.1s1.2-1.7,2.6-1.7s1.2-2.3,2.4-2.3c1.4,0,1.8,3.3,3,3.3c1.4,0,1.2-1.9,2.6-1.9s1.6,3.1,3,3s1-3,2.4-3
					c1.2,0,1.4,1.4,2.8,1.3s1.6,1.5,2.8,1.5c1.4,0,1.6,0.6,2.8,0.6c1.4,0,1-4,2.4-4s1.8,4,3.3,4s1.2-1.1,2.6-1.1s1.6,1.8,2.8,1.7
					c1.4,0,1.2-0.8,2.6-0.8s1.4,0.3,2.8,0.3s1.4-0.4,2.6-0.4s1.2-2.3,2.4-2.4c1.4,0,1.6,2.5,3,2.5s1.2-0.9,2.6-0.9s0.4-1.7,1.8-1.7
					s1.4-0.1,2.8-0.1s1-2.4,2.4-2.5s1.8,4.5,3.3,4.5s1.2-2,2.6-2.1s1.2-1.9,2.6-1.9l2.8-0.1c1.4,0,1.8,4,3.3,4s1-4.1,2.4-4.1
					s1.6,2.7,3,2.7s1.2-0.8,2.6-0.8s1.6,1.9,3,1.9s1.2-1.4,2.6-1.4c1.4,0,1.4,0.2,2.8,0.2s1.2-2.1,2.6-2.1s1.6,3.1,3,3h2.8
					c1.4,0,0.8-4.9,2.2-5s1.6,1.7,2.8,1.6c1.4,0,1.8,3.8,3.3,3.8s1.2-1.7,2.6-1.7s1.2-1.6,2.6-1.6s1.6,2.1,3,2.1s1.4,0.2,2.8,0.2
					s1-3.1,2.4-3.2c1.2,0,1.6,1.8,3,1.8s1-3.6,2.4-3.6s1.8,5.2,3.3,5.1s1.2-1,2.6-1s1.6,1.4,2.8,1.4s0.8-5.2,2.2-5.2
					s1.4,0.4,2.8,0.3s1.6,2.7,3,2.6s1.2-2.4,2.4-2.4c1.4,0,1.6,1.5,2.8,1.5s1.6,1.7,2.8,1.7c1.4,0,1-3.5,2.4-3.5s1.4,0.3,2.8,0.3
					c0.9,0.1,1.9,0.1,2.8,0c1.4-0.1,1.6,2.8,3,2.8s1-4.3,2.4-4.3s2,5.4,3.3,5.3s0.8-5.4,2.2-5.4s1.6,2.5,3,2.5s1.2-2.1,2.6-2.1
					s1.8,4.7,3.3,4.7s1.4,0.3,2.8,0.3s0.8-4.8,2.2-4.8s1.2-0.8,2.6-0.8s1.4-0.6,2.6-0.6s1.6,3.1,3,3.1s1.4,1.2,2.8,1.2s1-3,2.4-3
					c1.2,0,1.2-1.1,2.6-1.1s1.6,2.1,3,2.1s1.2-2.1,2.6-2.1s1.6,1.4,3,1.4s1.8,4.1,3.3,4.1s1.4-0.7,2.6-0.7c1.4,0,0.8-4.7,2.4-4.7
					c1.4,0,1.8,4.6,3.3,4.6s1.2-2.5,2.4-2.5c1.4,0,1.6,2.8,3,2.7s0.8-5.5,2.2-5.5s2,5.6,3.3,5.5s1-3,2.4-3s1.6,3.2,3,3.2
					s-0.2-3.7,1.2-3.7s1.2-1.3,2.6-1.4s1.4,1.3,2.8,1.3s1.2-0.8,2.6-0.8s1.6,1.4,2.8,1.4c1.4,0,1.6,1.9,3,1.9s1.4,1.4,2.8,1.4
					s1-3.6,2.4-3.7s1.6,2.7,3,2.7s1.2-0.8,2.6-0.8s1.4,1,2.8,0.9s1.4-0.6,2.6-0.6c1.4,0,1.2-1.4,2.6-1.4s1.2-1,2.6-1
					s1.4,1.5,2.8,1.5s1.2-0.6,2.6-0.7s1.4-0.3,2.8-0.3s1.2-1.4,2.6-1.4s1.8,4.1,3.3,4.1s1.2-0.7,2.6-0.8s1.2-1.3,2.6-1.4
					s1.4,0.6,2.8,0.5s1-2.6,2.4-2.7s1.2-1,2.6-1s1.4,1.3,2.8,1.3s1.4-0.6,2.6-0.6c1.4,0,1.4,1.1,2.8,1.1s1.4,0.4,2.8,0.3
					s1.2-2.4,2.4-2.4c1.4,0,1.2-0.8,2.6-0.8s1.6,3,3,3s1.2-0.6,2.6-0.7s1-2.7,2.4-2.7s1.4,1.3,2.8,1.3s1.8,3.6,3,3.6
					c1.4,0,1.4-0.6,2.6-0.6c1.4,0,1.2-1.4,2.6-1.4s1.2-1.4,2.6-1.4s1.2-1.3,2.6-1.3s1.4,0.6,2.8,0.6s1.8,4.7,3.3,4.6
					s1.4,0.3,2.8,0.3s1.2-1.9,2.6-1.9s1.4-0.3,2.6-0.3c1.4,0,1.4,0.9,2.8,0.9s1.4,0.1,2.8,0.1h2.8c1.4,0,1.2-1.2,2.6-1.2
					s1.4-0.1,2.8-0.1s1-4.1,2.4-4.1s1.8,4.2,3.3,4.2s1.4,1,2.8,0.9s1.2-1.4,2.6-1.4s1.4-0.5,2.6-0.5c1.4,0,1.6,2.8,3,2.7
					s1-3.2,2.4-3.3s1.6,3,3,3s1-3.9,2.4-4s1.6,2.3,3,2.3s1.2-2.4,2.4-2.4c1.4,0,1.4,1.1,2.8,1.1s1.2-0.8,2.6-0.8s1.6,1.9,3,1.9
					s1-2.7,2.4-2.7s1.8,3.3,3,3.2s1.2-1.2,2.6-1.3s1.2-2.5,2.4-2.5c1.4,0,1.4,0.5,2.8,0.5s1.4,0.3,2.8,0.3s1.2-1.1,2.6-1.1
					s1.4,0.2,2.8,0.2s1.4,1.3,2.8,1.2s1.2-1.8,2.6-1.8s1.8,3.2,3.3,3.1s1.4-0.5,2.6-0.6c1.4,0,1-2.7,2.4-2.7c1.2,0,1.8,3.5,3,3.5
					s1.4,0.8,2.8,0.8s1.4,0.8,2.8,0.8s0.8-5.2,2.2-5.2s1.8,3.4,3.3,3.4s1.2-1.9,2.6-1.9s1.6,2.8,3,2.8s1.2-0.8,2.6-0.8
					s1.4,0.5,2.8,0.5s1.4,0.7,2.8,0.7s1.2-2.2,2.6-2.2s1.2-1.9,2.6-1.9s1.4,0.6,2.8,0.6s1.2-1.4,2.6-1.4s1.8,4.9,3.3,4.9
					s1-4.5,2.4-4.5s1.8,3.4,3,3.4c1.4,0,1.4-0.3,2.6-0.3c0.9,0.1,1.9,0.1,2.8,0c1.4-0.1,0.8-4.7,2.4-4.7c1.4,0,2,6.2,3.5,6.2
					s1-4,2.4-4s1.4,0.2,2.8,0.2s1.4-0.2,2.6-0.2c1.4,0,1.4,0.3,2.8,0.3s1.4,1,2.8,1s1-3.8,2.4-3.9s1.4,2.5,2.8,2.5
					c0.9,0,1.9,0,2.8-0.1c1.4-0.1,1.4,0.8,2.8,0.8s1.6,3,3,3s1.2-1.5,2.6-1.6s1-4.3,2.4-4.4s1.8,3.6,3,3.6c1.4,0,1.2-1.9,2.6-1.9
					s1.6,3.6,3,3.6s1.2-0.8,2.6-0.8s1.2-0.9,2.6-0.9s1.2-2.1,2.6-2.1s1.8,3.1,3,3.1c1.4,0,1-4.3,2.4-4.3s1.8,4.4,3.3,4.3
					s1.2-1,2.6-1.1s1.4-0.3,2.6-0.3s1.4,1.1,2.8,1.1s1-4.4,2.4-4.5s1.4,1,2.8,1s1.4-0.8,2.6-0.8s1.8,3.7,3.3,3.7s1.2-1.6,2.6-1.6
					s1.2-1.8,2.6-1.9s1.6,2.5,3,2.5s1.2-1,2.6-1s1.6,1.9,3,1.9s1-3,2.4-3s1.2-1.3,2.6-1.3c0.9,0,1.7-0.1,2.6-0.3
					c1.4,0,1.4,0.8,2.8,0.8s1.8,3.6,3,3.6s1.4-0.3,2.8-0.3s0.8-5,2.4-5c1.4,0,1.6,3.2,3,3.2s1.4,0.9,2.8,0.8s1.4,0.7,2.8,0.7
					s1.4-0.5,2.6-0.5c1.4,0,1-4.4,2.4-4.4s2,5.5,3.3,5.5s0.8-5.4,2.2-5.4s1.8,3.5,3,3.5s1-2.9,2.4-2.9s1.4,1.1,2.8,1.1l2.8-0.1
					c1.4,0,1.6,1.5,2.8,1.5s1.6,1.9,3,1.9s1.2-1.9,2.6-1.9s1.6,2.1,3,2.1s1.4-0.1,2.8-0.1s1.2-1.1,2.6-1.1s1-4.1,2.4-4.1
					s1.8,5.2,3.3,5.2s1-4.1,2.4-4.1s1.8,3.8,3.3,3.8s1.2-2.1,2.6-2.1s1.2-0.6,2.6-0.6s1.4,1,2.8,1s1-2.5,2.4-2.5s1.4,0.2,2.8,0.2
					s1.6,2.5,3,2.5s1.4,0.7,2.8,0.7s1.2-1.9,2.6-1.9s1.6,1.9,3,1.9s1.2-1.1,2.6-1.1s1.6,1.4,2.8,1.4c1.4,0,1.2-1.4,2.6-1.4
					s1.2-0.9,2.6-1s1.2-0.8,2.6-0.8s1.4-0.5,2.6-0.5h2.8c1.4,0,1.4-0.4,2.6-0.4c1.4,0,1.2-1.5,2.6-1.5s1.4,0.7,2.8,0.6
					s1.4,0.7,2.8,0.7s1.4-0.6,2.6-0.6c1.4,0,1.4,0.2,2.8,0.2s1.8,4.5,3.3,4.5s0.8-4.9,2.4-4.9c1.4,0,1.4,0.3,2.8,0.3
					s1.8,3.6,3.3,3.6s1.4-0.6,2.6-0.7c1.4,0,1.2-1.2,2.6-1.2s1.6,2.2,3,2.2s0.8-5.6,2.2-5.7s1.4,0.1,2.8,0.1s1.6,2.8,3,2.8
					s1.6,1.5,2.8,1.4c1.4,0,1-3.4,2.4-3.5s1.4,1,2.8,1s1.4-0.7,2.6-0.7c1.4,0,1.8,3.3,3,3.3c1.4,0,1.4,1.3,2.8,1.2s1.2-0.8,2.6-0.8
					s1-3.4,2.4-3.4s1.8,3.4,3,3.4c1.4,0,1-3,2.4-3s1.4-0.6,2.6-0.6c1.4,0,1.2-1.5,2.6-1.5s1.8,4.1,3.3,4.1s1.4-0.6,2.6-0.7
					c1.4,0,1.4,0.2,2.8,0.2s1.2-0.8,2.6-0.8s1.6,2.3,3,2.3s1.2-1,2.6-1s0.8-4.6,2.4-4.6c1.4,0,1.6,3,3,3c0.9-0.1,1.7-0.2,2.6-0.4
					c1.4,0,1.2-0.8,2.6-0.8s1.2-2,2.6-2s1.6,2.4,3,2.4s1.2-0.8,2.6-0.8h2.8c1.4,0,1.6,2.6,3,2.6s1-3.9,2.4-4s1.4,1.5,2.8,1.4
					s1.6,3.2,3,3.2s1.2-1.4,2.6-1.4s1.2-1.2,2.6-1.2s1.2-0.6,2.6-0.7s1.6,2.1,3,2s1.4,0.1,2.8,0.1s1-3.4,2.4-3.5s1.4,0.9,2.8,0.8
					s1.6,1.9,3,1.9s1.2-1,2.6-1s1.2-2.3,2.6-2.3s1.6,1.6,2.8,1.5c1.4,0,1.6,1.4,2.8,1.4c1.4,0,1-4,2.4-4s2,5.5,3.3,5.5
					s1.2-1.9,2.6-2c1,0,0.8-1.9,2.2-1.9s1.4,0.5,2.8,0.4s1.2-1.2,2.6-1.2s1.8,4.4,3.3,4.3s1-3.5,2.4-3.6s1.4-0.5,2.6-0.5
					c1.4,0,1.4,1.4,2.8,1.4s1.6,3,3,3s1-3.6,2.4-3.6s1.6,1.9,3,1.9s1.6,1.8,3,1.7s0.8-4.7,2.4-4.7c1.4,0,1.8,4.1,3.3,4.1
					s0.6-5.5,1.8-5.6s1.6,1.8,3,1.7s1.6,1.5,2.8,1.5c1.4,0,1.6,1.6,2.8,1.6c1.4,0,1.4,0.6,2.8,0.6s1.4-0.4,2.6-0.5s1-4.5,2.4-4.6
					s1.6,2.3,3,2.3s1.4,1.2,2.8,1.1s1.4,1.2,2.8,1.2s0.8-5.5,2.2-5.5s1.6,2.7,3,2.6s1.2-2.2,2.6-2.2s1.4,0.4,2.8,0.3s1.8,4,3.3,3.9
					s1.2-2,2.6-2s1.2-1.2,2.6-1.2s1.4,0.8,2.8,0.8s1.6,1.7,3,1.6s1-4,2.4-4c0.9,0.1,1.9,0.1,2.8,0c1.4-0.1,1.6,1.9,3,1.9
					s1.8,3.7,3.3,3.7s1-4.6,2.4-4.6h2.8c1.4,0,1.8,3.4,3,3.4s1.2-1.3,2.6-1.4s1.4,1.3,2.8,1.2s1.2-1.4,2.6-1.5s1.4,0.5,2.8,0.4
					s1-3.6,2.4-3.6s1.4,0.3,2.8,0.3s1.2-0.9,2.6-1s1.8,5.3,3.3,5.3s1.2-1.7,2.6-1.8s1.6,1.9,3,1.9s1-3.6,2.4-3.6s1.8,3.7,3.3,3.6
					s0.8-5.4,2.2-5.4s1.4,0.5,2.8,0.4s1.4,1.2,2.8,1.2s1.8,3.6,3.3,3.6s1.4-0.5,2.6-0.5s1.2-0.8,2.6-0.8s1.4,0.8,2.8,0.8
					s0.9-5.2,2.3-5.2l0,0V-0.2L-1-1z"/>
			</g>
		</g>
	</g>
</g>
</svg>
