<svg xmlns="http://www.w3.org/2000/svg" viewBox="0 0 1299.25 472.78"><defs><style>.cls-1{fill:#ffeddf;}</style></defs><title>Risorsa 5</title><g id="Livello_2" data-name="Livello 2"><g id="Livello_1-2" data-name="Livello 1"><path class="cls-1" d="M1221.06,0c-4.71,5.75-5.49,3.55-5,0h-4.18c-.3.35-.39.42-.12,0h-1c-.91.87-1.66,1.6-1.35,1.17-1.13,1.57-3.82.91-4.8-1.17h-3.08c-.43.56-.55.7-.06,0h-.12a1,1,0,0,1-1.48,0h-4.27a.48.48,0,0,1-.41,0H0V201.56c.85,0,1.5-.08,1.09.49,1.66-2.31,11.63-12.06,5-2.83,1.16-1.62,6.25-1.85,2.71,3-3.81,5.27,6.4-3.49,3.9,0-.86,1.19,1.21,5.43,2.46,3.7,3.82-5.28,5-.87,3.32,1.45-.26.37,2,4,2.75,2.95-.29.4,5.43-3.45,5-2.84-4,5.5,6-3.44,4.37-1.23-5.7,7.87,2.12,6.3.7,8.26-2.69,3.72,9.4-9.05,5.06-3.05,6.64-9.17,2.48,5,1.42,6.44-2.29,3.16,4.37-.82,4-.35-2,2.73,7.39-5.67,4.53-1.72-.88,1.22,10.89-10,4.12-.65-3,4.13,6.54-3.25,3.52.93-1.71,2.36,1.08,7.58,1,7.63a3.63,3.63,0,0,0,4.38-1.38c2.86-3.95,8.07-6,4-.3-1.16,1.62,1.39,6.69,1.56,6.45-.72,1,3.83-3,6-6,4.36-6,4.21.24,3.32,1.47-2.43,3.35.84,3.69,4.09-.8-1.09,1.51,5.67-.57,2.54,3.75,5.51-7.61,2.41,5.21,1.84,6-3.77,5.21,1.92,2.22,4.07-.75-2,2.7-.59,7.44,3,2.4,2.93-4,7.57-6.76,4.64-2.71-2.79,3.86-1,8.3,2.93,2.81,6-8.3.18,4.19,4.16-1.3-1.46,2-.55,9.91,1.9,6.53,2.2-3.05,2.92,1.59,3.61.64-.33.45,3.1,1,3.72.21,1.25-1.74,3.93-3,4.84-4.23-1.5,2.06,1.9,5.15,2.7,4,2.74-3.78,2.4,4.05,2.94,3.31,2.17-3,3.49-3.92,5.13-6.19-5.56,7.69,1.74,7.4,2.21,6.75-.27.36,1.1.29,4.64-4.61,2.56-3.53-2,12.6,2.37,6.61-.24.33,3.12-1.42,4.23-2.95-2.9,4,2.15,5,3,3.81,2.76-3.8,1.27,2.67,3.81-.84,1.67-2.31,5.18-5.2,4.19-3.83,7.05-9.75,1.65,10.21,2.41,9.17-3.18,4.39,1.54.82,4-2.55-.65.9,5-5.29,4-3.93s3.8,6.55,2.92,7.76c1.29-1.78,3.68-4.56,4-5,5.49-7.58,2.74,7.4,3.23,6.72.71-1,2.47,1.2,3.71-.51.16-.22,3.27-5.95,4.14-8,.9.68,3.48,3.75,3.23,4.09,1.6-2.22,2.6,1.67,3.31,2.18.89-1.6,3-5,3.67-6.23,0,1,5.47.5,3.78,2.84-4.64,6.41-.44,4.57,3.52-.92-3.85,5.33.24,8.71,3.9,3.66-.8,1.1,4.28,1.33,3.86,1.92,1.12-1.55-1.06,6.58,3.7,0a40.33,40.33,0,0,0,3.66-7.28c1.24,1.11,3.14,3.11,3.64,4.6.77-1.13,1.68-2.42,2.72-3.85-.27.37.27,10.24,4.41,4.87-1.31,1.57,2.53-6.52,3-8.58,2.13-.22,6.3,3.59,4.28,6.38,2.81-3.88,5.48-5.61,5.92-4.74.24-.46.48-.92.69-1.34-.29.87-.13,1.07,2.27-2.26-3.81,5.28,4.56-3.17,3.27-1.38a27.24,27.24,0,0,0,2.31,2.31,43,43,0,0,1,3.45-7.06c.28-.39,3,.62,3.66-.26-2.61,3.61,3.81-3.49,2.9-2.24.92-1.27,2.85,2.22,4.05.57-1.19,1.65,2.69-3.49,2.49-3.21-4.75,6.56-.19,4.2,3.48-.87-5.25,7.26-.19,4,3.42-1,4.14-5.72,7.23-2,4.6,1.66-3.74,5.17,6.77-8.81,2.58-3-.09.13.75,8.33,5,2.51,2.48-3.43,5.13-4.88,5.13-3.6.58-1,1.54-2.46,3.06-4.57.92-1.26,3.92-2.61,6.17-2.64l.35-.49c1.65-2.28,4.06.41,4,.48.95-1.32,1.56,3.62,2.92,5.45a34,34,0,0,1,3.5-9c2.92-4,5.93-3.62,3.65-.47-2.7,3.74,5.8,4.61,5.22,5.41,2.39-3.3-6.38,2.51,1.56-8.46,6.5-9,4,.36,3.9.47-6.33,8.74,13.8-11.82,4.07,1.64,4.45-6.16,3.47,3.13,4.07,2.3.18-.25,1.64.34,3.31-2,1.17-1.62,2.69-4.07,3-4.65.09.29,2.2.33,3.57-1.57-.9,1.25,8.23-.1,4.19,5.49-2.56,3.53,1.61,2.34,3.57-.37,4.53-6.25.94,4.36,3.63.64-3.44,4.76,3.13.61,3.59,0,2.1-2.9,2-3.42,3.59-5.6-1,1.33,3.07,6.75,3.51,8.26.77-1.81,3.62-7.32,3.88-7.67,1.19-1.65-.74,5.49,3.74-.7,5.93-8.2,1.51,11.05,3,8.94-2.06,2.85,1.46,1.64,3.71-1.48-3.5,4.85,4.14-2.73,3.88-2.37-1.72,2.38,8.5-7.09,3.74-.51,3-4.17,4.14-1.47,3.84-1.06,4-5.5,2.37,3.37,3.43,1.89-2.46,3.4-.28,9.71,2.77,5.49,4.6-6.36,7.22-9.94,4.93-6.78,6.67-9.22.82,5.49,3.38,1.94-3.48,4.81,4.11,2.74,2.79,4.56.67-.92,6.55-3.9,3.72,0,4.28-5.93,2.52-.67,4.6-3.55,7.55-10.44,1.12,8.41,2,7.2-.09.13,7.46-6.43,4.29-2,.41-.56,1.21,5.66,2.87,3.37,1.8-2.49.93,3.41,4-.87-2,2.8,3,1.94,3.4,1.4-3.37,4.65,1.82,2,4.23-1.36s10.89-8.77,3.32,1.69c1.6-2.22,5.55-1.5,3.35,1.55.49-.68,4,0,3.77.25,1.46-2,4.51-.66,3.74.41,3.32-4.59-1.19,10.41,1.62,6.52,6.87-9.49,4.24-.66,4-.27-5.44,7.53,2.63.45,4.8-2.54-3.41,4.72,2,5.38,1.86,5.59.56-.77,1.22,6.1,2,5-2.58,3.57,7.43-5.31,4.21-.86s2.41,2.49,3.53.94c4.48-6.19,6.22-2.65,3.46,1.15.37-.5,7.21-6,5.1-3-.54.75,2.63,2.09,3.69.63-1.54,2.12,4.21,3.46.55,8.52-1.71,2.36,5.07-3.94,6-5.29-1.53,2.11,3.83.22,3.88.15-1.54,2.12-.81,9.72,1.08,7.11,1.54-2.13,4.58-2.44,5.37-3.53,1.47-2-1.26,10.74.66,8.09a51.86,51.86,0,0,0,6.17-5.48s4.3,2,1.63,5.68c-.87,1.2,5.79-3,4.31-.91-.79,1.09,0,7.06,2.47,3.63-.64.88.2,7.47,1.85,5.18-2.59,3.58,8.2-6.12,4.14-.51-1.41,1.95.75,4.21,4.11-.43-4.31,5.95,2.07,3.42,3.17,1.91-1.73,2.38,9.32-9,5.26-3.43-1.4,1.93,3.45,4.49.66,8.34,1.44-2,9-8.15,4.82-2.35-2.09,2.89.73,6.52,2.19,4.5-1.23,1.7,4.27-.67,4-.32-.06.09.52,5.49,3.28,1.67.3-.42,3.8,1,3.26,1.72,2.37-3.28,7-4.49,4-.24-.92,1.26,12.09-12.47,4.62-2.14,0,0,4.92,1.37,1.92,5.51,1.69-2.33,7.76-7.16,5-3.38-.37.52-1.09,10.71,1.34,7.35-1.24,1.72.45,5.71,3.23,1.86-.28.39,7.94-7.89,5.23-4.14,1.32-1.82,6-.28,2.17,5.06,1.81-2.5,7-2.31,2.64,3.7a46.66,46.66,0,0,0,5.21-4.3c-1.62,2.25,3.79-1.34,4.59-2.44-2.23,3.09,2.42,5.05,2.08,5.52.35-.48,1.4,3.84,3.54.89s4,1,3.16,2.1c2.39-3.3,4.28-2,4.48-2.25,4.93-6.81.87,5.84,2.89,3-3.86,5.34,2,1.94,4.08-1,4.57-6.32,5.92-2.93,3.77,0-7,9.72,1,5.81,2.86,3.22.9-1.25,3.28,4,2.25,5.42,3.47-4.79,4.65-.63,3.54.91,8.47-11.71,9.71-12.23,5.56-6.49.3-.41,5.32,2.69,1.65,7.76,2.14-2.95.78.49,5.33-5.8,3.18-4.38,2.07,5.75,2.33,5.39-2.23,3.08,9.53-7.22,3.45,1.19,1.43-2,.94,5.53,3.1,2.54-2.28,3.15,7.25-2.91,3,2.95,2.19-3,4.7-1.52,3.85-.36-1.2,1.67,2.29,1.7,3.89-.5,2.84-3.94,5.47-.22,2.93,3.28-2.06,2.86.7,5.1,3.44,1.31.63-.87,2.55,1.38,3.85-.42,1.69-2.33-1.75,6.9,4-1.06-1.24,1.71,5.44-3.28,4.06-1.38-.95,1.33.84,6.83,2.75,4.19,3.63-5,7-7.64,4.81-4.59-1.27,1.75-1.51,13.95,1.46,9.85-.19.26,7.46-9.19,5.09-5.9,3-4.22,3.06-.1,4.06-1.49-4.66,6.45,3.14,4.67,2.46,5.6,2.69-3.72,4.42-1.79,4-1.21,2.26-3.12-3,8.76,3.9-.82-2.79,3.87-.11,6.57,3.32,1.84-1.82,2.51,2.65.82,3.92-.92-.29.4,9.15-2.29,2.12,7.43,2.42-3.35,6-5.53,4.45-3.42,2.3-3.18,9.54-9.68,4.2-2.29,2.58-3.57,2.54,6.47,2.28,6.83,3.24-4.48,5.14.19,3.09,3,1.19-1.65,4.49.36,3.3,2-.39.54,3.08-1.57,4.42-3.42,1.64-2.27,2.81-1.24,4.41-3.46-2,2.74,5.93-2.61,3.58.64,2.6-3.59.33,6.16,3.29,2.08,2.49-3.44.36,8,2.78,4.67-.25.33,6.38-5.1,4.09-1.93-.21.29-.49,10.56,2.41,6.55,5.56-7.68,5.63-6.36,4.71-5.08-2.44,3.37,8.43-3.6,2.92,4,1-1.43,5.51-.86,3.53,2.78,1.57-2.2,3.52-4.93,4.58-6.39-.94,1.3,2.86,7.45,2.06,8.56,3.94-5.45-3.2,8.73,3.91-1.1a61,61,0,0,0,4.76-5.53c2.93-4.05.39,10,2.31,7.3-4.87,6.73.36,4.65,3.7,0,2.53-3.49,8.66-8.32,4.08-2-3,4.16.54,3.65,3.88-1-6.14,8.48,5.79.72,2.79,4.86-4.67,6.45,2.27,1,3.94-1.3-1.46,2,5.09-4.32,4.31-3.24-.07.1-2.59,13.18,2.57,6-3.12,4.31,7.74-3.94,3.29,2.22,3.71-5.13.89.63,4.51-4.38,2.41-3.33,1.93,6.56,2.67,5.54,2.75-3.8-.24,4.92,3.83-.7-3.2,4.43-1.78,4.09,4.57-4.68-2.42,3.35,6.17-2.34,3.43,1.44,1.83-2.52,2.08,3.82,3.31,2.12-1,1.37,2.87,6.44,2.37,7.13-2.56,3.54,1.88.89,4.11-2.2-2.34,3.24,6.66-4.48,3.8-.51-.31.42,4.35-.11,3.5,1.08-2,2.71,7.89-4.89,3.47,1.22,4-5.53,3.47.73,3.59.56,2.62-3.62-2.65,9.83,3.44,1.42-2.27,3.14,2.93,1.75,3.52.94-1,1.4,2.66.69,3.89-1,.06-.08,3.47-2.46,4.42-3.78-4.71,6.52,3.69.41,3.61.52-1.1,1.52,1.77,3.84,3.4,1.59.65-.89-.54,11.62,2.21,7.83-1.55,2.13,7.68-8.45,4.47-4,2.88-4,2.35,2.2,3.63.43,2.61-3.61-.3,5.56,3.7,0-.36.5.79,3.31,3.9-1-.06.09,3.85,4,2.58,5.76-3.54,4.89,9.44-5.76,3.12,3,4.93-6.81,5.11-2,3.72-.05s3.47.56,3.64.33c1.77-2.45,3.57-1.77,4.26-2.71,1.26-1.75-1.26,10.62,2.65,5.21-1.09,1.5-.55,7.4,3.28,2.11.94-1.3,2.93-2.18,4.65-4.55-1.48,2,5.89-4.69,4.21-2.36,4.65-6.43,0,10.18,2.25,7,4.31-5.94,1.69,3.68,3.46,1.24-1.69,2.33,1.28,5.6,3,3.16.77-1.05.67,4.15,3.74-.09,4.47-6.18-2,8.49,3.53.83-1,1.35,5.35-5.36,4.69-4.45,1.48-2,7.83-2.06,2.59,5.17-7.17,9.91,5.65-6.25,4.88-5.18,6.43-8.89,1.94,5.22,2.85,4-1.82,2.51.36,8.13,2.58,5.06,3.77-5.21,7.23-6.67,4.34-2.67-6.22,8.59,9.36-6.49,3.29,1.89-2.46,3.4,2.63-.34,4.39-2.78,1.51-2.09,2.88,6.3,2,7.57,2.75-3.81-1.59,6.88,3.9-.71,9.67-13.37-5.29,12,3.89-.67,5.69-7.85.42,2.06,4.68-3.83,3.61-5-4.86,13.79,3,2.85.57-.78-.87,9.47,2.6,4.68-7.52,10.38-1.63,8.86,3.19,2.19,1-1.39,6.61-8.7,5.61-7.33-3.41,4.72,5.61,1.6,2.12,6.42-1.45,2,1.17,3.36,3.85-.34-4.71,6.52-5,13.94,3,2.91,3.72-5.14,2.35,3,3.34,1.6-2.46,3.4,2.31,1.51,4-.8-1.87,2.59-.69,7.27,3.29,1.77-2.67,3.68,2.61,4,2.71,3.86,3.24-4.48.87,4.39,3.6.61.09-.13,9.2-11.45,5.59-6.45.85-1.18-2.49,11.48,2.48,4.61.25-.34-2.35,10,3.08,2.48-4.41,6.09,7.43-7.34,4.92-3.87,4.56-6.3.61,9.6,1.22,8.76-2.46,3.39,1.35-.05,5.54-5.85-.2.28,6.24-1.8,3,2.67,2.47-3.42,4.26,1.69,2.58,4-3,4.2-2,9.36,3.09,2.31-.84,1.16,4.82-2.49,4.42-1.94-5.14,7.1,1.22,4,3.59.76,5.6-7.75-.36,8.7,2.12,5.27-3.12,4.32.2,5.43,3.57.78-.54.74,4.06-1.49,4.54-2.16-3.08,4.26,5.43-2.18,3.85,0,1.17-1.63,1.49,4.05,3.35,1.48-3.72,5.14,3.25,4.21,1.63,6.45,9-12.47-.56,6.62,3.49,1,.73-1,5.5-1.23,3.12,2.06-1.15,1.59,4-.76,4.23-1.05-2.22,3.07,3.9.71,3.31,1.53,10.76-14.88,5.67-3.51,4.64-2.09-4.9,6.77,6.44-3,3.53,1-1.19,1.65,6.78-4,4-.13,1-1.32-1.61,10.69,1.51,6.38-4.7,6.48-3,11.29,2.57,3.54,1.75-2.43,4.09-2.81,6.13-5.64-1.14,1.58,7-3.67,3.5,1.17,2.07-2.86.52,5.08,3.69.7,6.09-8.42,2.26,5.42,1.26,6.81-3.31,4.57,5-1.93,4.45-1.24-3,4.2,1.21,4.86,3,2.36-6.47,8.94-3.92,12.83,2.25,4.3,3.68-5.1,5.6-3.42,5-2.57-4.1,5.67,6.26-2.63,3.47,1.21-6,8.25,7.42-2.72,2.17,4.55-1.27,1.75,8-7.24,5.43-3.76.88-1.22,4.66,1.19,2.1,4.73.53-.73,11.15-9.48,3.56,1-2.32,3.2,5.13-.74,3.2,1.94-6.62,9.15,6.61-1.88,2.5,3.81a30.32,30.32,0,0,1,2.92,2.76c-.53.72,8.38-6.63,4.31-1a26.8,26.8,0,0,0,5.78-5.17c1.4-1.94-.15,8.33,2,5.4,1.42-2,1.4,1.76,5-3.21-3.58,4.94,4.22,2.31,2.07,5.29-2.67,3.69,4-1.42,4.57-2.16-1.13,1.57,2.57,4.5,2.25,5-4.07,5.62,8.61-8.21,4.71-2.82-3.67,5.08,6.17.23,2,6,0,0,2,.77,4.67-2.9-5.27,7.28,4.63,2.74,2,6.32-4.45,6.15,6-2.63,3.68.56,3.12-4.32,2.57-.38,4.61-3.21-7.22,10,.07,10.31,1.89,7.79-.12.17,6.15-7.39,5.19-6.06,2.51-3.47,4.72-2.18,4-1.13-3.37,4.65-2.29,14.31,2,8.33-6,8.27,5.67-4.85,4.32-3-2.55,3.52,3,4.4,3,4.52,5.94-8.2,7.4-4.66,3.7.45-.13.19,7.38-5.7,3.86-.83,2.63-3.63,3.18-.37,3.87-1.33,2.18-3,5.81,1.81,3.14,5.5,4.13-5.71-1,2,4.17-5.05-7,9.69-4.21,13.05,3.51,2.38-4.49,6.21,2.5-1.51,3.79-3.29-.64.88,4.81.93,3.49,2.75,9.1-12.58-.83,6.78,3.6.65-3,4.15,3.74-3.44,3.61-3.27,3.75-5.18,4.93,3.05,3.66,4.81-.61.84,1.94-1.58,3.51-3.75.47-.64,2.45-.6,3.49-2-2.72,3.77,3.69,5.86,4,6.75.49-1.39,4.48-10.36,3-8.35,5.38-7.44,9.17-4.33,3.81,3.07,6.68-9.23-.11,3.11,3.43-1.79-.74,1-.59,4.31.4,6V0Z"/></g></g></svg>