<svg xmlns="http://www.w3.org/2000/svg" viewBox="0 0 1300.5 294.02"><defs><style>.cls-1{fill:#ffeddf;}</style></defs><title>strapposopra2</title><g id="Livello_2" data-name="Livello 2"><g id="Livello_1-2" data-name="Livello 1"><path class="cls-1" d="M0,0V255.25a23,23,0,0,1,1.76,3.28c6.05,18.66,9.14-13.65,9.57-12.31,3.33,10.28,6.16,4,5.69,2.53,1,3.05,2.78-2.61,5.13,4.64-3.67-11.33-.37-1.34,3.46,10.48.8,2.48,8.62,7.37,6.22,0,.38,1.17,5.28-6.78,6.77-2.17,4.23,13.05,5.63,3.65,5.43,3-.63-1.94,10.39,13.27,6.16.19,6.73,20.78.37-5.08,4.38,7.3-2.45-7.57,5.21-3.25,6.23-.09-7.16-22.11,6.5-1,6.48-1.11,1.1,3.41,7.7,9.81,5.49,3-.12-.36,7,3.55,6.07.52,5.56,17.15,2.57-13.35,6.47-1.32-.06-.21,7.11-.13,8.15-4.57.75,3.08,1.64,6.6,2.22,8.91-.42-5.37,9.46,4.53,7.49-1.55,1.11,3.42,7.79-.09,6.76-3.28-1.31-4,2.31.64,4.64,7.85,3.74,11.53,3.84-13.94,6.9-4.48,2.37,7.29,7.14,3.14,6.09-.12.54,1.66,11,18.36,5.73,2-3.13-9.67,11.61,13.91,6.36-2.28-2.87-8.88,5.83.16,5.93.49,4.29,13.24,8.82,9.38,5.93.45-4.36-13.46,6.6,6.36,5.62,3.35,1.78,5.47,5.75-1.1,6-.28-.74-2.28,5.6-3,6.08-1.5-.47-1.44,6.53,13.57,5.35,9.92,3.58,11.07,6.76,2.54,6.05.35.67,2.06,7.88,7.43,6,1.68.09.31,11,10.81,6.12-4.18-1.95-6,7.12,1.5,6-2,1.24,3.81,1.07-10.15,6.12,5.43-1.6-4.93,6.8-5.76,5.65-9.3-1.2-3.7,8.13,12.91,6.4,7.56.59,1.84,4-2.91,6.46,4.72.35,1.08,6.49-3,5.55-6,1.31,4.05,5.65-7.21,4.83-9.73-4.74-14.61,4.42.69,7.34,9.72,2.25,6.92,5.5-6.42,4.5-9.5-.37-1.14,2.17-10.14,6.72,3.93-1.75-5.41,6.49,2.88,7.23,5.15.91,2.81,6.85.36,4.86-5.78,2,6.13,2.86-11.3,5.25-3.93s5.08-4,5.46-2.82c.76,2.33,10.36,12.72,7.88,5.06,4.44,13.71,4.27-6.55,4-7.41,2.47,7.61-2.17-26.16,5.26-3.22-.52-1.62,11.28,14.93,6.89,1.39-1.29-4,3.12-9.49,4.5-5.23,2.71,8.34,7.34,2.63,6.7.65-.17-.52,12.35,16.93,8.77,5.87.46,1.42,5.86.53,1.77-12.07.58,1.77,7,2.41,5.1-3.56-1.45-4.45,8.61,5.45,8.37,4.71-4.38-13.51,0-17.91,2.83-9.35-.35-1.07,13.75,20.19,10.66,10.67-1.14-3.53,1.93-11.57,1.32-13.44-4.57-14.13,4.44-7.11,8.3,4.8-5.28-16.28,3.59-8.85,6.78,1,2.6,8,4.64,9.59,4,2.93,1-1.73,2.18-2.81-1.11-13,5.1,15.74,5.88-1.75,5.19-3.89,3.94,12.17,1.9-14.08,6.73.84-5-15.46,13.87,23.11,6.63.77-3.39-10.48,5.76-2.84,4.88-5.55-4-12.25,12.81,19.78,6.46.18-4.52-13.94,6.08-1.54,5.95-1.95-1.69-5.2,4.87-2.93,7,3.68,3.19,9.85,4.63-7.79,5.27-5.82,4.57,14.1,6.26,2.36,6.7,3.72-.8-2.48,2.39-15.44,5.6-5.53-1.79-5.53,1.94-9.47,6.57,4.84,2.34,7.21,3.15-13.35,5.87-5,3.05,9.42,2.85.41,6.48,11.61.74,2.26,4.1,5.74,5.38,2.75-1.19-10.58,3.75-2.27.53-12.21,5.73,17.68,6.39-2.95,6.19-3.58-1.29-4,.53-.67.62-2.73-.36-3.42,5.39,12,5.29,11.69,6.54,20.18,9.8,14.93,5.92,3,.43,1.32,13.74,24.9,6,.91-1.78-5.5,2.16-17.55,6.37-4.55-4.08-12.59,11,15.2,6.09.07-.45-1.38,6.89,12.85,5.34,8.06-.45-1.4,1-2.48,5.78,6.88.92-2.62,4.46,2.8.52-9.34,3.83,11.82,13.06,26.94,5.64,4-2.64-8.15,4.93-11.37,6.75-5.76,0,.14,10.46,19.6,5.57,4.49.12.39,6.33,2.51,5.94,1.31,6.33,19.52,7.29,4.81,6,.85,3.71,11.46,3.88-12.1,6.59-3.75-6.36-19.62,9.51,10.27,6.13-.17,3.41,10.52,6.52-.88,6.3-1.55-8.69-26.84.8-21.19,6.52-3.54,4.3,13.26-.06-4.33,4.85,10.82,3.31,10.19-.22-17.93,6,1.15,6.56,20.25,5.78-10.09,6.77-7,5.18,16,5.71,15.07,4.88,12.49,6.81,21,12.44,3.17,7.2-13-3.21-9.93,10.87,15.6,6,.49.56,1.72,11.67,16.69,6-.66,2,6.05,11.58,20.46,5.82,2.67,4.53,14,.32-4.11,5.33,11.34-1.63-5,1.64-21.27,6.41-6.52,0-.18,4.12-5.3,6,.52,1.17,3.62,7.33,5.54,6,1.32-3.31-10.21,4-4.27,6,1.83-.25-.77,9.84,13.92,6,2,.46,1.41,2-20.28,6.19-7.37-1-3.26,9,5.92,6.05-3.32-1.51-4.65.63-13.28,5.95,3.13-.53-1.63,10.38,21.22,6,7.66-4.77-14.74,4.64-4.77,6-.45-4.58-14.15-2.28-21.37,6.09,4.48,1.51,4.66,2.73.38,4.91-.91.51-6.44,5-.62.89-13.29,2,6.1,6.9,6.41,6.07,3.85-3.93-12.12.7-13.36,6.1,3.32-1-3.17,5.17-6.25,5.87-4.09,0,0,3.37-9.71,5.91-1.85,4.72,14.54,3.11-.25,6.51,10.27-.24-.77,6.24-6.8,5.54-9,2.82,8.7,8.93,8.24,5.94-1-.75-2.31,5.85-1,6-.65-2-6,4.17-2.79,6.29,3.76-1.41-4.34,6,.79,6.13,1.25-2.88-8.87,6.79-1.56,5.55-5.4-8.75-27,7,4.8,6.24,2.43,3.28,10.1,8.91,12.92,6.64,5.92-1.26-3.9,4.9-10.92,4.87-11,.16.48,7.86,9.15,6.63,5.35-2.32-7.15,7.32,2.28,5.73-2.64,5.4,16.68,4.17-8.17,5.52-4,.26.82,9.39,17.13,7.58,11.54,1,2.93,11.52,16.51,6.06-.35-3.41-10.5,7,1.51,5.74-2.53-1.07-3.29,9.45,10.29,6.08-.11,1,3.12,5.58-1.83,6.06-.32,3,9.3,1.59-17.72,4.83-7.73,2.71,8.38,6.22-.88,5.58-2.86,2.07,6.38,11,19.14,7.72,9.06-2.59-8,5.07-5.41,5.21-5-.25-.79,5.48-3.86,5.21-4.71,1.74,5.36,7.72,2.38,4.72-6.87.31.95,4.28-5.46,6.12.22-1.14-3.53,7,6,8.06,9.16.4,1.25,3.51-9.47,5.27-4-1.54-4.76,6.26.4,6.2.23,1.74,5.36,6.13-1.84,4.71-6.21-4-12.4,9.72,12.4,7.44,5.36-1.06-3.27,4.29-7.12,4.87-5.33-3-9.43,3-11.34,4.37-7.06-2.32-7.18,13.66,25.43,9.25,11.83,0,0,4.05-7.63,4.9-5-1.13-3.47,3.18-10.27,4.55-6.07-.44-1.35,10.53,13.57,6.68,1.69-3.44-10.61,7.31,3.13,7,2.13,1.25,3.86,1.6-15.55,4-8.29,1.32,4.06,7.43,3.64,7.65,4.32,1.51,4.67,8.62,6.85,6.18-.66,0,.06,4.21-7.23,4.26-7.09,4.22,13,6.44-.51,3.82-8.6-.3-.93,11.1,15.24,8.5,7.21,3,9.17,3.59-9.4,4-8.16s5.15-4.05,5.86-1.86c3.17,9.8,4.6-5.24,6.8,1.56-1.62-5,9.62,9.8,5.92-1.62-3.17-9.78,2.41-12.94,5.4-3.69,4.41,13.59,7.15,3.44,7.32,4-1.45-4.46,8.41,8.55,7.77,6.58,1.59,4.9,3.88-9.53,4.58-7.36-4.37-13.47,4.22-7.94,5.34-4.49,5.35,16.51,6.76,3.23,6.92,3.72-4.34-13.4,4.64-4.13,6.32,1.07-.24-.74,5.17-8.13,4.88-9.05.39,1.21,6.66,1.15,6.25-.11-2.09-6.45,3.52-2.08,7,8.7-.28-.85,8,1.94,5.69-5.15,1,3.19,1.79-9.59,6.28,4.28-4.26-13.16,2.12-15.11,5.76-3.87-6.23-19.25,5.25,1.8,5.85,3.67-3.29-10.16,4.57-6.68,5.93-2.49-.71-2.17,4.52-10.26,6.19-5.1,1.4,4.33,6.32,12.34,5.33,9.27-5.28-16.28,6.77-9.14,6.72-9.32,5.22,16.12,3.94,3.21,5.27,7.29,1.58,4.88,8.25-3.9,6.9-8.06-2.9-9-3.06-20,5.32,5.83,5.46,16.85,9.44,7.26,6.33-2.35,1.5,4.65,4.9-3,6,.31-4.11-12.69,4.1-4.31,5.87,1.15-1.75-5.38,7.84,21.42,4.4,10.79,2.74,8.47,13.88,8.82,7.61-10.53.29.9,1.27-3.74,4.89,7.42-3.19-9.83,6.21-3.19,6.4-2.61-3.49-10.74,2.38-3.83,5.27,5.08-3.72-11.45,5.29-1.88,6,.33,2.53,7.82,4.56,2.83,5.36,5.27-.35-1.07,8,6.18,6.06.06-.6-1.87,4.94-12.44,6.84-6.57-2-6.15,11.12,15.91,6,.11,6.76,20.85,8.19,19.34,5,9.48-1.31-4,3.68-9.85,6.25-1.94.61,1.89,9.72,11.13,6-.19.39,1.19,5.77-.7,6,.09-2.23-6.88,7,5.7,5.86,2-.37-1.15,7.54-3.33,6.52-6.48,4,12.38,9.46,10.61,6-.11-3-9.29,5.86,8.79,5.48,7.64,3.07,9.46,4.08-4,5.92,1.66.41,1.25,3.09-16.66,6.37-6.54,1.8,5.56,3.42-1.18,5.7,5.88-.8-2.48,11.12,20.28,5.85,4-1.69-5.2,6.19-12.87,6.45-12.08-1.11-3.41,4.67-5.81,6-1.7.36,1.12,4.84,11.07,5.64,13.52,1,3.23,6.5-3.37,6.09-4.62-2-6.26,8.24,11.36,6,4.29-3.51-10.83,5.56-12.47,6.06-10.93-3.79-11.69,3.24,3.88,5.41,9.25v-.84a19.62,19.62,0,0,1,0-6.76V0Z"/></g></g></svg>