<svg xmlns="http://www.w3.org/2000/svg" viewBox="0 0 1300.5 743.68"><defs><style>.cls-1{fill:#ffeddf;}</style></defs><title>Risorsa 1</title><g id="Livello_2" data-name="Livello 2"><g id="Livello_1-2" data-name="Livello 1"><path class="cls-1" d="M0,729.82c.79.92,1.45.39,1.45-4.22,0,4.93,4.35.82,4.35.15,0,.1-.83,7.23-1.22,8.14.66,1.81,2.81,1,2.81.82,0,10.14,5.54,1.51,6.07-3.53,0,3.52,0,8.32,0,8.39,0,3.4,4.11-2.67,4.11-.41,0,2.82,4.28,10.75,4.28-4.92,0,3.33,3,4.12,3,4.26,0,10.67,3.29-18.87,3.29-2.21,0-.24,3.33-5.75,3.33.28,0,1.89,4.15,10.82,4.15,3.41,0,5.38,1-21.5,1-9,0,.86,3.79-6.4,3.79,1.53,0-3.35,2.85,5.71,2.85-1.45,0-3.87,4.22,4.48,4.22,1.24,0,9.19,3.58-7.69,4-1.26,0-1.92-.1-4.87-.13-5.49.27-3.81,3.88,3.36,3.88.47,0,2.23,1.42-.22,1.42-3.46,0-1.11,3.47-1.12,3.47-.87,0,3.71,5.27,8.31,5.27.85,0,11.51,2.39,3.16,2.39-2.41,0-10,1.09-13.11,1.09-3.61,0-7.07,3.44-6.41,3.44-1.42,0,2,1.06-5.72,1.06-3.48,0,6,.48-6.49.48-3.78a24.64,24.64,0,0,1,1.91-4.64c.3.95.84,1.35,1.46,1.4a14.63,14.63,0,0,0-1-2.06c.63-.68,1.17-.42,1.35,2.05,1.77-.21,4-2.69,4-3.38,0-1,.34-1.29.81-1.26a22,22,0,0,1-1.71-7.09c0-3.82,7.48,4.74,7.48.77A7.52,7.52,0,0,0,87,689.71c2.47,1.17,6.06,1.64,6.06-.88,0-4.85-2-1.3-2-5,0,3.39,4-6.5,4-1.41,0-11.33.51-4.11.51-3.52,0-.63-.15-4.07-.3-6.36.9-1.92,3.19-.51,3.19.44,0-5.87.83-2.27.83-3.4,0-.14,1.75,4.94,1.75-2.8,0,1.09-.13-2.37-.21-3.81.35,1,2.74-11,2.74-2.61,0,.33,6.89-2.91,6.89,1.27,0,6.24,1-1.78,1.51-3.46a54.37,54.37,0,0,0-1.84-5.87c.68-.84,3.41-3.86,3.41-1,0-3.8.34-4.63.34-4.42,0,11.12,4.74,10.67,4.74.11,0-2.83,3.76-5.46,3.76-.78,0-3.36.92-4.14.92-3.93,0,9.07,4-2.41,4-.4,0,1.62.65-6,.65-4.35,0,4.13,4.54,12,4.54.29,0-6.73,3.31-1.74,3.31-1.16,0-1.59-.11-4.94-.23-7.21.85-1.7,3.31-1.57,4.68.27-.12-1.63-.22-3-.28-3.61.69.54,7.38,13.18,7.38,3.78,0,2.82.4-11,.4-4.64,0,11.77,4.44,7.66,4.44,0,0-.82,2.81,4,2.81-1.89a13,13,0,0,0-2.88-7.89c0-6.08,4.64,1.75,4.64.13,0,1.3.92,5.56.92-3.62,0,5.33,6-.68,6,1,0,12.23,1.62,6.5,1.62-3,0,3.44,2.81-.28,3.8-1-.55-1.35-1.59-5.39-1.89-5.91.76-.19,6.71,2.33,6.71.64,0-9.24-3.26-4.51-3.26-5.92,0-3.35.61-4.6,1.41-4.76a2.82,2.82,0,0,1-.86-2c0,1.79,4.88-1.44,4.88-1.44,0-4,.91,5.77.91-3.22a18.83,18.83,0,0,0-.53-4.53c.58-1.44,1.37-3.73,1.37-2.09,0,2.93.46-3.27.46-3.26,0,3.35,2.79-8.92,2.79-2.87,0,2.76,2.77.9,2.77-3,0,.86.59-7.62.65-4v-2.79c0-4.71.29,4.88.29-3.4,0-2.56-2.28,1.9-2.28-3.45,0-.45-.56,3.75-.56-3.36,0,8.51,1.2-3.45,1.2-3.36,0-2.72-1.74-3.32-2.79-3.38.24-1.79.45-3.67.45-3.27,0-2.18,4.54-3,5.54-3.41-1.05.3-6.05-.45-6.05-3.27,0-.38,2.62-7.62,2.62-3.46,0-2.76,2.41-9,2.41-3.43,0-.64.15-3.3.15-3.34,0-4.3-5.84-5.94-5.84-3.2,0-2,1-2.8,1-3.38,0,.49-3.52.12-3.52-3.39,0,.09,0-2.16,0-3.43,0-.47.67-3.54.67-3.54l.14-3.67s6.57-1.33,6.57-2.45c0,2.82,1.19-2,1.19-3,0,1-1.39-4.24-1.39-4.24l1.52-3s5.23-.42,6.15.95c-.47-1.46-1.91-6.16-1.91-6.16l1.16-4.05,4.36.38,1.83-3.26s4.46,6.08,4.46,1.13c0-1.06,1.1-1.57,1.1-4.74,0-2.86,5.51.67,5.51,2.71,0-1.65,2.94-1.8,2.94-1.63,0-1.18,1.29-6.13,1.29-4.42,0-.49,4.42,7.05,4.42.87,0-1,4-3.48,4,.2,0,.23,3.5,5.11,3.5-.68,0-3.22,2.56-1.47,2.56-2.28,0-5.61,2.66-1.7,2.66-2.11a68,68,0,0,0-.47-7.28c.39,1.77,6.59,8.93,6.59,4.43,0-1.08,2.56-2.37,2.56-2.28,0-1.28,2.32-5.95,2.32-2.69,0,6.59,1.5-9.39,1.5-4.07,0,1.21,2.25-5,2.25-2.8,0,.44,5.54.34,5.54,2.78,0-3.14.83-3.74.83-5.2,0-.75,2.71.78,2.71-2,0-5.18,6,5.13,6,3.6,0,4.14.62-9.82.62-5.56,0,.42,1.64-7.3,1.64-3.85,0-.91,3.74-2.49,3.74-.26,0,7.11,2.6-3.28,2.6-2.22,0-1.83,1.61-3.42,1.61-3.87,0,.71,7.29,1.29,7.29,5.72,0,1.91,2-1.93,2-3.23,0,.55,3.58,12.32,3.58-.56,0-3.2-.17-7.17-.31-8.82.82-2.09,4,2.15,4,1.86,0-1.25,2.63-1.81,2.63-2.17,0,5,4.48,4.94,4.48,1,0,1,2-10.7,2-3.19,0-10.22,3.75-1.84,3.75-.26,0-3,2-1.63,2-3.23,0-.56,3.59,4.85,3.59-.52,0-2.28,3.41,3.67,3.41-.85,0,.49,3.75-.24,3.75-.25,0-4.19,1.4-3.48,1.4-4.25,0,1.07,2.76-7.35,2.76-1.93,0-.3,2.78-11.47,2.78-1.9,0-.95,5.07.61,5.07,2,0-8.32,1.31-6.26,1.31-4.4s3.57,3.37,3.57-.55c0-3.09,2.86,2.68,2.86-1.77,0-1.08,3.5,3.53,3.5-.69,0-.51,1.49-9.09,1.49-4.09,0-5,2.95-5.81,2.95-1.61,0,6.78,3.89,4.5,4.65,2.21-.31-1-1.06-8.1-1.38-10,.69.28,3.65.29,3.65-.3,0-4.64,6.22.39,6.22,4.21,0-2.68.53-7.86.53-5.37,0,.46,2.91.79,2.91-1.37,0,.21.61,3.57.61-4.93,0-1,6.58-4.62,6.58,4.13,0-2.7,3.36.16,3.36-1,0-.91.76-1.59.76-4.44,0-3.1,4.23.34,4.23,0,0,3,1.15,5.62,1.15-3.67,0,1.77,2.4,1.36,2.4-2.38,0-2.74,1.1-1.07,1.1-3.56,0-4.38,4.8-1.08,4.8-.24,0-4.06,2.49,2,2.49-2.33,0-6.6-2.95-3.37-2.95-6.62,0-.55,7.17,10.88,7.17,1.39,0-2.17-1.4-8.15-2.32-9.3.54-2.28,1.16-4.36,1.16.08,0-9.63,1.23-.33,1.23-3.25,0-5.67,6.4-3.78,6.4.76,0-3.68,3.63,11.29,3.63-1.28,0,3.88,2-3.65,2-2.54,0,3,2.4-4.34,2.4-2.16a30.17,30.17,0,0,0-.87-6.23c.61-1.57,2.19-5.32,2.19-1.76,0-3.82,2.89-2,2.89-1.86,0,1,2.64-8.95,2.64-2.17,0-3.53,4.95,5.93,4.95,1.53,0-.31,1-6.86,1-4.95,0,2.12,4.78,9,4.78,2.56,0-1.1,2-4.2,2-4.14,0-.13,4.27,1.71,4.27,2.39,0-4.29,3.09,1,3.09-1.54,0-3.91,3.92.37,3.92.91,0-.25,3,.21,3-2.38,0-5.23,1.79-2.11,1.79-4.79,0,5,2.34-3.78,2.34-2.48,0,.2,2,1.38,2-2.38,0-.27,5.53-1.53,5.53.88,0-7.26,3.86,5.41,3.86-1.76,0,1.69-3.09-2.42-3.09-5.43,0,.49,5-8.68,5-1.62,0,9.43.51,4.4.51-3.41,0-2.22-4.78-11.33-6-7.14.78-3.22,3.05-3,4.69-2a3.5,3.5,0,0,0-.44-1.16c.27-.67,2.49.88,2.49-2.84,0,1.38,2.86-6.72,3.23-3.77v-5.42c-.69.64-7.63,5.63-7.63-4.18,0,5.77,4.22,1.25,6.21-1.05-1.48.21-4-1.45-4-5.61s1,6.34,1-3.3c0-1.88,7.19-2.74,7.19-1.05,0-10.25.89,4.7.89-3,0,1.11,2.27,1.06,2.27-2.4s-2.83-9-2.83-5.06c0-1.86-.78-1.47-.78-4.35,0-.91,3.75-7.5,3.75-1.67,0-10.11,4-.58,4-1.27,0-2.17,2.74-2.83,2.74-2,0,6,2.46-4,2.46-2.16,0-4.32-2.22-4.73-2.22-6.42,0-10.15,1.91-10.33,1.91-3,0-3.22,6.37,1,6.37,1.72,0,4.35,2.13-7.42,2.13-2.54,0-1.74,1.95.81,2.85.31-.13-2-.25-5-.25-7.75,0-4,4.43-5.61,4.43.29,0-.24,1.45-1.75,1.45-3.84,0,3,3.54,1.63,3.54-.79,0,1,2.44.19,2.44-2.54,0,4.51,3.73-9.25,3.73-.29,0,10.13,4.07.15,4.07.6,0,4.35,1.36-3.11,1.36-4.88,0-1.13,5.45,6.69,5.45,3.94,0-3.34.6-2.92.6-7.15,0-4.77,5.47,3.61,5.47,4.73,0-.11,1.07-6.33,1.07-6.72,0,1.52,4.33-4.85,4.33,2.21,0-5.37,2.32,7.1,2.32-3.76,0,7.88,4.76,5.3,4.76,4.17,0,2.94,2.88,4.42,2.88-1.93,0-3.68,3.82-8.23,3.82,1.48,0,5,3.19,2.61,3.19-.75s1.46-10.37,1.46-8.27c0-1,3.23-.54,3.23-1.11,0,3.39,4.23,6.51,4.23,3.69,0-.72,2.44-2.07,2.44-4.81,0,.52,4.22,8.88,4.22,4.05,0,1.1,3.51-3.94,3.51.62,0-4.43,2.16-7.2,2.16-6.83,0-1.73,4.73,12.43,4.73,7.55,0,.8,3.24-.93,3.24-.83,0,1.22,3-7.64,3-2.55,0-1.34,2.6-4.15,2.6-4.71,0,2.72,4.13,3.22,4.13,4.44,0-5.22,3.09-.52,3.09-1.82,0,3.85,2.54-2.09,2.54-5a18.83,18.83,0,0,1,3.47.49c0,.76,3.19-.19,3.19-1.21,0,3.05,4.07-.86,4.07,2.68,0,1.09,3.35-.35,3.35-.8,0,1.83,3.2-.14,3.2-1.33,0,2.07,3.64-1.75,3.64,0,0-.08,2-8.66,2-4.38,0-6.55,2.9-.16,2.9-1.62,0,2.62,5.37,5.22,5.37,3,0,2,2.36-2.09,2.36-3s4.75-.77,4.75.42a37.39,37.39,0,0,0-1.53-7.55c1.84,1.1,6.28,3.6,6.28,1.57,0-3,.77-3,.77-4,0,.37-.28-.72-.59-1.93,1.16.91,3.28-.71,4.16-2.59-.66,0-1.89-3.64-1.89-5.65,0,.63.73-4.87.73-3.12,0,1,2.24-3.19,2.24-3.41,0,.25-3.43-1.24-3.7-2.65.06.11.25-.38.45-1-1.55,1.22-5-3-5-4.52,0,1,3.35,1.68,3.64-3.63-.28,3.25-2.6-1.24-2.6-3.33s-2.23-5.78-2.23-2.76c0-.61,0-1.14,0-1.63.78-2.28,1.7-6.77,1.7-5.56,0-3-4.08,3.69-4.08-2.68,0,1.9,6.89-4.25,6.89-3.75,0-.29-1.75-1-1.75-2.83,0,3-5.76.91-5.76-4.72,0-.58,7.44,1.45,7.44-.54,0-6.41-1.39-2.06-1.39-4.87,0,.42,2.6-.73,2.6-2.92,0,4.57,5.58,3,5.58,2.6,0,1.31,1.74-6.51,1.74-4.72,0-1,4.4,6.72,4.4,3.75,0,2,2.76-3.8,2.76-4.25,0-4.77,3.75,2.43,3.75,3.36,0-1,3.3-5,3.3-3.4s3.51,5.24,3.51,3.82c0,1.52,3.2-1.24,3.2-4.45,0,.91,3.52,5.43,3.52,3.91,0,1.12,3.12-6.89,3.12-6.44,0,.78,3.28-2.81,3.28-2.39,0,1.5,3.41-2.61,3.41,1.27,0-3.86,3.46-1,3.46,2.31,0-.16,3.39,2.72,3.39.45,0-2,3.35-1.28,3.35-.46,0-5.24,3.49,5.86,3.49,3.19,0,.67,3.17-3.54,3.17-5.2,0,2.81,3.48,1.47,3.48,3,0,9.27,3.36,5.2,3.36-.31,0,5.06,3.21,5.21,3.21-4,0,1.07,3.47,2.46,3.47,2.75,0,2.4,3.4-.85,3.4.83,0-2.85,3.27-2,3.27-2.73,0,.94,3.56,2.25,3.56,5.24,0-6.33,3.34-5.14,3.34-.8,0,3.07,3.36-3,3.36-.33,0,.39,3.1-8.06,3.1-7,0-1.24,3.44,11.8,3.44,2,0-1,3.56,14.3,3.56,4.82,0-3.75,3.3,8.66,3.3-1.55,0-3.88,3.36,3.88,3.36-.44,0,1.46,3.23-2.63,3.23-3.42,0-3.42,3.38-2.48,3.38.12,0-7.27,3.27-2.57,3.27-2.36s3.4,2.41,3.4.67c0-1.53,3.35-3.6,3.35-.33,0,.13,3.56,9.85,3.56,5,0,5.08,3.37,2.58,3.37.14,0,.81,3.32-6.31,3.32-1.28,0-3.6,3.24-5.08,3.24-3.35,0,5,3.35,6.53,3.35-.49,0-8.54,3.52.54,3.52,3.85,0-1.07,3.35-4.41,3.35-.5,0,.72,3.25-4.6,3.25-3.07,0-3,3.4,6.67,3.4,1,0,3.09,3.47,1.46,3.47,2.66,0,2.24,3.43,6,3.43,1.39,0-8.89,3.1-14.19,3.1-6.77,0-1.23,3.65,6.78,3.65,7.24,0,3.46,3.18,2.49,3.18-4.83,0-3.81,3.42.46,3.42,1.24,0,4.47,3.49,7.87,3.49,3.28,0,1.79,3.09-6.82,3.09-7.25,0,6.27,3.35-9.24,3.35-.51,0-1.46,3.47,6.34,3.47,2.6,0,2,3.39,8.29,3.39.61,0,1.39,3.3.12,3.3-1.82,0-4.8,3.39-3.78,3.39.47,0-2.1,3.43-.1,3.43,1.72,0-7.81,3.32.55,3.32-1.35,0,.83,3.56,9.3,3.56,5.06,0,2.32,3.06-13.39,3.06-8,0,6.56,3.41,6.68,3.41,1.07,0,1.65,3.5-1.54,3.5,3.43,0,6.27,3.43,5.66,3.43,1.71,0-5.26,3.2-5.19,3.2-4.6,0,5.52,3.3,1.34,3.3-1.6,0-3.53,3.31,0,3.31-1.62,0,3.79,3.6,10.93,3.6,6.18,0,5.28,3.24,6.85,3.24-3.56,0-2.07,3.4,3.62,3.4.84,0-3.6,3.23-.78,3.23-3.44,0,5.66,3.52,1.19,3.52,3.84,0-1,3.47-2.72,3.47,2.81,0,3.14,3.15-4.88,3.15-5.77,0,1.16,3.52,3.2,3.52,4,0-3,3.17-11.13,3.17-5.08,0-3.4,3.37,1.17,3.37-.1,0,6.11,3.33-3.6,3.33-1,0-6,3.45.54,3.45,2.1,0-4.69,3.38,2.74,3.38.28,0,4.54,3.58,3.4,3.58,5.68,0,.5,3.25-1.21,3.25-3.07,0,7.2,3.17-5.18,3.17-5.11,0-1.62,3.41-1.87,3.41,1.12,0,1,3.53,4.57,3.53,4,0,.22,3.24-.77,3.24-3.39,0,4.66,3.34-.9,3.34-.53,0,2.83,3.34-5.28,3.34-.88,0,3.18,3.44-3.22,3.44,1.95,0-2.83,3.54-.74,3.54,4.55,0,3.46,3.3,8.06,3.3-1.75,0,2.13,3.34-3.23,3.34-.79,0-8.15,3.35,7.41,3.35-.42,0-4.27,3.2-5.8,3.2-4.57s3.61,12.67,3.61,6.5c0,4.42,3.4-4.14,3.4.67,0-2.16,3.35-6.1,3.35-.32,0,4.54,3.21-7.16,3.21-4.33,0-1,3.27,3,3.27-1.75,0-3.76,3.36-1.34,3.36.07,0,5.16,3.37-2.55,3.37.52,0-2.86,3.34.42,3.34-.28,0,1.63,3.37-4,3.37.33,0-1.93,3.36.19,3.36.19,0,3.32,3.3-.81,3.3-1.3,0-3.88,3.21-2,3.21-2.87,0,5,3.65,6.22,3.65,5.81,0-4.35,3.42,7.61,3.42,1.14,0-1.9,3.39-6.25,3.39.49,0-2.38,3-3.28,3-5.22,0,5.74,3.26,1.63,3.26-1.53,0-1.39,3.64-1.82,3.64,4.28,0,4,3,1.46,3-5,0-11.9,3.43,6.4,3.43,1.15,0,.76,3.74,8.6,3.74,4.69,0,10.65,3,3.11,3-4,0,8.7,3.16-1.67,3.16-2.17,0-2.15,3.71,11.9,3.71,3.54,0-5.51,3.18-3,3.18-1.9,0,5.89,3,2.5,3-2.88,0,6.18,3.24-2.78,3.24-1,0-9.24,4.06,4.78,4.06,5.7,0-7.34,2.59-12.34,2.59-6.21,0,1.78,3.07.92,3.07-2.13,0,4.67,4.34,2.85,4.34,6.78,0-2.57,2.21-1,2.21-7.82,0-2,3.7,0,3.7,2.13,0-.4,3.81,1.74,3.81,2.49,0-8.55,2.35-13.16,2.35-5.93,0,.52,4.27,15.95,4.27,4.75,0-4.22,2.81-2.81,2.81-3.09,0-6.19,4,.49,4,2.94,0-3.43,3.57-4,3.57.52,0,6.55,3.28,1.65,3.28-.84,0-4.74,2.36,3.64,2.36-4.61,0,2.09,2.29-9.64,2.29-4.59,0-1.71,3.49,5.7,3.49.3,0,7.38,3.76-4.43,3.76,1.19,0-1.18,4.8,5.88,4.8,4.56,0,7.08,2.42-5.57,2.42-3.71,0-1.14,2-8.13,2-4.77,0,1.66,5.13,8.82,5.13,4.92,0,2.23,2.69-5.76,2.69-2.6,0-3.88,3.52,1.51,3.52-.19,0,1.31,2.64,1,2.64-2.59,0,2.51,2.44-5.56,2.44-3,0,.77,4.82,2.94,4.82,2.94a37.7,37.7,0,0,0,2.29-3.3c0,1.06.5-12.59.5-7.15,0-1.27,6.57,6.4,6.57,6.4s.85-5.93.85-6.07c0-1.32,4.4,1.37,4.4,1.37l2-3.4,2.08-3.15s2.29-.92,2.29-2.65c0,2,3.06-1.26,3.06-1.26l4,.32,2.17-2.82a2.94,2.94,0,0,0,2.23-2.72c0-2.29,3.85,0,3.85,0l3.64-.38,3-1.48,5,2-.35-7.22,6.07,4.07s-.49-5.57-.49-7.84c0,.34,3-1.77,3-1.62s4.87,2.34,4.87,2.34l3.86.56s2.6-1.36,2.6-2.15c0,2,2.33-9,2.33-3,0,2.48,3.73-2.22,3.73.7s2.16-1.65,2.16-4c0-3.83,3.49,1.23,3.49.06,0-3.19,3.19,1.86,3.19-1,0,6,4,4.63,4,3.56s2.7-4.63,2.7-3.88c0,.21,2.8-2.89,2.8-5.59,0,2.5,3.64,4.9,3.64,2.18,0,1,3.52,6.78,3.52,3.61,0-.88,3.29-8.62,3.29-5.22,0,.72,3.42.48,3.42.67,0-3.64,3.16,5.56,3.16,6,0-1.5,3.55-1.71,3.55-4.31,0-1.46,3.07,4.92,3.07,4.36,0,0,3.58,0,3.58-3,0,.68,3.48,0,3.48-1.2,0,0,3.31.28,3.31.73,0-2.11,3.3,1.8,3.3.68,0-2.64,3.5,1.23,3.5-1.28,0-.41.55.29,1.19,1.16.19-1,.67-5.18.67-6,0,.35,5,3.82,5,3.3,0-.11,1.41-8.17,1.41-7,0,3.63,4.07,3.1,4.07,1.6,0,3.19,3.11-6,3.11-2.73,0-4.45,3.83,5,3.83,2.3,0,4.31,3.74,6,3.74,4.9,0,2.53,3.09-10,3.09-8,0,1.23,3.47,4.56,3.47,4.42,0,1.65,3.37,3.44,3.37.34,0-3.39,3.59-5.12,3.59-3.09,0-1.65,3.55-2.94,3.55-.9,0-4.5,1-4,1.9-2.1V0H0"/></g></g></svg>