<svg id="Livello_1" data-name="Livello 1" xmlns="http://www.w3.org/2000/svg" viewBox="0 0 1975.6 110"><defs><style>.cls-1{fill:#0e0f26;}</style></defs><title>strapposoprablu</title><g id="Livello_2" data-name="Livello 2"><g id="Livello_1-2" data-name="Livello 1-2"><g id="Livello_2-2" data-name="Livello 2-2"><g id="Livello_1-2-2" data-name="Livello 1-2-2"><path class="cls-1" d="M-1-1v107.7h.8c1.4,0,1.4,1.3,2.8,1.3s1-3,2.4-3c1.2,0,1.8,3.7,3.3,3.6s1-2.5,2.4-2.5,1.2-.6,2.6-.7,1.6,3.3,3,3.3a26.35,26.35,0,0,0,2.8-.2c1.4,0,1-3.5,2.4-3.5s1.4,1.3,2.8,1.3,1.2-.9,2.6-1,1.2-1.5,2.6-1.6,1.4-.5,2.6-.6c1.4,0,1.4.7,2.8.7s1.8,4.2,3.3,4.2,1-2.8,2.4-2.8,1.6,2,3,1.9,1.4.6,2.8.6,1.4.3,2.8.3,1-2.8,2.4-2.8c1.2,0,1.6,2,3,2s1.4-.5,2.6-.5c1.4,0,1.2-1.8,2.6-1.8s1.2-1,2.6-1,1.4-1.3,2.6-1.3c1.4,0,1.6,2,3,1.9s1-3,2.4-3c1.2-.1,1.4,1,2.8.9s1.6,1.1,2.8,1.1c1.4,0,1.4-.3,2.6-.3,1.4,0,1.8,4.1,3.3,4.1s1-3.2,2.4-3.2,1.6,2.8,3,2.8,1-4.3,2.4-4.3,1.2-.3,2.6-.3,1.6,2.5,3,2.5,1.2-.8,2.6-.8,1.6,2.7,3,2.7.8-5.2,2.2-5.2,1.4.7,2.8.7,1.8,4.7,3.3,4.7c1.2,0,1-3.8,2.4-3.8s1.8,3.9,3.3,3.8,1.2-.8,2.6-.8,1.2-1.4,2.6-1.4,1.6,1.9,2.8,1.9c1.4,0,1-2.9,2.4-2.9,1.2,0,1.6,2.2,3,2.2s.8-4.8,2.4-4.8c1.4,0,1.4.2,2.8.2s1.4.3,2.8.3,1.2,1.7,2.4,1.6c1.4,0,1-2.4,2.4-2.4s1.8,4.7,3.3,4.7.8-4.7,2.4-4.7,1.8,4.6,3.3,4.6.8-4.5,2.4-4.6,1.8,4.1,3.3,4.1,1-3.6,2.4-3.6,1.6,3,3,3,1.6,1.9,3,1.9,1-4.4,2.4-4.4,1.2-1.2,2.6-1.2,1.8,4.5,3.3,4.5,1.4.3,2.8.3a26.2,26.2,0,0,0,2.8.1c1.4,0,1-4.4,2.4-4.4s1.2-1.4,2.6-1.4,1.6,2.7,3,2.7,1.6,3.3,3,3.2,1-2.7,2.4-2.7,1-3,2.4-3.1c1.2,0,1.4,1.2,2.6,1.2s1.4.8,2.8.8,1.2-1.2,2.6-1.2,1.4.4,2.8.4,1.4.2,2.8.2,1.2-1.3,2.6-1.3,1.6,2.5,3,2.5,1.6,1.9,3,1.9a26.2,26.2,0,0,1,2.8.1c1.4,0,1-3.9,2.4-4s1.6,3,3,3,1.4,1.1,2.8,1,1.4.8,2.8.8.8-4.7,2.4-4.7c1.4,0,1.8,3.6,3,3.6.6-.2.6-1.5,1.8-1.5s1.4,1.3,2.8,1.3,1-3,2.4-3,1.8,3,3.3,3,1.2-1.4,2.6-1.4,1-3.4,2.4-3.4,1.8,4.1,3.3,4,1-4.1,2.4-4.1,1.4,3.6,2.8,3.6,1.2-1.7,2.6-1.7,1.4-.5,2.6-.5c1.4,0,1.6,2.8,3,2.7s1.4.3,2.8.2,1.4.5,2.8.5,1.2-.8,2.6-.8,1.4.3,2.8.3,1.2-1.9,2.6-1.9,1.2-1.4,2.6-1.4,1.6,2.7,3,2.6,1-2.5,2.4-2.5,1.6,1.9,3,1.9,1.4-.2,2.8-.2,1.6,1.8,2.8,1.8c1.4,0,1-4.2,2.4-4.2s1.4.3,2.8.3,1.8,4.1,3.3,4.1,1.2-2.3,2.4-2.3,1-1.4,2.4-1.4,1.2-1.4,2.6-1.4,1.8,4.4,3.3,4.3,1.4.3,2.8.3,1-2.8,2.4-2.8c1.2,0,1.2-.9,2.6-.9s1.6,3.3,3,3.3,1.2-.8,2.6-.8,1-4.1,2.4-4.1,1.6,2.2,3,2.1,1.4.6,2.8.6,1.6,2.1,3,2.1,1.4.2,2.8.2,1.4.2,2.8.2,1-2.7,2.4-2.7,1.6,1.9,3,1.9,1-4.4,2.4-4.5,1.4.3,2.8.3,1.2-1.2,2.6-1.2,2,5.5,3.3,5.5.8-5.8,2.2-5.9,1.8,4.9,3.3,4.8,1.2-2.4,2.6-2.4a23.36,23.36,0,0,0,2.6-.4c1.4,0,1.6,1.9,3,1.9s1.4.8,2.8.8,1.4.9,2.8.9,1.4-.2,2.8-.2,1.2-2.1,2.6-2.1,1.2-.8,2.6-.9,1.6,1.7,2.8,1.6c1.4,0,1.2-.8,2.6-.8s1-3.1,2.4-3.2,1.6,2.2,3,2.2,1.6,2.3,3,2.3.8-4.9,2.4-4.9c1.4-.1,1.6,2,3,1.9s1.6,2.2,3,2.1,1-3.5,2.4-3.5,1.4,1,2.8,1,1.4-.5,2.6-.5c1.4,0,1.4-.1,2.8-.1s1.8,4.6,3.3,4.6,1-3.3,2.4-3.3,1-2.4,2.4-2.4,1.8,4.2,3.3,4.2,1.2-1.4,2.6-1.4,1.4.4,2.8.4,1.4.3,2.8.3,1-4,2.4-4,1.8,4.7,3.3,4.7,1-3.6,2.4-3.6,1.6,2.2,3,2.1,1-3.6,2.4-3.6,1.4-.2,2.6-.2H462c1.4,0,1.4,1.4,2.8,1.4s1.8,4.7,3.3,4.7.8-5.5,2.2-5.5,1.8,4.9,3.3,4.9,1.2-1.3,2.6-1.4,1.2-2.4,2.4-2.4c1.4,0,1.4.8,2.8.8S482.6,96,484,96s1.8,2.1,3,2.1c1.4,0,1.2-1.9,2.6-1.9s1.6,1.9,2.8,1.9c1.4-.1,1.2-2.5,2.4-2.5,1.4,0,1.4.1,2.8.1s1.6,1.9,3,1.8,1.6,1.9,2.8,1.8c1.4,0,1-3.3,2.4-3.4s1.4.7,2.8.6,1.6,1.5,3,1.5,1.4.2,2.8.2,1.2-1.3,2.6-1.4,1.4,1,2.8,1,1.2-2,2.6-2.1,1.8,4.1,3.3,4.1,1.2-1.9,2.6-1.9,1.2-.7,2.6-.7,1.4.9,2.8.9a13.1,13.1,0,0,0,2.8,0c1.4-.1.8-4.9,2.4-4.9s1.8,3.6,3,3.5c1.4,0,1.4.4,2.8.4s1.4.9,2.8.9,1-3,2.4-3,1.4-.5,2.6-.5c1.4,0,1.4-.5,2.6-.5,1.4,0,1.8,4.6,3.3,4.6s.8-5.3,2.2-5.4,1.6,1.5,2.8,1.5,1.2-.8,2.6-.9,1.8,4,3.3,3.9,1.2-1.8,2.6-1.8,1.4.2,2.8.2,1.6,2,3,2c-.4-.1-.4-1.6.8-1.6,1.4,0,1.2-2.5,2.4-2.5l2.6-.3c1.2-.1,1.6,2.3,3,2.3s1-3.6,2.4-3.7,1.8,3.9,3.3,3.8l2.8-.2c1.4-.1,1.4,1.4,2.8,1.4s1.2-1.1,2.6-1.1,1-2.8,2.4-2.8c1.2,0,1.8,4.4,3.3,4.4s1.4-.6,2.6-.6,1.2-2.3,2.4-2.3c1.4,0,1.6,2.6,3,2.6s.8-5.1,2.2-5.2,1.4.9,2.8.8,1.4.1,2.8,0,1.6,2.9,3,2.9,1-2.5,2.4-2.5,2,4.1,3.5,4.1,1.2-2.4,2.6-2.4,1.4.6,2.8.5,1.4.3,2.8.3,1.4.8,2.8.8,1.2-1.7,2.6-1.7,1.6,1.9,3,1.9,1.2-2.1,2.6-2.1,1.2-1.9,2.6-1.9,1.6,1.5,2.8,1.5,1.2-2.5,2.4-2.5,1.4,3.4,2.8,3.4,1-4.6,2.4-4.6,1.4,1.1,2.8,1,1.6,1.7,2.8,1.7c1.4,0,1-2.5,2.4-2.5,1.2,0,2,5.4,3.3,5.4s1-3.7,2.4-3.8,1.2-.8,2.6-.8,1.2-1.4,2.6-1.4,1.8,4.3,3.3,4.3,1.4.4,2.8.4,1.2-1.6,2.6-1.7,1.6,2.9,3,2.9,1.2-1.4,2.6-1.4,1-4.3,2.4-4.4,1.2-.5,2.6-.6,1.6,2.9,3,2.9,1.2-1.5,2.6-1.5,1.4,1.2,2.8,1.2,1.4-.4,2.6-.4,1.6,3.1,3,3.1,1.2-1.5,2.6-1.6a26.35,26.35,0,0,0,2.8.2c1.4,0,1.2-1.1,2.6-1.1s1.6,2.1,3,2.1,1-3.7,2.4-3.7,1.4,1.3,2.8,1.2,1.4-.6,2.6-.6,1.2-.9,2.6-.9,1.2-.7,2.6-.7,1.8,4.1,3.3,4.1,1.4.5,2.8.5a23.36,23.36,0,0,0,2.6-.4c1.4,0,1-4.3,2.4-4.3a26.2,26.2,0,0,0,2.8.1c1.4,0,1.4,1.4,2.8,1.4s1.8,3.4,3,3.3c1.4,0,1.2-2,2.6-2.1s1.4-.6,2.6-.6c1.4,0,1.6,1.9,3,1.9s1.2-1.3,2.6-1.3l2.8-.3c1.4-.1,1.2-1.4,2.6-1.4s1.2-.7,2.6-.7,1.2-1.4,2.6-1.4,1.6,2.5,3,2.5,1.6,2.5,3,2.5,1-2.4,2.4-2.4,1.6,1.7,2.8,1.7c1.4,0,1.4.3,2.8.3s1.4.8,2.8.8.8-5.3,2.2-5.3,1.6,2.2,3,2.1,1.2-1.9,2.6-1.9,1.4.5,2.8.5,1.8,3.6,3.3,3.6,1.2-1.9,2.6-1.9,1-3.4,2.4-3.5,1.4,1.4,2.8,1.3,1.6,2.5,3,2.5,1.2-1.8,2.6-1.9,1.2-1,2.6-1,1.8,3.7,3.3,3.7,1-4.5,2.4-4.5,1.6,2.3,3,2.3,1.2-1.4,2.6-1.5a26.35,26.35,0,0,1,2.8-.2c1.4,0,1.8,4.7,3.3,4.7s1-4,2.4-4,1.6,2.5,3,2.5,1.2-1.8,2.6-1.9,1.6,3,3,3,1-3,2.4-3c1.2,0,1.4.7,2.8.6s1.4,1,2.8.9,1.4,1.4,2.8,1.4.8-5.2,2.2-5.2,1.8,2.8,3,2.8,1.2-2.1,2.6-2.2,1.8,3.6,3,3.6c1.4,0,1-4.1,2.4-4.1s1.8,4.1,3.3,4.1,1-2.9,2.4-3c1.2-.1,1.6,1.5,2.8,1.5,1.4,0,1-3.8,2.4-3.8s1.6,1.7,2.8,1.6,1.8,4,3.3,4,1.2-1.7,2.6-1.7,1.4,1.1,2.8,1.1,1-2.6,2.4-2.6,1.4.1,2.8.1,1.2-1.5,2.6-1.5,1.6,1.8,3,1.8,1.2-2.8,2.4-2.8,1.4-.4,2.6-.4c1.4,0,1.4.8,2.8.8s1.4.8,2.8.7,1.8,3.8,3.3,3.7,1.2-1.2,2.6-1.2,1.2-1.4,2.6-1.4h2.8c1.4,0,1.4,1.1,2.8,1.1s1.2-1.7,2.6-1.7,1.2-2.3,2.4-2.3c1.4,0,1.8,3.3,3,3.3,1.4,0,1.2-1.9,2.6-1.9s1.6,3.1,3,3,1-3,2.4-3c1.2,0,1.4,1.4,2.8,1.3s1.6,1.5,2.8,1.5c1.4,0,1.6.6,2.8.6,1.4,0,1-4,2.4-4s1.8,4,3.3,4,1.2-1.1,2.6-1.1,1.6,1.8,2.8,1.7c1.4,0,1.2-.8,2.6-.8s1.4.3,2.8.3,1.4-.4,2.6-.4,1.2-2.3,2.4-2.4c1.4,0,1.6,2.5,3,2.5s1.2-.9,2.6-.9.4-1.7,1.8-1.7,1.4-.1,2.8-.1,1-2.4,2.4-2.5,1.8,4.5,3.3,4.5,1.2-2,2.6-2.1,1.2-1.9,2.6-1.9l2.8-.1c1.4,0,1.8,4,3.3,4s1-4.1,2.4-4.1,1.6,2.7,3,2.7,1.2-.8,2.6-.8,1.6,1.9,3,1.9,1.2-1.4,2.6-1.4,1.4.2,2.8.2,1.2-2.1,2.6-2.1,1.6,3.1,3,3h2.8c1.4,0,.8-4.9,2.2-5s1.6,1.7,2.8,1.6c1.4,0,1.8,3.8,3.3,3.8s1.2-1.7,2.6-1.7,1.2-1.6,2.6-1.6,1.6,2.1,3,2.1,1.4.2,2.8.2,1-3.1,2.4-3.2c1.2,0,1.6,1.8,3,1.8s1-3.6,2.4-3.6,1.8,5.2,3.3,5.1,1.2-1,2.6-1,1.6,1.4,2.8,1.4.8-5.2,2.2-5.2,1.4.4,2.8.3,1.6,2.7,3,2.6,1.2-2.4,2.4-2.4c1.4,0,1.6,1.5,2.8,1.5s1.6,1.7,2.8,1.7c1.4,0,1-3.5,2.4-3.5s1.4.3,2.8.3a13.1,13.1,0,0,0,2.8,0c1.4-.1,1.6,2.8,3,2.8s1-4.3,2.4-4.3,2,5.4,3.3,5.3.8-5.4,2.2-5.4,1.6,2.5,3,2.5,1.2-2.1,2.6-2.1,1.8,4.7,3.3,4.7,1.4.3,2.8.3.8-4.8,2.2-4.8,1.2-.8,2.6-.8,1.4-.6,2.6-.6,1.6,3.1,3,3.1,1.4,1.2,2.8,1.2,1-3,2.4-3c1.2,0,1.2-1.1,2.6-1.1s1.6,2.1,3,2.1,1.2-2.1,2.6-2.1,1.6,1.4,3,1.4,1.8,4.1,3.3,4.1,1.4-.7,2.6-.7c1.4,0,.8-4.7,2.4-4.7,1.4,0,1.8,4.6,3.3,4.6s1.2-2.5,2.4-2.5c1.4,0,1.6,2.8,3,2.7s.8-5.5,2.2-5.5,2,5.6,3.3,5.5,1-3,2.4-3,1.6,3.2,3,3.2-.2-3.7,1.2-3.7,1.2-1.3,2.6-1.4,1.4,1.3,2.8,1.3,1.2-.8,2.6-.8,1.6,1.4,2.8,1.4c1.4,0,1.6,1.9,3,1.9s1.4,1.4,2.8,1.4,1-3.6,2.4-3.7,1.6,2.7,3,2.7,1.2-.8,2.6-.8,1.4,1,2.8.9,1.4-.6,2.6-.6c1.4,0,1.2-1.4,2.6-1.4s1.2-1,2.6-1,1.4,1.5,2.8,1.5,1.2-.6,2.6-.7a26.6,26.6,0,0,1,2.8-.3c1.4,0,1.2-1.4,2.6-1.4s1.8,4.1,3.3,4.1,1.2-.7,2.6-.8,1.2-1.3,2.6-1.4,1.4.6,2.8.5,1-2.6,2.4-2.7,1.2-1,2.6-1,1.4,1.3,2.8,1.3,1.4-.6,2.6-.6c1.4,0,1.4,1.1,2.8,1.1s1.4.4,2.8.3,1.2-2.4,2.4-2.4c1.4,0,1.2-.8,2.6-.8s1.6,3,3,3,1.2-.6,2.6-.7,1-2.7,2.4-2.7,1.4,1.3,2.8,1.3,1.8,3.6,3,3.6c1.4,0,1.4-.6,2.6-.6,1.4,0,1.2-1.4,2.6-1.4s1.2-1.4,2.6-1.4,1.2-1.3,2.6-1.3,1.4.6,2.8.6,1.8,4.7,3.3,4.6,1.4.3,2.8.3,1.2-1.9,2.6-1.9,1.4-.3,2.6-.3c1.4,0,1.4.9,2.8.9s1.4.1,2.8.1h2.8c1.4,0,1.2-1.2,2.6-1.2s1.4-.1,2.8-.1,1-4.1,2.4-4.1,1.8,4.2,3.3,4.2,1.4,1,2.8.9,1.2-1.4,2.6-1.4,1.4-.5,2.6-.5c1.4,0,1.6,2.8,3,2.7s1-3.2,2.4-3.3,1.6,3,3,3,1-3.9,2.4-4,1.6,2.3,3,2.3,1.2-2.4,2.4-2.4c1.4,0,1.4,1.1,2.8,1.1s1.2-.8,2.6-.8,1.6,1.9,3,1.9,1-2.7,2.4-2.7,1.8,3.3,3,3.2,1.2-1.2,2.6-1.3,1.2-2.5,2.4-2.5c1.4,0,1.4.5,2.8.5s1.4.3,2.8.3,1.2-1.1,2.6-1.1,1.4.2,2.8.2,1.4,1.3,2.8,1.2,1.2-1.8,2.6-1.8,1.8,3.2,3.3,3.1,1.4-.5,2.6-.6c1.4,0,1-2.7,2.4-2.7,1.2,0,1.8,3.5,3,3.5s1.4.8,2.8.8,1.4.8,2.8.8.8-5.2,2.2-5.2,1.8,3.4,3.3,3.4,1.2-1.9,2.6-1.9,1.6,2.8,3,2.8,1.2-.8,2.6-.8,1.4.5,2.8.5,1.4.7,2.8.7,1.2-2.2,2.6-2.2,1.2-1.9,2.6-1.9,1.4.6,2.8.6,1.2-1.4,2.6-1.4,1.8,4.9,3.3,4.9,1-4.5,2.4-4.5,1.8,3.4,3,3.4c1.4,0,1.4-.3,2.6-.3a13.1,13.1,0,0,0,2.8,0c1.4-.1.8-4.7,2.4-4.7,1.4,0,2,6.2,3.5,6.2s1-4,2.4-4,1.4.2,2.8.2,1.4-.2,2.6-.2c1.4,0,1.4.3,2.8.3s1.4,1,2.8,1,1-3.8,2.4-3.9,1.4,2.5,2.8,2.5a26.2,26.2,0,0,0,2.8-.1c1.4-.1,1.4.8,2.8.8s1.6,3,3,3,1.2-1.5,2.6-1.6,1-4.3,2.4-4.4,1.8,3.6,3,3.6c1.4,0,1.2-1.9,2.6-1.9s1.6,3.6,3,3.6,1.2-.8,2.6-.8,1.2-.9,2.6-.9,1.2-2.1,2.6-2.1,1.8,3.1,3,3.1c1.4,0,1-4.3,2.4-4.3s1.8,4.4,3.3,4.3,1.2-1,2.6-1.1,1.4-.3,2.6-.3,1.4,1.1,2.8,1.1,1-4.4,2.4-4.5,1.4,1,2.8,1,1.4-.8,2.6-.8,1.8,3.7,3.3,3.7,1.2-1.6,2.6-1.6,1.2-1.8,2.6-1.9,1.6,2.5,3,2.5,1.2-1,2.6-1,1.6,1.9,3,1.9,1-3,2.4-3,1.2-1.3,2.6-1.3a11.53,11.53,0,0,0,2.6-.3c1.4,0,1.4.8,2.8.8s1.8,3.6,3,3.6,1.4-.3,2.8-.3.8-5,2.4-5c1.4,0,1.6,3.2,3,3.2s1.4.9,2.8.8,1.4.7,2.8.7,1.4-.5,2.6-.5c1.4,0,1-4.4,2.4-4.4s2,5.5,3.3,5.5.8-5.4,2.2-5.4,1.8,3.5,3,3.5,1-2.9,2.4-2.9,1.4,1.1,2.8,1.1l2.8-.1c1.4,0,1.6,1.5,2.8,1.5s1.6,1.9,3,1.9,1.2-1.9,2.6-1.9,1.6,2.1,3,2.1,1.4-.1,2.8-.1,1.2-1.1,2.6-1.1,1-4.1,2.4-4.1,1.8,5.2,3.3,5.2,1-4.1,2.4-4.1,1.8,3.8,3.3,3.8,1.2-2.1,2.6-2.1,1.2-.6,2.6-.6,1.4,1,2.8,1,1-2.5,2.4-2.5,1.4.2,2.8.2,1.6,2.5,3,2.5,1.4.7,2.8.7,1.2-1.9,2.6-1.9,1.6,1.9,3,1.9,1.2-1.1,2.6-1.1,1.6,1.4,2.8,1.4c1.4,0,1.2-1.4,2.6-1.4s1.2-.9,2.6-1,1.2-.8,2.6-.8,1.4-.5,2.6-.5h2.8c1.4,0,1.4-.4,2.6-.4,1.4,0,1.2-1.5,2.6-1.5s1.4.7,2.8.6,1.4.7,2.8.7,1.4-.6,2.6-.6c1.4,0,1.4.2,2.8.2s1.8,4.5,3.3,4.5.8-4.9,2.4-4.9c1.4,0,1.4.3,2.8.3s1.8,3.6,3.3,3.6,1.4-.6,2.6-.7c1.4,0,1.2-1.2,2.6-1.2s1.6,2.2,3,2.2.8-5.6,2.2-5.7a26.2,26.2,0,0,1,2.8.1c1.4,0,1.6,2.8,3,2.8s1.6,1.5,2.8,1.4c1.4,0,1-3.4,2.4-3.5s1.4,1,2.8,1,1.4-.7,2.6-.7c1.4,0,1.8,3.3,3,3.3,1.4,0,1.4,1.3,2.8,1.2s1.2-.8,2.6-.8,1-3.4,2.4-3.4,1.8,3.4,3,3.4c1.4,0,1-3,2.4-3s1.4-.6,2.6-.6c1.4,0,1.2-1.5,2.6-1.5s1.8,4.1,3.3,4.1,1.4-.6,2.6-.7c1.4,0,1.4.2,2.8.2s1.2-.8,2.6-.8,1.6,2.3,3,2.3,1.2-1,2.6-1,.8-4.6,2.4-4.6c1.4,0,1.6,3,3,3a23.36,23.36,0,0,0,2.6-.4c1.4,0,1.2-.8,2.6-.8s1.2-2,2.6-2,1.6,2.4,3,2.4,1.2-.8,2.6-.8h2.8c1.4,0,1.6,2.6,3,2.6s1-3.9,2.4-4,1.4,1.5,2.8,1.4,1.6,3.2,3,3.2,1.2-1.4,2.6-1.4,1.2-1.2,2.6-1.2,1.2-.6,2.6-.7,1.6,2.1,3,2a26.2,26.2,0,0,1,2.8.1c1.4,0,1-3.4,2.4-3.5s1.4.9,2.8.8,1.6,1.9,3,1.9,1.2-1,2.6-1,1.2-2.3,2.6-2.3,1.6,1.6,2.8,1.5c1.4,0,1.6,1.4,2.8,1.4,1.4,0,1-4,2.4-4s2,5.5,3.3,5.5,1.2-1.9,2.6-2c1,0,.8-1.9,2.2-1.9s1.4.5,2.8.4,1.2-1.2,2.6-1.2,1.8,4.4,3.3,4.3,1-3.5,2.4-3.6,1.4-.5,2.6-.5c1.4,0,1.4,1.4,2.8,1.4s1.6,3,3,3,1-3.6,2.4-3.6,1.6,1.9,3,1.9,1.6,1.8,3,1.7.8-4.7,2.4-4.7c1.4,0,1.8,4.1,3.3,4.1s.6-5.5,1.8-5.6,1.6,1.8,3,1.7,1.6,1.5,2.8,1.5c1.4,0,1.6,1.6,2.8,1.6,1.4,0,1.4.6,2.8.6s1.4-.4,2.6-.5,1-4.5,2.4-4.6,1.6,2.3,3,2.3,1.4,1.2,2.8,1.1,1.4,1.2,2.8,1.2.8-5.5,2.2-5.5,1.6,2.7,3,2.6,1.2-2.2,2.6-2.2,1.4.4,2.8.3,1.8,4,3.3,3.9,1.2-2,2.6-2,1.2-1.2,2.6-1.2,1.4.8,2.8.8,1.6,1.7,3,1.6,1-4,2.4-4a13.1,13.1,0,0,0,2.8,0c1.4-.1,1.6,1.9,3,1.9s1.8,3.7,3.3,3.7,1-4.6,2.4-4.6h2.8c1.4,0,1.8,3.4,3,3.4s1.2-1.3,2.6-1.4,1.4,1.3,2.8,1.2,1.2-1.4,2.6-1.5,1.4.5,2.8.4,1-3.6,2.4-3.6,1.4.3,2.8.3,1.2-.9,2.6-1,1.8,5.3,3.3,5.3,1.2-1.7,2.6-1.8,1.6,1.9,3,1.9,1-3.6,2.4-3.6,1.8,3.7,3.3,3.6.8-5.4,2.2-5.4,1.4.5,2.8.4,1.4,1.2,2.8,1.2,1.8,3.6,3.3,3.6,1.4-.5,2.6-.5,1.2-.8,2.6-.8,1.4.8,2.8.8.8-5.2,2.2-5.2h0V-1.33Z" transform="translate(1 1.33)"/></g></g></g></g></svg>