<?xml version="1.0" encoding="utf-8"?>
<!-- Generator: Adobe Illustrator 22.1.0, SVG Export Plug-In . SVG Version: 6.00 Build 0)  -->
<svg version="1.1" id="Livello_1" xmlns="http://www.w3.org/2000/svg" xmlns:xlink="http://www.w3.org/1999/xlink" x="0px" y="0px"
	 viewBox="0 0 841.9 110.8" style="enable-background:new 0 0 841.9 110.8;" xml:space="preserve">
<style type="text/css">
	.st0{fill:#FFEDDF;}
</style>
<title>Risorsa 2</title>
<g id="Livello_2_1_">
	<g id="Livello_1-2">
		<path class="st0" d="M841.9,110.5V2h-0.3c-0.6,0-0.6-1.3-1.2-1.3s-0.4,3.1-1,3.1c-0.5,0-0.8-3.8-1.4-3.7c-0.6,0-0.4,2.5-1,2.5
			s-0.5,0.6-1.1,0.7c-0.6,0-0.7-3.3-1.3-3.3s-0.6,0.1-1.2,0.2c-0.6,0-0.4,3.5-1,3.5c-0.6,0-0.6-1.3-1.2-1.3s-0.5,0.9-1.1,1
			c-0.6,0.1-0.5,1.5-1.1,1.6c-0.6,0.1-0.6,0.5-1.1,0.6c-0.6,0-0.6-0.7-1.2-0.7s-0.8-4.3-1.4-4.3s-0.4,2.8-1,2.8s-0.7-2-1.3-2
			c-0.6,0.1-0.6-0.6-1.2-0.6s-0.6-0.3-1.2-0.3s-0.4,2.8-1,2.8c-0.5,0-0.7-2-1.3-2s-0.6,0.5-1.1,0.5c-0.6,0-0.5,1.8-1.1,1.8
			c-0.6,0-0.5,1-1.1,1c-0.6,0-0.6,1.3-1.1,1.3c-0.6,0-0.7-2-1.3-2c-0.6,0.1-0.4,3-1,3.1c-0.5,0.1-0.6-1-1.2-0.9S809.6,5,809.1,5
			c-0.6,0-0.6,0.3-1.1,0.3c-0.6,0-0.8-4.1-1.4-4.1c-0.6,0-0.4,3.2-1,3.2c-0.6,0-0.7-2.8-1.3-2.8s-0.4,4.3-1,4.3s-0.5,0.3-1.1,0.3
			s-0.7-2.5-1.3-2.5c-0.6,0-0.5,0.8-1.1,0.8c-0.6,0-0.7-2.7-1.3-2.7s-0.3,5.2-0.9,5.2c-0.6,0-0.6-0.7-1.2-0.7
			c-0.6,0-0.8-4.7-1.4-4.7c-0.5,0-0.4,3.8-1,3.8c-0.6,0-0.8-3.9-1.4-3.8c-0.6,0-0.5,0.9-1.1,0.9s-0.5,1.4-1.1,1.4
			c-0.6,0-0.7-1.9-1.2-1.9c-0.6,0-0.4,2.9-1,2.9c-0.5,0-0.7-2.2-1.3-2.2c-0.6,0-0.3,4.9-1,4.9c-0.6,0-0.6-0.2-1.2-0.2
			s-0.6-0.3-1.2-0.3c-0.6,0-0.5-1.7-1-1.6c-0.6,0-0.4,2.4-1,2.4c-0.6,0-0.8-4.8-1.4-4.7c-0.6,0-0.3,4.7-1,4.7
			c-0.7,0-0.8-4.6-1.4-4.6c-0.6,0-0.3,4.5-1,4.6c-0.7,0.1-0.8-4.1-1.4-4.1c-0.6,0-0.4,3.7-1,3.7s-0.7-3.1-1.3-3
			c-0.6,0.1-0.7-2-1.3-2s-0.4,4.4-1,4.4s-0.5,1.2-1.1,1.2c-0.6,0-0.8-4.5-1.4-4.5c-0.6,0-0.6-0.3-1.2-0.3c-0.6,0-0.6-0.2-1.2-0.1
			c-0.6,0-0.4,4.4-1,4.4s-0.5,1.4-1.1,1.4c-0.6,0-0.7-2.7-1.3-2.7s-0.7-3.3-1.3-3.2c-0.6,0-0.4,2.7-1,2.7c-0.6,0-0.4,3.1-1,3.2
			c-0.5,0-0.6-1.2-1.1-1.2s-0.6-0.9-1.2-0.9c-0.6,0-0.5,1.2-1.1,1.2c-0.6,0-0.6-0.4-1.2-0.4s-0.6-0.2-1.2-0.2
			c-0.6,0-0.5,1.3-1.1,1.3c-0.6,0-0.7-2.6-1.3-2.6c-0.6,0-0.7-2-1.3-1.9c-0.6,0.1-0.6-0.1-1.2-0.1c-0.6,0-0.4,3.9-1,4
			c-0.6,0.1-0.7-3.1-1.3-3s-0.6-1.1-1.2-1c-0.6,0.1-0.6-0.8-1.2-0.8s-0.3,4.8-1,4.8c-0.6,0-0.8-3.7-1.3-3.7
			c-0.3,0.2-0.3,1.5-0.8,1.5S739.9,5,739.3,5s-0.4,3-1,3.1c-0.6,0.1-0.8-3.1-1.4-3.1s-0.5,1.4-1.1,1.4s-0.4,3.4-1,3.4
			c-0.6,0-0.8-4.1-1.4-4c-0.6,0.1-0.4,4.1-1,4.1s-0.6-3.6-1.2-3.6c-0.6,0-0.5,1.7-1.1,1.7s-0.6,0.5-1.1,0.5c-0.6,0-0.7-2.8-1.3-2.7
			c-0.6,0.1-0.6-0.3-1.2-0.2c-0.6,0.1-0.6-0.5-1.2-0.5c-0.6,0-0.5,0.9-1.1,0.9c-0.6,0-0.6-0.3-1.2-0.3s-0.5,1.9-1.1,2
			c-0.6,0.1-0.5,1.4-1.1,1.4c-0.6,0-0.7-2.7-1.3-2.6c-0.6,0-0.4,2.5-1,2.5s-0.7-2-1.3-2s-0.6,0.2-1.2,0.2s-0.7-1.8-1.2-1.8
			c-0.6,0-0.4,4.3-1,4.3s-0.6-0.3-1.2-0.3s-0.8-4.2-1.4-4.1c-0.6,0-0.5,2.3-1,2.3s-0.4,1.4-1,1.4s-0.5,1.4-1.1,1.4s-0.8-4.4-1.4-4.3
			c-0.6,0.1-0.6-0.3-1.2-0.3s-0.4,2.8-1,2.8c-0.5,0-0.5,0.9-1.1,0.9c-0.6,0-0.7-3.3-1.3-3.3S701.5,7,700.9,7c-0.6,0-0.4,4.1-1,4.1
			c-0.6,0-0.7-2.2-1.3-2.1c-0.6,0-0.6-0.6-1.2-0.6c-0.6,0-0.7-2.1-1.3-2.1s-0.6-0.2-1.2-0.2c-0.6,0-0.6-0.2-1.2-0.2s-0.4,2.7-1,2.7
			s-0.7-2-1.3-2c-0.6,0-0.4,4.4-1,4.5c-0.6,0-0.6-0.3-1.2-0.3S688.6,12,688,12c-0.6,0-0.9-5.5-1.4-5.5s-0.3,5.9-0.9,6
			c-0.6,0-0.8-4.9-1.4-4.9c-0.6,0.1-0.5,2.4-1.1,2.4c-0.5,0-0.6,0.3-1.1,0.4c-0.6,0-0.7-1.9-1.3-1.9c-0.6,0-0.6-0.9-1.2-0.9
			s-0.6-0.9-1.2-0.9c-0.6,0-0.6,0.2-1.2,0.2S676.8,9,676.2,9s-0.5,0.9-1.1,0.9c-0.6,0-0.7-1.7-1.2-1.6c-0.6,0-0.5,0.8-1.1,0.9
			s-0.4,3.2-1,3.2c-0.6,0-0.7-2.2-1.3-2.2c-0.6,0-0.7-2.3-1.3-2.3s-0.3,4.9-1,4.9c-0.6,0.1-0.7-2-1.3-2s-0.7-2.2-1.3-2.1
			c-0.6,0-0.4,3.5-1,3.5c-0.6,0-0.6-1-1.2-1s-0.6,0.5-1.1,0.5c-0.6,0-0.6,0.1-1.2,0.1s-0.8-4.6-1.4-4.6s-0.4,3.3-1,3.3
			c-0.6,0-0.4,2.4-1,2.4c-0.6,0-0.8-4.3-1.4-4.3s-0.5,1.4-1.1,1.4c-0.6,0-0.6-0.4-1.2-0.4s-0.6-0.3-1.2-0.3c-0.6,0-0.4,4-1,4
			c-0.6,0-0.8-4.7-1.4-4.7s-0.4,3.6-1,3.6c-0.6,0-0.7-2.2-1.3-2.1c-0.6,0-0.4,3.7-1,3.7s-0.6,0.2-1.1,0.2c-0.6,0-0.6,0-1.2,0
			c-0.6,0-0.6-1.4-1.2-1.4s-0.8-4.8-1.4-4.7c-0.6,0-0.3,5.5-0.9,5.5c-0.6,0-0.8-4.9-1.4-4.9c-0.6,0.1-0.5,1.3-1.1,1.4
			c-0.6,0-0.5,2.4-1,2.4c-0.6,0-0.6-0.8-1.2-0.8S636,13,635.4,13c-0.6,0-0.8-2.1-1.3-2.1c-0.6,0-0.5,2-1.1,2s-0.7-2-1.2-2
			c-0.6,0.1-0.5,2.5-1,2.5c-0.6,0-0.6-0.1-1.2-0.1s-0.7-1.9-1.3-1.8c-0.6,0-0.7-1.9-1.2-1.8c-0.6,0-0.4,3.3-1,3.4
			c-0.6,0.1-0.6-0.7-1.2-0.6c-0.6,0-0.7-1.5-1.3-1.5s-0.6-0.2-1.2-0.2c-0.6,0-0.5,1.3-1.1,1.4s-0.6-1-1.2-1c-0.6,0-0.5,2-1.1,2.1
			c-0.6,0-0.8-4.2-1.4-4.2s-0.5,1.9-1.1,1.9c-0.6,0-0.5,0.7-1.1,0.7c-0.6,0-0.6-0.9-1.2-0.9s-0.6-0.1-1.2,0c-0.6,0.1-0.3,4.9-1,4.9
			c-0.7,0-0.8-3.6-1.3-3.5c-0.6,0-0.6-0.4-1.2-0.4s-0.6-0.9-1.2-0.9s-0.4,3-1,3c-0.6,0-0.6,0.5-1.1,0.5c-0.6,0-0.6,0.5-1.1,0.5
			c-0.6,0-0.8-4.6-1.4-4.6s-0.3,5.4-0.9,5.5c-0.6,0-0.7-1.5-1.2-1.5s-0.5,0.9-1.1,0.9c-0.6,0-0.8-4-1.4-3.9
			c-0.6,0.1-0.5,1.8-1.1,1.8s-0.6-0.2-1.2-0.2c-0.6,0-0.7-2-1.3-2c0.2,0.1,0.2,1.6-0.3,1.6c-0.6,0-0.5,2.5-1,2.5s-0.6,0.2-1.1,0.3
			c-0.5,0.1-0.7-2.3-1.3-2.3s-0.4,3.7-1,3.8c-0.6,0-0.8-3.9-1.4-3.8c-0.6,0.1-0.6,0.1-1.2,0.2s-0.6-1.4-1.2-1.4
			c-0.6,0-0.5,1.1-1.1,1.1c-0.6,0-0.4,2.8-1,2.8c-0.5,0-0.8-4.4-1.4-4.4s-0.6,0.6-1.1,0.6s-0.5,2.3-1,2.3c-0.6,0-0.7-2.6-1.3-2.6
			c-0.6,0-0.3,5.1-0.9,5.2s-0.6-0.9-1.2-0.9c-0.6,0.1-0.6-0.1-1.2,0s-0.7-2.9-1.3-2.9c-0.6,0-0.4,2.6-1,2.6s-0.9-4.2-1.5-4.2
			c-0.6,0-0.5,2.4-1.1,2.4s-0.6-0.6-1.2-0.5c-0.6,0-0.6-0.3-1.2-0.3s-0.6-0.9-1.2-0.9c-0.6,0-0.5,1.7-1.1,1.7
			c-0.6,0-0.7-1.9-1.3-1.9s-0.5,2.1-1.1,2.1c-0.6,0-0.5,2-1.1,2c-0.6,0-0.7-1.5-1.2-1.5s-0.5,2.5-1,2.5s-0.6-3.4-1.2-3.4
			s-0.4,4.6-1,4.6c-0.6,0-0.6-1.1-1.2-1c-0.6,0-0.7-1.7-1.2-1.7c-0.6,0-0.4,2.5-1,2.5c-0.5,0-0.9-5.5-1.4-5.5c-0.6,0-0.4,3.8-1,3.8
			c-0.6,0-0.5,0.8-1.1,0.9c-0.6,0-0.5,1.4-1.1,1.4c-0.6,0-0.8-4.3-1.4-4.3c-0.6,0-0.6-0.4-1.2-0.4c-0.6,0-0.5,1.6-1.1,1.7
			c-0.6,0-0.7-2.9-1.3-2.9c-0.6,0-0.5,1.4-1.1,1.4c-0.6,0-0.4,4.3-1,4.4c-0.6,0.1-0.5,0.5-1.1,0.6c-0.6,0-0.7-2.9-1.3-2.9
			c-0.6,0-0.5,1.5-1.1,1.5s-0.6-1.2-1.2-1.2s-0.6,0.4-1.1,0.4s-0.7-3.2-1.3-3.2s-0.5,1.5-1.1,1.6c-0.6,0-0.6-0.3-1.2-0.2
			c-0.6,0-0.5,1.1-1.1,1.1s-0.7-2.1-1.3-2.1c-0.6,0-0.4,3.8-1,3.8c-0.6,0-0.6-1.3-1.2-1.2s-0.6,0.6-1.1,0.6s-0.5,0.9-1.1,0.9
			c-0.6,0-0.5,0.7-1.1,0.7c-0.6,0-0.8-4.2-1.4-4.2s-0.6-0.5-1.2-0.5s-0.6,0.3-1.1,0.4c-0.6,0-0.4,4.3-1,4.3s-0.6-0.2-1.2-0.1
			c-0.6,0-0.6-1.4-1.2-1.4s-0.8-3.4-1.3-3.3c-0.6,0-0.5,2-1.1,2.1c-0.6,0-0.6,0.6-1.1,0.6c-0.6,0-0.7-1.9-1.3-1.9
			c-0.6,0-0.5,1.3-1.1,1.3s-0.6,0.2-1.2,0.3c-0.6,0.1-0.5,1.4-1.1,1.4c-0.6,0-0.5,0.7-1.1,0.7c-0.6,0-0.5,1.4-1.1,1.4
			c-0.6,0-0.7-2.6-1.3-2.6c-0.6,0-0.7-2.5-1.3-2.5s-0.4,2.4-1,2.4c-0.6,0-0.7-1.7-1.2-1.7c-0.6,0-0.6-0.3-1.2-0.3
			c-0.6,0.1-0.6-0.9-1.2-0.8c-0.6,0-0.3,5.4-0.9,5.4c-0.6,0-0.7-2.2-1.3-2.1c-0.6,0-0.5,2-1.1,2c-0.6,0.1-0.6-0.5-1.2-0.5
			c-0.6,0-0.8-3.7-1.4-3.7c-0.6,0-0.5,1.9-1.1,1.9c-0.6,0-0.4,3.4-1,3.5c-0.6,0-0.6-1.4-1.2-1.3c-0.6,0-0.7-2.6-1.3-2.6
			s-0.5,1.8-1.1,1.9c-0.6,0-0.5,1-1.1,1c-0.6,0-0.8-3.8-1.4-3.8c-0.6,0-0.4,4.5-1,4.5c-0.6,0-0.7-2.3-1.3-2.3
			c-0.6,0-0.5,1.4-1.1,1.5s-0.6,0.2-1.2,0.2c-0.6,0-0.8-4.8-1.4-4.8c-0.6,0-0.4,4-1,4c-0.6,0-0.7-2.6-1.3-2.6
			c-0.6,0-0.5,1.8-1.1,1.9c-0.6,0-0.7-3-1.3-3c-0.6,0-0.4,3.1-1,3.1c-0.5,0-0.6-0.7-1.2-0.6c-0.6,0-0.6-1-1.2-0.9s-0.6-1.4-1.2-1.4
			s-0.3,5.3-0.9,5.3c-0.6,0-0.8-2.8-1.3-2.8s-0.5,2.1-1.1,2.2c-0.6,0.1-0.8-3.7-1.3-3.7c-0.6,0-0.4,4.1-1,4.1
			c-0.6,0-0.8-4.2-1.4-4.1c-0.6,0-0.4,2.9-1,3c-0.5,0.1-0.7-1.5-1.2-1.5c-0.6,0-0.4,3.8-1,3.8c-0.6,0-0.7-1.7-1.2-1.6
			c-0.5,0.1-0.8-4-1.4-4c-0.6,0-0.5,1.7-1.1,1.7s-0.6-1.1-1.2-1.1c-0.6,0-0.4,2.6-1,2.6c-0.6,0-0.6-0.1-1.2-0.1
			c-0.6,0-0.5,1.5-1.1,1.5s-0.7-1.8-1.3-1.8c-0.6,0-0.5,2.8-1,2.8c-0.5,0-0.6,0.4-1.1,0.4c-0.6,0-0.6-0.8-1.2-0.8
			c-0.6,0-0.6-0.8-1.2-0.7c-0.6,0-0.8-3.8-1.4-3.8c-0.6,0-0.5,1.2-1.1,1.2s-0.5,1.4-1.1,1.4h-1.2c-0.6,0-0.6-1.1-1.2-1.1
			s-0.5,1.7-1.1,1.7c-0.6,0-0.5,2.3-1,2.3c-0.6,0-0.8-3.3-1.3-3.3c-0.6,0-0.5,2-1.1,2c-0.6,0-0.7-3.2-1.3-3.1c-0.6,0-0.4,3.1-1,3.1
			c-0.5,0-0.6-1.4-1.2-1.3c-0.6,0-0.7-1.5-1.2-1.5c-0.6,0-0.7-0.6-1.2-0.6c-0.6,0-0.4,4-1,4c-0.6,0-0.8-4-1.4-4
			c-0.6,0-0.5,1.1-1.1,1.1s-0.7-1.8-1.2-1.7c-0.6,0-0.5,0.8-1.1,0.8c-0.6,0-0.6-0.3-1.2-0.3s-0.6,0.4-1.1,0.4s-0.5,2.3-1,2.4
			c-0.6,0-0.7-2.5-1.3-2.5c-0.6,0-0.5,0.9-1.1,0.9c-0.6,0-0.2,1.7-0.8,1.7c-0.6,0-0.6,0.1-1.2,0.1c-0.6,0-0.4,2.4-1,2.5
			c-0.6,0.1-0.8-4.5-1.4-4.5c-0.6,0-0.5,2-1.1,2.1c-0.6,0-0.5,1.9-1.1,1.9l-1.2,0.1c-0.6,0-0.8-4-1.4-4c-0.6,0-0.4,4.1-1,4.1
			c-0.6,0-0.7-2.7-1.3-2.7c-0.6,0-0.5,0.8-1.1,0.9c-0.6,0-0.7-2-1.3-2c-0.6,0-0.5,1.4-1.1,1.4c-0.6,0-0.6-0.2-1.2-0.2
			c-0.6,0-0.5,2.1-1.1,2.1s-0.7-3.2-1.3-3.1c-0.6,0-0.6,0-1.2,0c-0.6,0-0.3,4.9-0.9,5c-0.6,0.1-0.7-1.7-1.2-1.6
			c-0.6,0-0.8-3.8-1.4-3.8s-0.5,1.7-1.1,1.7s-0.5,1.6-1.1,1.6c-0.6,0-0.7-2.1-1.3-2.1s-0.6-0.2-1.2-0.2c-0.6,0-0.4,3.2-1,3.2
			c-0.5,0-0.7-1.8-1.3-1.8c-0.6,0-0.4,3.6-1,3.6c-0.6,0-0.8-5.2-1.4-5.1c-0.6,0.1-0.5,1-1.1,1s-0.7-1.4-1.2-1.4s-0.3,5.3-0.9,5.3
			c-0.6,0-0.6-0.4-1.2-0.3c-0.6,0-0.7-2.7-1.3-2.6c-0.6,0-0.5,2.4-1,2.4c-0.6,0-0.7-1.5-1.2-1.5s-0.7-1.7-1.2-1.7
			c-0.6,0-0.4,3.5-1,3.5c-0.6,0-0.6-0.3-1.2-0.3s-0.6-0.1-1.2,0c-0.6,0.1-0.7-2.8-1.3-2.8c-0.6,0-0.4,4.3-1,4.3
			c-0.6,0-0.9-5.5-1.4-5.4c-0.6,0-0.3,5.5-0.9,5.5c-0.6,0-0.7-2.6-1.3-2.5c-0.6,0-0.5,2.1-1.1,2.1s-0.8-4.7-1.4-4.7
			s-0.6-0.3-1.2-0.3c-0.6,0-0.3,4.9-0.9,4.9c-0.6,0-0.5,0.8-1.1,0.8c-0.6,0-0.6,0.6-1.1,0.6s-0.7-3.2-1.3-3.2
			c-0.6,0-0.6-1.2-1.2-1.2s-0.4,3.1-1,3.1c-0.5,0-0.5,1.1-1.1,1.1c-0.6,0-0.7-2.1-1.3-2.1c-0.6,0-0.5,2.1-1.1,2.1
			c-0.6,0-0.7-1.4-1.3-1.4c-0.6,0-0.8-4.2-1.4-4.1c-0.6,0-0.6,0.7-1.1,0.7c-0.6,0-0.3,4.8-1,4.8c-0.6,0-0.8-4.6-1.4-4.6
			c-0.6,0-0.5,2.5-1,2.5c-0.6,0-0.7-2.8-1.3-2.7c-0.6,0-0.3,5.5-0.9,5.5c-0.6,0-0.9-5.6-1.4-5.5c-0.6,0-0.4,3-1,3
			c-0.6,0-0.7-3.2-1.3-3.2c-0.6,0,0.1,3.8-0.5,3.8c-0.6,0-0.5,1.3-1.1,1.4c-0.6,0-0.6-1.3-1.2-1.3c-0.6,0-0.5,0.9-1.1,0.9
			s-0.7-1.4-1.2-1.4c-0.6,0-0.7-2-1.3-2c-0.6,0-0.6-1.4-1.2-1.4c-0.6,0-0.4,3.7-1,3.8c-0.6,0-0.7-2.7-1.3-2.7
			c-0.6,0-0.5,0.9-1.1,0.9c-0.6,0-0.6-1-1.2-0.9c-0.6,0.1-0.6,0.6-1.1,0.6c-0.6,0-0.5,1.4-1.1,1.4s-0.5,1-1.1,1
			c-0.6,0-0.6-1.5-1.2-1.5s-0.5,0.6-1.1,0.7c-0.6,0-0.6,0.3-1.2,0.3c-0.6,0-0.5,1.4-1.1,1.4c-0.6,0-0.8-4.2-1.4-4.2
			c-0.6,0-0.5,0.7-1.1,0.8c-0.6,0.1-0.5,1.3-1.1,1.4c-0.6,0.1-0.6-0.6-1.2-0.5s-0.4,2.6-1,2.7c-0.6,0.1-0.5,1-1.1,1
			c-0.6,0.1-0.6-1.3-1.2-1.3c-0.6,0-0.6,0.6-1.1,0.6c-0.6,0-0.6-1.1-1.2-1.1c-0.6,0-0.6-0.4-1.2-0.3c-0.6,0.1-0.5,2.4-1,2.4
			c-0.6,0-0.5,0.8-1.1,0.9c-0.6,0.1-0.7-3.1-1.3-3.1c-0.6,0-0.5,0.6-1.1,0.7c-0.6,0-0.4,2.7-1,2.7c-0.6,0-0.6-1.3-1.2-1.3
			c-0.6,0-0.8-3.6-1.3-3.6c-0.6,0-0.6,0.6-1.1,0.6c-0.6,0-0.5,1.4-1.1,1.4c-0.6,0-0.5,1.4-1.1,1.4c-0.6,0-0.5,1.3-1.1,1.3
			s-0.6-0.6-1.2-0.6s-0.8-4.7-1.4-4.6c-0.6,0-0.6-0.3-1.2-0.3c-0.6,0-0.5,2-1.1,2c-0.6,0-0.6,0.3-1.1,0.3c-0.6,0-0.6-0.9-1.2-0.9
			s-0.6-0.1-1.2-0.1s-0.6,0-1.2,0c-0.6,0-0.5,1.2-1.1,1.2s-0.6,0.1-1.2,0.1s-0.4,4.1-1,4.1c-0.6,0-0.8-4.3-1.4-4.3
			c-0.6,0-0.6-1-1.2-0.9c-0.6,0.1-0.5,1.4-1.1,1.4c-0.6,0-0.6,0.5-1.1,0.5c-0.6,0-0.7-2.8-1.3-2.7c-0.6,0.1-0.4,3.2-1,3.3
			s-0.7-3.1-1.3-3c-0.6,0.1-0.4,3.9-1,4c-0.6,0.1-0.7-2.3-1.3-2.3s-0.5,2.4-1,2.4c-0.6,0-0.6-1.1-1.2-1.1s-0.5,0.8-1.1,0.8
			s-0.7-2-1.3-2c-0.6,0.1-0.4,2.7-1,2.7s-0.8-3.3-1.3-3.2c-0.5,0.1-0.5,1.2-1.1,1.3c-0.6,0.1-0.5,2.5-1,2.5c-0.6,0-0.6-0.5-1.2-0.5
			c-0.6,0-0.6-0.3-1.2-0.3s-0.5,1.1-1.1,1.1s-0.6-0.2-1.2-0.2s-0.6-1.3-1.2-1.2c-0.6,0-0.5,1.8-1.1,1.8s-0.8-3.2-1.4-3.2
			c-0.6,0.1-0.6,0.5-1.1,0.6c-0.6,0-0.4,2.7-1,2.7c-0.5,0-0.8-3.5-1.3-3.5s-0.6-0.9-1.2-0.9s-0.6-0.9-1.2-0.9
			c-0.6,0-0.3,5.2-0.9,5.3s-0.8-3.4-1.4-3.4c-0.6,0-0.5,2-1.1,2s-0.7-2.8-1.3-2.8c-0.6,0-0.5,0.8-1.1,0.8c-0.6,0-0.6-0.5-1.2-0.5
			s-0.6-0.7-1.2-0.7c-0.6,0-0.5,2.2-1.1,2.2c-0.6,0-0.5,1.9-1.1,2c-0.6,0-0.6-0.6-1.2-0.6s-0.5,1.4-1.1,1.4
			c-0.6,0.1-0.8-4.9-1.4-4.9s-0.4,4.5-1,4.5s-0.8-3.4-1.3-3.4c-0.6,0-0.6,0.3-1.1,0.3c-0.5,0-0.6-0.1-1.2,0c-0.6,0.1-0.3,4.7-1,4.7
			c-0.6,0-0.9-6.2-1.5-6.2s-0.4,4-1,4s-0.6-0.2-1.2-0.2c-0.6,0-0.6,0.2-1.1,0.2c-0.6,0-0.6-0.3-1.2-0.3c-0.6,0.1-0.6-1-1.2-1
			c-0.6,0.1-0.4,3.8-1,3.9c-0.6,0-0.6-2.5-1.2-2.5c-0.6,0-0.6,0-1.2,0.1c-0.6,0.1-0.6-0.9-1.2-0.8c-0.6,0.1-0.7-3-1.3-3
			s-0.5,1.5-1.1,1.6c-0.6,0-0.4,4.3-1,4.4c-0.6,0-0.8-3.7-1.3-3.6c-0.6,0-0.5,2-1.1,2c-0.6,0-0.7-3.7-1.3-3.7s-0.5,0.8-1.1,0.9
			c-0.6,0.1-0.5,0.9-1.1,0.9c-0.6,0-0.5,2.1-1.1,2.1c-0.6,0-0.8-3.2-1.3-3.2c-0.6,0-0.4,4.3-1,4.3s-0.8-4.4-1.4-4.3
			c-0.6,0-0.5,1-1.1,1.1c-0.6,0-0.6,0.3-1.1,0.3s-0.6-1.1-1.2-1.1s-0.4,4.4-1,4.5c-0.6,0-0.6-1-1.2-1c-0.6,0-0.6,0.8-1.1,0.8
			c-0.5,0-0.8-3.8-1.4-3.8c-0.6,0-0.5,1.6-1.1,1.6c-0.6,0-0.5,1.8-1.1,1.9c-0.6,0-0.7-2.5-1.3-2.5s-0.5,1-1.1,1s-0.7-2-1.3-2
			s-0.4,3-1,3c-0.6,0-0.5,1.3-1.1,1.3s-0.6,0.2-1.1,0.3c-0.6,0-0.6-0.9-1.2-0.9s-0.8-3.7-1.3-3.7s-0.6,0.3-1.2,0.3c-0.6,0-0.3,5-1,5
			c-0.6,0-0.7-3.2-1.3-3.2s-0.6-0.9-1.2-0.9c-0.6,0.1-0.6-0.7-1.2-0.7c-0.6,0-0.6,0.5-1.1,0.5c-0.6,0-0.4,4.4-1,4.4
			c-0.6,0-0.9-5.5-1.4-5.5c-0.6,0-0.3,5.5-0.9,5.5s-0.8-3.5-1.3-3.5c-0.5,0-0.4,2.9-1,2.9s-0.6-1.1-1.2-1.1l-1.2,0.1
			c-0.6,0-0.7-1.5-1.2-1.5c-0.5,0-0.7-1.9-1.3-1.9s-0.5,2-1.1,2c-0.6,0-0.7-2.1-1.3-2.1s-0.6,0.1-1.2,0.1c-0.6,0-0.5,1.1-1.1,1.1
			c-0.6,0-0.4,4.2-1,4.2c-0.6,0-0.8-5.2-1.4-5.2s-0.4,4.1-1,4.1s-0.8-3.8-1.4-3.8c-0.6,0-0.5,2.1-1.1,2.1c-0.6,0-0.5,0.6-1.1,0.6
			c-0.6,0-0.6-1-1.2-1s-0.4,2.6-1,2.6s-0.6-0.2-1.2-0.2c-0.6,0-0.7-2.5-1.3-2.5c-0.6,0-0.6-0.7-1.2-0.7c-0.6,0-0.5,1.9-1.1,1.9
			c-0.6,0-0.7-2-1.3-2s-0.5,1.1-1.1,1.1s-0.7-1.4-1.2-1.4c-0.6,0-0.5,1.4-1.1,1.4c-0.6,0-0.5,0.9-1.1,1s-0.5,0.9-1.1,0.9
			s-0.6,0.5-1.1,0.5c-0.6,0-0.6,0-1.2,0c-0.6,0-0.6,0.4-1.1,0.4c-0.6,0-0.5,1.5-1.1,1.5s-0.6-0.7-1.2-0.6c-0.6,0.1-0.6-0.7-1.2-0.7
			c-0.6,0-0.6,0.6-1.1,0.6c-0.6,0-0.6-0.2-1.2-0.2c-0.6,0-0.8-4.5-1.4-4.5c-0.6,0-0.3,4.9-1,4.9c-0.6,0-0.6-0.3-1.2-0.3
			c-0.6,0-0.8-3.7-1.4-3.7c-0.6,0-0.6,0.6-1.1,0.7c-0.6,0-0.5,1.2-1.1,1.2s-0.7-2.2-1.3-2.2c-0.6,0-0.3,5.6-0.9,5.7
			c-0.6,0-0.6-0.1-1.2-0.1s-0.7-2.8-1.3-2.8c-0.6,0-0.7-1.5-1.2-1.4c-0.6,0-0.4,3.4-1,3.5c-0.6,0-0.6-1-1.2-1s-0.6,0.7-1.1,0.7
			c-0.6,0-0.8-3.3-1.3-3.3c-0.6,0-0.6-1.3-1.2-1.2c-0.6,0-0.5,0.8-1.1,0.8s-0.4,3.4-1,3.4s-0.8-3.4-1.3-3.4c-0.6,0-0.4,3-1,3.1
			s-0.6,0.6-1.1,0.6c-0.6,0-0.5,1.5-1.1,1.5s-0.8-4.2-1.4-4.2c-0.6,0-0.6,0.6-1.1,0.7c-0.6,0-0.6-0.2-1.2-0.2s-0.5,0.8-1.1,0.8
			s-0.7-2.3-1.3-2.3s-0.5,1-1.1,1s-0.3,4.6-1,4.6c-0.6,0-0.7-3-1.3-3c-0.6,0-0.6,0.3-1.1,0.4c-0.6,0-0.5,0.8-1.1,0.9
			c-0.6,0-0.5,2-1.1,2S94,35,93.4,35s-0.5,0.8-1.1,0.8s-0.6,0-1.2,0s-0.7-2.6-1.3-2.6c-0.6,0-0.4,3.9-1,4c-0.6,0.1-0.6-1.5-1.2-1.4
			c-0.6,0-0.7-3.2-1.3-3.2s-0.5,1.4-1.1,1.4S84.7,35,84.1,35c-0.6,0-0.5,0.6-1.1,0.7c-0.6,0-0.7-2.1-1.3-2c-0.6,0-0.6-0.1-1.2-0.1
			s-0.4,3.4-1,3.5c-0.6,0-0.6-0.9-1.2-0.9c-0.6,0-0.7-2-1.3-1.9c-0.6,0-0.5,1-1.1,1c-0.6,0.1-0.5,2.3-1.1,2.3
			c-0.6,0-0.7-1.6-1.2-1.5c-0.6,0-0.7-1.4-1.2-1.4c-0.6,0-0.4,4-1,4s-0.9-5.5-1.4-5.5c-0.6,0-0.5,2-1.1,2c-0.4,0-0.3,1.9-0.9,1.9
			c-0.6,0-0.6-0.5-1.2-0.4c-0.6,0-0.5,1.2-1.1,1.2s-0.8-4.4-1.4-4.3c-0.6,0.1-0.4,3.5-1,3.6c-0.6,0-0.6,0.5-1.1,0.5
			c-0.6,0-0.6-1.4-1.2-1.4c-0.6,0-0.7-3-1.3-3c-0.6,0-0.4,3.7-1,3.7c-0.6,0-0.7-1.9-1.3-1.9c-0.6,0-0.7-1.8-1.3-1.7
			c-0.6,0.1-0.3,4.7-1,4.7c-0.6,0-0.8-4.2-1.4-4.2s-0.3,5.5-0.8,5.6c-0.5,0.1-0.7-1.8-1.3-1.7c-0.6,0-0.7-1.5-1.2-1.5
			c-0.6,0-0.7-1.6-1.2-1.6c-0.6,0-0.6-0.6-1.2-0.6c-0.6,0-0.6,0.4-1.1,0.5c-0.5,0.1-0.4,4.5-1,4.6c-0.6,0-0.7-2.3-1.3-2.3
			c-0.6,0-0.6-1.2-1.2-1.1c-0.6,0-0.6-1.2-1.2-1.2c-0.6,0-0.3,5.5-0.9,5.5s-0.7-2.7-1.3-2.6c-0.6,0.1-0.5,2.2-1.1,2.2
			c-0.6,0-0.6-0.4-1.2-0.3c-0.6,0-0.8-4-1.4-3.9c-0.6,0.1-0.5,2-1.1,2c-0.6,0-0.5,1.2-1.1,1.2s-0.6-0.8-1.2-0.8s-0.7-1.7-1.3-1.6
			c-0.6,0-0.4,4-1,4c-0.6,0-0.6-0.1-1.2,0c-0.6,0.1-0.7-1.9-1.3-1.9c-0.6,0-0.8-3.8-1.4-3.8c-0.6,0-0.4,4.6-1,4.6s-0.6,0-1.2,0
			c-0.6,0-0.8-3.4-1.3-3.4c-0.5,0-0.5,1.3-1.1,1.4c-0.6,0-0.6-1.3-1.2-1.2c-0.6,0-0.5,1.4-1.1,1.5c-0.6,0-0.6-0.5-1.2-0.4
			c-0.6,0-0.4,3.7-1,3.7c-0.6,0-0.6-0.3-1.2-0.3c-0.6,0-0.5,0.9-1.1,1c-0.6,0.1-0.8-5.4-1.4-5.4c-0.6,0-0.5,1.7-1.1,1.8
			c-0.6,0-0.7-2-1.3-1.9c-0.6,0-0.4,3.7-1,3.7s-0.8-3.8-1.4-3.7c-0.6,0-0.3,5.5-0.9,5.5c-0.6,0-0.6-0.5-1.2-0.4
			c-0.6,0-0.6-1.2-1.2-1.2S5,36.3,4.4,36.3s-0.6,0.5-1.1,0.5s-0.5,0.8-1.1,0.8c-0.6,0-0.6-0.9-1.2-0.9C0.3,36.7,0.6,42,0,42l0,0
			v68.8L841.9,110.5z"/>
	</g>
</g>
</svg>
