<svg xmlns="http://www.w3.org/2000/svg" viewBox="0 0 841.89 120"><defs><style>.cls-1{fill:#ffeddf;}</style></defs><title>tipo2</title><g id="Livello_2" data-name="Livello 2"><g id="Livello_1-2" data-name="Livello 1"><path class="cls-1" d="M839.92,12.81c.35.43-.27,1.35.23,2-1.35-1.7-2.59.91-3.85-.68-3.9-4.92-2.17-1.47,1,2.55-.92-1.16.58,4.69-3.62-.62-.83-1.05,2,4.69-.42,1.62-.32-.42,1.82,5.18-1.77.64,1.43,1.8.14,2,.43,2.35,2.12,2.68-2.53-.07-2.26.28s-.78,1.32-.37,1.84c.23.28.32,4.27-4.34-1.62,2.79,3.54-2.6-.6-1.42.9-4.32-5.46-1.58.49-.65,1.67-.57-.72-1.38,1.25-2.68-.39-1.43-1.81-4.44-3.13.6,3.24-.29-.36-2.41-.1-3.47-1.43-3.17-4,0,2.91-.38,2.45,1.83,2.31-2.56-.66-3-1.2,2.32,2.93-2.27,0-1.55.91-1.39-1.76,1.43,5.05-1.32,1.58.49.62-1.53.32-2.38-.76-5.34-6.74-1.36,1.69-1.88,1-2.81-3.55-3.3-2.75-1.92-1s-1,2-2.12.55c.88,1.12-2.33,1.13-2.44,1-.75-1-.76-.54-1.5-1.47,1.68,2.12-2.74-.44-2.21.24A10.23,10.23,0,0,1,794.93,25c-.32.05-.33.65-.68.22-2.41-3-3.33,1.57-3.15,1.79-.61-.77-2.29-.48-2-.17-.63-.8-1-1.24-1.16-1.48,0,.22-.16,1.41-1.76-.61.25.31.3,1.28-1.49-1,1.61,2-.86,1.19-1.91.5.44.65.51.82-.38-.31a1.66,1.66,0,0,0,.38.31c-.34-.48-.89-1.22-1.41-1.89,1,1.25-1.85-1.66-1.38-1.07,1.28,1.62-1.28.09-2.33-.22.39.85.65,1.56-.12.59-.5-.64-.33-.72.12-.59-.36-.78-.81-1.67-.7-1.52-1.35-1.71-3.9,0-4,1.43.1.39.18.68.19.69a1,1,0,0,1-.19-.69,5.64,5.64,0,0,1-.3-2.31,3.24,3.24,0,0,0-1.94.35c.33.76-.12.83-.82.5-.45.37-.68.8-.4,1.15a17.23,17.23,0,0,1-2.15-3.19c-1.16-.68-7-3.88-3.11,1.1,1.14.66,1.91.72.49-1.28l0-.06-.18-.24c-.13-.18-.27-.37-.44-.58.17.21.31.4.44.58l.18.24,0,.06c2.13,3-.09,1.79-.36,1.45l-.13-.17a10.94,10.94,0,0,1-2.53-2c-.33-.41-2.57-3.11-1.14-1.31,2.7,3.41-4.94-5.75-1.28-1.14,1.31,1.65-7.87-7.3-2.16-.08.54.68,1.86,2.6-1.19-1.25-1.51-1.91,1.37,3.15-1.66-.67,2.17,2.73-1.47,2.59-2.92.76,3.06,3.87,4.07,7.72-2.15-.13,0-.06-1.07-1.26-1.11-1.32-1.7-2.14-.57,2.32-2.34.09.18.22-.62-3.44,0-2.61-2.06-2.61-3.71-1.64-2.34.08,1.51,1.91-3.54-.86-2.58.34-2.47-3.12-2.36-1.74-1.59-.77,3.58,4.52,2.16,6.12-2.5.24-.63-.8,1.68-2.68,1-3.57-1.51-1.92-2.6,1.16-3,.72s1.78,4.15-1.86-.46c-.24-.3-.48-.74-1-1.4,1.12,1.42.63,5.26-3,.72-6.75-8.52,6,4.94.08-2.56-2.41-3,0,.34-1.2-1.18-3.1-3.92-.67,4.45-4.15,0,3.38,4.27,1.55,5-2.06.43,1.52,1.91,4.84,8.26-.39,1.66,1,1.29-2,.58-2.31.18,2.26,2.86-1.82.49-1.7.64C714.16.19,712.77.77,716.88,6c.51.64-.29,2.13-.31,2.1s-5.39-3.43-4.17-1.9c1,1.28-3.28-1.4-1.56.76.12.16-.84,1.69-.28,2.4-.56-.72-5.11-3.64-2.46-.3,2,2.53-2.28-.07-1.86.45-.78-1-.06,2.61-2.16,0,.48.62-3-.35-.34,3-1-1.29-1.44,1-2.12.11,2.77,3.51-2.47-.11-1.76.79.32.4-1.24.66-2.59-1.05-3-3.78-6.16-5-1.93.3,1,1.25-1.09,2-1.53,1.46,2.35,3-2-.06-2.1-.12,1.77,2.24,1.28,4.74-1.82.82s-2.73-.09-1.83,1c-1.6-2-2.22-.11-2.06.09-.44-.56-1.52-.65-2.27-1.6-.08-.1-1.71,0-2-.45s.18,2.45-2-.26c.72.91-.82,2.78-1.94,1.37-.66-.83-4.46-2.56-2,.52-.57-.71-2.83-.63-2,.36-3.9-4.92-.63,1.6-2-.16s-3-1-2.07.14c-.46-.58-.54.14-1.76-1.4-.09-.11-2.44-1-1.92-.37l-1.46-1.82c-.3-.38-4.06-1.3-2.29.94-.08-.1-6.38-4.62-3.54-.42,0-.35-.11-.61-.09-.58,1.66,2.1,1.41,2.33,1.18,2-.46-.58-.81-1.07-1.09-1.47.17,1,.27,2.88-2.07,0l-.23-.27.23.27c.91,1.08,1,.7-1.26-2.2,3.22,4.06-2.57,1.21-3.59,1.53.43.82.78,1.55.15.76-.37-.48-.37-.69-.15-.76-.41-.78-.88-1.63-.66-1.36-2-2.51-1.65.16-2-.25-1.21-1.53-2.79-1.15-2-.14A2.68,2.68,0,0,0,645,9.4c0,1-.18,2-.5,1.57-.8-1-.3-1.52.5-1.57a7,7,0,0,0-.08-1.61c.08.11-4.2-3.67-1.71-.53-1.85-2.33-.15,3.19-2.41.35-.08-.11-.59-.84-1-1.52-.71,0-2.81-.56-2.21.2-5.13-6.49-3.48,1.07-3,1.62,1.47,1.86-.77-.77-1.18-1.29S630.43,3.3,632,5.26c.87,1.1-1.94-1.53-1.6-1.1-.81-1-4.32-.09-2.47,2.24.08.11-3-3.62-1.69-2-.94-1.19-2,.7-2.05.7-2.58-3.26-1.48,1-1.95.38-1.27-1.61-2.21-.75-2.15-.68,2.24,2.83-1.49,2.07-1.44,2.14,1.13,1.42-.49,1.81-2-.14-1-1.22-4.16-2.48-1.88.4.28.35-2.49-1.31-2.88-1.79,2.08,2.62-3.89-1.68-1.53,1.3,4.33,5.47-2.13.28-1.77.74,3,3.79-1.26.65-2.68-1.13-.34-.43-1.31,1.87-.86,2.45,2.42,3.05-2.55-.69-2.12-.14-.89-1.12.67,3.52-2,.21-4.85-6.13-.66,1.39-2.41-.81,1.76,2.22-.86,2.34-1.14,2-1-1.3-1.87-.36-2.58-1.25.16.2-2.94,0-1,2.47s-3.42-1.39-1.72.76c-2.07-2.62-1.21-.15-3-2.46s-2.13.5-1.48,1.32c0,0-2.1,1.33-.93,2.8-1.39-1.76-3.51-2.21-2.29-.67,1.34,1.69-1.66,1.14-1.54,1.28.92,1.17-1.47-.1-2.56-1.48-2.87-3.63-.4,2.13-1.94.17,1.16,1.47-3.74-2.8-2.38-1.08-.44-.57-1.2,2.56-1.08,2.71-.45-.58-3.15-2.62-2.64-2-.5-.63-4.72-2.69-1.59,1.26-1.57-2-.74,2.51-1.52,1.53-2.15-2.72-.46,2.82-1.57,1.41.44.56-1.49-.21-2.4-1.36-2.78-3.5-2.91-.46-1.68,1.1-.44-.55-4.74-4.87-2.57-2.13-.26-.32-3,.47-1.25,2.74,1.17,1.48-3.2-2-2.16-.69.2.26-1.12,2-1.66,1.32-.4-.51-2.46-2.54-2.64-2.78-.68-.86-2.38,0-1.81.66-.13-.16-2.16,1.93-1.3,3,2.7,3.41-2.53-1.15-2.12-.64-1.17-1.48-1.26.11-2.18-1.05-1.68-2.12-1.41,2-1.62,1.76-.95-1.19-.42,1.89-2-.1.2.24-3.76-3.41-2.22-1.46,1.78,2.25.15,2.9-1.91.3.53.66-1.86,1.52-1.67,1.76.61.77-3.13-1.62-2-.18-.13-.17-1.73.51-1.93.26,1.88,2.37-1.6.72-1.92.32-1.31-1.66-2.54-.12-1.87.72,1.64,2.07,1.27,2.48-2.19-1.89,2.63,3.31-2.94-1-1.92.25-1-1.23-2.08,1.4-1.77,1.79,1,1.28-2.11.05-1.93.27-.41-.51-.75.7-2-.93-.37-.47-3.84-2.2-1.94.2-1.48-1.87-3.78-3.15-2-.9-.1-.12-3.51-1.18-1.88.88-1.85-2.33-1.87-1.25-2-1.44,3.21,4.06-.36,4.5-1.77,2.72,1.77,2.23-3-3.34-2.08-2.22-.9-1.14-4.05-2.64-1.94,0-.56-.71-1.16,1.18-1.93.2,1.59,2,.92,4.36-1.87.82-4.29-5.41-3.55-2.94-2.06-1.06.69.87-.89,3.15-1.7,2.13-.68-.85.54,2-2.14-1.39,0,0-4.26-1-1.56,2.4.51.65-1.56-.92-2.28-1.83-.85-1.08-2,1-1.65,1.43-.7-.88-3.42-1.3-1.73.83-.31-.39-5.29-4.58-2.1-.55-1.86-2.36-3.78-1.62-1.59,1.13-2.31-2.9-1.75,0-2.28-.67,1.18,1.49-1.63,1.25-1.49,1.42-1.79-2.25-3.85-3-2.78-1.62.21.26-1.79.56-2,.31.15.19-1.11,2.1-1,2.26-.87-1.09-4.31-2.76-2.09.05-.08-.1.3,2.95-2.44-.51-.57-.73-3.66-1.57-1.42,1.25-.36-.45-.19,2.9-1,1.87.33.41-3.63-2.06-2.89-1.12-.09-.11-.33,2.3-2.58-.55-1.54-1.94-3.12-1-1.49,1.08,1.89,2.39-2.62-.42-1.79.64-1.13-1.43-.64,2-2.27,0-.36-.46-1.52,1-1.75.69s.76,3.94-.76,2c1.33,1.68-3.32-1.42-3.16-1.23,1.34,1.7,1.48,4.84-.68,2.11,0,0-.9,1.8-.91,1.79,1.24,1.57-1.16,1.41-1.93.44-.12-.15-2,.23-2.71-.62-1.21-1.52-.1,2.85-.74,2,.16.21-4.13-2.38-2.36-.15,2,2.49-2.47-.36-2.24-.07-.7-.88-1.65.85-1.07,1.57-.44-.55-1.24,1.37-1.25,1.36,2.26,2.85-4.88-3.74-3.69-2.23-.71-.9-2.52-.19-.95,1.78-.3-.37-1.76.74-1.22,1.43,1.17,1.47-4.77-3.46-2.71-.86.73.91-.22,2.73-1.11,1.61,0,0-2.78-.76-2,.24-.91-1.15-1.22,1.41-1.43,1.14-.53-.66-3.73-2.42-3.15-1.68-.94-1.19-1.8.43-2,.23,1.53,1.94-.19,2.89-1.08,1.76.14.18-1.49,1.14-1.36,1.3-.08-.09-2.68-.31-1.35,1.36,1.67,2.11-2-.34-3-1.68.32.42-.21,2.66-1.6.9-1.66-2.09.49,3.91-1.06,2-.25-.31-1.39,1-1.91.36,1.73,2.17-2.48-.39-1.93.3.67.85-3.42-1.37-1.68.84,2.8,3.53-1.42,1-1.9.36.92,1.17-3-2.07-3.15-2.25-.69-.87,1.26,4.66-1.51,1.16.82,1-2.84-.64-1.66.86.63.8-2.37-.79-2.45-.89s-1.51,1.88-.86,2.69c1.16,1.47-.81,1.1-2.49-1,.4.5-6.62-5.91-2.14-.25.64.8-2.9-.39-1.43,1.47-.08-.1-2.75-.91-2,0-1.08-1.37-3.23-1.82-2.24-.56-.05-.06-2.24-.06-1.85.43,1.53,1.93-.39,2.31-1.84.49.36.45-1.33,2.11-1.2,2.27-1.75-2.21-.31,1-2.72-2-1.3-1.64-1.77.7-1.77.69-.36-.45-2.14.53-1.61,1.19-2.77-3.49-4.17-3-2.16-.46.43.54-1.16.7-2.18-.58,2.11,2.65.31,1.55.55,3-.61.4-.73,1.41-1.5.43-4.29-5.41-4.58-3.68-2.23-.72-.72-.91-4.34-2.71-1.89.38,2.25,2.84-2.66-1.78-2.39-1.44-2.73-3.44-2.87-1.41-2.1-.43,1.54,1.94-2.26.34-1.72,1-2.14-2.71-1.28,2.23-1.51,1.94,2,2.5-2.16-.34-2-.17-1-1.28-3.72-2.28-2-.14.7.89-1.39.74-2,0-1-1.22-2,.13-1.94.16-2.45-3.09-2.48.71-1.64,1.76-2.57-3.23-.09.63-2.41-2.3,3,3.73-1,.94-2-.33,2.88,3.64-1.6.79-1.88.43,2.51,3.17-3.59-1.91-1.94.17,2.68,3.38,2,7.66-1.48,3.25.43.54.32.77-2.34-2.58-.51-.64,1.64,6.13-1.72,1.89-3.17-4-.28,2.15-2,0-2.51-3.18,0,.57-2.23-2.21-2.92-3.7-6.31-4.53-1.85,1.1.11.14-.17,2.84-1.91.64,1.73,2.19-5.21-3.79-1.95.32-1.39-1.75,0,3.55-1.87,1.15.66.83,1.27,4.18-2,.08.21.26-1.91.07-2,0,2.5,3.16-2-.73-2.06-.75-.93-1.18-3.14-.11-1.79,1.6,3.8,4.8-.09,1.83-2.05-.64,2,2.54.55,1.49.42,2.12-2.12-1.88-2.51-1.57-2.28-1.28.8,1-2.43-1.85-2.21-1.56,2.52,3.17-4-2.38-1.94.26-2.16-2.72-2.66.17-1.75,1.32,4,5-1.74.35-2,.07,2,2.51,1.28,3.84-2.07-.39,0,.06-2.75-3.13-2.42-2.38.1.47-.69-.19,0,.64.1.13,1.19,4.8-1.75,1.09,1.65,2.09-.44.45.6,2.77-.22.73-1.51.1-1.89-.37-1.86-2.35-1.23-.33-2.8-2.31-1.39-1.76-.36,2.9-1.56,1.39-2.37-3-3.31-1.94-2.39-.78-1.65-2.08-1.85,1-1.44,1.5-.23-.29,0,2.43-2.37-.53-.33-.41.32,3.62-1.32,1.55-1.1-1.38-3.33-1.59-2.47-.5.07.09-4.08-2.21-1.77.72,3.25,4.1-4.1-2.32-2.07.25.45.57-2.95-.72-1.21,1.48,3.71,4.68-4.73-3.11-2.16.13-2.48-3.13-.18,2.67-2.2.12.35.45,1.2,4.42-1.41,1.12,1.68,2.12,1.37,2.42,1.16,2.86.62,1.46-.13,1.21-1.46-.47-1.64-2.07-4.93-3.33-2.23.09-2-2.5-5.29-3.66-2.94-.7.31.39-.17,2.34.42,3.08,1.58,2-4.25-2.13-4.07-1.9-1.42-1.79-2.56-.6-.32,2.23.13.16-3.7-1.6-3-.67,1,1.25-1.11,1.41-1.4,1,2.09,2.64.42,3.09.19,2.79,1.83,2.32-3.26-1-3.17-.91.33.41-.79,1.91-2.17.16-.71-.89-1.78.55-1.11,1.38,2.25,2.84-2.55-.33-2.29,0-3.8-4.81-.21,2.56-1.47,1,.14.18,1.47,4.72-.81,1.85,1.27,1.6-2.44-.29-2.83-.77-.19-.25-.32,2.46-1.56.88s-.42,2.41-1.43,1.13c1,1.29-.72,2.11-1.19,1.52s-3.52-2-2.63-.82c-2.33-2.95-2.58-.81-2.39-.57.51.64.31,3.79-.84,2.34-1.5-1.89-5.37-4.91-2.95-1.84.42.52-.26,3.26-.93,2.41.48.61-1.21,1.82-1.39,1.59-1.27-1.6-2.06-.37-2.36-.76.89,1.12-3.13-2.18-2.51-1.4s-2,1.32-1.22,2.35c-2.59-3.27-1.66-.14-2.3-.94.58.73-2.78-.53-1.78.73,2.49,3.14-1.64,1.29-1.69,1.22.95,1.21-1.68.33-2-.1.37.46-.11,2.52-1.95.2.61.77-2.57-2.28-2.33-2-.24-.31-2.22.14-1.84.62-.14-.17-1,1.49-1.9.34.5.63-4.24-3.31-2-.49,1.48,1.87.28,3-1.92.17-.05-.06-3.39-1.69-1.92.17,2.69,3.39-3.49-1.22-1.89.81,2.72,3.42-1.68.15-1.95-.2.54.69-.72,1.84-1.93.31-1.57-2,0,3.75-1.92,1.33-1.2-1.51-2.65-2.39-2-1.55.53.67-1.38,1.77-1.95,1,1,1.29-2.8-.51-2.26.73.24.38.38.59.29.48a2.08,2.08,0,0,1-.29-.48c-.33-.49-.86-1.27-1.3-1.94,0,1-2.34,1.37-2.31,1.41-2-2.52.87,4.19-2,.6.51.63-2,.09-2,.16,1.13,1.43-1.37.3-1.94-.41,0,0-5.66-4.09-2,.54-.52-.66-3.24-1.27-2,.31-2.06-2.59,1.59,2.92-1.86-1.43,2.17,2.74-2.29-.17-2,.24.1.13.24,2.3-1.92-.43-.77-1-1.83,1-2,.8,1.23,1.55-1.57.81-2,.29-2-2.47-3.64-4.57-1.76-2.19-1.2-1.52-1.42-.17-1.93-.81.24.31-.26,1.85-2-.3-.22-.28.82,7.12-2.28,3.21-.26-.32-2.43-2-2.84-1.82l.86,1.2c0,.15,1,1.65,0,.42s-1.05-1.55-.86-1.62c-.49-.69-.91-1.28-1.15-1.64-.71-.43-1.94-.27-1.7,0-1.86-2.34-5.23-1.68-2.19,2.16,1,1.31-1.74-1.84-1.83-1.95-.51-.64-4.51-2.34-2.06.75.82,1-3.76-1.8-2,.37.89,1.12-3.11-.83-2,.52,2.47,3.12-6.57-7.1-1.89-1.2-2.25-2.84,1.13,3.83-2-.11-1.88-2.38-6-5.89-1.94-.74-1.33-1.68,1.09,5.5-2.12,1.45.14.17-.5,2-2,.06-1.74-2.2-2.45-.61-2.35.56.53.87.57,1.19.24.77a1.41,1.41,0,0,1-.24-.77,20.87,20.87,0,0,0-1.51-2.11c3.44,4.34-.94,2.77-2.11,1.29.24.3-1.37-.49-1.9-1.16,2.41,3-2.74-1.49-2-.49,1.24,1.57.56,6.1-2.23,2.58,1.48,1.87-1.58-.38-2.14-.45,1.63,2.13,2,2.75.15.45-.28-.36-.29-.47-.15-.45-.45-.6-1-1.3-1.63-2.1.49.62-2.19.89-2.09,1,.61.76.41,3.51-2,.42-1.34-1.68-4.31-2.92-2,0-.14-.18-1.44,1.31-2.05.54-.18-.23-2.12-1.55-1.89-1.25-1.33-1.69-2.66.75-2.14,1.49,0,.08.07.1,0,0a0,0,0,0,1,0,0l-1.32-1.75c2.26,3.21-2.75.33-2.53.62,1.54,1.94-4.33-5.28-1.77-2.06.78,1-1.67,2.9-2.21,2.22-1.35-1.71-1.8.52-2,.25-1.3-1.63.82,2.15-1.85-1.22,0,0-1.15,1-2-.06-2-2.55-3.09-.28-2.12,1,.6.76-2,.52-2.07.4,1.33,1.68-1.52-.14-1.9-.62,1.87,2.36-1-.3-1.77-1.23.56.71-1.35,2.75-2.32,1.53,1.11,1.39-.26.18-1.33-1.08.2.26.17.23-.35-.41l.35.41-1.81-2.35c1.17,1.58-1.81,2.53-2.49,1.67a19.49,19.49,0,0,0-1.5-1.68c.49.62-3.38.41-2.5,1.52-.25-.32-.67.16-1.66-1.08.93,1.17-.89-1-1.39-1.59-.87-1.11-.77.85-1.8-.46.1.13-2.83,2.47-3.06,2.19.75,1-1.82.8-2.25.25a4.22,4.22,0,0,1-1-2c-.12-.15-2.25-.52-2.9,0A6,6,0,0,1,50,78c-.42-.54-.39-.87-.13-1.06-.14-.81-.3-1.76-.26-1.71-1-1.29-3.27-1.63-2.07-.1-.2-.26-5-1.4-3,1.07-.08-.1-2.59-1.76-2.34-1a3.67,3.67,0,0,0,.37.58,2.26,2.26,0,0,1-.37-.58A2,2,0,0,1,42,73.91c-1.09.36-2.33.46-2.62.1-1.32-1.66-2.1-.94-1.82-.6,1,1.27-1.13.07-1.74-.69,1,1.22.36.81-.41.19.15.62-.1.68-1.34-.88-.54-.69.49.21,1.34.88a24.42,24.42,0,0,0-1.26-3c-.29-.37-1.33-3.18-.53-2.63-2.22-1.82-2.06,4.92-4.2,2.21-.95-1.19-1.58-2-2-2.63a5.58,5.58,0,0,1-1.25-.91c-.06,0-.36-.27-1-1.1a8.5,8.5,0,0,0,1,1.1,9.49,9.49,0,0,0-1.6-2.48c-.65-.82-2.6-1.56-1.88-.64C21.22,60.93,19,59,21.27,61.87c-1.58-2,0,.11-1-1.15a4.68,4.68,0,0,0-.95-.89,2,2,0,0,1-1.61.35l.1.15c.61.77.14.32-.46-.26a2.22,2.22,0,0,1-.92-.7c-.79-1,.17,0,.92.7a1.65,1.65,0,0,0,.36.11c-.93-1.28.38-1.22,1.61-.35a2.24,2.24,0,0,0,.52-3.11c.44.87-1.36-.07-2.2-1.12s-4.18-1.6-3-.17c-2-2.48-2.2-1.78-1.75-1,0,.06.09.13.14.2s-.09-.14-.14-.2a1.92,1.92,0,0,1-.4-1.28,3.46,3.46,0,0,1-1.12-.91l-.81-.89c-.11.09-.23.07-.39-.14-1.23-1.55-.38-.67.39.14.28-.24.39-1.43.62-2.22-1.17.25-3,.47-3.49.18,0,0-.06,0-.11-.07a.23.23,0,0,0,.11.07c.13,0,0-.71,0-1.34A6.35,6.35,0,0,1,7,47.7c-.16.49-.58.52-1.54-.69A13.8,13.8,0,0,0,7,47.7,6.12,6.12,0,0,0,6.72,45c.56.71-4.66-2.51-2.92-.3-1.9-2.4-.7-2.1-.14-1.75-.82-.82-3.06-3.17-1.16-.77-4.34-5.48-1.25-.94-1.29-1,.2.25-.49-.15-1.21-.52v.59c.24.56.33.93,0,.67V120H841.89V13.31A6.59,6.59,0,0,1,839.92,12.81Z"/></g></g></svg>