<svg xmlns="http://www.w3.org/2000/svg" viewBox="0 0 841.89 168.76"><defs><style>.cls-1{fill:#ffeddf;}</style></defs><title>tipo1</title><g id="Livello_2" data-name="Livello 2"><g id="Livello_1-2" data-name="Livello 1"><path class="cls-1" d="M0,0V102.19c.72.56,1.41,1.15,1.21.78,0,.07-3-6.67,1.29,1.47-1.9-3.56.34-.08,1.16,1.14a1.26,1.26,0,0,1,.23.26c.13.26,0,.09-.23-.26-.56-.52-1.76-1,.14,2.6-1.74-3.28,3.48,1.49,2.92.44a13.28,13.28,0,0,1,.3,4.09,5.69,5.69,0,0,0,.65.33c-.06-1.1,0-2,.61-.84s.11,1.16-.61.84a6.88,6.88,0,0,1,0,2c.52.42,2.32.09,3.49-.27.19-1,.47-1.53,1-.5.06.1-.39.31-1,.5a18.55,18.55,0,0,1-.62,3.3c.44.7.85,1.37.81,1.31a4.08,4.08,0,0,0,1.12,1.34c.11-1.63,1.52-2.33,2.14-1.16.72,1.34-.74,2.19-2.14,1.16a3.91,3.91,0,0,0,.4,1.91c-.45-1.09-.21-2.13,1.75,1.55-1.14-2.14,2.18-1.38,3,.24s2.64,3,2.2,1.66a4.82,4.82,0,0,0-.3-.66,4.72,4.72,0,0,1,.3.66,4.44,4.44,0,0,1-.52,4.63,5.9,5.9,0,0,1,.95,1.31c1,1.87-.62-1.25,1,1.72-2.27-4.27-.05-1.41,1.42,1.35-.72-1.36,1.23-.26,1.88,1a16.37,16.37,0,0,1,1.6,3.68,6.21,6.21,0,0,0,1.25,1.35c-.85-1.88-.47-1.63.69.39l.05,0c-.94-1.83-2.22-4.29-.26-.61a6.81,6.81,0,0,0,.39.64.77.77,0,0,0,.4,0c.09-1-.77-4.61-.3-3.73,1.11,2.09,1,3.5.3,3.73,0,.3-.14.36-.4,0l-.13,0c.54,1,1,1.86.64,1.25s-.48-.9-.69-1.27a2.24,2.24,0,0,1-.69-.39c.39.86,1,2.14,2,3.91,2.14,4,2-6,4.2-3.29a4.3,4.3,0,0,1,.6.92,6.13,6.13,0,0,0-.6-.92c-.8-.82.24,3.36.53,3.91,0-.06,1,3.13,1.26,4.5.77.92,1.39,1.54.41-.28.61,1.13,2.74,2.91,1.74,1-.28-.51.5-1.58,1.82.89.29.54,1.53.39,2.62-.15a5.38,5.38,0,0,1,1.54-2.81c.62,1.17-.37,2.22-1.54,2.81a4.16,4.16,0,0,0,.22,1.85c-.25-1.11,2.26,1.36,2.34,1.51-2-3.68,2.82-2,3-1.6-1.2-2.26,1.05-1.76,2.07.15,0-.07.12,1.35.26,2.54.65-.74,2.78-.18,2.9,0a8,8,0,0,0,1,3c.43.81,3,1,2.25-.36.23.42,3.16-3.06,3.06-3.25,1,1.93.93-1,1.8.67.5.94,2.32,4.1,1.39,2.37,1,1.84,1.41,1.13,1.66,1.59-.88-1.63,3-1.32,2.5-2.25a27.9,27.9,0,0,1,1.5,2.5c.68,1.27,3.66-.14,2.49-2.48-.13-.24-.16-.31,0-.07l0,.07,1.81,3.49c1.07,1.87,2.44,3.67,1.33,1.6,1,1.81,2.88-1.22,2.32-2.27.74,1.38,3.64,5.32,1.77,1.82.38.72,3.23,3.42,1.9.93.1.18,2.67.52,2.07-.61-1-1.81.1-5.18,2.12-1.4.82,1.55,1.94,0,2,.09,2.67,5,.55-.61,1.85,1.82.21.39.66-2.92,2-.39.54,1,3-1.8,2.21-3.28-2.56-4.79,3.31,5.93,1.77,3-.22-.43,4.79,3.85,2.53-.92l-.44-.87.44.87,1.32,2.6c-.52-1.1.81-4.72,2.14-2.22-.23-.43,1.71,1.53,1.89,1.86.61,1.14,1.91-1.06,2.05-.8-2.31-4.33.66-2.5,2,0,2.44,4.57,2.64.5,2-.63-.1-.2,2.58-.59,2.09-1.51.63,1.18,1.18,2.22,1.63,3.1.56.11,3.62,3.45,2.14.68,2.79,5.22,3.47-1.51,2.23-3.83-.79-1.48,4.36,5.24,2,.72.53,1,2.14,2.18,1.9,1.72,1.17,2.2,5.55,4.54,2.11-1.91.7,1.3,1.19,2.37,1.51,3.14-.1-1.74.61-4.1,2.35-.84,1.51,2.82,2.15.17,2-.09,3.21,6,.79-4.65,2.12-2.15-4.07-7.64.06-2.43,1.94,1.1,3.12,5.85-.26-4,2,.16-4.68-8.76,4.36,6.42,1.89,1.79-1.07-2,2.93.88,2-.77-1.72-3.23,2.86,1,2-.56-2.45-4.58,1.55-2.06,2.06-1.11.09.17,2.87,4.84,1.83,2.89-3-5.7.33-6.68,2.19-3.21-.24-.45,1-.69,1.7,0-.34-.74-.34-.81.28.35a1.66,1.66,0,0,0-.28-.35c.24.53.66,1.41,1.15,2.43.41-.24,2.58,2.22,2.84,2.7,3.1,5.81,2.06-5.18,2.28-4.76,1.71,3.2,2.21.9,2,.45.51.95.73-1.06,1.93,1.2-1.88-3.53-.2-.42,1.76,3.25.41.77,3.21,1.87,2-.44.2.37,1.26-2.62,2-1.18,2.16,4.06,2,.82,1.92.64-.32-.61,4.14,3.71,2-.36,3.45,6.46-.2-1.72,1.86,2.13-1.26-2.36,1.46-1.44,2-.46-3.67-6.88,2-.79,2-.81.57,1.06,3.07,2.74,1.94.61-.06-.11,2.48.7,2-.24,2.85,5.33,0-4.63,2-.88,0-.07,2.27-.54,2.31-2.1-.74-1.66-1.25-2.9-.3-1.11a2.16,2.16,0,0,1,.3,1.11c.44,1,1,2.15,1.3,2.89-.54-1.85,3.28.81,2.26-1.09.57,1.06,2.48-.57,1.95-1.56-.67-1.26.78.05,2,2.3,1.91,3.58.35-4.91,1.92-2,1.21,2.27,2.47.56,1.93-.46.27.52,4.67,5.37,1.95.28-1.6-3,4.58,3.84,1.89-1.19-1.47-2.76,1.87-.35,1.92-.25,2.2,4.12,3.4,2.52,1.92-.25-2.24-4.19,2.5,1.66,2,.72.91,1.71,1.76-.76,1.9-.5-.38-.71,1.6-1.38,1.84-.92-.24-.45,2.94,4.08,2.33,2.94,1.84,3.44,2.32.38,1.95-.3.35.64,3,1.94,2,.15.05.09,4.18,2.85,1.69-1.82-1-1.87,2.36,0,1.78-1.07.64,1.18-.29-3.46,2.3,1.39-.82-1.53,1.8-2.39,1.22-3.49s3.4,3.74,2.51,2.08c.3.57,1.09-1.25,2.36,1.13.18.33,1.87-1.46,1.39-2.37.67,1.26,1.35-2.79.93-3.58-2.42-4.54,1.45-.07,2.95,2.74,1.15,2.15,1.35-2.52.84-3.47-.19-.36.06-3.53,2.39.84-.89-1.68,2.25.52,2.63,1.22.47.88,2.21-.35,1.19-2.26,1,1.91.2-4,1.43-1.67s1.37-1.68,1.56-1.31c.39.72,4.1,3.53,2.83,1.14,2.28,4.27.95-2.48.81-2.74,1.26,2.37-2.33-8.58,1.47-1.44-.26-.5,4.54,4.2,2.29,0-.67-1.24.4-3.38,1.11-2.05,1.38,2.59,2.5.37,2.17-.25-.09-.16,5,4.8,3.17,1.36.23.44,1.9-.23-.19-4.15.29.56,2.39.32,1.4-1.53-.74-1.39,3.09,1.22,3,1-2.24-4.2-1.1-6,.32-3.31-.18-.33,5.65,5.79,4.07,2.82-.59-1.09-.11-4-.42-4.57-2.35-4.39,1-2.67,2.94,1-2.7-5.06.59-3.19,2.23-.13,1.33,2.5,2.08,2.87,1.46.7.21-.65.52-1.09-1.16-4.25,2.61,4.9,1.76-1,1.41-1.65,2,3.79-.28-4.82,2.2-.18-2.57-4.81,5.87,6.75,2.16-.2-1.74-3.26,1.66-1.34,1.21-2.19-2-3.81,5.32,5.72,2.07-.38-2.31-4.34,1.84-.93,1.77-1.06-.86-1.62,1.37-1.31,2.47.74,1.64,3.07,1-2.91,1.32-2.3,2.34,4.39,2.14.36,2.37.78-.41-.77-.21-5.31,1.44-2.23-.92-1.72,0-3.29,2.39,1.16,1.2,2.25.17-4.66,1.56-2.05,1.57,2.93.94-.06,2.8,3.42.38.71,1.67,1.63,1.89.55-1-3.45,1.05-1-.6-4.1,2.94,5.5,1.85-1.43,1.75-1.63-.66-1.23.13-.25,0-1-.33-1.11,2.47,3.63,2.42,3.53,3.35,6.28,4.06,4.31,2.07.59.22.41,5.94,7.35,2-.11-.91-1.71-.41-6,1.75-2-2.09-3.92,4.46,4.31,1.94-.4-.22-.43,3,3.81,2.21,2.32-.23-.43.16-.89,2.28,1.9.13-.94,1.59.62-.42-3.15,2,3.67,5.85,8.08,2.05,1-1.35-2.54.86-4.13,1.79-2.38,0,0,4.56,5.81,2.06,1.11.06.12,2.18.4,2,0,3.24,6.08,2.63,1.11,2-.12,1.91,3.56.48-4.31,1.87-1.71-3.26-6.1,3.68,2.77,1.95-.47,1.74,3.27,2-.75,1.91-.95-4.46-8.35-1.07-7.12,1.85-1.63,2.21,4.12-.28-1.44,2.23,3.27,1.69,3.17-1.2-6,2,0,3.36,6.3,1.21-3.75,1.72-2.8,2.66,5,2.77,4.63,2.34,3.83,3.49,6.54,4.16.2,1.48-4.83-1.65-3.08,4.45,4.46,1.94-.24.28.53,4.76,4.76,1.88-.64,1,1.88,5,6,2,.49,2.32,4.35-.16-1.39,2.41,3.42-.84-1.57-.81-7.21,1.64-2.62,0-.05,1-2.05,1.94-.24.6,1.13,2.69,1.34,2,0-1.7-3.17,1-1.69,2,.2-.13-.24,4,4,2,.26.23.43-.63-6.9,1.51-2.89-.54-1,3.26,1.36,1.72-1.52-.77-1.45-.63-4.47,2.1.64-.27-.51,4.64,6.36,2.39,2.14-2.45-4.59,1.17-1.91,1.89-.57-2.35-4.4-2.06-7,2.23,1.08.77,1.45.89-.06,1.5-.64-.24-2.18,1.56-.55-.55-4.49,1,1.89,2.61,1.66,2.18.86-2-3.77-.61-4.5,2.16.69-.53-1,1.25-2.44,1.61-1.77,0,0,.47-3.47,1.77-1,2.41,4.52,1-.3,2.72,3-.13-.24,1.56-2.7,1.2-3.37,1.45,2.7,3.37,2.13,1.84-.73-.39-.72,1.8-.73,1.85-.63-1-1.87,1.16-1.22,2.24.82-.71-1.35,2-.15,2,0-1.47-2.76,2.07-1,1.43-2.18-4.48-8.4,2.54,1.11,2.14.38,1.68,3.14,3.65,3.69,2.49,1.51-.65-1.21.88-4,.86-4,.08.15,3.08,2.51,2.45,1.33-1.18-2.23,2.48.26,1.66-1.28,2.77,5.19.82-3,1.51-1.72.14.26,4.07,5.07,3.15,3.33.48.91,4.7,4.71,1.9-.53-1.74-3.27,2.35,0,1.68-1.24-.55-1,3.66,2.78,1.93-.46.52,1,1.66-1,1.91-.52,1.55,2.89-.6-6,1.06-2.91,1.39,2.61,1.92-.72,1.6-1.33,1.06,2,4.7,5.62,3,2.49-1.33-2.49,1.27-2.16,1.35-2-.13-.24,1.5-1.66,1.36-1.93.89,1.67,2.61.27,1.08-2.61.16.3,1-2.11,2-.35-.58-1.1,2.62,1.52,3.15,2.5.21.39.52-3.39,1.43-1.7-.79-1.48,2-.3,2-.35.89,1.67,1.84-1,1.11-2.39-2.06-3.86,3.88,3.46,2.71,1.27-.54-1,.92-2.67,1.22-2.11-1.57-2.93.24-4,.95-2.65-1.19-2.23,5.95,7.54,3.69,3.31,0,0,.81-2.83,1.25-2-.58-1.08.37-3.65,1.07-2.34-.23-.42,4.21,3.8,2.24.11-1.77-3.3,2.52.54,2.36.23.64,1.2-.47-5.3.74-3,.67,1.27,2.59.7,2.71.92.77,1.45,3.17,1.69,1.93-.65,0,0,.89-2.7.91-2.66,2.16,4.05,2-.61.68-3.13-.16-.28,4.49,4.32,3.16,1.83,1.52,2.85.56-3.39.76-3s1.39-1.7,1.75-1c1.63,3,1.14-2.07,2.27,0-.83-1.56,3.68,2.61,1.79-1-1.63-3-.05-4.47,1.49-1.6,2.25,4.23,2.49.66,2.58.82-.74-1.39,3.22,2.27,2.89,1.66.81,1.52.64-3.45,1-2.77-2.24-4.19.85-2.94,1.42-1.86,2.74,5.13,2.36.61,2.44.76-2.22-4.17,1.22-1.69,2.09-.08-.13-.23,1.13-3.06,1-3.35.2.38,2.2-.07,2-.47-1.07-2,1-.93,2.78,2.42-.14-.26,2.67.1,1.49-2.11.53,1,0-3.32,2.28,1-2.19-4.09-.27-5.18,1.59-1.69-3.19-6,1.79.24,2.1.82-1.69-3.16,1-2.54,1.73-1.23-.36-.68.8-3.73,1.65-2.13.72,1.35,2.79,3.68,2.28,2.72-2.7-5.06,1.59-3.51,1.56-3.56,2.68,5,1.46.79,2.14,2.07.81,1.51,2.39-1.87,1.7-3.17-1.49-2.79-2.23-6.46,2.06,1.58,2.79,5.24,3.46,1.77,1.87-1.22.77,1.45,1.37-1.35,1.93-.3-2.11-4,1-1.72,1.94,0-.89-1.67,3.85,6.61,2.08,3.3,1.41,2.63,5,2,1.77-4,.15.28.17-1.33,2,2.14-1.63-3.06,1.78-1.49,1.88-1.31-1.78-3.34.52-1.44,2,1.34-1.9-3.57,1.57-1,1.94-.31,1.29,2.43,1.63.63,2,1.39-.18-.33,2.95,1.5,1.93-.4-.31-.58.8-4.48,1.77-2.66-1-1.91,4.55,4.54,1.92-.37,3.46,6.48,3.83,5.88,2.19,2.81-.67-1.25.56-3.53,1.87-1.07.32.58,3.8,3,1.92-.48.2.37,1.8-.63,1.93-.39-1.14-2.14,2.6,1.42,2,.27-.19-.35,2.2-1.62,1.67-2.6,2.06,3.85,3.69,2.88,1.91-.45-1.54-2.89,2.42,2.53,2.22,2.17,1.58,2.94,1.05-1.62,2,.14.21.39-.06-5.76,1.62-2.61.92,1.73,1-.63,2.18,1.56-.41-.77,4.82,6,2.12.94-.86-1.61,1.17-4.71,1.3-4.47-.57-1.06,1.13-2.26,1.81-1,.18.35,2.24,3.36,2.64,4.12.54,1,1.86-1.57,1.66-2-1-1.94,3.33,3.22,2.16,1-1.8-3.37,1-4.55,1.25-4.07-2.17-4.07,2.13,2.34,2.57,3.16-1.23-2.31-1.1-6.83,1.68-1.63.91,1.71,2.84,2.85,2.4,2,1.11,2.09-.58-6.13,1.57-2.09.78,1.46,0-5.21,1.52-2.26-3.13-5.87,1.09-2.81,1.59-1.87-.51-1,2.19,2.08,2.64,2.93-.12-.22.64-4.86,1.08-4-1.36-2.55,3.54,3.79,2.38,1.61,1.54,2.9-.93-5.64,1.94-.25,1.09,2,3.48,3.92,2.56,2.19-.12-.22,2.88.61,1.54-1.9-1.22-2.29.9-1.62,2.29,1-1.17-2.18.93-4.15.93-4.15-.65-1.21-.23-5.17,1.48-2,1.82,3.42,1-.23,3,3.65-1.7-3.19,3.79,2.75,1.72-1.13-2-3.69,1.13-3.37,1-3.67.71,1.33,1.54-.07,2.58,1.87.28.51,2.9.33,1.14-3,1.75,3.28-2.44-7.89,2.41,1.2,2.62,4.91,1.06-2,2-.3-.43-.81,4.54,4.73,2.12.2-.45-.85.52-4.28.86-3.64,1.42,2.65,5.68,7.31,2.68,1.68-.36-.68,6.1,7,1.77-1.09-2.36-4.42,3.61,2,1.53-1.94.39.72,3.16,3.18,2.88,2.67-2.28-4.28.91-2.41,1.88-.6,1.55,2.9,3.17,2.32,2,.21,0-.1,3.68,1,1.44-3.17-.06-.11.88-1.38,2.15,1,.47.87-.63-5.4,1.95-.56,0,0,1.11-2.81,2.05-1-1.3-2.43,1.77,3.1,1.69,2.94-1.85-3.45,1.66-4.84,2.47-3.32-.34-.65,2.47,3.27,1.6,1.62-1.55-2.89,1,1.4,1.3,2,.41.78,2.65,4.68,1.18,1.91-.44-.81-2.09-12,3-2.4-.6-1.12,1.5-.29,2.21-.3-.74-1.64-1.34-3.11.18-.25.11.19,0,.25-.18.25.45,1,1,2.11,1,2.26,2.26,4.23.56-4,2.41-.52-2.49-4.66,1.79,1,1.71.8a15,15,0,0,1,.08,2.38,2.39,2.39,0,0,1,2.16,1.34c-.8-1.49.78-2.06,2,.21.33.62,0-3.34,2,.39-.22-.41.25.86.66,2,1-.46,6.81,3.76,3.59-2.26,2.3,4.3,2.17,4.86,1.26,3.26,2.34,4.24,2.24,1.53,2.07,0-2.84-6.23,3.46.48,3.54.62-1.77-3.32,2-2,2.29-1.39L666,62.7c-.52-1,1.83.38,1.92.55,1.22,2.29,1.3,1.21,1.76,2.08-.9-1.68.72-2.74,2.07-.2s-1.88-7.08,2,.22c-.78-1.47,1.48-1.58,2-.52-2.44-4.58,1.36-2,2-.77,1.12,2.09,2.66-.68,1.94-2,2.15,4,1.67-.18,2,.38s1.95.53,2,.68c.75,1.4,1.83,1.54,2.27,2.37-.16-.3.46-3.14,2.06-.13-.9-1.69-1.34-7.5,1.83-1.57s3.59,2.11,1.82-1.21c0,.08,4.45,4.57,2.1.18.44.81,2.51-.32,1.53-2.16-4.23-7.92-1.06-6.06,1.93-.45,1.35,2.53,2.91,2.15,2.59,1.56-.71-1.34,4.53,4,1.76-1.17.68,1.28,1.09-2.09,2.12-.17-2.64-4.94.82-3.51.34-4.42,2.1,3.93,1.38-1.39,2.16.06-.42-.78,3.86,3.08,1.86-.67-2.65-5,1.9-.62,2.46.43-.56-1,.4-3.31.28-3.55-1.72-3.21,2.57.78,1.56-1.13-1.22-2.27,4.07,2.63,4.17,2.82s.82-2.17.31-3.11c-4.11-7.71-2.72-8.57.33-2.85-.12-.22,4,3.29,1.7-.95.31.59,3.33,1.64,2.31-.27,5.23,9.79,1.91.37.39-2.47,3.61,6.76,5.44,5.71,2.06-.63,3.48,6.52,1.05-5.9,4.15-.08,1.2,2.26-1.21-2.76,1.2,1.76,5.94,11.12-6.83-8.85-.08,3.8,3.59,6.74,4.08,1,3-1.07.52,1,.76,1.63,1,2.08,3.64,6.83,1.41-.16,1.86.68.35.65,1.44-3.92,3-1.08.71,1.32-1.6,4.11-1,5.3,4.66,8.73,6.08,6.36,2.5-.35-.77-1.44-.88-3.49,1.59,1.14-1-1.79,4.09,2.34,2.58-.5-1.37-2.56.28-4,2.34-.12-.66-1.23.14,4.21,0,3.87,1.77,3.32.64-3.31,2.34-.13,0,.09,1.06,1.86,1.11,2,6.22,11.65,5.21,5.93,2.15.19,1.45,2.72,5.09,2.92,2.92-1.13,3,5.67.15-1.84,1.66,1,3.05,5.72,1.73,2.87,1.19,1.85-5.71-10.71,3.47,2.57,2.16.13-3.66-6.86,4,6.74,1.28,1.68-1.43-2.67.81,1.34,1.14,2a13.12,13.12,0,0,0,2.53,3c-3.87-7.4,1.95-2.64,3.11-1.63-1-3.27,2-.71,2.42.13a12.58,12.58,0,0,1,.95,2.15,2.37,2.37,0,0,1,1.94-.52c.07-.12.21,0,.43.38a.79.79,0,0,0-.43-.38,12.21,12.21,0,0,0,.3,3.43c.11-2.06,2.66-4.65,4-2.12-.11-.22.34,1.1.7,2.25,1,.46,3.61,2.74,2.33.33-.47-.87,2.36,3.44,1.38,1.59.52,1,1.07,2.1,1.41,2.81,1,1,3.52,2.26,1.91-.75,1.79,3.34,1.74,1.91,1.49,1.44,1.6,3,1.79,1.24,1.76.91-.32-.6-.14-.26,0,0h0c.13.26.08.16,0,0a0,0,0,0,0,0,0c.18.35.53,1,1.16,2.19-.25-.46,1.43-.88,2,.25-.18-.33.74-7.17,3.15-2.65.35.64.36-.26.68-.33,0-.4.29-.18,1,1.22-.54-1-.84-1.26-1-1.22a19,19,0,0,0,1.72,5.17c-.53-1,3.89,2.79,2.21-.36.74,1.37.75.77,1.5,2.18.11.21,3.32.2,2.44-1.46,1.11,2.09,3.41,1.6,2.12-.82-1.38-2.6-.89-3.78,1.92,1.48.52,1-3.46-11.55,1.88-1.54.85,1.6,2.87,2.05,2.38,1.12,2.75,5.16-.07-5,1.32-2.34-.72-1.34,3.87,3,1.55-1.35.43.8,4.82,5.21,3,1.78.37.68-2.79-9.58.38-3.64,1.06,2,3.18,1.59,3.47,2.13-5-9.45-2-7.49-.6-4.81,1.3,2.44,2.11-.5,2.68.58-.93-1.75-3.67-10.58.65-2.49-1.18-2.21,4.21,3.92,1.42-1.32,4.66,8.74,4.57,2.82,4.34,2.4-.41-.78.6-2.3.37-2.73s4.38,3.56,2.26-.41c-.29-.55,1-.82-.43-3.49,3.59,6.73,1.45-1.57,1.77-1,2.44,4.56-.41-4,.42-2.4,4.2,7.88,2.7-.8,3.62.92-3.18-6-4.91-11.08-1-3.79,1.26,2.37,2.5-1.51,3.85,1-.5-.93.12-2.29-.23-2.93a5,5,0,0,0,2,.74V0Z"/></g></g></svg>