<svg xmlns="http://www.w3.org/2000/svg" xmlns:xlink="http://www.w3.org/1999/xlink" viewBox="0 0 624.89 162.75"><defs><style>.cls-1,.cls-2,.cls-5{font-size:36px;font-family:DomaineSansText-Medium, Domaine Sans Text;}.cls-1,.cls-4{fill:none;stroke-miterlimit:10;stroke-width:0.25px;}.cls-1{stroke:#0e0f26;}.cls-2{opacity:0.6;fill:#f8ab97;}.cls-3{clip-path:url(#clip-path);}.cls-4{stroke:#231f20;}.cls-5{fill:#f58d79;}.cls-6{fill:#0e0f26;}</style><clipPath id="clip-path"><text class="cls-1" transform="translate(70.91 65.06)">pellegrinanggi sanitari</text></clipPath></defs><title>titolo</title><g id="Livello_2" data-name="Livello 2"><g id="Livello_1-2" data-name="Livello 1"><text class="cls-2" transform="translate(257.16 50.65)">&amp;</text><g class="cls-3"><line class="cls-4" x1="0.09" y1="10.28" x2="152.47" y2="162.66"/><line class="cls-4" x1="2.26" y1="10.28" x2="154.64" y2="162.66"/><line class="cls-4" x1="4.42" y1="10.28" x2="156.8" y2="162.66"/><line class="cls-4" x1="6.59" y1="10.28" x2="158.97" y2="162.66"/><line class="cls-4" x1="8.76" y1="10.28" x2="161.14" y2="162.66"/><line class="cls-4" x1="10.92" y1="10.28" x2="163.3" y2="162.66"/><line class="cls-4" x1="13.09" y1="10.28" x2="165.47" y2="162.66"/><line class="cls-4" x1="15.26" y1="10.28" x2="167.64" y2="162.66"/><line class="cls-4" x1="17.42" y1="10.28" x2="169.8" y2="162.66"/><line class="cls-4" x1="19.59" y1="10.28" x2="171.97" y2="162.66"/><line class="cls-4" x1="21.76" y1="10.28" x2="174.14" y2="162.66"/><line class="cls-4" x1="23.92" y1="10.28" x2="176.3" y2="162.66"/><line class="cls-4" x1="26.09" y1="10.28" x2="178.47" y2="162.66"/><line class="cls-4" x1="28.26" y1="10.28" x2="180.64" y2="162.66"/><line class="cls-4" x1="30.42" y1="10.28" x2="182.8" y2="162.66"/><line class="cls-4" x1="32.59" y1="10.28" x2="184.97" y2="162.66"/><line class="cls-4" x1="34.76" y1="10.28" x2="187.14" y2="162.66"/><line class="cls-4" x1="36.92" y1="10.28" x2="189.3" y2="162.66"/><line class="cls-4" x1="39.09" y1="10.28" x2="191.47" y2="162.66"/><line class="cls-4" x1="41.26" y1="10.28" x2="193.64" y2="162.66"/><line class="cls-4" x1="43.42" y1="10.28" x2="195.8" y2="162.66"/><line class="cls-4" x1="45.59" y1="10.28" x2="197.97" y2="162.66"/><line class="cls-4" x1="47.76" y1="10.28" x2="200.14" y2="162.66"/><line class="cls-4" x1="49.92" y1="10.28" x2="202.3" y2="162.66"/><line class="cls-4" x1="52.09" y1="10.28" x2="204.47" y2="162.66"/><line class="cls-4" x1="54.26" y1="10.28" x2="206.64" y2="162.66"/><line class="cls-4" x1="56.42" y1="10.28" x2="208.8" y2="162.66"/><line class="cls-4" x1="58.59" y1="10.28" x2="210.97" y2="162.66"/><line class="cls-4" x1="60.76" y1="10.28" x2="213.14" y2="162.66"/><line class="cls-4" x1="62.92" y1="10.28" x2="215.3" y2="162.66"/><line class="cls-4" x1="65.09" y1="10.28" x2="217.47" y2="162.66"/><line class="cls-4" x1="67.26" y1="10.28" x2="219.64" y2="162.66"/><line class="cls-4" x1="69.42" y1="10.28" x2="221.8" y2="162.66"/><line class="cls-4" x1="71.59" y1="10.28" x2="223.97" y2="162.66"/><line class="cls-4" x1="73.76" y1="10.28" x2="226.14" y2="162.66"/><line class="cls-4" x1="75.92" y1="10.28" x2="228.3" y2="162.66"/><line class="cls-4" x1="78.09" y1="10.28" x2="230.47" y2="162.66"/><line class="cls-4" x1="80.26" y1="10.28" x2="232.64" y2="162.66"/><line class="cls-4" x1="82.42" y1="10.28" x2="234.8" y2="162.66"/><line class="cls-4" x1="84.59" y1="10.28" x2="236.97" y2="162.66"/><line class="cls-4" x1="86.76" y1="10.28" x2="239.14" y2="162.66"/><line class="cls-4" x1="88.92" y1="10.28" x2="241.3" y2="162.66"/><line class="cls-4" x1="91.09" y1="10.28" x2="243.47" y2="162.66"/><line class="cls-4" x1="93.26" y1="10.28" x2="245.64" y2="162.66"/><line class="cls-4" x1="95.42" y1="10.28" x2="247.8" y2="162.66"/><line class="cls-4" x1="97.59" y1="10.28" x2="249.97" y2="162.66"/><line class="cls-4" x1="99.76" y1="10.28" x2="252.14" y2="162.66"/><line class="cls-4" x1="101.92" y1="10.28" x2="254.3" y2="162.66"/><line class="cls-4" x1="104.09" y1="10.28" x2="256.47" y2="162.66"/><line class="cls-4" x1="106.26" y1="10.28" x2="258.64" y2="162.66"/><line class="cls-4" x1="108.42" y1="10.28" x2="260.8" y2="162.66"/><line class="cls-4" x1="110.59" y1="10.28" x2="262.97" y2="162.66"/><line class="cls-4" x1="112.76" y1="10.28" x2="265.14" y2="162.66"/><line class="cls-4" x1="114.92" y1="10.28" x2="267.3" y2="162.66"/><line class="cls-4" x1="117.09" y1="10.28" x2="269.47" y2="162.66"/><line class="cls-4" x1="119.26" y1="10.28" x2="271.64" y2="162.66"/><line class="cls-4" x1="121.42" y1="10.28" x2="273.8" y2="162.66"/><line class="cls-4" x1="123.59" y1="10.28" x2="275.97" y2="162.66"/><line class="cls-4" x1="125.76" y1="10.28" x2="278.14" y2="162.66"/><line class="cls-4" x1="127.92" y1="10.28" x2="280.3" y2="162.66"/><line class="cls-4" x1="130.09" y1="10.28" x2="282.47" y2="162.66"/><line class="cls-4" x1="132.26" y1="10.28" x2="284.64" y2="162.66"/><line class="cls-4" x1="134.42" y1="10.28" x2="286.8" y2="162.66"/><line class="cls-4" x1="136.59" y1="10.28" x2="288.97" y2="162.66"/><line class="cls-4" x1="138.76" y1="10.28" x2="291.14" y2="162.66"/><line class="cls-4" x1="140.92" y1="10.28" x2="293.3" y2="162.66"/><line class="cls-4" x1="143.09" y1="10.28" x2="295.47" y2="162.66"/><line class="cls-4" x1="145.26" y1="10.28" x2="297.64" y2="162.66"/><line class="cls-4" x1="147.42" y1="10.28" x2="299.8" y2="162.66"/><line class="cls-4" x1="149.59" y1="10.28" x2="301.97" y2="162.66"/><line class="cls-4" x1="151.76" y1="10.28" x2="304.14" y2="162.66"/><line class="cls-4" x1="153.92" y1="10.28" x2="306.3" y2="162.66"/><line class="cls-4" x1="156.09" y1="10.28" x2="308.47" y2="162.66"/><line class="cls-4" x1="158.26" y1="10.28" x2="310.64" y2="162.66"/><line class="cls-4" x1="160.42" y1="10.28" x2="312.8" y2="162.66"/><line class="cls-4" x1="162.59" y1="10.28" x2="314.97" y2="162.66"/><line class="cls-4" x1="164.76" y1="10.28" x2="317.14" y2="162.66"/><line class="cls-4" x1="166.92" y1="10.28" x2="319.3" y2="162.66"/><line class="cls-4" x1="169.09" y1="10.28" x2="321.47" y2="162.66"/><line class="cls-4" x1="171.26" y1="10.28" x2="323.64" y2="162.66"/><line class="cls-4" x1="173.42" y1="10.28" x2="325.8" y2="162.66"/><line class="cls-4" x1="175.59" y1="10.28" x2="327.97" y2="162.66"/><line class="cls-4" x1="177.76" y1="10.28" x2="330.14" y2="162.66"/><line class="cls-4" x1="179.92" y1="10.28" x2="332.3" y2="162.66"/><line class="cls-4" x1="182.09" y1="10.28" x2="334.47" y2="162.66"/><line class="cls-4" x1="184.26" y1="10.28" x2="336.64" y2="162.66"/><line class="cls-4" x1="186.42" y1="10.28" x2="338.8" y2="162.66"/><line class="cls-4" x1="188.59" y1="10.28" x2="340.97" y2="162.66"/><line class="cls-4" x1="190.76" y1="10.28" x2="343.14" y2="162.66"/><line class="cls-4" x1="192.92" y1="10.28" x2="345.3" y2="162.66"/><line class="cls-4" x1="195.09" y1="10.28" x2="347.47" y2="162.66"/><line class="cls-4" x1="197.26" y1="10.28" x2="349.64" y2="162.66"/><line class="cls-4" x1="199.42" y1="10.28" x2="351.8" y2="162.66"/><line class="cls-4" x1="201.59" y1="10.28" x2="353.97" y2="162.66"/><line class="cls-4" x1="203.76" y1="10.28" x2="356.14" y2="162.66"/><line class="cls-4" x1="205.92" y1="10.28" x2="358.3" y2="162.66"/><line class="cls-4" x1="208.09" y1="10.28" x2="360.47" y2="162.66"/><line class="cls-4" x1="210.26" y1="10.28" x2="362.64" y2="162.66"/><line class="cls-4" x1="212.42" y1="10.28" x2="364.8" y2="162.66"/><line class="cls-4" x1="214.59" y1="10.28" x2="366.97" y2="162.66"/><line class="cls-4" x1="216.76" y1="10.28" x2="369.14" y2="162.66"/><line class="cls-4" x1="218.92" y1="10.28" x2="371.3" y2="162.66"/><line class="cls-4" x1="221.09" y1="10.28" x2="373.47" y2="162.66"/><line class="cls-4" x1="223.26" y1="10.28" x2="375.64" y2="162.66"/><line class="cls-4" x1="225.42" y1="10.28" x2="377.8" y2="162.66"/><line class="cls-4" x1="227.59" y1="10.28" x2="379.97" y2="162.66"/><line class="cls-4" x1="229.76" y1="10.28" x2="382.14" y2="162.66"/><line class="cls-4" x1="231.92" y1="10.28" x2="384.3" y2="162.66"/><line class="cls-4" x1="234.09" y1="10.28" x2="386.47" y2="162.66"/><line class="cls-4" x1="236.26" y1="10.28" x2="388.64" y2="162.66"/><line class="cls-4" x1="238.42" y1="10.28" x2="390.8" y2="162.66"/><line class="cls-4" x1="240.59" y1="10.28" x2="392.97" y2="162.66"/><line class="cls-4" x1="242.76" y1="10.28" x2="395.14" y2="162.66"/><line class="cls-4" x1="244.92" y1="10.28" x2="397.3" y2="162.66"/><line class="cls-4" x1="247.09" y1="10.28" x2="399.47" y2="162.66"/><line class="cls-4" x1="249.26" y1="10.28" x2="401.64" y2="162.66"/><line class="cls-4" x1="251.42" y1="10.28" x2="403.8" y2="162.66"/><line class="cls-4" x1="253.59" y1="10.28" x2="405.97" y2="162.66"/><line class="cls-4" x1="255.76" y1="10.28" x2="408.14" y2="162.66"/><line class="cls-4" x1="257.92" y1="10.28" x2="410.3" y2="162.66"/><line class="cls-4" x1="260.09" y1="10.28" x2="412.47" y2="162.66"/><line class="cls-4" x1="262.26" y1="10.28" x2="414.64" y2="162.66"/><line class="cls-4" x1="264.42" y1="10.28" x2="416.8" y2="162.66"/><line class="cls-4" x1="266.59" y1="10.28" x2="418.97" y2="162.66"/><line class="cls-4" x1="268.76" y1="10.28" x2="421.14" y2="162.66"/><line class="cls-4" x1="270.92" y1="10.28" x2="423.3" y2="162.66"/><line class="cls-4" x1="273.09" y1="10.28" x2="425.47" y2="162.66"/><line class="cls-4" x1="275.26" y1="10.28" x2="427.64" y2="162.66"/><line class="cls-4" x1="277.42" y1="10.28" x2="429.8" y2="162.66"/><line class="cls-4" x1="279.59" y1="10.28" x2="431.97" y2="162.66"/><line class="cls-4" x1="281.76" y1="10.28" x2="434.14" y2="162.66"/><line class="cls-4" x1="283.92" y1="10.28" x2="436.3" y2="162.66"/><line class="cls-4" x1="286.09" y1="10.28" x2="438.47" y2="162.66"/><line class="cls-4" x1="288.26" y1="10.28" x2="440.64" y2="162.66"/><line class="cls-4" x1="290.42" y1="10.28" x2="442.8" y2="162.66"/><line class="cls-4" x1="292.59" y1="10.28" x2="444.97" y2="162.66"/><line class="cls-4" x1="294.76" y1="10.28" x2="447.14" y2="162.66"/><line class="cls-4" x1="296.92" y1="10.28" x2="449.3" y2="162.66"/><line class="cls-4" x1="299.09" y1="10.28" x2="451.47" y2="162.66"/><line class="cls-4" x1="301.26" y1="10.28" x2="453.64" y2="162.66"/><line class="cls-4" x1="303.42" y1="10.28" x2="455.8" y2="162.66"/><line class="cls-4" x1="305.59" y1="10.28" x2="457.97" y2="162.66"/><line class="cls-4" x1="307.76" y1="10.28" x2="460.14" y2="162.66"/><line class="cls-4" x1="309.92" y1="10.28" x2="462.3" y2="162.66"/><line class="cls-4" x1="312.09" y1="10.28" x2="464.47" y2="162.66"/><line class="cls-4" x1="314.26" y1="10.28" x2="466.64" y2="162.66"/><line class="cls-4" x1="316.42" y1="10.28" x2="468.8" y2="162.66"/><line class="cls-4" x1="318.59" y1="10.28" x2="470.97" y2="162.66"/><line class="cls-4" x1="320.76" y1="10.28" x2="473.14" y2="162.66"/><line class="cls-4" x1="322.92" y1="10.28" x2="475.3" y2="162.66"/><line class="cls-4" x1="325.09" y1="10.28" x2="477.47" y2="162.66"/><line class="cls-4" x1="327.26" y1="10.28" x2="479.64" y2="162.66"/><line class="cls-4" x1="329.42" y1="10.28" x2="481.8" y2="162.66"/><line class="cls-4" x1="331.59" y1="10.28" x2="483.97" y2="162.66"/><line class="cls-4" x1="333.76" y1="10.28" x2="486.14" y2="162.66"/><line class="cls-4" x1="335.92" y1="10.28" x2="488.3" y2="162.66"/><line class="cls-4" x1="338.09" y1="10.28" x2="490.47" y2="162.66"/><line class="cls-4" x1="340.26" y1="10.28" x2="492.64" y2="162.66"/><line class="cls-4" x1="342.42" y1="10.28" x2="494.8" y2="162.66"/><line class="cls-4" x1="344.59" y1="10.28" x2="496.97" y2="162.66"/><line class="cls-4" x1="346.76" y1="10.28" x2="499.14" y2="162.66"/><line class="cls-4" x1="348.92" y1="10.28" x2="501.3" y2="162.66"/><line class="cls-4" x1="351.09" y1="10.28" x2="503.47" y2="162.66"/><line class="cls-4" x1="353.26" y1="10.28" x2="505.64" y2="162.66"/><line class="cls-4" x1="355.42" y1="10.28" x2="507.8" y2="162.66"/><line class="cls-4" x1="357.59" y1="10.28" x2="509.97" y2="162.66"/><line class="cls-4" x1="359.76" y1="10.28" x2="512.14" y2="162.66"/><line class="cls-4" x1="361.92" y1="10.28" x2="514.3" y2="162.66"/><line class="cls-4" x1="364.09" y1="10.28" x2="516.47" y2="162.66"/><line class="cls-4" x1="366.26" y1="10.28" x2="518.64" y2="162.66"/><line class="cls-4" x1="368.42" y1="10.28" x2="520.8" y2="162.66"/><line class="cls-4" x1="370.59" y1="10.28" x2="522.97" y2="162.66"/><line class="cls-4" x1="372.76" y1="10.28" x2="525.14" y2="162.66"/><line class="cls-4" x1="374.92" y1="10.28" x2="527.3" y2="162.66"/><line class="cls-4" x1="377.09" y1="10.28" x2="529.47" y2="162.66"/><line class="cls-4" x1="379.26" y1="10.28" x2="531.64" y2="162.66"/><line class="cls-4" x1="381.42" y1="10.28" x2="533.8" y2="162.66"/><line class="cls-4" x1="383.59" y1="10.28" x2="535.97" y2="162.66"/><line class="cls-4" x1="385.76" y1="10.28" x2="538.14" y2="162.66"/><line class="cls-4" x1="387.92" y1="10.28" x2="540.3" y2="162.66"/><line class="cls-4" x1="390.09" y1="10.28" x2="542.47" y2="162.66"/><line class="cls-4" x1="392.26" y1="10.28" x2="544.64" y2="162.66"/><line class="cls-4" x1="394.42" y1="10.28" x2="546.8" y2="162.66"/><line class="cls-4" x1="396.59" y1="10.28" x2="548.97" y2="162.66"/><line class="cls-4" x1="398.76" y1="10.28" x2="551.14" y2="162.66"/><line class="cls-4" x1="400.92" y1="10.28" x2="553.3" y2="162.66"/><line class="cls-4" x1="403.09" y1="10.28" x2="555.47" y2="162.66"/><line class="cls-4" x1="405.26" y1="10.28" x2="557.64" y2="162.66"/><line class="cls-4" x1="407.42" y1="10.28" x2="559.8" y2="162.66"/><line class="cls-4" x1="409.59" y1="10.28" x2="561.97" y2="162.66"/><line class="cls-4" x1="411.76" y1="10.28" x2="564.14" y2="162.66"/><line class="cls-4" x1="413.92" y1="10.28" x2="566.3" y2="162.66"/><line class="cls-4" x1="416.09" y1="10.28" x2="568.47" y2="162.66"/><line class="cls-4" x1="418.26" y1="10.28" x2="570.64" y2="162.66"/><line class="cls-4" x1="420.42" y1="10.28" x2="572.8" y2="162.66"/><line class="cls-4" x1="422.59" y1="10.28" x2="574.97" y2="162.66"/><line class="cls-4" x1="424.76" y1="10.28" x2="577.14" y2="162.66"/><line class="cls-4" x1="426.92" y1="10.28" x2="579.3" y2="162.66"/><line class="cls-4" x1="429.09" y1="10.28" x2="581.47" y2="162.66"/><line class="cls-4" x1="431.26" y1="10.28" x2="583.64" y2="162.66"/><line class="cls-4" x1="433.42" y1="10.28" x2="585.8" y2="162.66"/><line class="cls-4" x1="435.59" y1="10.28" x2="587.97" y2="162.66"/><line class="cls-4" x1="437.76" y1="10.28" x2="590.14" y2="162.66"/><line class="cls-4" x1="439.92" y1="10.28" x2="592.3" y2="162.66"/><line class="cls-4" x1="442.09" y1="10.28" x2="594.47" y2="162.66"/><line class="cls-4" x1="444.26" y1="10.28" x2="596.64" y2="162.66"/><line class="cls-4" x1="446.42" y1="10.28" x2="598.8" y2="162.66"/><line class="cls-4" x1="448.59" y1="10.28" x2="600.97" y2="162.66"/><line class="cls-4" x1="450.76" y1="10.28" x2="603.14" y2="162.66"/><line class="cls-4" x1="452.92" y1="10.28" x2="605.3" y2="162.66"/><line class="cls-4" x1="455.09" y1="10.28" x2="607.47" y2="162.66"/><line class="cls-4" x1="457.26" y1="10.28" x2="609.64" y2="162.66"/><line class="cls-4" x1="459.42" y1="10.28" x2="611.8" y2="162.66"/><line class="cls-4" x1="461.59" y1="10.28" x2="613.97" y2="162.66"/><line class="cls-4" x1="463.76" y1="10.28" x2="616.14" y2="162.66"/><line class="cls-4" x1="465.92" y1="10.28" x2="618.3" y2="162.66"/><line class="cls-4" x1="468.09" y1="10.28" x2="620.47" y2="162.66"/><line class="cls-4" x1="470.26" y1="10.28" x2="622.64" y2="162.66"/><line class="cls-4" x1="472.42" y1="10.28" x2="624.8" y2="162.66"/></g><text class="cls-5" transform="translate(70.39 30.6)">Obiezione<tspan class="cls-6" x="180.21" y="0"> </tspan><tspan x="190.83" y="0">di coscienza</tspan></text></g></g></svg>